<svg xmlns="http://www.w3.org/2000/svg" xmlns:xlink="http://www.w3.org/1999/xlink" width="1681" height="1151" viewBox="0 0 1681 1151">
  <defs>
    <clipPath id="clip-path">
      <rect id="Rectangle_191" data-name="Rectangle 191" width="1681" height="1151" transform="translate(-0.836 -66.329)" fill="#d3c29f"/>
    </clipPath>
  </defs>
  <g id="Group_1134" data-name="Group 1134" transform="translate(0.836 66.329)">
    <g id="Mask_Group_19" data-name="Mask Group 19" clip-path="url(#clip-path)">
      <rect id="Rectangle_120" data-name="Rectangle 120" width="1681" height="1151" transform="translate(-0.836 -66.329)" fill="#d3c29f"/>
      <path id="Path_1110" data-name="Path 1110" d="M1461.508,725.671h-309.2A112.413,112.413,0,0,1,1040.752,627.1L888.549-599.928a112.412,112.412,0,0,1,32.07-93.326L1220.768-993.4a112.413,112.413,0,0,1,158.976,0l295.59,295.59a112.414,112.414,0,0,1,32.262,91.678L1573.258,625.448A112.412,112.412,0,0,1,1461.508,725.671Z" fill="#ffedbe"/>
      <path id="Path_1111" data-name="Path 1111" d="M168.508,725.671h-309.2A112.413,112.413,0,0,1-252.248,627.1l-152.2-1227.025a112.412,112.412,0,0,1,32.07-93.326L-72.232-993.4a112.413,112.413,0,0,1,158.976,0l295.59,295.59A112.415,112.415,0,0,1,414.6-606.136L280.258,625.448A112.411,112.411,0,0,1,168.508,725.671Z" fill="#ffedbe"/>
      <rect id="Rectangle_121" data-name="Rectangle 121" width="441" height="96" rx="23.751" transform="translate(436.164 148.671)" fill="#bcac8f"/>
      <path id="Path_1112" data-name="Path 1112" d="M483.164,211.671v-41h29v166c-19,29-53-22-52-38s4-82,4-82Z" fill="#726859"/>
      <path id="Path_1113" data-name="Path 1113" d="M568.59,187.228c-.353,31.913-1.368,118.393-2.034,120.746-13.709,11.708-20.758,51.284,20.564,41.159s10.353-36.562.041-40.521-2.982-99.58-10.714-116.32l-2.833-6.134A2.633,2.633,0,0,0,568.59,187.228Z" fill="#726859"/>
      <path id="Path_1114" data-name="Path 1114" d="M693.312,195.536l-53.1-3.824a3.96,3.96,0,0,0-4.229,4.306l12.656,140.351a3.96,3.96,0,0,0,3.66,3.594l64.42,4.64a3.96,3.96,0,0,0,4.189-4.613L696.932,198.823A3.959,3.959,0,0,0,693.312,195.536Zm-18.148,30.135c-8,1-18,3-20-5-2.83-11.318,12.13-11.071,21.391-11.007a5.9,5.9,0,0,1-1.391-.993l.012.012a3.706,3.706,0,0,0,2.611.988h.377c-.511,0-1.051,0-1.609-.007,2.082,1.124,4.808,1.6,5.609,4.007C684.164,218.671,680.164,224.671,675.164,225.671Z" fill="#726859"/>
      <path id="Path_1115" data-name="Path 1115" d="M815.511,185.316c-1.332,51.245-3.585,96.154-2.46,98.4,2.579,5.158,5.158,51.581-5.158,54.16s2.579-46.423-5.158-41.265-2.579,41.265-10.317,41.265S789.839,286.3,782.1,291.457c0,0,2.579,54.161-12.9,49s7.737-77.372,23.211-95.426c4.966-5.793,4.139-29.834,7.5-59.374C801.164,174.671,815.858,171.96,815.511,185.316Z" fill="#726859"/>
      <path id="Path_1116" data-name="Path 1116" d="M-392.716-635.494l-715.12,1726.53,1922.185,3.086L426.422-635.494Z" fill="#fce6c3" opacity="0.22"/>
      <path id="Path_1117" data-name="Path 1117" d="M890.284-638.494l-715.12,1726.53,1922.185,3.086L1709.422-638.494Z" transform="translate(2 1)" fill="#fce6c3" opacity="0.22"/>
    </g>
  </g>
</svg>
