<svg xmlns="http://www.w3.org/2000/svg" width="1848.024" height="8046.543" viewBox="0 0 1848.024 8046.543">
  <g id="Group_1005" data-name="Group 1005" transform="translate(63.776 91.603)">
    <g id="achtergrond_illustraties" data-name="achtergrond illustraties" transform="translate(78 5000.595)">
      <path id="Path_114" data-name="Path 114" d="M1.2,0A1.16,1.16,0,0,0,.121,1.661C.91,3.238,3.172,4.418,4.48,6.976c.191.374,6.453,9.327,6.7,9.819,22.077,43.178,97.77,194.1,93.1,202.636-5.108,9.349-14.755,9.9-7.945,19.248s30.079,31.347,55.617,20.9,32.916-33.547,28.376-50.6c-3.815-14.326-39.687-1.858-56.1,2.816a8.014,8.014,0,0,1-9.494-4.267C93.2,160.4,31.467,29.148,11.184,6.976,10.794,6.268,6.4,2.59,6.08,2A3.934,3.934,0,0,0,2.624,0Z" transform="matrix(-0.545, -0.839, 0.839, -0.545, 1009.628, 1043.833)" fill="none" stroke="#fff" stroke-miterlimit="10" stroke-width="9" opacity="0.481"/>
      <path id="Path_1821" data-name="Path 1821" d="M38.19,349.752c5.857,0,5.857-1.464,4.393,5.858a74.779,74.779,0,0,0-1.464,13.18H57.227s2.93-14.645,1.465-17.573,8.787,1.464,23.432-8.787,26.36-24.9,7.323-43.934c1.464-16.109-2.929-23.431-2.929-23.431V258.956C76.266,242.847,71.873,166.7,73.337,153.515s11.716-48.327,16.109-49.792,0-10.251,0-10.251,7.322-11.716,1.464-20.5,2.93-8.787,1.465-23.431,1.465-24.9,1.465-24.9C87.981,4.14,46.977-13.433,13.294,14.392,5.972,27.572,11.83,45.145,11.83,45.145c-5.858,10.251,8.786,19.038,4.394,24.9S5.972,92.008,8.9,94.937s24.9,42.469,19.037,89.332S25.01,247.24,14.759,260.42c0,0-4.394,7.322-1.465,11.716s-1.464,13.18-1.464,20.5S-1.351,304.354.114,319,17.687,348.288,38.19,349.752Z" transform="matrix(-0.438, -0.899, 0.899, -0.438, 1114.211, 2948.321)" fill="none" stroke="#fdfdfd" stroke-miterlimit="10" stroke-width="9" opacity="0.5"/>
      <g id="Group_103" data-name="Group 103" transform="translate(825.083 344.218) rotate(-149)" opacity="0.472">
        <path id="Path_115" data-name="Path 115" d="M1.046,119.492c-3.437,130.6,123.726,127.163,137.473,127.163s89.358-24.058,96.232-44.679,6.873-37.8,3.436-44.679,0,0,6.874-6.874,20.622-34.368,6.874-68.737S152.267-42.039,59.472,23.261C-12.7,78.25,1.046,119.492,1.046,119.492Z" transform="translate(0 0)" fill="none" stroke="#fff" stroke-miterlimit="10" stroke-width="9"/>
        <path id="Path_116" data-name="Path 116" d="M0,17.184c0,6.874,3.437,17.184,3.437,17.184L37.8,27.495,27.495,0,3.437,3.437Z" transform="translate(42.288 37.008)" fill="none" stroke="#fff" stroke-linecap="round" stroke-linejoin="round" stroke-width="9"/>
        <path id="Path_117" data-name="Path 117" d="M0,20.621,10.31,0,30.931,6.874l10.31,3.437s0,24.058-13.747,24.058S0,20.621,0,20.621Z" transform="translate(109.307 45.6)" fill="none" stroke="#fff" stroke-linecap="round" stroke-linejoin="round" stroke-width="9"/>
        <path id="Path_118" data-name="Path 118" d="M13.748,0S3.437,3.437,3.437,6.874,0,27.495,0,27.495s24.059,13.747,27.495,10.31l6.874-6.874,3.437-20.621Z" transform="translate(171.17 79.969)" fill="none" stroke="#fff" stroke-linecap="round" stroke-linejoin="round" stroke-width="9"/>
        <path id="Path_119" data-name="Path 119" d="M27.495,0,0,13.747l6.874,10.31L17.185,37.806,41.243,27.495l3.437-6.873Z" transform="translate(184.917 165.89)" fill="none" stroke="#fff" stroke-linecap="round" stroke-linejoin="round" stroke-width="9"/>
        <path id="Path_120" data-name="Path 120" d="M13.747,0,0,20.62,24.057,37.8,41.242,17.184Z" transform="translate(71.501 107.463)" fill="none" stroke="#fff" stroke-linecap="round" stroke-linejoin="round" stroke-width="9"/>
        <path id="Path_121" data-name="Path 121" d="M20.62,0,0,10.311,10.31,34.369,17.183,27.5,10.31,20.621,20.62,27.5l13.748-6.874Z" transform="translate(23.386 114.337)" fill="none" stroke="#fff" stroke-linecap="round" stroke-linejoin="round" stroke-width="9"/>
        <path id="Path_122" data-name="Path 122" d="M24.058,0,0,13.748l3.437,10.31L20.621,37.806,37.8,24.058l3.437-6.874Z" transform="translate(50.88 189.947)" fill="none" stroke="#fff" stroke-linecap="round" stroke-linejoin="round" stroke-width="9"/>
      </g>
      <g id="Group_102" data-name="Group 102" transform="translate(0 914.946)" opacity="0.459">
        <path id="Path_109" data-name="Path 109" d="M1922.124,1010.993C1909,1022.71,1909,1030.209,1909,1030.209l22.966,19.685a83.675,83.675,0,0,0,14.53-9.374c8.437-6.562,55.072-65.852,61.165-71.476s32.809-16.873,32.809-16.873c-15.936-11.249-21.294-8.455-32.809-6.093C1989.381,949.828,1922.124,1010.993,1922.124,1010.993Z" transform="translate(-1854.364 -943.942)" fill="none" stroke="#fff" stroke-linecap="round" stroke-linejoin="round" stroke-width="9"/>
        <path id="Path_110" data-name="Path 110" d="M1958.5,1059.457c5.156,5.156,37.5,28.59,43.12,29.059s10.311-5.156,13.592-2.812,59.525,47.338,64.212,50.619,13.592,2.344,17.342-1.875,10.311-6.093,21.56-30.934,20.154-45.464,19.217-52.494-45.464-65.618-70.773-89.521" transform="translate(-1880.663 -953.271)" fill="none" stroke="#fff" stroke-linecap="round" stroke-linejoin="round" stroke-width="9"/>
        <path id="Path_111" data-name="Path 111" d="M1875.422,1179.5c-6.8,6.8-24.841,30.934-24.841,30.934l-7.5,9.374-9.843-7.5c-8.437,5.624-39.839,40.308-40.777,50.619s18.571,17.959,19.217,17.81c6.093-1.406,37.5-30,41.714-52.494-8.437-6.093-10.311-8.437-10.311-8.437" transform="translate(-1792.43 -1069.095)" fill="none" stroke="#fff" stroke-linecap="round" stroke-linejoin="round" stroke-width="9"/>
        <path id="Path_112" data-name="Path 112" d="M1896.138,1198.4c-3.245,2.859-31.367,40.354-31.367,40.354s10.311,2.344,10.311,6.562-23.9,54.838-42.651,54.838-23.435-16.4-22.966-17.342,36.558-53.9,46.4-51.557" transform="translate(-1801.464 -1079.137)" fill="none" stroke="#fff" stroke-linecap="round" stroke-linejoin="round" stroke-width="9"/>
        <path id="Path_113" data-name="Path 113" d="M1809.5,1319.975c.469-.937,36.074-53.832,45.932-51.556,6.093,1.406,9.374,7.5,9.374,7.5" transform="translate(-1801.499 -1116.3)" fill="none" stroke="#fff" stroke-linecap="round" stroke-linejoin="round" stroke-width="9"/>
      </g>
      <path id="Path_1809" data-name="Path 1809" d="M4108,194c-6,21,51,127,58,130s9-11,21-5,37,58,37,58-3.5,12.5,3.5,14.5,25,5,26-4-2-16-18-37S4108,194,4108,194Z" transform="translate(-2681.837 3296.047) rotate(-29)" fill="none" stroke="#fcfcfc" stroke-linejoin="round" stroke-miterlimit="10" stroke-width="9" opacity="0.487"/>
      <g id="Group_559" data-name="Group 559" transform="translate(-3527 144.406)" opacity="0.5">
        <circle id="Ellipse_271" data-name="Ellipse 271" cx="154.5" cy="154.5" r="154.5" transform="translate(4895 200)" fill="none" stroke="#fdfdfd" stroke-miterlimit="10" stroke-width="9"/>
        <path id="Path_1797" data-name="Path 1797" d="M4988.5,282.909c0-8.778,19.313-42.136,26.336-40.381S4988.5,282.909,4988.5,282.909Z" transform="translate(70.656 32.088)" fill="none" stroke="#fdfdfd" stroke-miterlimit="10" stroke-width="9"/>
        <path id="Path_1798" data-name="Path 1798" d="M4983.665,278.94c-10.533-12.29-43.892-22.824-42.136-14.045S4983.665,278.94,4983.665,278.94Z" transform="translate(35.11 46.591)" fill="none" stroke="#fdfdfd" stroke-miterlimit="10" stroke-width="9"/>
        <path id="Path_1799" data-name="Path 1799" d="M4984.375,294.99c2.781-9.037-31.6,38.625-29.847,42.136S4977.352,317.814,4984.375,294.99Z" transform="translate(44.935 70.922)" fill="none" stroke="#fdfdfd" stroke-miterlimit="10" stroke-width="9"/>
        <path id="Path_1800" data-name="Path 1800" d="M4988.71,302.115c-6.7-10.885,0,43.892,5.268,45.648S5002.756,324.939,4988.71,302.115Z" transform="translate(68.69 76.086)" fill="none" stroke="#fdfdfd" stroke-miterlimit="10" stroke-width="9"/>
        <path id="Path_1801" data-name="Path 1801" d="M4999.016,286.5c21.36,0,47.4,12.29,40.381,21.068S4990.237,286.5,4999.016,286.5Z" transform="translate(77.697 65.366)" fill="none" stroke="#fdfdfd" stroke-miterlimit="10" stroke-width="9"/>
        <path id="Path_1802" data-name="Path 1802" d="M4974.012,241.464c8.778-10.534,31.6-29.847,54.426-24.58s63.205,7.023,70.228,8.778,10.534,17.557,19.313,21.068S5137.29,267.8,5137.29,267.8s7.022,21.068,12.29,24.58,19.313,12.29,19.313,21.068,0,68.472-17.557,98.318-49.159,42.136-54.427,45.648-33.357,21.068-59.692,15.8-24.58,5.267-52.671-8.778-64.96-40.381-66.716-52.67,10.534-10.534,5.267-26.335-12.289-15.8-12.289-28.091-8.778-29.847,3.511-43.892,22.824-38.625,28.091-43.892S4974.012,241.464,4974.012,241.464Z" transform="translate(9.65 12.084)" fill="none" stroke="#fdfdfd" stroke-miterlimit="10" stroke-width="9"/>
      </g>
      <path id="Path_1803" data-name="Path 1803" d="M4677,260c5.1-10.2,2-54-48-66-45,2-32,60,23,74,28,4,28,9,28,9s32,31,56,60,51,58,55,58,23-5,28-11-4-9-12-14-67-49-75-64C4718,294,4683,262,4677,260Z" transform="translate(-4673.796 1354.406)" fill="none" stroke="#fdfdfd" stroke-miterlimit="10" stroke-width="9" opacity="0.509"/>
      <g id="Group_560" data-name="Group 560" transform="matrix(0.588, -0.809, 0.809, 0.588, 1381.108, 2260.848)" opacity="0.49">
        <path id="Path_1804" data-name="Path 1804" d="M18.379,115.488c3.143,7.334,12.574,60.771,14.669,63.915s28.29,38.768,81.727,35.625,89.062-14.669,95.348-27.242,15.717-67.058,20.955-72.3,27.243-8.382,6.286-41.911c-15.717-19.908-22-13.621-29.338-24.1s-22-26.195-28.29-28.29-4.191-7.334-6.287-8.382-22-10.478-25.147-6.287,1.048-4.191-10.478-6.287S78.1,10.71,68.673,18.045,35.144,35.857,29.905,45.287,16.284,68.338,8.949,71.482-4.672,94.533,4.758,102.915,18.379,115.488,18.379,115.488Z" transform="translate(0 0)" fill="none" stroke="#fdfdfd" stroke-miterlimit="10" stroke-width="9"/>
        <path id="Path_1805" data-name="Path 1805" d="M1.811,1.863c-2.1,9.43-5.239,9.43,9.43,16.765s18.86,4.191,19.908,0,0-12.573-7.335-16.765S1.811,1.863,1.811,1.863Z" transform="translate(92.008 45.52)" fill="none" stroke="#fdfdfd" stroke-miterlimit="10" stroke-width="9"/>
        <path id="Path_1806" data-name="Path 1806" d="M0,26.111c4.191-5.239,10.478-11.526,11.526-10.478s4.191-8.382,8.382-13.621S47.15,3.06,50.294,6.2,34.577,9.347,31.433,12.49,27.242,26.111,20.956,26.111Z" transform="translate(66.577 5.555)" fill="none" stroke="#fdfdfd" stroke-miterlimit="10" stroke-width="9"/>
        <path id="Path_1807" data-name="Path 1807" d="M0,11.547c4.191,6.287,8.382,17.812,8.382,17.812S17.813,37.742,22,32.5s5.239-13.621,4.191-16.765S18.86,6.308,10.478,1.069,0,11.547,0,11.547Z" transform="translate(162.973 23.262)" fill="none" stroke="#fdfdfd" stroke-miterlimit="10" stroke-width="9"/>
        <path id="Path_1808" data-name="Path 1808" d="M40.219,0C33.356,15.072,30.282,46.913,0,75.967" transform="matrix(0.485, 0.875, -0.875, 0.485, 92.083, 81.119)" fill="none" stroke="#fff" stroke-linecap="round" stroke-width="9" opacity="0.489"/>
        <g id="Group_563" data-name="Group 563" transform="translate(-5676.559 -1364.738)">
          <path id="Path_1820" data-name="Path 1820" d="M4358,489c7.534-4.152,33-21,54-25s83.5,4.5,118.5,27.5c18,11,40,12,40,12s28-22,29-25,15-12,19-13-7,12-9,15-20,28-19,34,30,48,30,50-21-6-45-35c-11-11-21-6-24-4s-69,46-115,40-64-18-73-24-24-17-25-21S4333.5,502.5,4358,489Z" fill="none" stroke="#fdfdfd" stroke-miterlimit="10" stroke-width="9"/>
          <circle id="Ellipse_272" data-name="Ellipse 272" cx="7.5" cy="7.5" r="7.5" transform="translate(4359.5 501.5)" fill="none" stroke="#fdfdfd" stroke-miterlimit="10" stroke-width="9"/>
        </g>
      </g>
      <g id="Group_561" data-name="Group 561" transform="matrix(0.899, 0.438, -0.438, 0.899, 135.877, 153.791)" opacity="0.462">
        <path id="Path_1810" data-name="Path 1810" d="M.687,214.784C2.234,202.407-2.407,69.352,3.782,55.428S17.706,30.673,34.725,21.39,189.44-25.024,274.534,27.579c38.678,24.754,18.565,86.64,21.659,122.225s3.095,117.583,3.095,117.583c4.642,24.754-77.357,47.962-165.545,41.773S2.234,295.236.687,282.859.687,214.784.687,214.784Z" transform="translate(53.048 0)" fill="none" stroke="#fdfdfd" stroke-miterlimit="10" stroke-width="9"/>
        <path id="Path_1811" data-name="Path 1811" d="M299.248,22.735C276.041,8.811,127.767-20.585,0,22.736" transform="translate(53.087 244.652)" fill="none" stroke="#fdfdfd" stroke-miterlimit="10" stroke-width="9"/>
        <path id="Path_1812" data-name="Path 1812" d="M49.094,34.334C28.98,43.617,16.6,51.353,11.962,46.712S-3.51,31.24,1.132,25.051,53.048,0,53.048,0" transform="translate(0 228.411)" fill="none" stroke="#fdfdfd" stroke-miterlimit="10" stroke-width="9"/>
        <path id="Path_1813" data-name="Path 1813" d="M0,0C12.188,5.291,49.32,23.857,50.867,30.046S40.037,50.159,35.4,50.159,4.453,37.781,4.453,37.781" transform="translate(352.525 226.511)" fill="none" stroke="#fdfdfd" stroke-miterlimit="10" stroke-width="9"/>
      </g>
      <path id="Path_1819" data-name="Path 1819" d="M1517.7,546.562H1340.576s-39.672-84.828-27.409-102.293,76.462,32.434,76.462,32.434,33.165-55.276,55.275-55.276S1478.07,476.7,1478.07,476.7s84.542-47.179,96.451-22.576-52.23,77.852-52.23,77.852Z" transform="matrix(0.899, 0.438, -0.438, 0.899, 290.614, 366.752)" fill="none" stroke="#fff" stroke-linejoin="round" stroke-miterlimit="10" stroke-width="9" opacity="0.5"/>
    </g>
    <g id="achtergrond_illustraties-2" data-name="achtergrond illustraties">
      <path id="Path_114-2" data-name="Path 114" d="M3259.983,874a1.16,1.16,0,0,0-1.077,1.661c.789,1.576,3.051,2.756,4.359,5.314.191.374,6.453,9.327,6.7,9.819,22.077,43.178,97.771,194.1,93.1,202.636-5.108,9.349-14.755,9.9-7.945,19.248s30.079,31.347,55.617,20.9,32.916-33.547,28.376-50.6c-3.815-14.326-39.687-1.858-56.1,2.816a8.014,8.014,0,0,1-9.494-4.267c-21.542-47.13-83.277-178.384-103.56-200.556-.39-.708-4.781-4.385-5.1-4.971a3.934,3.934,0,0,0-3.456-2Z" transform="matrix(-0.545, -0.839, 0.839, -0.545, 1961.491, 4391.489)" fill="none" stroke="#fff" stroke-miterlimit="10" stroke-width="9" opacity="0.481"/>
      <g id="Group_103-2" data-name="Group 103" transform="translate(1692.868 3022.27) rotate(-149)" opacity="0.472">
        <path id="Path_115-2" data-name="Path 115" d="M2200.742,2021.724c-3.437,130.6,123.726,127.163,137.473,127.163s89.358-24.058,96.232-44.679,6.873-37.8,3.436-44.679,0,0,6.874-6.874,20.622-34.368,6.874-68.736-99.668-123.726-192.463-58.426C2186.994,1980.482,2200.742,2021.724,2200.742,2021.724Z" transform="translate(0 0)" fill="none" stroke="#fff" stroke-miterlimit="10" stroke-width="9"/>
        <path id="Path_116-2" data-name="Path 116" d="M2212,1930.184c0,6.874,3.437,17.184,3.437,17.184l34.368-6.874L2239.495,1913l-24.058,3.437Z" transform="translate(29.984 26.24)" fill="none" stroke="#fff" stroke-linecap="round" stroke-linejoin="round" stroke-width="9"/>
        <path id="Path_117-2" data-name="Path 117" d="M2231.5,1936.121l10.31-20.621,20.621,6.874,10.31,3.437s0,24.058-13.747,24.058S2231.5,1936.121,2231.5,1936.121Z" transform="translate(77.502 32.332)" fill="none" stroke="#fff" stroke-linecap="round" stroke-linejoin="round" stroke-width="9"/>
        <path id="Path_118-2" data-name="Path 118" d="M2263.247,1925.5s-10.311,3.437-10.311,6.874-3.437,20.621-3.437,20.621,24.059,13.747,27.495,10.31l6.874-6.874,3.437-20.621Z" transform="translate(121.366 56.7)" fill="none" stroke="#fff" stroke-linecap="round" stroke-linejoin="round" stroke-width="9"/>
        <path id="Path_119-2" data-name="Path 119" d="M2280.994,1950.5l-27.495,13.747,6.874,10.31,10.311,13.748,24.058-10.311,3.437-6.873Z" transform="translate(131.113 117.622)" fill="none" stroke="#fff" stroke-linecap="round" stroke-linejoin="round" stroke-width="9"/>
        <path id="Path_120-2" data-name="Path 120" d="M2234.248,1933.5l-13.747,20.62,24.057,17.184,17.185-20.621Z" transform="translate(50.697 76.195)" fill="none" stroke="#fff" stroke-linecap="round" stroke-linejoin="round" stroke-width="9"/>
        <path id="Path_121-2" data-name="Path 121" d="M2227.121,1935.5l-20.62,10.311,10.31,24.058,6.873-6.873-6.873-6.874,10.31,6.874,13.748-6.874Z" transform="translate(16.581 81.069)" fill="none" stroke="#fff" stroke-linecap="round" stroke-linejoin="round" stroke-width="9"/>
        <path id="Path_122-2" data-name="Path 122" d="M2238.558,1957.5l-24.058,13.748,3.437,10.31,17.184,13.747,17.183-13.747,3.437-6.874Z" transform="translate(36.076 134.68)" fill="none" stroke="#fff" stroke-linecap="round" stroke-linejoin="round" stroke-width="9"/>
      </g>
      <g id="Group_102-2" data-name="Group 102" transform="translate(-1830.43 -114.402)" opacity="0.459">
        <path id="Path_109-2" data-name="Path 109" d="M1922.124,1010.993C1909,1022.71,1909,1030.209,1909,1030.209l22.966,19.685a83.675,83.675,0,0,0,14.53-9.374c8.437-6.562,55.072-65.852,61.165-71.476s32.809-16.873,32.809-16.873c-15.936-11.249-21.294-8.455-32.809-6.093C1989.381,949.828,1922.124,1010.993,1922.124,1010.993Z" transform="translate(-61.934)" fill="none" stroke="#fff" stroke-linecap="round" stroke-linejoin="round" stroke-width="9"/>
        <path id="Path_110-2" data-name="Path 110" d="M1958.5,1059.458c5.156,5.156,37.5,28.59,43.12,29.059s10.311-5.156,13.592-2.812,59.524,47.338,64.211,50.619,13.592,2.344,17.342-1.875,10.311-6.093,21.56-30.934,20.154-45.464,19.217-52.494-45.464-65.618-70.773-89.521" transform="translate(-88.234 -9.328)" fill="none" stroke="#fff" stroke-linecap="round" stroke-linejoin="round" stroke-width="9"/>
        <path id="Path_111-2" data-name="Path 111" d="M1875.422,1179.5c-6.8,6.8-24.841,30.934-24.841,30.934l-7.5,9.374-9.843-7.5c-8.437,5.624-39.839,40.308-40.777,50.619s18.571,17.959,19.217,17.81c6.093-1.406,37.5-30,41.714-52.494-8.437-6.093-10.311-8.437-10.311-8.437" transform="translate(0 -125.153)" fill="none" stroke="#fff" stroke-linecap="round" stroke-linejoin="round" stroke-width="9"/>
        <path id="Path_112-2" data-name="Path 112" d="M1896.138,1198.4c-3.245,2.859-31.367,40.354-31.367,40.354s10.311,2.344,10.311,6.562-23.9,54.838-42.651,54.838-23.435-16.4-22.966-17.342,36.558-53.9,46.4-51.557" transform="translate(-9.034 -135.195)" fill="none" stroke="#fff" stroke-linecap="round" stroke-linejoin="round" stroke-width="9"/>
        <path id="Path_113-2" data-name="Path 113" d="M1809.5,1319.976c.469-.937,36.074-53.832,45.932-51.556,6.093,1.406,9.374,7.5,9.374,7.5" transform="translate(-9.069 -172.358)" fill="none" stroke="#fff" stroke-linecap="round" stroke-linejoin="round" stroke-width="9"/>
      </g>
      <g id="Group_101" data-name="Group 101" transform="translate(-631 -110)" opacity="0.485">
        <g id="Ellipse_31" data-name="Ellipse 31" transform="translate(768 326)" fill="none" stroke="#fffcf4" stroke-width="9">
          <circle cx="45" cy="45" r="45" stroke="none"/>
          <circle cx="45" cy="45" r="40.5" fill="none"/>
        </g>
        <path id="Path_102" data-name="Path 102" d="M2004.681-2429.706l17.866-26.71" transform="translate(-1195.78 2798.161)" fill="none" stroke="#fffcf4" stroke-linecap="round" stroke-width="9"/>
        <path id="Path_103" data-name="Path 103" d="M0,26.71,17.866,0" transform="translate(802.165 384.943) rotate(-69)" fill="none" stroke="#fffcf4" stroke-linecap="round" stroke-width="9"/>
        <path id="Path_106" data-name="Path 106" d="M2590.493-2242.445l33.628-10.63" transform="translate(-2705.344 255.022) rotate(42)" fill="none" stroke="#fffcf4" stroke-linecap="round" stroke-width="9"/>
        <path id="Path_107" data-name="Path 107" d="M2590.493-2242.445l33.628-10.63" transform="translate(-2587.66 1311.507) rotate(25)" fill="none" stroke="#fffcf4" stroke-linecap="round" stroke-width="9"/>
        <path id="Path_108" data-name="Path 108" d="M2590.493-2242.445l33.628-10.63" transform="matrix(0.996, -0.087, 0.087, 0.996, -1659.173, 2892.688)" fill="none" stroke="#fffcf4" stroke-linecap="round" stroke-width="9"/>
      </g>
    </g>
  </g>
</svg>
