<svg xmlns="http://www.w3.org/2000/svg" xmlns:xlink="http://www.w3.org/1999/xlink" width="383" height="208" viewBox="0 0 383 208">
  <defs>
    <clipPath id="clip-path">
      <rect id="Rectangle_157" data-name="Rectangle 157" width="383" height="208" transform="translate(840 312.647)" fill="#d6d6d6"/>
    </clipPath>
    <clipPath id="clip-path-2">
      <path id="Path_1831" data-name="Path 1831" d="M114.793,60.75c-.044-.329-4.748.578-4.793.25-.732-5.356-3.289-4.295-8-3-.1.029-1.9-2.031-2-2-1,.026.1-2.172-1-2-2.3.362-5.8-.976-8.8-.335a20.725,20.725,0,0,0-8.306,3.683,11.81,11.81,0,0,0-1.855,1.843,7.464,7.464,0,0,0-3.023.841,8.995,8.995,0,0,0-5.287,5.286,7.542,7.542,0,0,0-.861,3.853q.179,1.329.358,2.658A9.994,9.994,0,0,0,73.8,76.242l1.11.857a9.5,9.5,0,0,0,3.162,2.954c4.047,2.367,10.815,1.469,13.332-2.924a36.556,36.556,0,0,0,3.408-3.768c.607.046,1.431.081,1.666.112,1.951.26,4.039-.338,5.821-.566C109.764,75.057,115.862,68.567,114.793,60.75Z" fill="#935a27"/>
    </clipPath>
    <clipPath id="clip-path-3">
      <path id="Path_1839" data-name="Path 1839" d="M311.285,85.9a10.544,10.544,0,0,0-1.747-2.042c-.7-4.654-4.626-8.895-9.864-8.916l-6.839-.028C292.431,74.9,274.4,78.978,274,79c-5.214.284.378,10.085,7,8,.241,5.389,6,2,10.479,7.907,3.586,4.887,10.568,8.753,16.218,4.68C311.929,96.536,314.4,90.744,311.285,85.9Z" fill="#935a27"/>
    </clipPath>
    <clipPath id="clip-path-4">
      <path id="Path_1844" data-name="Path 1844" d="M310.984,147.692a11.3,11.3,0,0,0,2.642-9.8l-1.537-9.481a7.22,7.22,0,0,0-1.386-3.148,11.932,11.932,0,0,0,2.942-8.446,11.012,11.012,0,0,0,.732-7.244,10.3,10.3,0,0,0-9.643-7.341,10.894,10.894,0,0,0-3.577.43,6.878,6.878,0,0,1-3.612-1.994,12.744,12.744,0,0,0-5.6-2.947c-.316-.062-.594-.114-.854-.162q-.444-.481-.856-.994c-2.061-2.356-4.187-4.6-6.991-5.66a21.922,21.922,0,0,0-4.7-2.069c-1.638-.507-3.336-.772-5.005-1.153-1.45-7.2-7.738-10.9-14.868-7.658-13.91,6.333-30.44.453-44.84.24-13.748-.2-27.506-.129-41.258-.112a6.953,6.953,0,0,0-.772-.55,27.47,27.47,0,0,0-10.14-3.289c-6.3-.923-11.676-1.529-17.674-3.9-6.367-2.515-12.727-4.842-19.7-4.17C121.135,65.539,118.3,60.671,117,65c-3,10-10.809,4.541-14,7-5.072-.337-10.168,4.843-13.493,8.217a19.261,19.261,0,0,0-3.344,4.739,22.556,22.556,0,0,0-1.913-2.221,10.2,10.2,0,0,0-12.119-1.564c-4.14,2.422-5.245,6.843-4.595,11.293a47.557,47.557,0,0,1,.445,7.7,11.328,11.328,0,0,0-1.461,10.332,14.213,14.213,0,0,0-2.042,9.417,94.53,94.53,0,0,0-2.548,26.7c-4.539,6.573-7.222,13.631-6.656,22.23C56,179.84,55.744,204.425,59,215c2.063,6.7,15.081,9.893,20.189,3.915q.435-.508.84-1.031l33.319.858a9.106,9.106,0,0,0,4.123-.911,27.971,27.971,0,0,0,7.675-.469,8.9,8.9,0,0,0,7.734,1.249c4.67-1.484,9.171-2.951,14.121-2.782,4.791.163,9.492,1.061,14.3.7.025,0,.049-.005.073-.007a13.537,13.537,0,0,0,3.565.874,36.64,36.64,0,0,0,7.812-.084q28.047-.3,56.1-.192c1.99.009,3.98.027,5.969.039q1.835.123,3.667.249a60.316,60.316,0,0,0,11.884-.122c.633,13.715,6.628.064,9.942.107.17,0,.34,0,.51.006a74.852,74.852,0,0,0,20.79,2.51c.989-.017,2.061-.111,3.184-.235,3.959,3.3,8.418,3.1,11.68.952a16.853,16.853,0,0,0,5.995,1.6,8.652,8.652,0,0,0,5.452-1.6,8.95,8.95,0,0,0,5.766-5.391c1.048-2.607-2.014-17.766-3.2-20.367,1.729-9.616,3.488-19.524,1.726-29.009-1.023-5.515-1.89-10.051-1.44-15.716Q310.866,148.912,310.984,147.692Z" fill="#f2bea0"/>
    </clipPath>
    <clipPath id="clip-path-5">
      <path id="Path_1853" data-name="Path 1853" d="M93.5,26.5c17,0,75.473,24.827,109,27,19.864,1.288,78-6,86-13s21,27,18,29-77,23-162,1c-11.806-3.056-21.625-5.706-29.787-8.005C64.114,48.242,77.222,47.5,75.5,47.5,73.5,47.5,93.5,26.5,93.5,26.5Z" fill="none" stroke="#753f39" stroke-linecap="round" stroke-linejoin="round" stroke-width="9"/>
    </clipPath>
  </defs>
  <g id="Group_1285" data-name="Group 1285" transform="translate(-840 -312.647)">
    <rect id="Rectangle_2" data-name="Rectangle 2" width="383" height="208" rx="35" transform="translate(840 312.647)" fill="#f9cc52"/>
    <g id="Mask_Group_9" data-name="Mask Group 9" clip-path="url(#clip-path)">
      <g id="Group_577" data-name="Group 577" transform="translate(846.801 313.38)">
        <g id="Group_568" data-name="Group 568">
          <path id="Path_1829" data-name="Path 1829" d="M114.793,60.75c-.044-.329-4.748.578-4.793.25-.732-5.356-3.289-4.295-8-3-.1.029-1.9-2.031-2-2-1,.026.1-2.172-1-2-2.3.362-5.8-.976-8.8-.335a20.725,20.725,0,0,0-8.306,3.683,11.81,11.81,0,0,0-1.855,1.843,7.464,7.464,0,0,0-3.023.841,8.995,8.995,0,0,0-5.287,5.286,7.542,7.542,0,0,0-.861,3.853q.179,1.329.358,2.658A9.994,9.994,0,0,0,73.8,76.242l1.11.857a9.5,9.5,0,0,0,3.162,2.954c4.047,2.367,10.815,1.469,13.332-2.924a36.556,36.556,0,0,0,3.408-3.768c.607.046,1.431.081,1.666.112,1.951.26,4.039-.338,5.821-.566C109.764,75.057,115.862,68.567,114.793,60.75Z" fill="#935a27"/>
          <g id="Group_567" data-name="Group 567" clip-path="url(#clip-path-2)">
            <path id="Path_1830" data-name="Path 1830" d="M94.079,91.1C89,60,83,40,94,24S64,63,64,63L60,80,81,95l13.079-3.9" fill="#be9c7d"/>
          </g>
        </g>
        <path id="Path_1832" data-name="Path 1832" d="M298.187,50.357c-.208-8.016-11.022-11.616-16.835-6.569a15.812,15.812,0,0,0-8.715,1.527c-4.994,2.41-9.336,5.272-14.845,6.486-.869.191-1.737.367-2.6.537a9.433,9.433,0,0,0-2.681-.4c-10.269-.035-23.527-.831-32.6,4.842q-9.38-.271-18.739-.977c-2.308-.176-4.52-.407-6.684-.528a10,10,0,0,0-4.876-1.29q-5.881-.111-11.7-.672c-2-.59-4-1.2-5.987-1.847-7.657-2.5-14.99-5.578-22.54-8-.2-.086-.4-.178-.611-.256A56.554,56.554,0,0,0,139.2,40.7c-4.333-1.254-8.623-2.646-12.866-4.217a8.293,8.293,0,0,0-5.911.159c-5.17-5.713-13.492-8.143-19.821-4.6-5.269.02-10.154,2.737-13.617,7.616-5.516,7.769,3.56,16.166,11.293,14.69a12.535,12.535,0,0,1,3.047-.171,11.155,11.155,0,0,0,1.939.618q.922.2,1.83.351c.929.18,1.859.362,2.792.522,3.575,1.283,7.089,3.075,10.192,4.162,7.142,2.5,14.726,2.943,21.916,5.3a179.074,179.074,0,0,0,33.043,7.611c3.747,1.1,7.523,2.075,11.319,2.965.16.04.32.079.482.113q10.046,2.333,20.283,3.763a12.853,12.853,0,0,0,7.52-1.059,34.721,34.721,0,0,0,6.747,0c2.7,3.846,7.754,6.158,13.1,3.4,3.56-1.838,7.935-1.974,11.839-2.619a87.722,87.722,0,0,0,14.735-3.82,11.758,11.758,0,0,0,2.941-1.532q16.451-2.723,33.093-3.975c5.386-.405,10-4.307,10-10A10.552,10.552,0,0,0,298.187,50.357Z" fill="#f4f4f4"/>
        <path id="Path_1833" data-name="Path 1833" d="M299.913,46.85c-13.965,3.221-27.911,6.542-41.9,9.646a172.18,172.18,0,0,1-20.686,3.558,166.448,166.448,0,0,1-21.233.527,302.934,302.934,0,0,1-78.215-12.944A302.461,302.461,0,0,1,96.052,31.5a2.568,2.568,0,0,0-3.42.9,2.52,2.52,0,0,0,.9,3.42,309.893,309.893,0,0,0,76.964,24.859,310.244,310.244,0,0,0,40.372,4.691,200.013,200.013,0,0,0,21.347.078,151.546,151.546,0,0,0,21.41-2.909c15.948-3.228,31.767-7.207,47.62-10.865C304.376,50.948,303.05,46.126,299.913,46.85Z" fill="#d84955"/>
        <path id="Path_1834" data-name="Path 1834" d="M299.913,54.85c-13.965,3.221-27.911,6.542-41.9,9.646a172.181,172.181,0,0,1-20.686,3.558,166.448,166.448,0,0,1-21.233.527,302.934,302.934,0,0,1-78.215-12.944A302.461,302.461,0,0,1,96.052,39.5a2.568,2.568,0,0,0-3.42.9,2.52,2.52,0,0,0,.9,3.42,309.893,309.893,0,0,0,76.964,24.859,310.244,310.244,0,0,0,40.372,4.691,200.013,200.013,0,0,0,21.347.078,151.546,151.546,0,0,0,21.41-2.909c15.948-3.228,31.767-7.207,47.62-10.865C304.376,58.948,303.05,54.126,299.913,54.85Z" fill="#6394e0"/>
        <path id="Path_1835" data-name="Path 1835" d="M274.575,25.742c-.418-.118-.832-.214-1.245-.3-25.418-6.164-52.67-14.331-78.934-10.49-12.464,1.823-24.449-4.006-37-3.669a66.512,66.512,0,0,0-19.1,3.264c-2.166.722-4.416,1.928-6.635,1.988a15.054,15.054,0,0,1-3.233-.35,10.127,10.127,0,0,0-4.792-1.335l-2.771-.1c-11.04-.4-13.914,17.681-2.659,19.643,6.251,1.089,12.774,2.965,19.1,1.579a52.13,52.13,0,0,0,5.571-1.63c3.943-.346,7.774-1.259,11.776-.75,6.489.825,12.69,2.251,19.279,2.46,12.3.392,24.294.9,36.5,2.637,5.432.771,10.83,1.679,15.875,3.9,5.808,2.562,11.268,4.9,17.753,4.059.417-.054,2.9-.106,2.719-.321.926.336,1.874.97,2.777,1.266a18.534,18.534,0,0,0,8.492.6c3.041-.433,9.619-3.616,11.2-3.168C281.759,48.033,286.995,29.252,274.575,25.742Z" fill="#935a27"/>
        <g id="Group_570" data-name="Group 570">
          <path id="Path_1836" data-name="Path 1836" d="M311.285,85.9a10.544,10.544,0,0,0-1.747-2.042c-.7-4.654-4.626-8.895-9.864-8.916l-6.839-.028C292.431,74.9,274.4,78.978,274,79c-5.214.284.378,10.085,7,8,.241,5.389,6,2,10.479,7.907,3.586,4.887,10.568,8.753,16.218,4.68C311.929,96.536,314.4,90.744,311.285,85.9Z" fill="#935a27"/>
          <g id="Group_569" data-name="Group 569" clip-path="url(#clip-path-3)">
            <path id="Path_1837" data-name="Path 1837" d="M277,103c8-19,22.484-29.658,18.242-54.329S321,94,321,94l-3,20-15,4Z" fill="#6e441d"/>
            <path id="Path_1838" data-name="Path 1838" d="M289,106c10-10,21.572-22.018,21.286-38.009S324,88,324,88l-4.5,16L303,117H291Z" fill="#4a2d14"/>
          </g>
        </g>
        <g id="Group_572" data-name="Group 572">
          <path id="Path_1840" data-name="Path 1840" d="M310.984,147.692a11.3,11.3,0,0,0,2.642-9.8l-1.537-9.481a7.22,7.22,0,0,0-1.386-3.148,11.932,11.932,0,0,0,2.942-8.446,11.012,11.012,0,0,0,.732-7.244,10.3,10.3,0,0,0-9.643-7.341,10.894,10.894,0,0,0-3.577.43,6.878,6.878,0,0,1-3.612-1.994,12.744,12.744,0,0,0-5.6-2.947c-.316-.062-.594-.114-.854-.162q-.444-.481-.856-.994c-2.061-2.356-4.187-4.6-6.991-5.66a21.922,21.922,0,0,0-4.7-2.069c-1.638-.507-3.336-.772-5.005-1.153-1.45-7.2-7.738-10.9-14.868-7.658-13.91,6.333-30.44.453-44.84.24-13.748-.2-27.506-.129-41.258-.112a6.953,6.953,0,0,0-.772-.55,27.47,27.47,0,0,0-10.14-3.289c-6.3-.923-11.676-1.529-17.674-3.9-6.367-2.515-12.727-4.842-19.7-4.17C121.135,65.539,118.3,60.671,117,65c-3,10-10.809,4.541-14,7-5.072-.337-10.168,4.843-13.493,8.217a19.261,19.261,0,0,0-3.344,4.739,22.556,22.556,0,0,0-1.913-2.221,10.2,10.2,0,0,0-12.119-1.564c-4.14,2.422-5.245,6.843-4.595,11.293a47.557,47.557,0,0,1,.445,7.7,11.328,11.328,0,0,0-1.461,10.332,14.213,14.213,0,0,0-2.042,9.417,94.53,94.53,0,0,0-2.548,26.7c-4.539,6.573-7.222,13.631-6.656,22.23C56,179.84,55.744,204.425,59,215c2.063,6.7,15.081,9.893,20.189,3.915q.435-.508.84-1.031l33.319.858a9.106,9.106,0,0,0,4.123-.911,27.971,27.971,0,0,0,7.675-.469,8.9,8.9,0,0,0,7.734,1.249c4.67-1.484,9.171-2.951,14.121-2.782,4.791.163,9.492,1.061,14.3.7.025,0,.049-.005.073-.007a13.537,13.537,0,0,0,3.565.874,36.64,36.64,0,0,0,7.812-.084q28.047-.3,56.1-.192c1.99.009,3.98.027,5.969.039q1.835.123,3.667.249a60.316,60.316,0,0,0,11.884-.122c.633,13.715,6.628.064,9.942.107.17,0,.34,0,.51.006a74.852,74.852,0,0,0,20.79,2.51c.989-.017,2.061-.111,3.184-.235,3.959,3.3,8.418,3.1,11.68.952a16.853,16.853,0,0,0,5.995,1.6,8.652,8.652,0,0,0,5.452-1.6,8.95,8.95,0,0,0,5.766-5.391c1.048-2.607-2.014-17.766-3.2-20.367,1.729-9.616,3.488-19.524,1.726-29.009-1.023-5.515-1.89-10.051-1.44-15.716Q310.866,148.912,310.984,147.692Z" fill="#f2bea0"/>
          <g id="Group_571" data-name="Group 571" clip-path="url(#clip-path-4)">
            <path id="Path_1841" data-name="Path 1841" d="M114,244C89,210,89.507,109.217,97,68s-49,6-49,6L31,120s-5,46-2,62,6,35,6,35l20,20Z" fill="#ffe5dc"/>
            <path id="Path_1842" data-name="Path 1842" d="M250,236c10-19,43-127,42-153s50,18,50,18l16,77-26,70-27,7Z" fill="#d3a590"/>
            <path id="Path_1843" data-name="Path 1843" d="M282,238c10-29,37-117,28-162s33,84,33,84l2,57-13,41-29,12Z" fill="#c19781"/>
          </g>
        </g>
        <path id="Path_1845" data-name="Path 1845" d="M217.882,38.83c-2.149-1.142-6.577-2.753-9.471-1.829a12.971,12.971,0,0,0-3.442-.168c-.166,0-.331.027-.5.04a9.823,9.823,0,0,0-6.348-.075,9.332,9.332,0,0,0-2.526-1.075,20.959,20.959,0,0,0-5.172-.671c-.172,0-.3,0-.4-.006-.544-.161-1.086-.322-1.628-.5a45.382,45.382,0,0,0-9.5-1.795c-5.221-.525-32.124,1.22-31.9,6.246.263,5.867,26.306,13.191,31.9,13.754q1.8.178.129.017.923.169,1.831.4c1.038.264,2.039.623,3.059.94a21.51,21.51,0,0,0,4.795.877,15.317,15.317,0,0,0,1.714.063l.079,0a10.285,10.285,0,0,0,4.552-.012,8.473,8.473,0,0,0,3.023,1.384,11.161,11.161,0,0,0,2.814.274c.563.095,1.134.155,1.7.2a11.27,11.27,0,0,0,1.338.019l.1-.007c-.009.044.435.069.833.185a12.469,12.469,0,0,0,3.346.435,14.8,14.8,0,0,0,2.862-.341c4.015.665,29.913-4.37,31.931-8.189C245.447,44.368,222.815,41.451,217.882,38.83Z" fill="#f2bea0"/>
        <g id="Group_573" data-name="Group 573">
          <ellipse id="Ellipse_273" data-name="Ellipse 273" cx="41.962" cy="40.054" rx="41.962" ry="40.054" transform="translate(100 79.864)" fill="#feffc6"/>
          <ellipse id="Ellipse_274" data-name="Ellipse 274" cx="34.731" cy="33.852" rx="34.731" ry="33.852" transform="translate(107.304 86.066)" fill="#632037"/>
          <circle id="Ellipse_275" data-name="Ellipse 275" cx="13.629" cy="13.629" r="13.629" transform="translate(146.871 108.377)" fill="#fff" opacity="0.32"/>
          <circle id="Ellipse_276" data-name="Ellipse 276" cx="13.629" cy="13.629" r="13.629" transform="translate(147.75 105.739)" fill="#fff" opacity="0.32"/>
        </g>
        <g id="Group_574" data-name="Group 574">
          <ellipse id="Ellipse_277" data-name="Ellipse 277" cx="41.962" cy="40.054" rx="41.962" ry="40.054" transform="translate(193 81.864)" fill="#feffc6"/>
          <ellipse id="Ellipse_278" data-name="Ellipse 278" cx="34.731" cy="33.852" rx="34.731" ry="33.852" transform="translate(200.304 88.066)" fill="#632037"/>
          <circle id="Ellipse_279" data-name="Ellipse 279" cx="13.629" cy="13.629" r="13.629" transform="translate(239.871 110.377)" fill="#fff" opacity="0.32"/>
          <circle id="Ellipse_280" data-name="Ellipse 280" cx="13.629" cy="13.629" r="13.629" transform="translate(240.75 107.739)" fill="#fff" opacity="0.32"/>
        </g>
        <path id="Path_1846" data-name="Path 1846" d="M114.5,62.5c-3,8,2,10-8,9s-17,11-23,11-13.081-8.18-13.081-8.18l11.54-20.838Z" fill="none" stroke="#914f46" stroke-linecap="round" stroke-linejoin="round" stroke-width="4.5"/>
        <path id="Path_1847" data-name="Path 1847" d="M272.012,76.1c1.3,8.445-4.007,9.378,5.986,10.448s14.385,14.251,20.258,15.48S312.735,96.7,312.735,96.7L305.71,73.942Z" fill="none" stroke="#914f46" stroke-linecap="round" stroke-linejoin="round" stroke-width="4.5"/>
        <path id="Path_1848" data-name="Path 1848" d="M182.5,177.5c2,7,14,7,17-3" fill="none" stroke="#914f46" stroke-linecap="round" stroke-linejoin="round" stroke-width="4.5"/>
        <path id="Path_1849" data-name="Path 1849" d="M201.5,157.5c-5,4-24,7-28,3" fill="none" stroke="#d84955" stroke-linecap="round" stroke-linejoin="round" stroke-width="4.5"/>
        <path id="Path_1850" data-name="Path 1850" d="M138.976,38.309C155.5,27.5,230.5,39.5,246.5,47.5" fill="none" stroke="#914f46" stroke-linecap="round" stroke-linejoin="round" stroke-width="4.5"/>
        <path id="Path_1851" data-name="Path 1851" d="M57,219.5C56,199.5,45,9,146,14S310,7,312,118s0,101.5,0,101.5Z" fill="none" stroke="#753f39" stroke-linecap="round" stroke-linejoin="round" stroke-width="9"/>
        <g id="Group_576" data-name="Group 576">
          <g id="Group_575" data-name="Group 575" clip-path="url(#clip-path-5)">
            <path id="Path_1852" data-name="Path 1852" d="M114.5,81.5c-7-26,2-45,11-61s-22-9-22-9l-28,8-13,24,5,16Z" fill="#fffff5" opacity="0.39"/>
          </g>
          <path id="Path_1854" data-name="Path 1854" d="M93.5,26.5c17,0,75.473,24.827,109,27,19.864,1.288,78-6,86-13s21,27,18,29-77,23-162,1c-11.806-3.056-21.625-5.706-29.787-8.005C64.114,48.242,77.222,47.5,75.5,47.5,73.5,47.5,93.5,26.5,93.5,26.5Z" fill="none" stroke="#753f39" stroke-linecap="round" stroke-linejoin="round" stroke-width="9"/>
        </g>
      </g>
    </g>
  </g>
</svg>
