<svg xmlns="http://www.w3.org/2000/svg" xmlns:xlink="http://www.w3.org/1999/xlink" width="301.582" height="305.806" viewBox="0 0 301.582 305.806">
  <defs>
    <clipPath id="clip-path">
      <path id="Path_4042" data-name="Path 4042" d="M343.693,628.991a168.37,168.37,0,0,0-20.9-16.243c-6.388-4.179-16.138-11.507-24.085-11.267a9.949,9.949,0,0,0-5.01,1.346c-1.315-.355-4.09-.875-4.2-.894a48.339,48.339,0,0,0-15.808.415c-9.182,1.47-18.292,3.55-27.412,5.357-4.326.858-8.81,1.473-13.017,2.828-3.225,1.039-6.179,3.437-9.337,4.369-4.03,1.19-8.908-.739-13.1-.42a34.285,34.285,0,0,0-12.075,3.437c-3.157,1.473-6.1,3.518-9.345,4.8-3.5,1.381-7.509.757-11.2,1.17-4.79.537-8.883,2.141-13.27,4.1-3.206,1.433-6.981,3.824-10.6,2.941-10.078-2.464-15.49,9.59-10.652,15.957a12.7,12.7,0,0,0-7.65.092,15.052,15.052,0,0,0-3.413,1.5,9.549,9.549,0,0,0-1.81-.985c-3.4-1.37-8.4-1.045-10.924,2.068-5.747,7.1-7.371,14.623-8.828,23.411s-5.523,16.821-5.593,25.856c-.071,9.108,3.372,17.76,3.7,26.787.316,8.634-1.783,17.563-3.3,26.146a10.354,10.354,0,0,0-.455,7.648,9.48,9.48,0,0,0,6.924,7.716,10.236,10.236,0,0,0,11.861-5.667,35.472,35.472,0,0,0,5.708-7.255c2.252-3.791,2.887-8.047,4.7-11.953,1.269-2.737,3.729-4.822,5.777-6.954q4.731-4.928,9.47-9.849c5.751-5.982,13.638-12.01,17.5-19.41a13.124,13.124,0,0,0,1.021-2.6,20.868,20.868,0,0,0,3.787-5.282c7.589,1.414,13.517-8.72,9.626-15.178a78.315,78.315,0,0,0-29.164-28.273,22.517,22.517,0,0,0-3.532-4.478,26.553,26.553,0,0,0,8.26.674,8.872,8.872,0,0,0,2.1,3,42.534,42.534,0,0,0,10.3,7.285,12.5,12.5,0,0,0,1.776.71,55.715,55.715,0,0,0,5.937,3.148c-2.35,3.709-2.549,8.592,1.327,12.011,5.665,4.995,13.195,6.976,20.3,3.73a17.961,17.961,0,0,0,5.27-3.688c.135-.007.266-.023.4-.032a18.041,18.041,0,0,0,6-.946q.4-.135.774-.3c5.952-1.766,11.491-5.032,17.4-8.186,11.687-3,23.413-5.88,35.056-9.239a135,135,0,0,1,18.159-3.724,95.055,95.055,0,0,0,18.217-4.861c11.794-4.172,23.907-3.577,36.254-3.748C344.919,645.947,350.293,634.98,343.693,628.991Z" fill="#ffc"/>
    </clipPath>
    <clipPath id="clip-path-2">
      <path id="Path_4047" data-name="Path 4047" d="M381.864,784.036A110.215,110.215,0,0,0,355.409,802.2C348.015,809.038,338,813.161,329,817.47c-20.471,9.8-41.914,17.193-63.248,24.842-10.045,3.6-20.169,7.3-29.593,12.354q-.864.463-1.743.948a41.575,41.575,0,0,0-5.31,1.7c-2.391-5.108-8.306-8.854-13.1-11.618-.271-.157-.541-.288-.811-.417-.261-.2-.527-.4-.815-.593l-74.528-49.215a8.733,8.733,0,0,0-6.058-1.37,15.877,15.877,0,0,1-.858-2.437,10.159,10.159,0,0,0-12.3-6.985c-5.6,1.539-7.947,6.968-6.984,12.3a35.437,35.437,0,0,0,9.1,18.01l2.283,14.187c-.059,6.187-.326,12.68,1.233,18.6,3.567,13.556,16.245,17.783,28.128,21.7a72.361,72.361,0,0,1,16.074,7.676c5.8,3.675,10.806,8.848,17.743,10.326,6.613,1.408,12.343-.491,17.193-4.023-2.44,5.936.486,14.255,8.82,14.162a17.46,17.46,0,0,0,11.549-4.313,63.263,63.263,0,0,0,8.287-.8,103.149,103.149,0,0,0,31.362-9.521c5.2-2.518,9.971-5.717,14.973-8.579a83.915,83.915,0,0,1,15.166-6.333,184.994,184.994,0,0,0,34.807-15.707,10.587,10.587,0,0,0,2.531-2.045c28.021-9.8,56.518-24.937,63.654-54.986C398.642,786.533,389.667,780.136,381.864,784.036Z" fill="#ffc"/>
    </clipPath>
  </defs>
  <g id="ei" transform="translate(-102.203 -597.552)">
    <path id="Path_4036" data-name="Path 4036" d="M389.554,769.134a10.9,10.9,0,0,0-2.747-6.851c-4.388-5-9.8-9.026-14.913-13.252l-16.628-13.753a10.909,10.909,0,0,0-4.794-2.354,61.38,61.38,0,0,0-9.031-9.789,11.3,11.3,0,0,0-4.3-2.4,11.4,11.4,0,0,0-4.7-6.736l-18.733-13.054a8.336,8.336,0,0,0-7.649-1.235c-.1-.077-.2-.163-.308-.235a32.818,32.818,0,0,0,5.134-7.774c2.2-4.712,2.6-8.495,7.1-11.393l16.105-10.38a10.278,10.278,0,0,0,4.6-11.293c-1.063-3.869-5.359-7.875-9.643-7.341a74.388,74.388,0,0,0-23.335,6.769,10.654,10.654,0,0,0-3.789.313q-5.151,1.34-10.219,2.918a10.32,10.32,0,0,0-6.314-.415,61.931,61.931,0,0,0-17.527,7.271q-3.882,1.557-7.787,3.051-3.826,1.2-7.65,2.4a8.283,8.283,0,0,0-1.238-.411c-10.516-2.558-19.648,1.768-27.99,7.9a13.894,13.894,0,0,0-2.838,2.762c-1.5.486-3.005.959-4.505,1.447-8.945,2.913-18.423,5.376-26.72,9.915-8.146,4.456-13.449,11.5-18.8,18.848-.757,1.04-1.55,2.042-2.359,3.029a11.6,11.6,0,0,0-1.7,1.941c-.058.083-.113.168-.17.251A127.085,127.085,0,0,1,156.1,729.2c-10.678,9.655-21.679,19.517-25.929,33.667A20.8,20.8,0,0,0,120,776.644a9.978,9.978,0,0,0,11.446,12.275A10.476,10.476,0,0,0,138.7,797.4a147.786,147.786,0,0,1,21.249,8.234c2.254,4.042,6.721,6.632,11,5.851a144.229,144.229,0,0,1,22.8,16.6c5.814,5.18,14.184,2.883,16.714-4.413,3.62-10.441,14.322-16.732,23.364-21.952,5.847-3.376,11.835-6.739,17.357-10.678a17.106,17.106,0,0,0,3.765,1.829c2.293,6.118,3.3,15.065,8.631,9.793,1.441-1.424,4.811,5.593,6,4,2.271.437-2.161,9.024,0,8,2.564-1.214,8.2,5.2,10,3,3.152,1.015,7.382,23.062,10,20,1.3,2.919,25.288-11.857,28-10,6.194,4.245,2.814,1.1,10,0,1.594,3.433,6.062-9.474,10-10,.889-.118,16.763-1.922,7-8,0,.011,7.759,11.046,0,0,9.759,10.046,4.949-6.982,5-7,4.255-.631-4.147-5.5.006-6.44a8.816,8.816,0,0,0,1.6-.33c.176-.054.35-.116.526-.172a138.691,138.691,0,0,0,20.384-6.548,11.693,11.693,0,0,0,5.14-4.031,59.587,59.587,0,0,0,8.018-4.45A10.221,10.221,0,0,0,389.554,769.134Z" fill="#fffda4"/>
    <path id="Path_4037" data-name="Path 4037" d="M205.143,839.717c-5.31-23.6,50.833-107.429,84.5-9.229-35.3,29.559-51.833,29.42-51.833,29.42l-18.66-5.239Z" fill="#f2bea0" stroke="#914f46" stroke-linejoin="round" stroke-width="6"/>
    <g id="Group_1387" data-name="Group 1387">
      <path id="Path_4038" data-name="Path 4038" d="M343.693,628.991a168.37,168.37,0,0,0-20.9-16.243c-6.388-4.179-16.138-11.507-24.085-11.267a9.949,9.949,0,0,0-5.01,1.346c-1.315-.355-4.09-.875-4.2-.894a48.339,48.339,0,0,0-15.808.415c-9.182,1.47-18.292,3.55-27.412,5.357-4.326.858-8.81,1.473-13.017,2.828-3.225,1.039-6.179,3.437-9.337,4.369-4.03,1.19-8.908-.739-13.1-.42a34.285,34.285,0,0,0-12.075,3.437c-3.157,1.473-6.1,3.518-9.345,4.8-3.5,1.381-7.509.757-11.2,1.17-4.79.537-8.883,2.141-13.27,4.1-3.206,1.433-6.981,3.824-10.6,2.941-10.078-2.464-15.49,9.59-10.652,15.957a12.7,12.7,0,0,0-7.65.092,15.052,15.052,0,0,0-3.413,1.5,9.549,9.549,0,0,0-1.81-.985c-3.4-1.37-8.4-1.045-10.924,2.068-5.747,7.1-7.371,14.623-8.828,23.411s-5.523,16.821-5.593,25.856c-.071,9.108,3.372,17.76,3.7,26.787.316,8.634-1.783,17.563-3.3,26.146a10.354,10.354,0,0,0-.455,7.648,9.48,9.48,0,0,0,6.924,7.716,10.236,10.236,0,0,0,11.861-5.667,35.472,35.472,0,0,0,5.708-7.255c2.252-3.791,2.887-8.047,4.7-11.953,1.269-2.737,3.729-4.822,5.777-6.954q4.731-4.928,9.47-9.849c5.751-5.982,13.638-12.01,17.5-19.41a13.124,13.124,0,0,0,1.021-2.6,20.868,20.868,0,0,0,3.787-5.282c7.589,1.414,13.517-8.72,9.626-15.178a78.315,78.315,0,0,0-29.164-28.273,22.517,22.517,0,0,0-3.532-4.478,26.553,26.553,0,0,0,8.26.674,8.872,8.872,0,0,0,2.1,3,42.534,42.534,0,0,0,10.3,7.285,12.5,12.5,0,0,0,1.776.71,55.715,55.715,0,0,0,5.937,3.148c-2.35,3.709-2.549,8.592,1.327,12.011,5.665,4.995,13.195,6.976,20.3,3.73a17.961,17.961,0,0,0,5.27-3.688c.135-.007.266-.023.4-.032a18.041,18.041,0,0,0,6-.946q.4-.135.774-.3c5.952-1.766,11.491-5.032,17.4-8.186,11.687-3,23.413-5.88,35.056-9.239a135,135,0,0,1,18.159-3.724,95.055,95.055,0,0,0,18.217-4.861c11.794-4.172,23.907-3.577,36.254-3.748C344.919,645.947,350.293,634.98,343.693,628.991Z" fill="#ffc"/>
      <g id="Group_1386" data-name="Group 1386" clip-path="url(#clip-path)">
        <path id="Path_4039" data-name="Path 4039" d="M169.582,761.671c-44-53-68-101-60-120-27,74-22,113-22,113l24,25Z" fill="#fffff5"/>
        <path id="Path_4040" data-name="Path 4040" d="M283.582,695.671c10-39-21-92-53-107s95,3,95,3l47,37-23,36Z" fill="#fffda4"/>
        <path id="Path_4041" data-name="Path 4041" d="M322.582,668.671c0-27-2-72-33-93s75.673,64.469,75.673,64.469l-18.673,37.531Z" fill="#fffc8d"/>
      </g>
    </g>
    <g id="Group_1389" data-name="Group 1389">
      <path id="Path_4043" data-name="Path 4043" d="M381.864,784.036A110.215,110.215,0,0,0,355.409,802.2C348.015,809.038,338,813.161,329,817.47c-20.471,9.8-41.914,17.193-63.248,24.842-10.045,3.6-20.169,7.3-29.593,12.354q-.864.463-1.743.948a41.575,41.575,0,0,0-5.31,1.7c-2.391-5.108-8.306-8.854-13.1-11.618-.271-.157-.541-.288-.811-.417-.261-.2-.527-.4-.815-.593l-74.528-49.215a8.733,8.733,0,0,0-6.058-1.37,15.877,15.877,0,0,1-.858-2.437,10.159,10.159,0,0,0-12.3-6.985c-5.6,1.539-7.947,6.968-6.984,12.3a35.437,35.437,0,0,0,9.1,18.01l2.283,14.187c-.059,6.187-.326,12.68,1.233,18.6,3.567,13.556,16.245,17.783,28.128,21.7a72.361,72.361,0,0,1,16.074,7.676c5.8,3.675,10.806,8.848,17.743,10.326,6.613,1.408,12.343-.491,17.193-4.023-2.44,5.936.486,14.255,8.82,14.162a17.46,17.46,0,0,0,11.549-4.313,63.263,63.263,0,0,0,8.287-.8,103.149,103.149,0,0,0,31.362-9.521c5.2-2.518,9.971-5.717,14.973-8.579a83.915,83.915,0,0,1,15.166-6.333,184.994,184.994,0,0,0,34.807-15.707,10.587,10.587,0,0,0,2.531-2.045c28.021-9.8,56.518-24.937,63.654-54.986C398.642,786.533,389.667,780.136,381.864,784.036Z" fill="#ffc"/>
      <g id="Group_1388" data-name="Group 1388" clip-path="url(#clip-path-2)">
        <path id="Path_4044" data-name="Path 4044" d="M130.582,885.671c19-10,20-74,39-85s-61-27-61-27l-6,57Z" fill="#fffff5"/>
        <path id="Path_4045" data-name="Path 4045" d="M285.582,909.671c27-40,40-100,31-127s88-13,88-13l10,42-39,46Z" fill="#fffda4"/>
        <path id="Path_4046" data-name="Path 4046" d="M355.582,863.671c18-47,12-94,12-94l41,4,7,52Z" fill="#fffc8d"/>
      </g>
    </g>
    <path id="Path_4048" data-name="Path 4048" d="M226.582,851.671c-6,8-25,44-25,44s-75-32-76-44-17-63-13-71S226.582,851.671,226.582,851.671Z" fill="none" stroke="#753f39" stroke-miterlimit="10" stroke-width="12"/>
    <path id="Path_4049" data-name="Path 4049" d="M226.582,851.671c13,9,155-62,171-77,2,30-11,31-12,47-.751,12.019-160,85-184,74" fill="none" stroke="#753f39" stroke-linejoin="round" stroke-width="12"/>
    <path id="Path_4050" data-name="Path 4050" d="M397.582,774.671c3.908,4.387-66.2-71.154-85.415-76.722h0a4.833,4.833,0,0,1-3.21-8.34c16.655-15.753,46.625-43.287,46.625-44.938,0-2-27-34-45-40s-162,13-187,44-12,131-12,131,2.346-1.014,6.528-2.818" fill="none" stroke="#753f39" stroke-linecap="round" stroke-miterlimit="10" stroke-width="12"/>
    <path id="Path_4051" data-name="Path 4051" d="M118.11,776.853s135.472-56.182,151.472-61.182" fill="none" stroke="#914f46" stroke-linecap="round" stroke-miterlimit="10" stroke-width="6"/>
    <path id="Path_4052" data-name="Path 4052" d="M111.582,779.671s62-82,72-88-29-56-60-43" fill="none" stroke="#753f39" stroke-miterlimit="10" stroke-width="12"/>
    <path id="Path_4053" data-name="Path 4053" d="M355.582,646.671c-17-4-162,33-170,45" fill="none" stroke="#753f39" stroke-miterlimit="10" stroke-width="12"/>
  </g>
</svg>
