<svg xmlns="http://www.w3.org/2000/svg" xmlns:xlink="http://www.w3.org/1999/xlink" width="1680" height="502" viewBox="0 0 1680 502">
  <defs>
    <clipPath id="clip-path">
      <rect id="Rectangle_92" data-name="Rectangle 92" width="1680" height="502" transform="translate(-2895.582 3029.094)" fill="#d3c29f"/>
    </clipPath>
  </defs>
  <g id="Mask_Group_18" data-name="Mask Group 18" transform="translate(2895.582 -3029.094)" clip-path="url(#clip-path)">
    <g id="Group_1133" data-name="Group 1133" transform="translate(-422 -812)">
      <path id="Path_3284" data-name="Path 3284" d="M7102.177,1158.536c-77.937,36.278-1219.434-1.2-1689.092,5.958s-187.843,14.852-189.54,22.662c-8.529,39.242,95.558,124.838,95.558,124.838s1741.67,170.773,1927.861,0S7102.177,1158.536,7102.177,1158.536Z" transform="matrix(0.999, -0.035, 0.035, 0.999, -7900.25, 2938.395)" fill="#6c252b"/>
      <path id="Path_3285" data-name="Path 3285" d="M7102.177,1158.536c-97.3,45.292-1870.1-10.622-1878.632,28.62s95.558,124.838,95.558,124.838,1741.67,170.773,1927.861,0S7102.177,1158.536,7102.177,1158.536Z" transform="matrix(0.999, -0.035, 0.035, 0.999, -7900.436, 2961.362)" fill="#a23740"/>
      <path id="Path_3286" data-name="Path 3286" d="M7102.177,1158.536c-97.3,45.292-1870.1-10.622-1878.632,28.62s95.558,124.838,95.558,124.838l9.264,227.071s145,19.821,293.128-27.128c438.231-138.9,1503.514-88.087,1625.469-199.943C7433.154,1141.221,7102.177,1158.536,7102.177,1158.536Z" transform="matrix(0.999, -0.035, 0.035, 0.999, -7898.971, 2983.337)" fill="#d84955"/>
    </g>
  </g>
</svg>
