<svg xmlns="http://www.w3.org/2000/svg" xmlns:xlink="http://www.w3.org/1999/xlink" width="1680" height="418" viewBox="0 0 1680 418">
  <defs>
    <clipPath id="clip-path">
      <rect id="Rectangle_185" data-name="Rectangle 185" width="1680" height="418" transform="translate(-2057 -2765)" fill="#fff" stroke="#707070" stroke-width="1"/>
    </clipPath>
  </defs>
  <g id="Mask_Group_14" data-name="Mask Group 14" transform="translate(2057 2765)" clip-path="url(#clip-path)">
    <g id="Group_1009" data-name="Group 1009" transform="translate(-190 -208)">
      <g id="Group_1007" data-name="Group 1007" transform="translate(31 -589)">
        <path id="Path_3054" data-name="Path 3054" d="M103.346,1093.228s-32.93-522.589-32.93-553.59S392.031,366.917,553.388-161.208c-118.548,0-739.825,58.681-739.825,58.681l42.809,1220.113Z" transform="translate(-1863.508 -1556.671)" fill="#6c252b"/>
        <path id="Path_3055" data-name="Path 3055" d="M86.881,1082.156s-32.93-522.589-32.93-553.59S375.566,355.846,536.923-172.28C418.375-172.28-202.9-113.6-202.9-113.6l42.809,1220.113Z" transform="translate(-1863.508 -1556.671)" fill="#a23740"/>
        <path id="Path_3056" data-name="Path 3056" d="M47.365,1082.156s-32.93-522.589-32.93-553.59S336.05,355.846,497.407-172.28c-118.548,0-739.825,58.681-739.825,58.681l42.809,1220.113Z" transform="translate(-1863.508 -1556.671)" fill="#d84955"/>
        <path id="Path_3057" data-name="Path 3057" d="M78.1,531.887v50.931S-43.29,566.21-56.778,572.853s-16.6-49.823-16.6-49.823Z" transform="translate(-1863.508 -1556.671)" fill="#fad675"/>
      </g>
      <g id="Group_1008" data-name="Group 1008" transform="translate(-774.926 -2317.951)">
        <path id="Path_3054-2" data-name="Path 3054" d="M263.605,1093.228s32.93-522.589,32.93-553.59S-25.08,366.917-186.437-161.208c118.548,0,739.825,58.681,739.825,58.681L510.579,1117.586Z" transform="translate(186.437 172.28)" fill="#6c252b"/>
        <path id="Path_3055-2" data-name="Path 3055" d="M247.14,1082.156s32.93-522.589,32.93-553.59S-41.545,355.846-202.9-172.28c118.548,0,739.825,58.681,739.825,58.681L494.114,1106.514Z" transform="translate(219.367 172.28)" fill="#a23740"/>
        <path id="Path_3056-2" data-name="Path 3056" d="M207.624,1082.156s32.93-522.589,32.93-553.59S-81.061,355.846-242.418-172.28c118.548,0,739.825,58.681,739.825,58.681L454.6,1106.514Z" transform="translate(298.399 172.28)" fill="#d84955"/>
        <path id="Path_3057-2" data-name="Path 3057" d="M-73.378,531.887v50.931S48.012,566.21,61.5,572.853,78.1,523.03,78.1,523.03Z" transform="translate(548.666 172.28)" fill="#fad675"/>
      </g>
      <g id="Group_1006" data-name="Group 1006" transform="translate(172 -424)">
        <path id="Path_3050" data-name="Path 3050" d="M1.93-92.643c16.587,12.605-4.124,3,0,66.821C286.039,133.262,1017.371,269.533,1693.59-18.3c-1.686-145.051-73.446-78.993-33.131-99.56C1741.685-283.933,25.876-156.9,23.5-158.176Z" transform="translate(-2052.508 -1626.671)" fill="#a23740"/>
        <path id="Path_3051" data-name="Path 3051" d="M-2.416-143.989C0-126.5-.9-104.992,1.93-49.073c284.11,159.085,1014.442,295.357,1689.12,8.181,1.685-40.971-75.921-53.413-35.606-73.981,14.458-29.562,36.3,1.708,37.837-51C1284.073-241.152,9.345-193.286,7.394-194.33Z" transform="translate(-2052.508 -1626.671)" fill="#6c252b"/>
        <path id="Path_3052" data-name="Path 3052" d="M8.473-75.362c1.748.9,3.512,1.8,5.133,2.615,294.93,148.737,1019.525,269.41,1678.1,8.961,2.085-63.79,1.738-294.151-1.089-358.867l-1677.338-8.8S-18.6-89.29,8.473-75.362Z" transform="translate(-2052.508 -1610.703)" fill="#d84955"/>
        <path id="Path_3053" data-name="Path 3053" d="M6261.731-1435.128s-415.386-89.421-602.266-118.624-279.12-110.854-284.73-110.854-15.8,144.135-15.8,144.135Z" transform="translate(-7130.413 263.342) rotate(-8)" fill="#d84955"/>
      </g>
    </g>
  </g>
</svg>
