<svg xmlns="http://www.w3.org/2000/svg" width="1696.378" height="713.616" viewBox="0 0 1696.378 713.616">
  <g id="Group_1006" data-name="Group 1006" transform="translate(2055.296 2190.605)">
    <path id="Path_3050" data-name="Path 3050" d="M1.93-92.643c16.587,12.605-4.124,3,0,66.821C286.039,133.262,1017.371,269.533,1693.59-18.3c-1.686-145.051-73.446-78.993-33.131-99.56C1741.685-283.933,25.876-156.9,23.5-158.176Z" transform="translate(-2052.508 -1626.671)" fill="#a23740"/>
    <path id="Path_3051" data-name="Path 3051" d="M-2.416-143.989C0-126.5-.9-104.992,1.93-49.073c284.11,159.085,1014.442,295.357,1689.12,8.181,1.685-40.971-75.921-53.413-35.606-73.981,14.458-29.562,36.3,1.708,37.837-51C1284.073-241.152,9.345-193.286,7.394-194.33Z" transform="translate(-2052.508 -1626.671)" fill="#6c252b"/>
    <path id="Path_3052" data-name="Path 3052" d="M8.473-75.362c1.748.9,3.512,1.8,5.133,2.615,294.93,148.737,1019.525,269.41,1678.1,8.961,2.085-63.79,1.738-294.151-1.089-358.867l-1677.338-8.8S-18.6-89.29,8.473-75.362Z" transform="translate(-2052.508 -1610.703)" fill="#d84955"/>
    <path id="Path_3053" data-name="Path 3053" d="M5788.05-1487.534s-76.97-69.863-161.857-80.349-245.848-96.723-251.458-96.723-15.8,144.135-15.8,144.135Z" transform="translate(-7130.413 263.342) rotate(-8)" fill="#d84955"/>
  </g>
</svg>
