<svg xmlns="http://www.w3.org/2000/svg" width="2175.962" height="502.501" viewBox="0 0 2175.962 502.501">
  <g id="Group_1132" data-name="Group 1132" transform="translate(260.736 -3816.834)">
    <path id="Path_946" data-name="Path 946" d="M7102.177,1158.536c-77.937,36.278-1219.434-1.2-1689.092,5.958s-187.843,14.852-189.54,22.662c-8.529,39.242,95.558,124.838,95.558,124.838s1741.67,170.773,1927.861,0S7102.177,1158.536,7102.177,1158.536Z" transform="matrix(0.999, -0.035, 0.035, 0.999, -5439.25, 2914.394)" fill="#6c252b"/>
    <path id="Path_945" data-name="Path 945" d="M7102.177,1158.536c-97.3,45.292-1870.1-10.622-1878.632,28.62s95.558,124.838,95.558,124.838,1741.67,170.773,1927.861,0S7102.177,1158.536,7102.177,1158.536Z" transform="matrix(0.999, -0.035, 0.035, 0.999, -5439.436, 2937.363)" fill="#a23740"/>
    <path id="Path_944" data-name="Path 944" d="M7102.177,1158.536c-97.3,45.292-1870.1-10.622-1878.632,28.62s95.558,124.838,95.558,124.838l9.264,227.071s145,19.821,293.128-27.128c438.231-138.9,1503.514-88.087,1625.469-199.943C7433.154,1141.221,7102.177,1158.536,7102.177,1158.536Z" transform="matrix(0.999, -0.035, 0.035, 0.999, -5437.97, 2959.337)" fill="#d84955"/>
  </g>
</svg>
