<svg xmlns="http://www.w3.org/2000/svg" xmlns:xlink="http://www.w3.org/1999/xlink" width="1680" height="539" viewBox="0 0 1680 539">
  <defs>
    <clipPath id="clip-path">
      <rect id="Rectangle_92" data-name="Rectangle 92" width="1680" height="539" transform="translate(-2339.582 1025.094)" fill="#d3c29f"/>
    </clipPath>
  </defs>
  <g id="Mask_Group_15" data-name="Mask Group 15" transform="translate(2339.582 -1025.094)" clip-path="url(#clip-path)">
    <g id="Group_1011" data-name="Group 1011">
      <path id="Path_3064" data-name="Path 3064" d="M5521.391-90.719C5930.6-89.395,7121.654-86,7121.654-86s56.247,159.064,0,190.749c-17.437,9.823,231.443,171.4-4.932,180-81.173,113.667-670.842-46.021-1135.067-119.435-343.495-54.321-659.812-15.892-670.431-26.159-36.122-34.928,70.824-223.678,94.66-279.966" transform="translate(-7736 1240)" fill="#6c252b" stroke="#707070" stroke-width="1"/>
      <path id="Path_3065" data-name="Path 3065" d="M5521.391-90.719C5930.6-89.395,7121.654-86,7121.654-86s56.247,159.064,0,190.749c-17.437,9.823,231.443,171.4-4.932,180-81.173,113.667-670.842-46.021-1135.067-119.435-343.495-54.321-659.812-15.892-670.431-26.159-36.122-34.928,70.824-223.678,94.66-279.966" transform="translate(-7736 1215)" fill="#a23740"/>
      <path id="Path_3066" data-name="Path 3066" d="M5530.494-96.72c59.238,17.327,1310.327,33.227,1604.932-72.433s42.476,242.217-13.771,273.9c-17.437,9.823,231.443,171.4-4.932,180-81.173,113.667-670.842-46.021-1135.067-119.435-343.495-54.321-659.812-15.892-670.431-26.159-36.122-34.928,48.3-314.933,94.66-279.966S5471.256-114.047,5530.494-96.72Z" transform="translate(-7735 1190)" fill="#d84955"/>
    </g>
  </g>
</svg>
