<svg xmlns="http://www.w3.org/2000/svg" xmlns:xlink="http://www.w3.org/1999/xlink" width="842.608" height="1038.454" viewBox="0 0 842.608 1038.454"><defs><clipPath id="a"><path d="M966.762,1464.678c6.929-3.1,13.164-.7,19.921-.529a16.734,16.734,0,0,1,15.867-1.512,22.631,22.631,0,0,1,13.186,6.152c8.173,7.649,16.5-5.642-3.542,29.382-.74,1.29-2.7,1.261-4.048,1.891a18.788,18.788,0,0,1-1.547,1.92l-.829.877a17.182,17.182,0,0,1-6.681,4.3l-.018.131a20.958,20.958,0,0,1-1.758,5.513,21.338,21.338,0,0,1-2.269,5.291c-9.913,16.47-26.433,37.821-34.47-6.912-.489-.8-.882-1.447-1.005-1.692a27.507,27.507,0,0,1-3.089-10.823c-.032-.285-.005-.574-.023-.861a38.306,38.306,0,0,1-1.2-3.831C952.634,1482.781,955.406,1469.764,966.762,1464.678Z" fill="none"/></clipPath><clipPath id="b"><ellipse cx="235" cy="83.296" rx="235" ry="83.296" transform="translate(526 1387.409)" fill="#d1c5c5" stroke="#753f39" stroke-miterlimit="10" stroke-width="9"/></clipPath><clipPath id="c"><path d="M1428.9,1102.082c5.679-15.644-4.134-33.974-16.523-44.434-7.28-10.752-19.006-18.247-31.626-23.412-18.455-7.555-38.33-10.549-58.073-12.449a15.39,15.39,0,0,0-6.614-1.649c-4.084-.1-8.173-.064-12.26.078-13.548-.753-27.231-.264-39.917,4.5a19.288,19.288,0,0,0-3.089,1.5c-2.107.519-4.208,1.059-6.3,1.643a14.124,14.124,0,0,0-1.495.512,26.526,26.526,0,0,0-10.44,2.246c-13.023-.729-24.481,6.453-32.064,16.663-.174.235-.318.483-.467.73a13.281,13.281,0,0,0-2.942.506,38.092,38.092,0,0,0-15.736,9.632c-1.6,1.544-3.089,3.206-4.67,4.773q-.827.822-1.689,1.61c.083-.144-1.382.93-2.008,1.279-5.995,3.339-8.569,10.808-6.768,17.2a7.14,7.14,0,0,0-2.385,1.945c-11.558,14.738-7.635,32.772-6,50.063,1.647,17.373,2.368,35.49,9.076,51.82,2.051,4.993,6.643,8.54,12.3,6.985,4.724-1.3,9.049-7.275,6.985-12.3-5.594-13.619-6.622-28.152-8-42.649-.722-7.61-1.508-15.218-2.156-22.835-.431-5.06-1.518-12.546,1.928-16.941a13.179,13.179,0,0,0,2.592-5.453,15.426,15.426,0,0,0,7.561-1.932,42.094,42.094,0,0,0,7.65-5.611,17.781,17.781,0,0,0,1.92-.3,110.106,110.106,0,0,1,55.72,2.57,16.431,16.431,0,0,0,6.681,8.8l.377.261a12.3,12.3,0,0,0,6.916,2.126c.567.368,1.131.738,1.7,1.1a39.445,39.445,0,0,0,9.787,4.527,58.515,58.515,0,0,0,11.374,1.72c1.473.132,2.992.141,4.46.35-.307.021,2.632.779.962.067a23.3,23.3,0,0,0,4.8,1.485,136.8,136.8,0,0,1,2.414,13.5,13.861,13.861,0,0,0-1.663,3.745c-1.754,6.384-3.616,12.752-5.306,19.157a10.582,10.582,0,0,0-2.5,3.439,44.481,44.481,0,0,0-3.153,10.326,14.049,14.049,0,0,0-2.818,2.191,32.836,32.836,0,0,0-9.305,18.066c-.49.72-.979,1.44-1.461,2.164a50.33,50.33,0,0,0-5.074,9.649c-.313.155-.618.334-.926.5a15.306,15.306,0,0,0-13.978.465c-7.1,3.807-13.654,8.1-18.486,14.668a26.035,26.035,0,0,0-4.55,10.012c-1.648,7.825,1.11,14.356,7.7,18.9a12.586,12.586,0,0,0,6.791,2.255,23.286,23.286,0,0,0,16.128,4.623c8.082-.66,16.154-1.5,24.228-2.255,8.99-.836,15.955-2.175,23.077-7.836a17.153,17.153,0,0,0,12.042.376,22.7,22.7,0,0,0,11.654-6.445,23.5,23.5,0,0,0,14.023,4.857,22.9,22.9,0,0,0,18.332-9.013,43.412,43.412,0,0,0,11.023-2.418c9.315-3.5,23.715-14.338,27.1-25.639a13.342,13.342,0,0,0,4.512-4.828c4.042-7.445,4.809-15.272,3.8-23.551-.166-1.366-1-8.121-.567-4.273-.16-1.415-.344-2.828-.425-4.25q-.089-1.378-.068-2.759c.143-.59.284-1.18.413-1.772,4.545-7.858,5.326-15.643,5.567-24.588.225-8.376.032-16.75-.474-25.111C1428.654,1102.665,1428.79,1102.387,1428.9,1102.082Z" fill="#935a27"/></clipPath><clipPath id="d"><path d="M1305.128,1142.521C1322,1114,1254.075,1131,1244,1131c-8,0-36,12-38,16s-16,18-12,30c1.9,5.692-1,17-15,23s-10,37-2,43,48,15,59-5,12-24,15-30,21-15,25-17S1299.941,1151.289,1305.128,1142.521Z" fill="#914f46" stroke="#753f39" stroke-miterlimit="10" stroke-width="6"/></clipPath><clipPath id="e"><path d="M970.592,1068.768a20.27,20.27,0,0,0-5.012-2.865,6.415,6.415,0,0,0-2.356-2.906c-4.59-3.216-11.621-1.28-14.212,3.574a6.133,6.133,0,0,0-.436,4.606,13.151,13.151,0,0,0-1.75,3.53,3.967,3.967,0,0,0-.617.569c-.146.172-.28.345-.411.517-3.322,1.884-5.285,5.643-2.753,9.77a5.965,5.965,0,0,0,2.133,2.073,7.542,7.542,0,0,0,.839,2.57c1.71,3.1,5.238,4.363,8.582,4.572,6.882.431,14.039-2.447,17.914-8.286C976.268,1080.834,976.181,1073.066,970.592,1068.768Z" fill="#f9cc52"/></clipPath><clipPath id="f"><path d="M625.611,1065.491a11.735,11.735,0,0,0-.964-8.978,9.4,9.4,0,0,0-1.157-1.584,10.45,10.45,0,0,0-2.7-3.312,11.7,11.7,0,0,0-3.807-2.086,9.872,9.872,0,0,1-1.462-1.848c-2-3.3-7.819-3.954-9.638,0-.217.472-.407.93-.581,1.384-5.168.1-9.71,2.473-11.313,8.521a5.142,5.142,0,0,0,.975,4.81,4.5,4.5,0,0,0,.595,4.094,7.231,7.231,0,0,0,.26,3.542,6.114,6.114,0,0,0,.108,2.747c1.536,5.588,9.541,7.06,14.223,5.227a9.449,9.449,0,0,0,1.039-.485,21.677,21.677,0,0,0,3.337-.552,5.141,5.141,0,0,0,3.944-.692,34.614,34.614,0,0,0,6.01-4.581A5.588,5.588,0,0,0,625.611,1065.491Z" fill="#f9cc52"/></clipPath><clipPath id="g"><path d="M921.038,1094.741a6.9,6.9,0,0,0-6.169,2.589,7.549,7.549,0,0,0-6.024,1.656,121.918,121.918,0,0,0-10.278,8.989,6.582,6.582,0,0,0-1.93,4.347,16.3,16.3,0,0,0-9.73,11.136c-.5.348-.986.718-1.465,1.117a74.465,74.465,0,0,0-8.039,7.845,13.315,13.315,0,0,0-4.611,3.311,29.409,29.409,0,0,0-5.181,7.714c-.644.688-1.323,1.34-2.026,1.968-3.019,2.7-6.315,5.126-9.506,7.626a78.28,78.28,0,0,0-7.715-8.834c-.6-.581-1.21-1.14-1.82-1.7-.005-.033-.009-.067-.014-.1a18.707,18.707,0,0,0-2.1-5.144,17.757,17.757,0,0,0-7.469-6.746,22.836,22.836,0,0,0-6.241-4.679,20.2,20.2,0,0,0-15.133-1.41,17.972,17.972,0,0,0-8.057,5.048,10.755,10.755,0,0,0-2.748,3.819,18.7,18.7,0,0,0-2.329,3.23,14.992,14.992,0,0,0-1.16,2.434,21.148,21.148,0,0,0-3.184,3.927c-1.968,3.049-3.727,6.2-5.657,9.264a12.32,12.32,0,0,0-6.748,3.983,71.078,71.078,0,0,1-5.252,6.043c-.371-.109-.746-.2-1.122-.287a15.846,15.846,0,0,0-8.226-7.113,26.078,26.078,0,0,0-9.827-9.485,22.036,22.036,0,0,0-12.868-11.37,12.224,12.224,0,0,0-1.75-2.038c-6.847-6.285-15.558-5.635-22.432,0-5.4,4.429-11.47,8.566-15.949,13.953-.381.458-.753.927-1.161,1.362-.017.019-.037.034-.054.053-.983.485-1.948,1.228-2.9,1.718-1.425.735-2.805,1.509-4.142,2.341-.268-.452-.555-.9-.87-1.354a66.66,66.66,0,0,0-6.59-8.244,19.352,19.352,0,0,0-5.9-4.166,20.272,20.272,0,0,0-4.921-4.135c-.052-.281-.1-.562-.152-.831-.385-2.207-1.839-4.161-4.079-4.31-4.565-.3-5.287-5.874-7.222-9.6-.36-.694-1.437-.55-2.153-.745a6.377,6.377,0,0,0-1.555-2.038,92.334,92.334,0,0,0-8.371-6.6,5.111,5.111,0,0,0-.876-.483c-1.99-2.081-4.063-4.1-6.06-6.152a6.573,6.573,0,0,0-3-1.834,12.056,12.056,0,0,0-2.2-1.662,1.721,1.721,0,0,0-.337-.172c-.177-.177-.342-.371-.494-.533l-.2-.207c-.125-.151-.328-.392-.379-.463-.064-.087-.123-.177-.187-.265-.2-2.774-4.812-3.295-7.507-3.909-3.746-.854-4.562-1.084-5.781,2.5-1.165,3.43.4,6.65,2.431,9.333a21.387,21.387,0,0,0,2.8,3.284c.49.43-.57,2.117-.042,2.505.847,2.26.96,3.6,1.763,5.874.531,3.113,3.812,5.653,5.438,8.5a6.666,6.666,0,0,0,.676.967c.3.82.6,1.638.888,2.459a7.937,7.937,0,0,0,1.685,2.78,13.535,13.535,0,0,0,.528,5.538,17.016,17.016,0,0,0,3.922,6.667,18.246,18.246,0,0,0,2.124,5.443c1.373,2.335,1.911,4.845,3.538,7.009.882,1.173,1.45,2.928,2.349,4.112-.012.355-.016,1.4,0,1.762.2,4.414,3.565,6.906,6.506,9.814l.343.508a68.4,68.4,0,0,0,6.788,18.494c.227.432-.953,1.3-.712,1.733.243,1.747.375,1.63,1.175,3.524.156.372-.177,1.414,0,1.763-.43.429,1.1.421.816,1.015-1.379,2.93.1,5.62-.946,8.763-1.633,4.908,5.908,5.546,9.317,4.13.116.074.224.157.346.224a8.231,8.231,0,0,0,6.2.873c.191.059.382.119.573.177a17.027,17.027,0,0,0,3.374.561,11.338,11.338,0,0,0,3.784-.552c.118-.037,1.621-.829,2.634-1.277a3.5,3.5,0,0,0,.4.182c1.566.614,3.872.251,5.456,0a31.656,31.656,0,0,1,5.695-.657c4.76.075,9.465,1.243,14.237,1.008,2.19-.108,4.578-1.03,6.692-1a13.372,13.372,0,0,1,2,.541,12.371,12.371,0,0,0,5.448-.125,5.74,5.74,0,0,0,2.458-1.232c1.871-.057,2.981,1.265,4.95.882,1.565-.306,1.4.991,2.937.587.264,0,.847-1.152,1.175-1.175-.191-.007,1.355.027,1.175,0h0c-.16-.078-.01-.1,0,0,.175,1.633,1.093.026,1.175,0,.3-.022.559,1.771.588,1.762-.149.045,1.365-1.177,1.175-1.174.723.157-.139,2.2.587,2.349,2.74.546,5.482-3.653,8.276-3.521,5.333.25,9.229,2.717,14.635,1.759,3.059,1.438,7.944-.884,11.825-.581,2.283.178,4.911,1.58,6.974.581,2.388-.1,3.57-.7,5.875-1.175,6.77,1.57,14.238,1.268,21.326.316,2.771-.372,5.308,1.375,8.047.859a18.173,18.173,0,0,0,12.924,0c.507-.048,1.682.646,2.35.587a46.883,46.883,0,0,0,5.288,0,12.832,12.832,0,0,0,5.287,0c.947-.126,1.432.765,2.35.588.883.008,2.056-.562,2.937-.588.042,0,.558,1.73.587-1.174.651.14.529,1.037,1.175,1.174,2.617.556,5.5-1.473,8.175-1.333a17.08,17.08,0,0,0,2.477-.1c.358-.033.653-.048.909-.057a15.729,15.729,0,0,0,5.53.117,6.174,6.174,0,0,0,5.094,2.366c5.632,0,7.616-5.667,5.953-9.661a14.94,14.94,0,0,0,2.306-7.118,12.963,12.963,0,0,0,2.272-5.117c.267-1.348.685-2.612,1.046-3.931.031-.114.058-.214.082-.306,1.285-2.776,2.533-5.564,3.722-8.383,2.3-5.451,2.87-11.383,4.732-17,.738-2.226,2.3-4.19,1.851-6.5,3.133-2.394,3.06-7.037,4.024-10.536,1.008-3.661,2.973-5.884,1.931-9.265a15.248,15.248,0,0,0,1.73-3.177,9.24,9.24,0,0,0,1.1-3.437,16.93,16.93,0,0,1,.828-3.472,25.656,25.656,0,0,0,2.275-5.189,6.531,6.531,0,0,0,.3-1.843q3.193-7.141,6.595-14.187C930.79,1099.862,926.927,1093.023,921.038,1094.741Zm-75.6,46.7c-.843-.943-1.293-2.148,0,0Z" fill="#f9cc52"/></clipPath><clipPath id="h"><path d="M958.926,1002.314a36.335,36.335,0,0,0-4.545-16.113c-.329-.622-.688-1.225-1.05-1.827-.165-.719-.314-1.445-.472-2.179a41.933,41.933,0,0,0-4.077-10.761c-2.683-5-6.829-9.363-10.94-13.259a75.691,75.691,0,0,0-13.555-10.558c-7.182-4.193-13.837-5.561-21.938-6.589l-6.95.934-.015.007a28.433,28.433,0,0,0-4.938-.048,110.04,110.04,0,0,0-17.112,2.673,94.164,94.164,0,0,0-21.536,8.355c-.38-.288-.761-.581-1.142-.863q-2.083-1.538-4.173-3.068a33.5,33.5,0,0,0,1.374-14.229,29.269,29.269,0,0,0,1.459-7.972,31.623,31.623,0,0,0-.853-8.7,21.3,21.3,0,0,0-.982-7.167,29.094,29.094,0,0,0-12.014-15.624c-5.107-3.491-10.038-7.139-16.172-8.763a34.045,34.045,0,0,0-12.115-1.126c-.171.017-.34.04-.511.059a40.03,40.03,0,0,0-10.862-2.214c-7.552-.542-17.718,1.934-24.512,6.864-.465.077-.929.152-1.395.234-8.333,1.474-15.5,5.946-21.8,11.393-2.584,2.236-4.909,4.722-7.433,7.01l-.014.008a25.914,25.914,0,0,0-11.8-1.313l1.982-.266a25.772,25.772,0,0,1-2.664.13c-5.078-1.316-9.829-3.567-14.727-5.492a50,50,0,0,0-8.333-2.564c-4.657-.942-9.675-1.824-14.47-1.5-11.282.751-21.453,4.746-29.539,12.831-1.937,1.937-3.571,4.137-5.312,6.238a32.536,32.536,0,0,0-10.917,9.825,34.8,34.8,0,0,0-8.639,9.129c-3.834,6.01-4.227,12.5-4.818,19.178-1.3,6.571-3.531,12.914-4.887,19.482-2.149,10.411-2.838,21.03-.061,31.422a47.055,47.055,0,0,0,22.275,28.686,97.8,97.8,0,0,0,26.586,9.658,128.591,128.591,0,0,0,13.027,2.133,7.147,7.147,0,0,0-.4,2.278c-.146,9.034-.293,18.084-1.242,27.076-.954,9.052-3.52,17.875-3.865,27a5.837,5.837,0,0,0,3.288,5.784,7.4,7.4,0,0,0-.215,9.5,41.71,41.71,0,0,1-1.692,10.438c-1.15,3.462,1.332,7.379,4.719,8.31.074.021.148.031.222.049.175.478.351.952.514,1.409a10.476,10.476,0,0,0,3.581,5.226,11.477,11.477,0,0,0,1.131.828c.331.342,1.487,1.582.731.589,2.134,2.8,5.92,4.567,9.244,2.424a6.935,6.935,0,0,0,1.168-.968,5.618,5.618,0,0,0,1.694-.891l20.3-15.375c2.569-1.946,5.141-3.96,7.847-5.713,1.554,1.181,3,2.588,4.6,3.711,3.885,2.741,7.836,5.394,11.753,8.09a5.13,5.13,0,0,0,.479.291,7.3,7.3,0,0,0,2.059,1.968c1.406.914,2.353,3.167,3.322,4.554a52.9,52.9,0,0,0,5.758,7.133,35.189,35.189,0,0,0,9.519,6.72c2.13,3.507,7.769,5.154,10.831,1.625l1.051-1.211a7.583,7.583,0,0,0,1.692-3.305c.088-.076.227-.2.5-.445.527-.488,1.041-.984,1.581-1.458q.4-.344.811-.67l.123-.092c2.685-2.063,5.584-3.924,7.972-6.345,2.814-2.853,3.9-5.774,5.563-9.319,1.568-3.34,5.214-5.923,7.452-8.844.024-.031.042-.064.066-.1a22.332,22.332,0,0,0,6.661-2.3,18.188,18.188,0,0,0,1.716-1.236c.09-.07.325-.226.567-.392a7.385,7.385,0,0,1,.734-.084,19.053,19.053,0,0,1,2.055.063,27.888,27.888,0,0,1,7.7,2.093c1.285.522,2.542,1.124,3.782,1.756.739.777,1.482,1.549,2.265,2.274.889.822,1.89,1.467,2.794,2.27.517.459-.385-.627.288.178a56.879,56.879,0,0,0,3.977,4.9c.623,1.024,1.281,2.028,2,3,.934,1.255,3.622,3.77,4.362,5.231.771,6.818,10.217,8.78,13.083,1.335a23.593,23.593,0,0,1,2.44-4.446,4.878,4.878,0,0,0,.3-.526c.107-.053.215-.1.321-.158a18.405,18.405,0,0,0,7.792-7.572c1.818-3.7,1.42-7.7.209-11.477.419-2.7.682-5.444,1.016-8.028a98.017,98.017,0,0,0,.058-26.239q3.342-13.314,5.806-26.829a43.217,43.217,0,0,0,11.082,2.008c2.788.586,5.581,1.135,8.382,1.6,5.593.926,10.877,1.633,16.316.923,6.422.978,13.836-.926,19.058-3.993a30.261,30.261,0,0,0,8.334-7.189,57.512,57.512,0,0,0,10.946-20.38,83.224,83.224,0,0,0,2.4-11.76,60.61,60.61,0,0,0,.83-9.671A29.994,29.994,0,0,0,958.926,1002.314Z" fill="#f9cc52"/></clipPath><clipPath id="i"><path d="M753.68,1102.127a11.739,11.739,0,0,0-.965-8.978,9.346,9.346,0,0,0-1.157-1.584,10.449,10.449,0,0,0-2.7-3.312,11.7,11.7,0,0,0-3.807-2.086,9.874,9.874,0,0,1-1.462-1.848c-2-3.3-7.819-3.954-9.638,0-.217.472-.407.93-.581,1.384-5.168.1-9.71,2.473-11.313,8.521a5.142,5.142,0,0,0,.975,4.81,4.5,4.5,0,0,0,.595,4.094,7.229,7.229,0,0,0,.26,3.542,6.114,6.114,0,0,0,.108,2.747c1.536,5.588,9.541,7.06,14.223,5.228a9.766,9.766,0,0,0,1.04-.486,21.713,21.713,0,0,0,3.336-.551,5.146,5.146,0,0,0,3.944-.693,34.578,34.578,0,0,0,6.01-4.581A5.59,5.59,0,0,0,753.68,1102.127Z" fill="#f9cc52"/></clipPath><clipPath id="j"><path d="M833.68,1097.127a11.739,11.739,0,0,0-.965-8.978,9.346,9.346,0,0,0-1.157-1.584,10.449,10.449,0,0,0-2.7-3.312,11.7,11.7,0,0,0-3.807-2.086,9.874,9.874,0,0,1-1.462-1.848c-2-3.3-7.819-3.954-9.638,0-.217.472-.407.93-.581,1.384-5.168.1-9.71,2.473-11.313,8.521a5.142,5.142,0,0,0,.975,4.81,4.5,4.5,0,0,0,.595,4.094,7.229,7.229,0,0,0,.26,3.542,6.114,6.114,0,0,0,.108,2.747c1.536,5.588,9.541,7.06,14.223,5.228a9.766,9.766,0,0,0,1.04-.486,21.713,21.713,0,0,0,3.336-.551,5.146,5.146,0,0,0,3.944-.693,34.578,34.578,0,0,0,6.01-4.581A5.59,5.59,0,0,0,833.68,1097.127Z" fill="#f9cc52"/></clipPath></defs><g transform="translate(-495.592 -809.528)"><g transform="translate(4 -4)"><path d="M1125.739,1492.867c-10.032,21.454-149.194,257.032-157.089,271.845s36.067,30.1,36.067,30.1,113.313,43.571,155.038,42.183,129.936-2.383,138.7-1.4,35.749,1.253,35.749,1.253l-12.86-240.616Z" fill="#d84955"/><path d="M971.434,1554.85c14.865-27.481,29.922-56.561,49.959-80.689,15.242-18.36,35.851-33.8,60.43-35.187,18.215-1.028,36.9,11.159,48.465,25.823,4.7,5.967,1.755,16.607-.945,25.658a21,21,0,0,1-4.428,20.531c-14.6,17.088-25.062,39.222-36.164,60-.42,1.11-.885,2.189-1.311,3.292l.041.01c-.2.483-.415.955-.623,1.429a322.027,322.027,0,0,1-44.478,79.041c-5.214,12.539-10.1,25.342-15.964,37.58-6.742,14.085-17.613,23.554-26.081,36.493-10.088,15.4-17.547,40.651-37.742,45.481-7.227,1.73-15.519.419-20.811-5.266-36.939-39.651-32.364-90.216-13.083-136.589C939.767,1605.854,957.643,1580.35,971.434,1554.85Z" fill="#f3f3f3"/><path d="M966.762,1464.678c6.929-3.1,13.164-.7,19.921-.529a16.734,16.734,0,0,1,15.867-1.512,22.631,22.631,0,0,1,13.186,6.152c8.173,7.649,16.5-5.642-3.542,29.382-.74,1.29-2.7,1.261-4.048,1.891a18.788,18.788,0,0,1-1.547,1.92l-.829.877a17.182,17.182,0,0,1-6.681,4.3l-.018.131a20.958,20.958,0,0,1-1.758,5.513,21.338,21.338,0,0,1-2.269,5.291c-9.913,16.47-26.433,37.821-34.47-6.912-.489-.8-.882-1.447-1.005-1.692a27.507,27.507,0,0,1-3.089-10.823c-.032-.285-.005-.574-.023-.861a38.306,38.306,0,0,1-1.2-3.831C952.634,1482.781,955.406,1469.764,966.762,1464.678Z" fill="#e9bfa3"/><g clip-path="url(#a)"><path d="M1013.125,1519.62c-7.8-40.911-14.037-62.658-37.354-75.586s10.343-18.654,24.331-10.9,31.121,53.839,31.121,53.839Z" fill="#fae5dc"/><path d="M1022.452,1524.792c-21.239-5.68-74.616-41.373-73.6-65.2s-14.456,59.055-14.456,59.055l65.289,36.2Z" fill="#cba592"/><path d="M1002.781,1538.275c-25.9-8.268-64.781-48.114-64.781-48.114l.553,42.988,56.469,19.118Z" fill="#ba9783"/></g><path d="M972.421,1774.473c-3.412,38.026,94.37,105.41,190.451,130.492,26.547,6.93-147.7-98.827-152.336-101.87S972.421,1774.473,972.421,1774.473Z" transform="translate(160 -299.081)" fill="#953e43"/><path d="M1106.422,1841.894c-32.171-5.841-59.166-11.729-68.182-15.679-26.295-11.519-44.2-32.8-41.087-35.9.569-.563,58.172,27.078,58.172,27.078S1061.122,1826.736,1106.422,1841.894Z" transform="translate(160 -278)" fill="#642a2d"/><ellipse cx="21.334" cy="40" rx="21.334" ry="40" transform="translate(1046.491 1469.928) rotate(-5.318)" fill="#875249"/><ellipse cx="39.992" cy="21.33" rx="39.992" ry="21.33" transform="translate(970.074 1601.164) rotate(-25.391)" fill="#875249"/><ellipse cx="21.334" cy="40" rx="21.334" ry="40" transform="translate(932.602 1657.034) rotate(-5.318)" fill="#875249"/><line x1="185.127" y1="109.716" transform="translate(1136.373 1493.988)" fill="none" stroke="#875249" stroke-miterlimit="9.996" stroke-width="12"/><path d="M967.693,1771.2c43.778,33.156,103.748,54.811,196.465,63.539,120.036,11.3,137.3-14.8,156.943,13.853" fill="none" stroke="#875249" stroke-miterlimit="9.996" stroke-width="12"/><path d="M1045.418,1449.446C1006.2,1500.279,903,1630.4,914.341,1701.238s47.164,94.007,81.91,40.274,137.136-241.531,137.136-241.531C1139.96,1440.729,1062.793,1422.575,1045.418,1449.446Z" fill="none" stroke="#875249" stroke-miterlimit="9.996" stroke-width="12"/><path d="M977.154,1542.973c-.026-.229-.046-.369-.046-.369l50.647-70.252c-31.2-17.117-95.429-22.244-71.558,33.673,9.9,23.191,15.18,33.434,17.981,37.486" fill="none" stroke="#875249" stroke-miterlimit="9.996" stroke-width="12"/><ellipse cx="235" cy="83.296" rx="235" ry="83.296" transform="translate(526 1387.409)" fill="#d1c5c5"/><ellipse cx="235" cy="83.296" rx="235" ry="83.296" transform="translate(526 1387.409)" fill="none" stroke="#753f39" stroke-miterlimit="10" stroke-width="9"/><g transform="translate(-528.859 252.274)"><path d="M1428.9,1102.082c5.679-15.644-4.134-33.974-16.523-44.434-7.28-10.752-19.006-18.247-31.626-23.412-18.455-7.555-38.33-10.549-58.073-12.449a15.39,15.39,0,0,0-6.614-1.649c-4.084-.1-8.173-.064-12.26.078-13.548-.753-27.231-.264-39.917,4.5a19.288,19.288,0,0,0-3.089,1.5c-2.107.519-4.208,1.059-6.3,1.643a14.124,14.124,0,0,0-1.495.512,26.526,26.526,0,0,0-10.44,2.246c-13.023-.729-24.481,6.453-32.064,16.663-.174.235-.318.483-.467.73a13.281,13.281,0,0,0-2.942.506,38.092,38.092,0,0,0-15.736,9.632c-1.6,1.544-3.089,3.206-4.67,4.773q-.827.822-1.689,1.61c.083-.144-1.382.93-2.008,1.279-5.995,3.339-8.569,10.808-6.768,17.2a7.14,7.14,0,0,0-2.385,1.945c-11.558,14.738-7.635,32.772-6,50.063,1.647,17.373,2.368,35.49,9.076,51.82,2.051,4.993,6.643,8.54,12.3,6.985,4.724-1.3,9.049-7.275,6.985-12.3-5.594-13.619-6.622-28.152-8-42.649-.722-7.61-1.508-15.218-2.156-22.835-.431-5.06-1.518-12.546,1.928-16.941a13.179,13.179,0,0,0,2.592-5.453,15.426,15.426,0,0,0,7.561-1.932,42.094,42.094,0,0,0,7.65-5.611,17.781,17.781,0,0,0,1.92-.3,110.106,110.106,0,0,1,55.72,2.57,16.431,16.431,0,0,0,6.681,8.8l.377.261a12.3,12.3,0,0,0,6.916,2.126c.567.368,1.131.738,1.7,1.1a39.445,39.445,0,0,0,9.787,4.527,58.515,58.515,0,0,0,11.374,1.72c1.473.132,2.992.141,4.46.35-.307.021,2.632.779.962.067a23.3,23.3,0,0,0,4.8,1.485,136.8,136.8,0,0,1,2.414,13.5,13.861,13.861,0,0,0-1.663,3.745c-1.754,6.384-3.616,12.752-5.306,19.157a10.582,10.582,0,0,0-2.5,3.439,44.481,44.481,0,0,0-3.153,10.326,14.049,14.049,0,0,0-2.818,2.191,32.836,32.836,0,0,0-9.305,18.066c-.49.72-.979,1.44-1.461,2.164a50.33,50.33,0,0,0-5.074,9.649c-.313.155-.618.334-.926.5a15.306,15.306,0,0,0-13.978.465c-7.1,3.807-13.654,8.1-18.486,14.668a26.035,26.035,0,0,0-4.55,10.012c-1.648,7.825,1.11,14.356,7.7,18.9a12.586,12.586,0,0,0,6.791,2.255,23.286,23.286,0,0,0,16.128,4.623c8.082-.66,16.154-1.5,24.228-2.255,8.99-.836,15.955-2.175,23.077-7.836a17.153,17.153,0,0,0,12.042.376,22.7,22.7,0,0,0,11.654-6.445,23.5,23.5,0,0,0,14.023,4.857,22.9,22.9,0,0,0,18.332-9.013,43.412,43.412,0,0,0,11.023-2.418c9.315-3.5,23.715-14.338,27.1-25.639a13.342,13.342,0,0,0,4.512-4.828c4.042-7.445,4.809-15.272,3.8-23.551-.166-1.366-1-8.121-.567-4.273-.16-1.415-.344-2.828-.425-4.25q-.089-1.378-.068-2.759c.143-.59.284-1.18.413-1.772,4.545-7.858,5.326-15.643,5.567-24.588.225-8.376.032-16.75-.474-25.111C1428.654,1102.665,1428.79,1102.387,1428.9,1102.082Z" fill="#935a27"/><g clip-path="url(#c)"><path d="M1381,1225c12-33,34.8-93.055,17.4-99.028C1428.6,1103.028,1443,1114,1443,1114l-21,107Z" fill="#6e441d"/><path d="M1402.251,1211.419C1407,1198,1424,1115,1417,1112s18-13,18-13l2,59-34.749,53.419" fill="#4a2d14"/><path d="M1399,1126c3-12,22-73-11-85s53,8,53,8l-9.841,44.587L1399,1126" fill="#6e441d"/><path d="M1411,1116c6-11,13-65,7-75s29,35,29,35l-36,40" fill="#4a2d14"/><path d="M1240.087,1230.448C1251,1235,1252,1225,1258,1217s24-20,29-22,13-35,13-35l-6.833,3.9-19.707,28.383L1251,1208l-10.913,22.448" fill="#6e441d"/><path d="M1311,1026c-31-13-136,38-141,86-3.033,29.117-9-44-9-44l91-67Z" fill="#be9c7d"/></g><path d="M1300.023,1107.665a41.333,41.333,0,0,1-18.33-1.5,17.35,17.35,0,0,0-5.016-2.2q-.8-.871-1.63-1.672a11.1,11.1,0,0,0-4.494-7.211c-20.339-13.779-46.924-14.78-68.73-3.966a8.123,8.123,0,0,0-3.189,2.839,17.118,17.118,0,0,0-3.878,2.233,13.869,13.869,0,0,0-5.856,11.524,12.054,12.054,0,0,0,.9,4.021,12.7,12.7,0,0,0-.422,6.207c-.051,7.9-.6,15.813-.152,23.7,2.776,49.358,10.813,12.767,17.071,7.071a59.689,59.689,0,0,1,20.82-12.305l14,.351a9.255,9.255,0,0,0,7.549-3.873c9.214,1.209,18.567.042,28.172-1.555a8.579,8.579,0,0,0,5.588-4.047,50.962,50.962,0,0,1,12.151,3.961c7.13,3.373,14.407-.74,15.048-8.635q.2-2.472.4-4.945C1310.423,1112.726,1305.093,1107.044,1300.023,1107.665Z" fill="#5b322c"/><g fill="none" stroke-linecap="round" stroke-linejoin="round"><path d="M1178,1092c-1,16-2,89,14,103s71.5,51.5,141.5,34.5,82-37,86-53,4-77,6-83,6-50-99-66S1174.5,1074.5,1178,1092Z" stroke="none"/><path d="M 1293.677124023438 1024.921752929688 C 1211.689331054688 1024.921020507812 1174.888427734375 1076.44189453125 1178 1092 C 1177 1108 1176 1181 1192 1195 C 1205.1376953125 1206.495483398438 1244.914428710938 1233.837646484375 1297.47509765625 1233.837646484375 C 1308.926513671875 1233.837646484375 1320.977416992188 1232.541259765625 1333.5 1229.5 C 1403.5 1212.5 1415.5 1192.5 1419.5 1176.5 C 1423.5 1160.5 1423.5 1099.5 1425.5 1093.5 C 1427.5 1087.5 1431.5 1043.5 1326.5 1027.5 C 1314.848999023438 1025.724609375 1303.91015625 1024.921875 1293.677124023438 1024.921752929688 M 1293.675170898438 1012.921875 C 1293.67529296875 1012.921875 1293.67529296875 1012.921875 1293.67529296875 1012.921875 C 1304.833374023438 1012.921875 1316.4853515625 1013.83544921875 1328.307739257812 1015.636962890625 C 1381.670043945312 1023.768310546875 1416.215698242188 1040.135375976562 1430.984985351562 1064.283569335938 C 1439.06005859375 1077.486572265625 1439.209716796875 1090.318237304688 1436.884155273438 1097.294677734375 C 1436.53662109375 1099.358032226562 1436.008911132812 1112.588745117188 1435.5849609375 1123.219848632812 C 1434.552001953125 1149.118774414062 1433.568969726562 1169.701538085938 1431.141723632812 1179.410400390625 C 1426.044921875 1199.797607421875 1410.795043945312 1223.0771484375 1336.331909179688 1241.1611328125 C 1323.55419921875 1244.26416015625 1310.480834960938 1245.837646484375 1297.47509765625 1245.837646484375 C 1233.717651367188 1245.837646484375 1188.98828125 1208.31005859375 1184.097900390625 1204.030883789062 C 1162.07470703125 1184.760498046875 1165.385864257812 1103.693359375 1165.9541015625 1092.522583007812 C 1164.966430664062 1083.275390625 1169.8095703125 1071.428466796875 1179.466186523438 1059.649169921875 C 1188.45263671875 1048.6875 1223.246948242188 1012.921875 1293.675170898438 1012.921875 Z" stroke="none" fill="#753f39"/></g><path d="M1316.5,1148.5c13,1,90.318-4.3,114.659-60.152" fill="none" stroke="#753f39" stroke-linecap="round" stroke-linejoin="round" stroke-width="12"/><path d="M1252.309,1202.314c11.592-.339,31.065-13.249,34.691-22.314,4-10,28-54,24-70-33,0-34-12-45-19s-35-11-49-7-30,11.754-30,20c0,16,0,62,7,65" fill="none" stroke="#914f46" stroke-linejoin="round" stroke-width="6"/><path d="M1305.128,1142.521C1322,1114,1254.075,1131,1244,1131c-8,0-36,12-38,16s-16,18-12,30c1.9,5.692-1,17-15,23s-10,37-2,43,48,15,59-5,12-24,15-30,21-15,25-17S1299.941,1151.289,1305.128,1142.521Z" fill="#914f46"/><g clip-path="url(#d)"><path d="M1199,1249c15-7,39-40,44-53s28-18,31-20,26.849-24.7,29.424-27.353S1287,1195,1287,1195l-66,83-22-29" fill="#6d3b35"/><path d="M1166,1238c8-19,13-35,25-44C1162.219,1180.818,1166,1238,1166,1238Z" fill="#bd9590"/><path d="M1194,1185c7-13,23-54,62-54-22-7-67.109,15.138-67.109,15.138L1194,1185" fill="#bd9590"/></g><path d="M1305.128,1142.521C1322,1114,1254.075,1131,1244,1131c-8,0-36,12-38,16s-16,18-12,30c1.9,5.692-1,17-15,23s-10,37-2,43,48,15,59-5,12-24,15-30,21-15,25-17S1299.941,1151.289,1305.128,1142.521Z" fill="none" stroke="#753f39" stroke-miterlimit="10" stroke-width="6"/></g></g><path d="M970.592,1068.768a20.27,20.27,0,0,0-5.012-2.865,6.415,6.415,0,0,0-2.356-2.906c-4.59-3.216-11.621-1.28-14.212,3.574a6.133,6.133,0,0,0-.436,4.606,13.151,13.151,0,0,0-1.75,3.53,3.967,3.967,0,0,0-.617.569c-.146.172-.28.345-.411.517-3.322,1.884-5.285,5.643-2.753,9.77a5.965,5.965,0,0,0,2.133,2.073,7.542,7.542,0,0,0,.839,2.57c1.71,3.1,5.238,4.363,8.582,4.572,6.882.431,14.039-2.447,17.914-8.286C976.268,1080.834,976.181,1073.066,970.592,1068.768Z" fill="#f9cc52"/><g clip-path="url(#e)"><path d="M958,1101c-9-8-5-40-3-44s-19,18-19,18Z" fill="#fdebba"/><path d="M958,1109c5-10,13-42,11-50s31,15,31,15l-19,35Z" fill="#bb993e"/><path d="M966,1103c2-5,7-31,5-42s31,10,31,10l-36,34Z" fill="#7d6629"/></g><path d="M625.611,1065.491a11.735,11.735,0,0,0-.964-8.978,9.4,9.4,0,0,0-1.157-1.584,10.45,10.45,0,0,0-2.7-3.312,11.7,11.7,0,0,0-3.807-2.086,9.872,9.872,0,0,1-1.462-1.848c-2-3.3-7.819-3.954-9.638,0-.217.472-.407.93-.581,1.384-5.168.1-9.71,2.473-11.313,8.521a5.142,5.142,0,0,0,.975,4.81,4.5,4.5,0,0,0,.595,4.094,7.231,7.231,0,0,0,.26,3.542,6.114,6.114,0,0,0,.108,2.747c1.536,5.588,9.541,7.06,14.223,5.227a9.449,9.449,0,0,0,1.039-.485,21.677,21.677,0,0,0,3.337-.552,5.141,5.141,0,0,0,3.944-.692,34.614,34.614,0,0,0,6.01-4.581A5.588,5.588,0,0,0,625.611,1065.491Z" fill="#f9cc52"/><g clip-path="url(#f)"><path d="M606,1042c-5,12-7,37,0,41C590,1081,593,1050,606,1042Z" fill="#fdebba"/><path d="M614.53,1076.971C618,1068,618,1044,615,1039s24,35,24,35l-24.47,2.971" fill="#bb993e"/><path d="M618,1079c2-10,4-28,2-33s19,17,19,17l-14,21Z" fill="#7d6629"/></g><path d="M752.606,1210.11c.067,0,.132,0,.2,0l-.052-.011Z" fill="#f9cc52"/><path d="M921.038,1094.741a6.9,6.9,0,0,0-6.169,2.589,7.549,7.549,0,0,0-6.024,1.656,121.918,121.918,0,0,0-10.278,8.989,6.582,6.582,0,0,0-1.93,4.347,16.3,16.3,0,0,0-9.73,11.136c-.5.348-.986.718-1.465,1.117a74.465,74.465,0,0,0-8.039,7.845,13.315,13.315,0,0,0-4.611,3.311,29.409,29.409,0,0,0-5.181,7.714c-.644.688-1.323,1.34-2.026,1.968-3.019,2.7-6.315,5.126-9.506,7.626a78.28,78.28,0,0,0-7.715-8.834c-.6-.581-1.21-1.14-1.82-1.7-.005-.033-.009-.067-.014-.1a18.707,18.707,0,0,0-2.1-5.144,17.757,17.757,0,0,0-7.469-6.746,22.836,22.836,0,0,0-6.241-4.679,20.2,20.2,0,0,0-15.133-1.41,17.972,17.972,0,0,0-8.057,5.048,10.755,10.755,0,0,0-2.748,3.819,18.7,18.7,0,0,0-2.329,3.23,14.992,14.992,0,0,0-1.16,2.434,21.148,21.148,0,0,0-3.184,3.927c-1.968,3.049-3.727,6.2-5.657,9.264a12.32,12.32,0,0,0-6.748,3.983,71.078,71.078,0,0,1-5.252,6.043c-.371-.109-.746-.2-1.122-.287a15.846,15.846,0,0,0-8.226-7.113,26.078,26.078,0,0,0-9.827-9.485,22.036,22.036,0,0,0-12.868-11.37,12.224,12.224,0,0,0-1.75-2.038c-6.847-6.285-15.558-5.635-22.432,0-5.4,4.429-11.47,8.566-15.949,13.953-.381.458-.753.927-1.161,1.362-.017.019-.037.034-.054.053-.983.485-1.948,1.228-2.9,1.718-1.425.735-2.805,1.509-4.142,2.341-.268-.452-.555-.9-.87-1.354a66.66,66.66,0,0,0-6.59-8.244,19.352,19.352,0,0,0-5.9-4.166,20.272,20.272,0,0,0-4.921-4.135c-.052-.281-.1-.562-.152-.831-.385-2.207-1.839-4.161-4.079-4.31-4.565-.3-5.287-5.874-7.222-9.6-.36-.694-1.437-.55-2.153-.745a6.377,6.377,0,0,0-1.555-2.038,92.334,92.334,0,0,0-8.371-6.6,5.111,5.111,0,0,0-.876-.483c-1.99-2.081-4.063-4.1-6.06-6.152a6.573,6.573,0,0,0-3-1.834,12.056,12.056,0,0,0-2.2-1.662,1.721,1.721,0,0,0-.337-.172c-.177-.177-.342-.371-.494-.533l-.2-.207c-.125-.151-.328-.392-.379-.463-.064-.087-.123-.177-.187-.265-.2-2.774-4.812-3.295-7.507-3.909-3.746-.854-4.562-1.084-5.781,2.5-1.165,3.43.4,6.65,2.431,9.333a21.387,21.387,0,0,0,2.8,3.284c.49.43-.57,2.117-.042,2.505.847,2.26.96,3.6,1.763,5.874.531,3.113,3.812,5.653,5.438,8.5a6.666,6.666,0,0,0,.676.967c.3.82.6,1.638.888,2.459a7.937,7.937,0,0,0,1.685,2.78,13.535,13.535,0,0,0,.528,5.538,17.016,17.016,0,0,0,3.922,6.667,18.246,18.246,0,0,0,2.124,5.443c1.373,2.335,1.911,4.845,3.538,7.009.882,1.173,1.45,2.928,2.349,4.112-.012.355-.016,1.4,0,1.762.2,4.414,3.565,6.906,6.506,9.814l.343.508a68.4,68.4,0,0,0,6.788,18.494c.227.432-.953,1.3-.712,1.733.243,1.747.375,1.63,1.175,3.524.156.372-.177,1.414,0,1.763-.43.429,1.1.421.816,1.015-1.379,2.93.1,5.62-.946,8.763-1.633,4.908,5.908,5.546,9.317,4.13.116.074.224.157.346.224a8.231,8.231,0,0,0,6.2.873c.191.059.382.119.573.177a17.027,17.027,0,0,0,3.374.561,11.338,11.338,0,0,0,3.784-.552c.118-.037,1.621-.829,2.634-1.277a3.5,3.5,0,0,0,.4.182c1.566.614,3.872.251,5.456,0a31.656,31.656,0,0,1,5.695-.657c4.76.075,9.465,1.243,14.237,1.008,2.19-.108,4.578-1.03,6.692-1a13.372,13.372,0,0,1,2,.541,12.371,12.371,0,0,0,5.448-.125,5.74,5.74,0,0,0,2.458-1.232c1.871-.057,2.981,1.265,4.95.882,1.565-.306,1.4.991,2.937.587.264,0,.847-1.152,1.175-1.175-.191-.007,1.355.027,1.175,0h0c-.16-.078-.01-.1,0,0,.175,1.633,1.093.026,1.175,0,.3-.022.559,1.771.588,1.762-.149.045,1.365-1.177,1.175-1.174.723.157-.139,2.2.587,2.349,2.74.546,5.482-3.653,8.276-3.521,5.333.25,9.229,2.717,14.635,1.759,3.059,1.438,7.944-.884,11.825-.581,2.283.178,4.911,1.58,6.974.581,2.388-.1,3.57-.7,5.875-1.175,6.77,1.57,14.238,1.268,21.326.316,2.771-.372,5.308,1.375,8.047.859a18.173,18.173,0,0,0,12.924,0c.507-.048,1.682.646,2.35.587a46.883,46.883,0,0,0,5.288,0,12.832,12.832,0,0,0,5.287,0c.947-.126,1.432.765,2.35.588.883.008,2.056-.562,2.937-.588.042,0,.558,1.73.587-1.174.651.14.529,1.037,1.175,1.174,2.617.556,5.5-1.473,8.175-1.333a17.08,17.08,0,0,0,2.477-.1c.358-.033.653-.048.909-.057a15.729,15.729,0,0,0,5.53.117,6.174,6.174,0,0,0,5.094,2.366c5.632,0,7.616-5.667,5.953-9.661a14.94,14.94,0,0,0,2.306-7.118,12.963,12.963,0,0,0,2.272-5.117c.267-1.348.685-2.612,1.046-3.931.031-.114.058-.214.082-.306,1.285-2.776,2.533-5.564,3.722-8.383,2.3-5.451,2.87-11.383,4.732-17,.738-2.226,2.3-4.19,1.851-6.5,3.133-2.394,3.06-7.037,4.024-10.536,1.008-3.661,2.973-5.884,1.931-9.265a15.248,15.248,0,0,0,1.73-3.177,9.24,9.24,0,0,0,1.1-3.437,16.93,16.93,0,0,1,.828-3.472,25.656,25.656,0,0,0,2.275-5.189,6.531,6.531,0,0,0,.3-1.843q3.193-7.141,6.595-14.187C930.79,1099.862,926.927,1093.023,921.038,1094.741Zm-75.6,46.7c-.843-.943-1.293-2.148,0,0Z" fill="#f9cc52"/><g clip-path="url(#g)"><path d="M923.071,1083.617c-21.149,28.2-85.183,169.19-100.457,168.015s75.2-27.023,75.2-27.023L936.583,1098.3Z" fill="#bb993e"/><path d="M658.711,1090.666c4.112,12.337,37.01,145.1,42.3,145.1s-35.248-7.637-35.248-7.637.587,32.31-18.8-22.912L627.575,1150l-21.736-56.985v-11.162Z" fill="#fdebba"/><path d="M860.8,1242.233c0-1.763,48.759-113.969,68.733-126.306S898.4,1238.121,898.4,1238.121Z" fill="#7d6629"/></g><path d="M958.926,1002.314a36.335,36.335,0,0,0-4.545-16.113c-.329-.622-.688-1.225-1.05-1.827-.165-.719-.314-1.445-.472-2.179a41.933,41.933,0,0,0-4.077-10.761c-2.683-5-6.829-9.363-10.94-13.259a75.691,75.691,0,0,0-13.555-10.558c-7.182-4.193-13.837-5.561-21.938-6.589l-6.95.934-.015.007a28.433,28.433,0,0,0-4.938-.048,110.04,110.04,0,0,0-17.112,2.673,94.164,94.164,0,0,0-21.536,8.355c-.38-.288-.761-.581-1.142-.863q-2.083-1.538-4.173-3.068a33.5,33.5,0,0,0,1.374-14.229,29.269,29.269,0,0,0,1.459-7.972,31.623,31.623,0,0,0-.853-8.7,21.3,21.3,0,0,0-.982-7.167,29.094,29.094,0,0,0-12.014-15.624c-5.107-3.491-10.038-7.139-16.172-8.763a34.045,34.045,0,0,0-12.115-1.126c-.171.017-.34.04-.511.059a40.03,40.03,0,0,0-10.862-2.214c-7.552-.542-17.718,1.934-24.512,6.864-.465.077-.929.152-1.395.234-8.333,1.474-15.5,5.946-21.8,11.393-2.584,2.236-4.909,4.722-7.433,7.01l-.014.008a25.914,25.914,0,0,0-11.8-1.313l1.982-.266a25.772,25.772,0,0,1-2.664.13c-5.078-1.316-9.829-3.567-14.727-5.492a50,50,0,0,0-8.333-2.564c-4.657-.942-9.675-1.824-14.47-1.5-11.282.751-21.453,4.746-29.539,12.831-1.937,1.937-3.571,4.137-5.312,6.238a32.536,32.536,0,0,0-10.917,9.825,34.8,34.8,0,0,0-8.639,9.129c-3.834,6.01-4.227,12.5-4.818,19.178-1.3,6.571-3.531,12.914-4.887,19.482-2.149,10.411-2.838,21.03-.061,31.422a47.055,47.055,0,0,0,22.275,28.686,97.8,97.8,0,0,0,26.586,9.658,128.591,128.591,0,0,0,13.027,2.133,7.147,7.147,0,0,0-.4,2.278c-.146,9.034-.293,18.084-1.242,27.076-.954,9.052-3.52,17.875-3.865,27a5.837,5.837,0,0,0,3.288,5.784,7.4,7.4,0,0,0-.215,9.5,41.71,41.71,0,0,1-1.692,10.438c-1.15,3.462,1.332,7.379,4.719,8.31.074.021.148.031.222.049.175.478.351.952.514,1.409a10.476,10.476,0,0,0,3.581,5.226,11.477,11.477,0,0,0,1.131.828c.331.342,1.487,1.582.731.589,2.134,2.8,5.92,4.567,9.244,2.424a6.935,6.935,0,0,0,1.168-.968,5.618,5.618,0,0,0,1.694-.891l20.3-15.375c2.569-1.946,5.141-3.96,7.847-5.713,1.554,1.181,3,2.588,4.6,3.711,3.885,2.741,7.836,5.394,11.753,8.09a5.13,5.13,0,0,0,.479.291,7.3,7.3,0,0,0,2.059,1.968c1.406.914,2.353,3.167,3.322,4.554a52.9,52.9,0,0,0,5.758,7.133,35.189,35.189,0,0,0,9.519,6.72c2.13,3.507,7.769,5.154,10.831,1.625l1.051-1.211a7.583,7.583,0,0,0,1.692-3.305c.088-.076.227-.2.5-.445.527-.488,1.041-.984,1.581-1.458q.4-.344.811-.67l.123-.092c2.685-2.063,5.584-3.924,7.972-6.345,2.814-2.853,3.9-5.774,5.563-9.319,1.568-3.34,5.214-5.923,7.452-8.844.024-.031.042-.064.066-.1a22.332,22.332,0,0,0,6.661-2.3,18.188,18.188,0,0,0,1.716-1.236c.09-.07.325-.226.567-.392a7.385,7.385,0,0,1,.734-.084,19.053,19.053,0,0,1,2.055.063,27.888,27.888,0,0,1,7.7,2.093c1.285.522,2.542,1.124,3.782,1.756.739.777,1.482,1.549,2.265,2.274.889.822,1.89,1.467,2.794,2.27.517.459-.385-.627.288.178a56.879,56.879,0,0,0,3.977,4.9c.623,1.024,1.281,2.028,2,3,.934,1.255,3.622,3.77,4.362,5.231.771,6.818,10.217,8.78,13.083,1.335a23.593,23.593,0,0,1,2.44-4.446,4.878,4.878,0,0,0,.3-.526c.107-.053.215-.1.321-.158a18.405,18.405,0,0,0,7.792-7.572c1.818-3.7,1.42-7.7.209-11.477.419-2.7.682-5.444,1.016-8.028a98.017,98.017,0,0,0,.058-26.239q3.342-13.314,5.806-26.829a43.217,43.217,0,0,0,11.082,2.008c2.788.586,5.581,1.135,8.382,1.6,5.593.926,10.877,1.633,16.316.923,6.422.978,13.836-.926,19.058-3.993a30.261,30.261,0,0,0,8.334-7.189,57.512,57.512,0,0,0,10.946-20.38,83.224,83.224,0,0,0,2.4-11.76,60.61,60.61,0,0,0,.83-9.671A29.994,29.994,0,0,0,958.926,1002.314Z" fill="#f9cc52"/><g clip-path="url(#h)"><path d="M839.651,1148.238l5.295-113.854a11.763,11.763,0,0,1,12.851-11.169c46.092,4.338,110.958,5.248,115.8-13.032,5.287-19.974-13.511,187.4-13.511,187.4Z" fill="#bb993e"/><path d="M857.422,1147.478c.736-25.125,4.034-74.267,5.264-96.022a10.389,10.389,0,0,1,11.357-9.767c25.3,2.443,74.509,12.236,88.976-12.707s-8.793,99.784-16.118,137.864a10.4,10.4,0,0,1-12.721,8.126l-68.867-17.1A10.4,10.4,0,0,1,857.422,1147.478Z" fill="#7d6629"/><path d="M671.466,867.354c-19.76,22.212-33.783,180.2-9.941,191.959s-91.2-31.1-91.2-31.1L549.411,937.3Z" fill="#fdebba"/><path d="M750.482,974.592c-2.937-22.324-3.525-79.308,18.211-91.645s-34.66,13.512-34.66,13.512l5.1,16.441s-4.835,11.413-4.38,15.4,1.255,28.543,4.38,32.716S750.482,974.592,750.482,974.592Z" fill="#fdebba"/><path d="M823.2,969.061c24.086-5.288,113.381-29.374,135.117-10.575C899.572,915.6,850.095,945.9,850.095,945.9l-3.176,6.383-27.242,12.662Z" fill="#fdebba"/></g><path d="M753.68,1102.127a11.739,11.739,0,0,0-.965-8.978,9.346,9.346,0,0,0-1.157-1.584,10.449,10.449,0,0,0-2.7-3.312,11.7,11.7,0,0,0-3.807-2.086,9.874,9.874,0,0,1-1.462-1.848c-2-3.3-7.819-3.954-9.638,0-.217.472-.407.93-.581,1.384-5.168.1-9.71,2.473-11.313,8.521a5.142,5.142,0,0,0,.975,4.81,4.5,4.5,0,0,0,.595,4.094,7.229,7.229,0,0,0,.26,3.542,6.114,6.114,0,0,0,.108,2.747c1.536,5.588,9.541,7.06,14.223,5.228a9.766,9.766,0,0,0,1.04-.486,21.713,21.713,0,0,0,3.336-.551,5.146,5.146,0,0,0,3.944-.693,34.578,34.578,0,0,0,6.01-4.581A5.59,5.59,0,0,0,753.68,1102.127Z" fill="#f9cc52"/><g clip-path="url(#i)"><path d="M734.068,1078.636c-5,12-7,37,0,41C718.068,1117.636,721.068,1086.636,734.068,1078.636Z" fill="#fdebba"/><path d="M742.6,1113.608c3.47-8.972,3.47-32.972.47-37.972s24,35,24,35l-24.47,2.972" fill="#bb993e"/><path d="M746.068,1115.636c2-10,4-28,2-33s19,17,19,17l-14,21Z" fill="#7d6629"/></g><path d="M833.68,1097.127a11.739,11.739,0,0,0-.965-8.978,9.346,9.346,0,0,0-1.157-1.584,10.449,10.449,0,0,0-2.7-3.312,11.7,11.7,0,0,0-3.807-2.086,9.874,9.874,0,0,1-1.462-1.848c-2-3.3-7.819-3.954-9.638,0-.217.472-.407.93-.581,1.384-5.168.1-9.71,2.473-11.313,8.521a5.142,5.142,0,0,0,.975,4.81,4.5,4.5,0,0,0,.595,4.094,7.229,7.229,0,0,0,.26,3.542,6.114,6.114,0,0,0,.108,2.747c1.536,5.588,9.541,7.06,14.223,5.228a9.766,9.766,0,0,0,1.04-.486,21.713,21.713,0,0,0,3.336-.551,5.146,5.146,0,0,0,3.944-.693,34.578,34.578,0,0,0,6.01-4.581A5.59,5.59,0,0,0,833.68,1097.127Z" fill="#f9cc52"/><g clip-path="url(#j)"><path d="M814.068,1073.636c-5,12-7,37,0,41C798.068,1112.636,801.068,1081.636,814.068,1073.636Z" fill="#fdebba"/><path d="M822.6,1108.608c3.47-8.972,3.47-32.972.47-37.972s24,35,24,35l-24.47,2.972" fill="#bb993e"/><path d="M826.068,1110.636c2-10,4-28,2-33s19,17,19,17l-14,21Z" fill="#7d6629"/></g><path d="M724.952,1112.694C728,1117,750,1134,758,1104,750,1109,729.9,1120.389,724.952,1112.694Z" fill="#bb993e"/><path d="M806.952,1109.694C810,1114,832,1131,840,1101,832,1106,811.9,1117.389,806.952,1109.694Z" fill="#bb993e"/><path d="M893.022,1212.859c1.263-5.874,1.851-7.637,2.937-13.511,4.669-25.251,23.063-71.116,26.436-79.308,4.112-9.987,13.512-24.674-.587-25.261s-65.8,58.746-65.8,58.746-18.8-27.023-34.073-30.548-35.248,41.71-44.647,38.185-32.311-34.073-41.123-35.248-31.723,29.374-37.6,23.5-54.047-57.572-65.8-56.984,41.122,93.407,39.948,106.919l-1.175,13.511Z" fill="none" stroke="#753f39" stroke-linejoin="round" stroke-width="12"/><path d="M683.121,1133.523c1.35-21.708,3.7-85.154,3.7-85.154" fill="#f4f4f4" stroke="#753f39" stroke-linejoin="round" stroke-width="12"/><path d="M712.082,1052.481c-25.261-4.112-84.595-16.449-88.12-48.76s15.3-130.852,101.632-98.107c6.7,2.54,10.579,5.262,12.825,7.63" fill="none" stroke="#753f39" stroke-linecap="round" stroke-linejoin="round" stroke-width="12"/><path d="M847.2,950.849s22.324-73.433-56.984-65.8-57.572,81.658-39.948,90.47" fill="none" stroke="#753f39" stroke-linecap="round" stroke-linejoin="round" stroke-width="12"/><path d="M820.763,964.948c26.436-14.1,76.958-39.36,114.556-10.574s45.823,150.392-78.133,98.107" fill="none" stroke="#753f39" stroke-linecap="round" stroke-linejoin="round" stroke-width="12"/><line y1="73.098" x2="5.261" transform="translate(873.183 1061.609)" stroke-width="12" stroke="#753f39" stroke-linecap="round" stroke-linejoin="round" fill="none"/><path d="M605.684,1046.575c-3.92.664-6.718,4.217-8.832,7.584a23.3,23.3,0,0,0-3.8,10.245,12.921,12.921,0,0,0,3.319,10.16c2.444,2.461,5.963,3.548,9.4,3.978,5.374.671,11.191-.182,15.386-3.607a18.208,18.208,0,0,0,5.114-7.125,15.99,15.99,0,0,0,1.221-9.247,14.464,14.464,0,0,0-6.321-8.9,18.449,18.449,0,0,0-9.939-3.516A37.712,37.712,0,0,0,605.684,1046.575Z" fill="none" stroke="#753f39" stroke-linejoin="round" stroke-width="12"/><path d="M955.227,1063.024c-3.92.664-6.718,4.217-8.832,7.584a23.285,23.285,0,0,0-3.8,10.245,12.921,12.921,0,0,0,3.319,10.16c2.444,2.461,5.963,3.548,9.4,3.978,5.374.671,11.191-.182,15.386-3.607a18.194,18.194,0,0,0,5.113-7.125,15.981,15.981,0,0,0,1.222-9.247,14.468,14.468,0,0,0-6.321-8.9,18.449,18.449,0,0,0-9.939-3.516A37.7,37.7,0,0,0,955.227,1063.024Z" fill="none" stroke="#753f39" stroke-linejoin="round" stroke-width="12"/><path d="M734.34,1082.411c-3.92.663-6.719,4.216-8.832,7.584a23.29,23.29,0,0,0-3.8,10.244,12.925,12.925,0,0,0,3.32,10.161c2.443,2.461,5.962,3.547,9.4,3.977,5.373.671,11.19-.182,15.385-3.607a18.2,18.2,0,0,0,5.114-7.124,15.993,15.993,0,0,0,1.222-9.248,14.464,14.464,0,0,0-6.322-8.9,18.447,18.447,0,0,0-9.939-3.516A37.428,37.428,0,0,0,734.34,1082.411Z" fill="none" stroke="#753f39" stroke-linejoin="round" stroke-width="12"/><path d="M814.823,1079.473c-3.921.664-6.719,4.217-8.833,7.584a23.311,23.311,0,0,0-3.8,10.245,12.925,12.925,0,0,0,3.319,10.16c2.444,2.461,5.963,3.548,9.4,3.978,5.373.671,11.19-.182,15.385-3.607a18.2,18.2,0,0,0,5.114-7.125,15.989,15.989,0,0,0,1.222-9.247,14.466,14.466,0,0,0-6.322-8.9,18.447,18.447,0,0,0-9.939-3.516A37.693,37.693,0,0,0,814.823,1079.473Z" fill="none" stroke="#753f39" stroke-linejoin="round" stroke-width="12"/><g transform="translate(-528 701.205)" opacity="0.488"><path d="M3009.922-2126.065l-28.673,30.859" transform="translate(-1884 2622)" fill="none" stroke="#fffcf4" stroke-linecap="round" stroke-width="9"/><path d="M3009.922-2126.065l-28.673,30.859" transform="translate(-2488.78 -605.697) rotate(50)" fill="none" stroke="#fffcf4" stroke-linecap="round" stroke-width="9"/><path d="M3009.922-2126.065l-28.673,30.859" transform="translate(-1531.856 -2347.456) rotate(79)" fill="none" stroke="#fffcf4" stroke-linecap="round" stroke-width="9"/><path d="M3009.922-2126.065l-28.673,30.859" transform="translate(1945.34 -3472.279) rotate(135)" fill="none" stroke="#fffcf4" stroke-linecap="round" stroke-width="9"/><path d="M2981.25-2126.065l28.673,30.859" transform="translate(-1465.983 2617)" fill="none" stroke="#fffcf4" stroke-linecap="round" stroke-width="9"/><path d="M28.672,30.859,0,0" transform="translate(1593.65 347.138) rotate(135)" fill="none" stroke="#fffcf4" stroke-linecap="round" stroke-width="9"/><path d="M28.673,30.859,0,0" transform="translate(1551.484 196.236) rotate(101)" fill="none" stroke="#fffcf4" stroke-linecap="round" stroke-width="9"/><path d="M0,0" transform="translate(1299.375 111.317) rotate(45)" fill="none" stroke="#fffcf4" stroke-linecap="round" stroke-width="9"/></g></g></svg>