<svg height="765" viewBox="0 0 1680 765" width="1680" xmlns="http://www.w3.org/2000/svg" xmlns:xlink="http://www.w3.org/1999/xlink"><clipPath id="a"><path d="m4615 2428h1680v765h-1680z"/></clipPath><g clip-path="url(#a)" transform="translate(-4615 -2428)"><path d="m-19.424 33.829c420-156.976 1260-156.976 1680 0s449.424 351.089 29.424 508.065-1260 156.977-1680 0-449.424-351.089-29.424-508.065z" fill="#6c252b" transform="translate(4652 2532.936)"/><path d="m-19.424 33.829c420-156.976 1260-156.976 1680 0s449.424 351.089 29.424 508.065-1260 156.977-1680 0-449.424-351.089-29.424-508.065z" fill="#a23740" transform="translate(4652 2522.936)"/><path d="m-19.424 33.829c420-156.976 1260-156.976 1680 0s449.424 351.089 29.424 508.065-1260 156.977-1680 0-449.424-351.089-29.424-508.065z" fill="#d84955" transform="translate(4652 2511.936)"/></g></svg>