<svg xmlns="http://www.w3.org/2000/svg" xmlns:xlink="http://www.w3.org/1999/xlink" width="413.843" height="615.001" viewBox="0 0 413.843 615.001">
  <defs>
    <clipPath id="clip-path">
      <path id="Path_2604" data-name="Path 2604" d="M602.106,1786.431a18.993,18.993,0,0,0-1.487-6q.085-5.23.111-10.459c.206-.885.385-1.782.53-2.7,2.505-15.875,3.08-32.493,2.735-48.544-.167-7.744-1.061-15.387-1.6-23.1-.52-7.417.621-14.7.772-22.1a114.291,114.291,0,0,0-3.294-27.988,20.422,20.422,0,0,0,1.548-6.151c2.349-24.126-2.61-48.292-6.083-72.074q-.125-.97-.247-1.94-.246-1.986-.466-3.975c-.315-2.869-.587-5.743-.795-8.623-.42-5.807-.385-11.642-.906-17.441-1.195-13.323-5.691-24.941-11.892-36.709-3.19-6.054-11.163-9.008-17.726-7.253a12.271,12.271,0,0,0-3.627-1.2,16.225,16.225,0,0,0-3.758-1.671,103.808,103.808,0,0,0-17.022-3.543c-6.69-4.589-14.328-6.9-22.621-7.852-7.9-.908-15.694.2-23.58.705-2.239.144-4.487.244-6.732.2-.891-.016-1.8-.106-2.687-.105-.206,0-.38,0-.539,0-4.544-.93-9.067-2.074-13.643-2.838-9.264-1.545-18.531-1.715-27.894-1.825-17.64-.208-35.339-.242-52.873,1.956a317.482,317.482,0,0,0-53.124,11.6c-9.457,2.891-19.153,7.219-25.776,14.841a60.7,60.7,0,0,0-10.854,18.847,15.815,15.815,0,0,0-2.055,6.145q-.267.894-.517,1.793a14.841,14.841,0,0,0-.463,5.326,19.006,19.006,0,0,0-3.739,6.657c-1.253,3.783-1.169,7.962-1.325,11.918q-.438,11.1-.618,22.21-.35,21.52.266,43.043c.4,13.975,1.382,28.25-.784,42.138-.155,1-.348,2.234-.392,2.529-.27,1.779-.55,3.557-.824,5.336-.693,4.492-1.347,8.99-1.914,13.5a107.97,107.97,0,0,0-.86,21.372,18.656,18.656,0,0,0,1.072,4.976,39.864,39.864,0,0,0,.212,4.226c.107,1.006.247,1.978.434,2.918q-.56,4.017-1.059,8.04a10.8,10.8,0,0,0-.33,1.5c-.2,1.418-.352,2.809-.453,4.182l-.107-.015q-.2,1.889-.392,3.776a11.21,11.21,0,0,0-.024,2.026,439.785,439.785,0,0,0-2.205,58.92q.208,6.456.616,12.9a17.383,17.383,0,0,0-3.753,9.949,51.123,51.123,0,0,0,1.113,14.015c-.1,1.828-.24,3.655-.4,5.478-.532,6.154-1.172,12.3-.443,18.464.856,7.251,3.01,13.468,5.581,20.241,2.005,5.283,2.475,11.458,4.8,16.655-1.842,4.316-1.5,9.34.634,14.29,2.07,4.807,3.746,9.685,7.391,13.591,4.514,4.837,11.275,6.8,17.7,6.878.711.009,1.42-.023,2.128-.063a20.842,20.842,0,0,0,7.433,22.633,23.342,23.342,0,0,0,5.791,10.641c6.553,6.753,16.364,8.322,25.373,8.236,17.238-.164,34.427-9.239,39.247-26.762a15.064,15.064,0,0,0,.21-6.866c.735.075,1.471.146,2.205.229a11.157,11.157,0,0,0,4.336-.385,12.4,12.4,0,0,0,1.23.645,14.8,14.8,0,0,0,9.379,3.153c5-.158,9.992-.106,14.982.218,2.269.148,4.525.38,6.787.6l.64.06c1.1.172,2.195.329,3.289.513a139.954,139.954,0,0,0,17.4,2.3c4.789.2,9.593.221,14.385.294,1.4.022,2.792.031,4.188.045.085,1.086.2,2.161.367,3.218a17.246,17.246,0,0,0,2.223,8.561q.908,2.523,2.065,5c4.655,9.949,14.075,18.26,25.092,20.072a135.315,135.315,0,0,0,18.112,1.316c6.487.184,13.164-.695,18.81-4.124a24.369,24.369,0,0,0,11.8-19.854,21.841,21.841,0,0,0-.055-3.488c-.015-.125-.031-.233-.046-.332q.119-.5.264-.988c.757-1.031.821-1.2.646-1.058a17.273,17.273,0,0,0,3.9-14.8,47.264,47.264,0,0,0,4.883-1.735l.912-.242c1.642.028,3.289.048,4.931.066a38.76,38.76,0,0,0,10.783-1.242c9.7-2.74,14.852-10.019,17.89-19.135a67.012,67.012,0,0,0,3.855-18.539c.006-.1.008-.207.013-.311.007-.241.011-.482.014-.724.013-.8.008-1.6-.037-2.393a17.494,17.494,0,0,0-.544-3.408c2.167-7.181,1.708-14.658.4-22.235a8.429,8.429,0,0,0-.419-1.511,13.3,13.3,0,0,0,.51-4.26,17.189,17.189,0,0,0-1.975-7.284A270.391,270.391,0,0,0,602.106,1786.431Z" transform="translate(-279.265 -1473.162)" fill="#ddd2cc"/>
    </clipPath>
    <clipPath id="clip-path-2">
      <path id="Path_2610" data-name="Path 2610" d="M592.273,1590.3a9.383,9.383,0,0,0-.253-2.129c-.027-.157-.047-.313-.081-.471.049.227.087.4.119.555-.064-.325-.135-.706-.158-.917a16.908,16.908,0,0,0-.759-3.937,12.7,12.7,0,0,0-6.968-7.542,73.871,73.871,0,0,1-11.3-6.358,7.727,7.727,0,0,0-2.949-1.194c-1.576-1.141-3.17-2.207-4.685-3.221-6.245-4.182-13.336-7.471-20.815-8.559-3.851-.561-6.96-.867-10.737-2.281a17.588,17.588,0,0,0-8.743-1.131l-17.537-3.393c-7.049-1.364-14.268-3.172-21.48-3.245-5.944-.06-11.626,1.462-17.388,2.587a13.219,13.219,0,0,0-1.711-2c-3.585-3.458-8.439-3.882-13.109-3.243-5,.684-9.494,2.022-13.229,4.8-8.414-.042-16.834-.144-25.247-.058-9.194.093-18.429.995-27.062,4.325A126.99,126.99,0,0,0,374,1559.394a8.2,8.2,0,0,0-5.464-.054,168.262,168.262,0,0,0-39.81,20.278,12,12,0,0,0-4.8,7.276,9.2,9.2,0,0,0-2.039,1.519,9.867,9.867,0,0,0-.5,13.205q.123.488.215.984c-.141-.68.231,1.993.236,2.034.155,1.261.338,2.516.535,3.768-.018,7.783.654,15.345,3.218,22.7a11.725,11.725,0,0,0,.728,8.052l.709,1.6a85.49,85.49,0,0,0,2.624,12.917c.949,5.257,1.911,10.511,2.934,15.752.541,2.775,1.187,5.539,2,8.244a70.14,70.14,0,0,0,1.674,11.926,50.085,50.085,0,0,1,2.83,4.819,58.27,58.27,0,0,1,1.561,6.667c1.5,6.116,5.255,12.135,12.248,12.353a25.08,25.08,0,0,0,3.942-.477c-.391.063.827.029,1.512.01.217.1,1.156.326.968.2.861.39,1.7.95,2.554,1.34,2.93,1.343,5.6,1.14,8.62,1.407,2.052.182,4.087,1.219,6.055,1.846,4.716,1.5,9.908,1.878,14.785,2.649,4.642.734,9.281,1.5,13.932,2.179,2.763.4,5.533.789,8.309,1.1.9.1,1.8.183,2.695.27.994.775,1.991,1.547,3.084,2.244,5.627,3.586,12.11,1.488,18.186.477,3.73,1.986,7.82,1.128,12.119.515a73.056,73.056,0,0,1,10.454-.645c5.139.013,10.055.57,14.881-.038a101.2,101.2,0,0,0,10.813,1.432c7.183.77,14.077.058,21.233-.432,3.564-.244,6.946.927,10.6.619a23.625,23.625,0,0,0,5.083-1.044c.2.07.4.139.617.2a10.035,10.035,0,0,0,5.963-.3c6.215.305,12.547-.437,17.767-4.09,6.327-4.427,13.287-14.122,12.956-22.173a10.484,10.484,0,0,0-.211-1.641c.564-1.609,1.083-3.254,1.623-4.87q6.914-20.7,13.829-41.391a7.928,7.928,0,0,0,.306-1.327c1.541-3.863,2.967-7.744,2.769-11.99a37.14,37.14,0,0,0,5.391-14.286c.557-3.741.4-7.431,1.324-10.855,1-3.713.493-7.853,2.221-11.272,1.269-2.512,3.594-4.434,2.887-6.83A9.614,9.614,0,0,0,592.273,1590.3Zm-5.623,16.506c.685-1.684,1.05-1,0,0Z" transform="translate(-319.095 -1543.566)" fill="#f2bea0"/>
    </clipPath>
    <clipPath id="clip-path-3">
      <path id="Path_2616" data-name="Path 2616" d="M475,1371.028c1.366-9.317,7.012-18.626,14.224-24.607,9.229-7.654,19.47-11.135,31.2-12.756a11.965,11.965,0,0,1,6,1.147,11.3,11.3,0,0,1,2.1-.029c2.76.241,6.505-.514,9.314.442,1.736-.153,2.643,1.369,4.462,1.851,8.675,2.3,16.929,6.912,20.627,15.476a12.512,12.512,0,0,1,1.456,1.348,24.753,24.753,0,0,1,4.641,5.843,21,21,0,0,1,2.012,5.11c3.258,4.3,1.007,9.557,2.726,15.3,13.2,44.065-11.84,11.965-19.155,9.152a46.931,46.931,0,0,0-4.723-1.575c-.431-.115-2.387-.578-3.2-.794-1.234-.118-2.523-.095-3.72-.088-.839,0-6.279.528-2.037-.075a23.612,23.612,0,0,1-7.514.155c-.636.318-1.3.612-1.983.874l-6.209,2.372a12.243,12.243,0,0,1-6.327.518c-2.352.438-4.72.814-7.119,1.1a64.847,64.847,0,0,1-20.048-1.022c-.114-.022-.222-.054-.334-.079-.392.043-.788.084-1.2.123-4.8.462-9.535-2.535-12.335-6.129C474.555,1380.443,474.242,1376.192,475,1371.028Z" transform="translate(-474.657 -1333.604)" fill="#d84955"/>
    </clipPath>
    <clipPath id="clip-path-4">
      <path id="Path_2634" data-name="Path 2634" d="M176.423,1491.437c2.521-15.516,20.606-106,20.606-106l25.225,103.138Z" transform="translate(-176.423 -1385.437)" fill="#ddd2cc" stroke="#914f46" stroke-linecap="round" stroke-linejoin="round" stroke-width="6"/>
    </clipPath>
    <clipPath id="clip-path-5">
      <path id="Path_2639" data-name="Path 2639" d="M223.973,1988.29l-15.145.946a3.556,3.556,0,0,1-3.776-3.419l-15.679-426.758a3.556,3.556,0,0,0-4.275-3.351l-11.162,2.312a3.555,3.555,0,0,1-4.27-3.26l-.912-14.611a3.556,3.556,0,0,1,3.327-3.771l50.618-3.16a3.555,3.555,0,0,1,3.771,3.327l.787,12.6a3.556,3.556,0,0,1-3.769,3.771l-8.874-.551a3.556,3.556,0,0,0-3.773,3.686L227.3,1984.6A3.555,3.555,0,0,1,223.973,1988.29Z" transform="translate(-168.747 -1533.21)" fill="#6f6966" stroke="#753f39" stroke-miterlimit="10" stroke-width="12"/>
    </clipPath>
    <clipPath id="clip-path-6">
      <path id="Path_2668" data-name="Path 2668" d="M314.123,1913.043c-6.048,15.713-16.04,30.566-37.531,51.157s-64.11,2.05-66.776-21.581c-1.881-16.673,25.029-18.5,35.354-20.34s32.758-14.1,39.072-28.845" transform="translate(-209.721 -1893.435)" fill="#ddd2cc" stroke="#753f39" stroke-linecap="round" stroke-miterlimit="10" stroke-width="12"/>
    </clipPath>
    <clipPath id="clip-path-7">
      <path id="Path_2673" data-name="Path 2673" d="M655.962,1901.475a99.842,99.842,0,0,1,7.6,8.589c8.488,10.79,15.916,24.831,23.657,46.627,9.96,28.048-24.434,59.307-47.078,52.042-15.977-5.125-6.6-30.414-4.043-40.587s.582-35.659-10.274-47.466" transform="translate(-625.821 -1901.475)" fill="#ddd2cc" stroke="#753f39" stroke-linecap="round" stroke-miterlimit="10" stroke-width="12"/>
    </clipPath>
  </defs>
  <g id="Group_1204" data-name="Group 1204" transform="translate(6.002 3.111)">
    <g id="ridder_invulling" data-name="ridder invulling" transform="translate(77.001 0.415)">
      <g id="Group_884" data-name="Group 884" transform="translate(0 97.234)">
        <path id="Path_2595" data-name="Path 2595" d="M602.106,1786.431a18.993,18.993,0,0,0-1.487-6q.085-5.23.111-10.459c.206-.885.385-1.782.53-2.7,2.505-15.875,3.08-32.493,2.735-48.544-.167-7.744-1.061-15.387-1.6-23.1-.52-7.417.621-14.7.772-22.1a114.291,114.291,0,0,0-3.294-27.988,20.422,20.422,0,0,0,1.548-6.151c2.349-24.126-2.61-48.292-6.083-72.074q-.125-.97-.247-1.94-.246-1.986-.466-3.975c-.315-2.869-.587-5.743-.795-8.623-.42-5.807-.385-11.642-.906-17.441-1.195-13.323-5.691-24.941-11.892-36.709-3.19-6.054-11.163-9.008-17.726-7.253a12.271,12.271,0,0,0-3.627-1.2,16.225,16.225,0,0,0-3.758-1.671,103.808,103.808,0,0,0-17.022-3.543c-6.69-4.589-14.328-6.9-22.621-7.852-7.9-.908-15.694.2-23.58.705-2.239.144-4.487.244-6.732.2-.891-.016-1.8-.106-2.687-.105-.206,0-.38,0-.539,0-4.544-.93-9.067-2.074-13.643-2.838-9.264-1.545-18.531-1.715-27.894-1.825-17.64-.208-35.339-.242-52.873,1.956a317.482,317.482,0,0,0-53.124,11.6c-9.457,2.891-19.153,7.219-25.776,14.841a60.7,60.7,0,0,0-10.854,18.847,15.815,15.815,0,0,0-2.055,6.145q-.267.894-.517,1.793a14.841,14.841,0,0,0-.463,5.326,19.006,19.006,0,0,0-3.739,6.657c-1.253,3.783-1.169,7.962-1.325,11.918q-.438,11.1-.618,22.21-.35,21.52.266,43.043c.4,13.975,1.382,28.25-.784,42.138-.155,1-.348,2.234-.392,2.529-.27,1.779-.55,3.557-.824,5.336-.693,4.492-1.347,8.99-1.914,13.5a107.97,107.97,0,0,0-.86,21.372,18.656,18.656,0,0,0,1.072,4.976,39.864,39.864,0,0,0,.212,4.226c.107,1.006.247,1.978.434,2.918q-.56,4.017-1.059,8.04a10.8,10.8,0,0,0-.33,1.5c-.2,1.418-.352,2.809-.453,4.182l-.107-.015q-.2,1.889-.392,3.776a11.21,11.21,0,0,0-.024,2.026,439.785,439.785,0,0,0-2.205,58.92q.208,6.456.616,12.9a17.383,17.383,0,0,0-3.753,9.949,51.123,51.123,0,0,0,1.113,14.015c-.1,1.828-.24,3.655-.4,5.478-.532,6.154-1.172,12.3-.443,18.464.856,7.251,3.01,13.468,5.581,20.241,2.005,5.283,2.475,11.458,4.8,16.655-1.842,4.316-1.5,9.34.634,14.29,2.07,4.807,3.746,9.685,7.391,13.591,4.514,4.837,11.275,6.8,17.7,6.878.711.009,1.42-.023,2.128-.063a20.842,20.842,0,0,0,7.433,22.633,23.342,23.342,0,0,0,5.791,10.641c6.553,6.753,16.364,8.322,25.373,8.236,17.238-.164,34.427-9.239,39.247-26.762a15.064,15.064,0,0,0,.21-6.866c.735.075,1.471.146,2.205.229a11.157,11.157,0,0,0,4.336-.385,12.4,12.4,0,0,0,1.23.645,14.8,14.8,0,0,0,9.379,3.153c5-.158,9.992-.106,14.982.218,2.269.148,4.525.38,6.787.6l.64.06c1.1.172,2.195.329,3.289.513a139.954,139.954,0,0,0,17.4,2.3c4.789.2,9.593.221,14.385.294,1.4.022,2.792.031,4.188.045.085,1.086.2,2.161.367,3.218a17.246,17.246,0,0,0,2.223,8.561q.908,2.523,2.065,5c4.655,9.949,14.075,18.26,25.092,20.072a135.315,135.315,0,0,0,18.112,1.316c6.487.184,13.164-.695,18.81-4.124a24.369,24.369,0,0,0,11.8-19.854,21.841,21.841,0,0,0-.055-3.488c-.015-.125-.031-.233-.046-.332q.119-.5.264-.988c.757-1.031.821-1.2.646-1.058a17.273,17.273,0,0,0,3.9-14.8,47.264,47.264,0,0,0,4.883-1.735l.912-.242c1.642.028,3.289.048,4.931.066a38.76,38.76,0,0,0,10.783-1.242c9.7-2.74,14.852-10.019,17.89-19.135a67.012,67.012,0,0,0,3.855-18.539c.006-.1.008-.207.013-.311.007-.241.011-.482.014-.724.013-.8.008-1.6-.037-2.393a17.494,17.494,0,0,0-.544-3.408c2.167-7.181,1.708-14.658.4-22.235a8.429,8.429,0,0,0-.419-1.511,13.3,13.3,0,0,0,.51-4.26,17.189,17.189,0,0,0-1.975-7.284A270.391,270.391,0,0,0,602.106,1786.431Z" transform="translate(-279.265 -1473.162)" fill="#ddd2cc"/>
        <g id="Group_883" data-name="Group 883" clip-path="url(#clip-path)">
          <path id="Path_2596" data-name="Path 2596" d="M394.586,1462c-32.746,4.18-96.845,27.172-105.206,63.4s-5.574,160.248-5.574,160.248c15.328-18.115,19.508-61.312,19.508-74.55s1.393-43.894,3.484-51.558,4.877-22.3,22.3-38.32,42.408-25.438,42.408-25.438h0c7.06-3.825,25.872-18.456,32.839-21.243S394.586,1462,394.586,1462Z" transform="translate(-280.507 -1469.777)" fill="#ebe4e0"/>
          <path id="Path_2597" data-name="Path 2597" d="M305.513,2028.355c-23.689-59.919-6.875-133.528-27.823-180.679-30.748,30.412-19.554,175.8-19.554,175.8l39.714,20.9s18.458,7.139,13.061-4.443Z" transform="translate(-272.254 -1586.741)" fill="#ebe4e0"/>
          <path id="Path_2598" data-name="Path 2598" d="M341,2141c9.057,6.271,50.165,36.23,66.886,31.353s-42.5,10.451-44.591,9.057-20.205-13.935-20.205-13.935Z" transform="translate(-297.987 -1675.697)" fill="#ebe4e0"/>
          <path id="Path_2599" data-name="Path 2599" d="M560.048,2161.5c8.674,7.313,55.354,33.092,63.715,29.608s-27.172,20.9-27.172,20.9l-31.353-11.148L552,2186.235l8.048-24.731" transform="translate(-361.977 -1681.915)" fill="#ebe4e0"/>
          <path id="Path_2600" data-name="Path 2600" d="M571,1460c16.025,4.877,98.239,66.189,119.837,145.617,31.353-62.009-6.271-120.534-6.967-122.625s-66.189-19.508-66.189-19.508Z" transform="translate(-367.739 -1469.17)" fill="#cac5c2"/>
          <path id="Path_2601" data-name="Path 2601" d="M661,2033.081c45.287-107.3,57.132-227.831,56.435-248.733s32.05,183.937,32.05,183.937-10.451,55.738-11.844,56.435-20.205,32.746-20.205,32.746Z" transform="translate(-395.034 -1567.081)" fill="#cac5c2"/>
          <path id="Path_2602" data-name="Path 2602" d="M688.484,2072.606c33.443-68.976,33.443-114.96,38.32-149.1s19.508,95.452,19.508,95.452l-16.025,57.828L685,2072.606S688.1,2073.39,688.484,2072.606Z" transform="translate(-402.312 -1608)" fill="#a9a5a3"/>
          <path id="Path_2603" data-name="Path 2603" d="M646,1473.238c12.541,8.361,79.427,84.3,86.394,115.657s10.451-68.976,10.451-68.976l-29.959-44.591L673.172,1460Z" transform="translate(-390.485 -1469.17)" fill="#a9a5a3"/>
        </g>
      </g>
      <g id="Group_886" data-name="Group 886" transform="translate(27.751 146.287)">
        <path id="Path_2605" data-name="Path 2605" d="M592.273,1590.3a9.383,9.383,0,0,0-.253-2.129c-.027-.157-.047-.313-.081-.471.049.227.087.4.119.555-.064-.325-.135-.706-.158-.917a16.908,16.908,0,0,0-.759-3.937,12.7,12.7,0,0,0-6.968-7.542,73.871,73.871,0,0,1-11.3-6.358,7.727,7.727,0,0,0-2.949-1.194c-1.576-1.141-3.17-2.207-4.685-3.221-6.245-4.182-13.336-7.471-20.815-8.559-3.851-.561-6.96-.867-10.737-2.281a17.588,17.588,0,0,0-8.743-1.131l-17.537-3.393c-7.049-1.364-14.268-3.172-21.48-3.245-5.944-.06-11.626,1.462-17.388,2.587a13.219,13.219,0,0,0-1.711-2c-3.585-3.458-8.439-3.882-13.109-3.243-5,.684-9.494,2.022-13.229,4.8-8.414-.042-16.834-.144-25.247-.058-9.194.093-18.429.995-27.062,4.325A126.99,126.99,0,0,0,374,1559.394a8.2,8.2,0,0,0-5.464-.054,168.262,168.262,0,0,0-39.81,20.278,12,12,0,0,0-4.8,7.276,9.2,9.2,0,0,0-2.039,1.519,9.867,9.867,0,0,0-.5,13.205q.123.488.215.984c-.141-.68.231,1.993.236,2.034.155,1.261.338,2.516.535,3.768-.018,7.783.654,15.345,3.218,22.7a11.725,11.725,0,0,0,.728,8.052l.709,1.6a85.49,85.49,0,0,0,2.624,12.917c.949,5.257,1.911,10.511,2.934,15.752.541,2.775,1.187,5.539,2,8.244a70.14,70.14,0,0,0,1.674,11.926,50.085,50.085,0,0,1,2.83,4.819,58.27,58.27,0,0,1,1.561,6.667c1.5,6.116,5.255,12.135,12.248,12.353a25.08,25.08,0,0,0,3.942-.477c-.391.063.827.029,1.512.01.217.1,1.156.326.968.2.861.39,1.7.95,2.554,1.34,2.93,1.343,5.6,1.14,8.62,1.407,2.052.182,4.087,1.219,6.055,1.846,4.716,1.5,9.908,1.878,14.785,2.649,4.642.734,9.281,1.5,13.932,2.179,2.763.4,5.533.789,8.309,1.1.9.1,1.8.183,2.695.27.994.775,1.991,1.547,3.084,2.244,5.627,3.586,12.11,1.488,18.186.477,3.73,1.986,7.82,1.128,12.119.515a73.056,73.056,0,0,1,10.454-.645c5.139.013,10.055.57,14.881-.038a101.2,101.2,0,0,0,10.813,1.432c7.183.77,14.077.058,21.233-.432,3.564-.244,6.946.927,10.6.619a23.625,23.625,0,0,0,5.083-1.044c.2.07.4.139.617.2a10.035,10.035,0,0,0,5.963-.3c6.215.305,12.547-.437,17.767-4.09,6.327-4.427,13.287-14.122,12.956-22.173a10.484,10.484,0,0,0-.211-1.641c.564-1.609,1.083-3.254,1.623-4.87q6.914-20.7,13.829-41.391a7.928,7.928,0,0,0,.306-1.327c1.541-3.863,2.967-7.744,2.769-11.99a37.14,37.14,0,0,0,5.391-14.286c.557-3.741.4-7.431,1.324-10.855,1-3.713.493-7.853,2.221-11.272,1.269-2.512,3.594-4.434,2.887-6.83A9.614,9.614,0,0,0,592.273,1590.3Zm-5.623,16.506c.685-1.684,1.05-1,0,0Z" transform="translate(-319.095 -1543.566)" fill="#f2bea0"/>
        <g id="Group_885" data-name="Group 885" clip-path="url(#clip-path-2)">
          <path id="Path_2606" data-name="Path 2606" d="M380.722,1723.294c-32.05-34.836-64.1-145.617-43.2-187.42S279,1576.98,279,1576.98l7.585,66.45,43.277,71.5Z" transform="translate(-306.935 -1537.661)" fill="#ffe5dc"/>
          <path id="Path_2607" data-name="Path 2607" d="M555,1725.149c11.148-11.148,78.73-142.133,84.3-211.109s39.406,57.489,39.406,57.489l-11.537,106.94-48.771,41.8Z" transform="translate(-390.638 -1528.368)" fill="#d3a590"/>
          <path id="Path_2608" data-name="Path 2608" d="M595.574,1737.388c20.205-20.9,82.911-170,78.73-185.33S704.96,1607.8,704.96,1607.8l-22.3,67.583s-29.263,46.681-31.353,45.287S590,1737.388,590,1737.388Z" transform="translate(-401.252 -1545.484)" fill="#c19781"/>
          <path id="Path_2609" data-name="Path 2609" d="M346.574,1570.238,341,1565.361l5.574-8.361,6.271,10.451Z" transform="translate(-325.738 -1547.64)" fill="none" stroke="#753f39" stroke-miterlimit="10" stroke-width="1"/>
        </g>
      </g>
      <g id="Group_887" data-name="Group 887" transform="translate(40.732 166.446)">
        <ellipse id="Ellipse_385" data-name="Ellipse 385" cx="57.663" cy="55.042" rx="57.663" ry="55.042" transform="translate(0 0)" fill="#feffc6"/>
        <ellipse id="Ellipse_386" data-name="Ellipse 386" cx="47.727" cy="46.518" rx="47.727" ry="46.518" transform="translate(10.036 8.523)" fill="#632037"/>
        <ellipse id="Ellipse_387" data-name="Ellipse 387" cx="18.728" cy="18.728" rx="18.728" ry="18.728" transform="translate(64.408 39.182)" fill="#fff" opacity="0.32"/>
        <ellipse id="Ellipse_388" data-name="Ellipse 388" cx="18.728" cy="18.728" rx="18.728" ry="18.728" transform="translate(65.617 35.557)" fill="#fff" opacity="0.32"/>
      </g>
      <g id="Group_888" data-name="Group 888" transform="translate(167.537 169.233)">
        <ellipse id="Ellipse_389" data-name="Ellipse 389" cx="57.663" cy="55.042" rx="57.663" ry="55.042" transform="translate(0 0)" fill="#feffc6"/>
        <ellipse id="Ellipse_390" data-name="Ellipse 390" cx="47.727" cy="46.518" rx="47.727" ry="46.518" transform="translate(10.036 8.523)" fill="#632037"/>
        <ellipse id="Ellipse_391" data-name="Ellipse 391" cx="18.728" cy="18.728" rx="18.728" ry="18.728" transform="translate(64.408 39.182)" fill="#fff" opacity="0.32"/>
        <ellipse id="Ellipse_392" data-name="Ellipse 392" cx="18.728" cy="18.728" rx="18.728" ry="18.728" transform="translate(65.617 35.557)" fill="#fff" opacity="0.32"/>
      </g>
      <path id="Path_2611" data-name="Path 2611" d="M483.5,1753.2s14.582-.685,19.508-.7c5.1-.013,20.205.7,20.205.7" transform="translate(-341.203 -1460.642)" fill="none" stroke="#d84955" stroke-linecap="round" stroke-miterlimit="10" stroke-width="5.054"/>
      <g id="Group_890" data-name="Group 890" transform="translate(136.135 0)">
        <path id="Path_2612" data-name="Path 2612" d="M475,1371.028c1.366-9.317,7.012-18.626,14.224-24.607,9.229-7.654,19.47-11.135,31.2-12.756a11.965,11.965,0,0,1,6,1.147,11.3,11.3,0,0,1,2.1-.029c2.76.241,6.505-.514,9.314.442,1.736-.153,2.643,1.369,4.462,1.851,8.675,2.3,16.929,6.912,20.627,15.476a12.512,12.512,0,0,1,1.456,1.348,24.753,24.753,0,0,1,4.641,5.843,21,21,0,0,1,2.012,5.11c3.258,4.3,1.007,9.557,2.726,15.3,13.2,44.065-11.84,11.965-19.155,9.152a46.931,46.931,0,0,0-4.723-1.575c-.431-.115-2.387-.578-3.2-.794-1.234-.118-2.523-.095-3.72-.088-.839,0-6.279.528-2.037-.075a23.612,23.612,0,0,1-7.514.155c-.636.318-1.3.612-1.983.874l-6.209,2.372a12.243,12.243,0,0,1-6.327.518c-2.352.438-4.72.814-7.119,1.1a64.847,64.847,0,0,1-20.048-1.022c-.114-.022-.222-.054-.334-.079-.392.043-.788.084-1.2.123-4.8.462-9.535-2.535-12.335-6.129C474.555,1380.443,474.242,1376.192,475,1371.028Z" transform="translate(-474.657 -1333.604)" fill="#d84955"/>
        <g id="Group_889" data-name="Group 889" clip-path="url(#clip-path-3)">
          <path id="Path_2613" data-name="Path 2613" d="M583.714,1406.762c15.268-15.388,22.826-42.59,15.793-59.285s23.159,42.411,23.159,42.411l-6.172,25.107Z" transform="translate(-507.731 -1336.91)" fill="#efb6bb"/>
          <path id="Path_2614" data-name="Path 2614" d="M499.034,1388.886h0c-37.2-20.784-18.536-57.785-12.986-64.077s-43.787,27.345-43.787,27.345l-9.6,38.358,24.437,13.142,41.746-14.795" transform="translate(-461.92 -1330.699)" fill="#a23740"/>
          <path id="Path_2615" data-name="Path 2615" d="M487.4,1400.654c-6.157-8.091-17.4-33.13-16.742-42.19s-20.134,18.194-20.134,18.194l9.145,22.26,27.731,1.736" transform="translate(-467.338 -1340.584)" fill="#6c252b"/>
        </g>
      </g>
      <path id="Path_2617" data-name="Path 2617" d="M432.871,1529.781a24.655,24.655,0,0,0-1.419-2.673,31.084,31.084,0,0,0-2.856-6.062,2.353,2.353,0,0,0-.309-.4q-.294-.749-.559-1.513l-.641-1.972c-.01-.031-.026-.056-.038-.086l-.008-.056a2.9,2.9,0,0,0-.049-1.02l-.121-.516a2.149,2.149,0,0,0-1.446-1.583,2.1,2.1,0,0,0-2.586-.132l-.655.132a2.914,2.914,0,0,0-1.933.474,2.705,2.705,0,0,0-.742.671,3.236,3.236,0,0,1-.778.081,2.5,2.5,0,0,0-1.1,4.667,2.633,2.633,0,0,0,.133,2.01c1.042,2.306,2.2,4.539,3.452,6.722l1.356,3.239a2.626,2.626,0,0,0,1.536,1.5,2.429,2.429,0,0,0,2.317,1.714l1.046-.045a2.529,2.529,0,0,0,1.972-1,3.221,3.221,0,0,0,.468-.013,3.1,3.1,0,0,0,1.584-.653A2.55,2.55,0,0,0,432.871,1529.781Z" transform="translate(-320.849 -1388.127)" fill="#a69e99"/>
      <path id="Path_2618" data-name="Path 2618" d="M459.114,1527.057a18.437,18.437,0,0,0-1.085-3.921,3.016,3.016,0,0,0,.093-.567,24.92,24.92,0,0,0-2.01-12.189c-1.858-3.885-5.027-2.782-8.5-1.758-.044.013-.077.034-.119.048a2.446,2.446,0,0,0-3.093,2.919q.5,2.223,1.007,4.445a2.19,2.19,0,0,0,.294,1.8l.359.579a2.384,2.384,0,0,0,1.409,1.09c.056.125.109.252.166.378a1.98,1.98,0,0,0,.622.779q.09.222.179.444a1.975,1.975,0,0,0-.256,2.076c.726,1.92,1.2,5.065,2.8,6.533,1.49,1.371,4.015.6,5.781.432A2.493,2.493,0,0,0,459.114,1527.057Z" transform="translate(-329.323 -1386.387)" fill="#a69e99"/>
      <path id="Path_2619" data-name="Path 2619" d="M487.483,1510.091c-.7-4.71-4.428-4.035-8.061-3.748a2.648,2.648,0,0,0-1.587.626,2.98,2.98,0,0,0-.973-.721A2.474,2.474,0,0,0,473.28,1509l1.532,8.531c.477,2.658.588,5.991,1.532,8.531,1.348,3.629,7.017,3.581,10.279,4a2.442,2.442,0,0,0,2.439-2.439C488.544,1521.816,488.346,1515.859,487.483,1510.091Z" transform="translate(-338.089 -1385.875)" fill="#a69e99"/>
      <path id="Path_2620" data-name="Path 2620" d="M519.811,1524.657a78.089,78.089,0,0,1-.814-10.942c.07-2.391.675-5.372-1.426-7.151-2.185-1.85-5.951-1.218-8.6-1.269a2.3,2.3,0,0,0-1.6.625,2.4,2.4,0,0,0-2.36.506c-1.953,1.684-.9,4.927-.764,7.164.228,3.656-.145,7.4.144,11.028.408,5.117,9.411,6.105,13.252,4.759C519.942,1528.572,520.051,1526.818,519.811,1524.657Z" transform="translate(-347.373 -1385.653)" fill="#a69e99"/>
      <path id="Path_2621" data-name="Path 2621" d="M549.667,1526.667c-.449-1.163-.086-2.084-.11-3.242a15.342,15.342,0,0,0-.722-3.713c-.777-2.838-1.6-5.666-2.4-8.5a2.521,2.521,0,0,0-2.352-1.79,25.414,25.414,0,0,1-5.205-1.047c-2.443-.739-3.75,2.219-2.554,3.847.178,4.595-1.47,10.016.534,14.354a4.657,4.657,0,0,0,2.684,2.3,2.566,2.566,0,0,0,3.466,1.117,3.012,3.012,0,0,0,.564-.328c1.37.093,2.7.076,3.742.082A2.455,2.455,0,0,0,549.667,1526.667Z" transform="translate(-357.081 -1386.572)" fill="#a69e99"/>
      <path id="Path_2622" data-name="Path 2622" d="M573.962,1527.011q-.048-2.9-.1-5.795c-.037-2.222.742-5.963-1.6-7.265-1.932-1.077-3.678-.633-5.373.152a3.021,3.021,0,0,0-1.367-.856,2.377,2.377,0,0,0-4.2,1.533,19.558,19.558,0,0,0,.734,5.531,2.29,2.29,0,0,0,1.156,1.376c.191,2.615.409,5.227.689,7.835a2.481,2.481,0,0,0,2.439,2.439c2.246-.138,5.74,1.506,7.258-1.059C574.256,1529.808,573.982,1528.192,573.962,1527.011Z" transform="translate(-364.807 -1387.838)" fill="#a69e99"/>
      <path id="Path_2623" data-name="Path 2623" d="M597.753,1522.108a3.587,3.587,0,0,0-1.848-2.9c-.779-.387-1.975.029-2.732.013-.746-2.526-4.74-2.453-4.773.544,0,.014,0,.028,0,.042a2.5,2.5,0,0,0-.584,2.059,25.784,25.784,0,0,0,.859,3.764,2.3,2.3,0,0,0,.427.8,21.466,21.466,0,0,0,.287,7.38c.729,2.5,3.434,2.84,5.621,3.609a2.455,2.455,0,0,0,3.086-2.352C598,1530.879,598.47,1526.228,597.753,1522.108Z" transform="translate(-372.83 -1389.349)" fill="#a69e99"/>
      <path id="Path_2624" data-name="Path 2624" d="M624.942,1536.393a26.682,26.682,0,0,1-.686-6.247c.059-1.664.132-3.088-.883-4.518a2.631,2.631,0,0,0-3.488-.775,2.025,2.025,0,0,0-1.772-.383,2.593,2.593,0,0,0-4.5,1.483,22.494,22.494,0,0,0,.486,5.893,33.7,33.7,0,0,1,.352,5.451c.066,3.358,4.714,4.114,7.366,4.285C625.234,1541.8,625.465,1539.032,624.942,1536.393Z" transform="translate(-380.649 -1391.229)" fill="#a69e99"/>
      <path id="Path_2625" data-name="Path 2625" d="M648.437,1537.046c-.824-2.819-2.807-3.7-5.417-2.766-.842-1.574-3.2-2.168-4.242-.245a4.506,4.506,0,0,1-.572.921,2.612,2.612,0,0,0,.449,3.72,25.408,25.408,0,0,0,1.236,7.671,2.918,2.918,0,0,0,2.447,2.092,13.771,13.771,0,0,0,5-.032,2.447,2.447,0,0,0,1.7-1.7C649.808,1543.91,649.236,1539.782,648.437,1537.046Z" transform="translate(-387.942 -1394.022)" fill="#a69e99"/>
      <path id="Path_2626" data-name="Path 2626" d="M407.754,1537.358q-2.637-6.789-5.708-13.391a2.236,2.236,0,0,0-3.126-.916,2.717,2.717,0,0,0-.4.054,18.426,18.426,0,0,0-5.863,2.509,2.473,2.473,0,0,0,0,4.211c2.9,2.007,4.457,6.2,6.144,9.176,1.844,3.25,4.154,2.489,7.246,1.356C407.19,1539.94,408.263,1538.668,407.754,1537.358Z" transform="translate(-313.297 -1390.972)" fill="#a69e99"/>
      <path id="Path_2627" data-name="Path 2627" d="M386.16,1549.183q-1.727-4.008-3.535-7.979c-.83-1.818-1.474-4.663-3.671-5.222a2.264,2.264,0,0,0-2.485.863,2.556,2.556,0,0,0-2.191.653l-.155.138a2.493,2.493,0,0,0-.382,2.955,23.718,23.718,0,0,0,1.784,2.521c.7,1.072,1.3,2.2,1.975,3.284a25.6,25.6,0,0,0,4.83,5.743C384.5,1554.06,387.236,1551.681,386.16,1549.183Z" transform="translate(-307.824 -1394.953)" fill="#a69e99"/>
      <path id="Path_2628" data-name="Path 2628" d="M366.132,1554.367a3.091,3.091,0,0,0-1.91-.8,3.222,3.222,0,0,0-.567-.219,2.528,2.528,0,0,0-.284-.762c0-.024,0-.047,0-.071a3.2,3.2,0,0,0-3.625-3.176,3.146,3.146,0,0,0-1.146.418,3.2,3.2,0,0,0-2.357,2.2,2.323,2.323,0,0,0-.194.266,2.455,2.455,0,0,0,.875,3.336,4.9,4.9,0,0,0,1.373.361,3.665,3.665,0,0,0,.888.212,5.548,5.548,0,0,0,1.113,1.654c.04.088.077.177.125.262a3.925,3.925,0,0,0,.989,1.148,3.505,3.505,0,0,0,2.3,1.385,2.521,2.521,0,0,0,3-1.7,2.27,2.27,0,0,0,.061-.69A3.2,3.2,0,0,0,366.132,1554.367Z" transform="translate(-302.458 -1399.019)" fill="#a69e99"/>
      <path id="Path_2629" data-name="Path 2629" d="M504.627,1445.009c-1.012-.125-.576-1.09-1.653-.966,0-.132-.691-.562-.7-.7-.048-1.251-.23-.952-.7-2.09-.454-1.106-.5-1.011.7-2.09.456-.412.224-1.506.842-1.552a17.036,17.036,0,0,0,3.6.037,6.734,6.734,0,0,0,4.239-1,2.487,2.487,0,0,0,.493-3.83c-2.158-2.5-5.2-3.15-8.306-3.175a2.523,2.523,0,0,0,.236-1.117,15.851,15.851,0,0,0-.295-3.584l-.111-1.348a2.475,2.475,0,0,0-4.017-1.849c-1.276-.093-2.623.028-3.656-.01a2.465,2.465,0,0,0-2.351,1.79c-.489,1.959-.887,3.919-1.2,5.912a2.625,2.625,0,0,0-.006.734c-.711.077-1.274.109-1.362.118a11.124,11.124,0,0,0-4.179,1.29c-2.514,1.318-.48,6.116,2.142,5.494,2.441-.578-2.4.254,0,.7-.9,1.781,1.132-.489,2.09,1.393.167.355,1.226,1.735,1.393,2.09,1.637.947,2.329,1.742.7,1.393-.881.225,1.462,1.295.54,1.369a10.919,10.919,0,0,0-4.913,1.415,7.354,7.354,0,0,0-3.413,8.064,2.484,2.484,0,0,0,3,1.7,51.623,51.623,0,0,1,17.436-.932c2.485.3,6.578,1.019,6.379-3.374C511.335,1446.133,507.448,1445.358,504.627,1445.009Z" transform="translate(-341.517 -1360.159)" fill="#ddd2cc"/>
    </g>
    <g id="ridder_outline" data-name="ridder outline" transform="translate(0 0)">
      <g id="Group_892" data-name="Group 892" transform="translate(5.348 36.529)">
        <path id="Path_2630" data-name="Path 2630" d="M176.423,1491.437c2.521-15.516,20.606-106,20.606-106l25.225,103.138Z" transform="translate(-176.423 -1385.437)" fill="#ddd2cc"/>
        <g id="Group_891" data-name="Group 891" transform="translate(0)" clip-path="url(#clip-path-4)">
          <path id="Path_2631" data-name="Path 2631" d="M135.115,1434.026c77.337-39.714,78.034-64.8,107.993-39.714s-85-61.312-85-61.312L117,1422.878Z" transform="translate(-158.402 -1369.535)" fill="#ebe4e0"/>
          <path id="Path_2632" data-name="Path 2632" d="M150.271,1493.2c65.493-30.656,66.189-43.2,66.189-43.2l11.844,63.4L144,1539.878Z" transform="translate(-166.59 -1405.017)" fill="#cac5c2"/>
          <path id="Path_2633" data-name="Path 2633" d="M155.877,1522.667c14.631-6.967,81.517-21.6,80.124-25.779s-6.967,43.894-6.967,43.894L206.066,1560.8S151,1555.413,151,1549.143,155.877,1522.667,155.877,1522.667Z" transform="translate(-168.713 -1419.159)" fill="#a9a5a3"/>
        </g>
        <path id="Path_2635" data-name="Path 2635" d="M176.423,1491.437c2.521-15.516,20.606-106,20.606-106l25.225,103.138Z" transform="translate(-176.423 -1385.437)" fill="none" stroke="#914f46" stroke-linecap="round" stroke-linejoin="round" stroke-width="6"/>
      </g>
      <g id="Group_894" data-name="Group 894" transform="translate(0 139.487)">
        <path id="Path_2636" data-name="Path 2636" d="M223.973,1988.29l-15.145.946a3.556,3.556,0,0,1-3.776-3.419l-15.679-426.758a3.556,3.556,0,0,0-4.275-3.351l-11.162,2.312a3.555,3.555,0,0,1-4.27-3.26l-.912-14.611a3.556,3.556,0,0,1,3.327-3.771l50.618-3.16a3.555,3.555,0,0,1,3.771,3.327l.787,12.6a3.556,3.556,0,0,1-3.769,3.771l-8.874-.551a3.556,3.556,0,0,0-3.773,3.686L227.3,1984.6A3.555,3.555,0,0,1,223.973,1988.29Z" transform="translate(-168.747 -1533.21)" fill="#6f6966"/>
        <g id="Group_893" data-name="Group 893" transform="translate(0)" clip-path="url(#clip-path-5)">
          <path id="Path_2637" data-name="Path 2637" d="M156.374,1576.7c1.479-21.035,16.3-40.809,22.038-49.544s-36.42-1.915-36.42-1.915l-13.039,14.776Z" transform="translate(-156.678 -1530.025)" fill="#ddd2cc"/>
          <path id="Path_2638" data-name="Path 2638" d="M204.992,2165.372c34.988-43.371,44.072-54.41,44.072-54.41l6.734,40.767s35.635,45.244-10.3,36.245S204.992,2165.372,204.992,2165.372Z" transform="translate(-179.679 -1708.425)" fill="#a69e99"/>
        </g>
        <path id="Path_2640" data-name="Path 2640" d="M223.973,1988.29l-15.145.946a3.556,3.556,0,0,1-3.776-3.419l-15.679-426.758a3.556,3.556,0,0,0-4.275-3.351l-11.162,2.312a3.555,3.555,0,0,1-4.27-3.26l-.912-14.611a3.556,3.556,0,0,1,3.327-3.771l50.618-3.16a3.555,3.555,0,0,1,3.771,3.327l.787,12.6a3.556,3.556,0,0,1-3.769,3.771l-8.874-.551a3.556,3.556,0,0,0-3.773,3.686L227.3,1984.6A3.555,3.555,0,0,1,223.973,1988.29Z" transform="translate(-168.747 -1533.21)" fill="none" stroke="#753f39" stroke-miterlimit="10" stroke-width="12"/>
      </g>
      <path id="Path_2641" data-name="Path 2641" d="M511.893,1454.758c0-5.574.7-11.148-4.877-11.148s-5.922-3.135-3.832-5.225,9.754.7,9.057-4.877-8.361-3.484-8.361-6.271v-7.664l-12.541-.348v7.664c0,2.787-7.664.7-8.361,6.271s6.271,3.484,8.361,5.574,1.742,5.225-3.832,5.225-4.18,4.877-4.18,10.451" transform="translate(-264.029 -1359.155)" fill="none" stroke="#914f46" stroke-miterlimit="10" stroke-width="6"/>
      <path id="Path_2642" data-name="Path 2642" d="M573.612,1405.082c6.155,7.85,3.964-55.058-23.254-66.8s-57.842-3.257-70.3,19.087-6.148,31.377,8.494,34.106,36.394,1.2,43.88-3.655C542.166,1381.516,563.808,1392.579,573.612,1405.082Z" transform="translate(-261.144 -1333.008)" fill="none" stroke="#914f46" stroke-miterlimit="10" stroke-width="6"/>
      <path id="Path_2643" data-name="Path 2643" d="M288,1765c45.984,56.435,298.2,66.19,317.012,4.877" transform="translate(-204.913 -1464.018)" fill="none" stroke="#914f46" stroke-miterlimit="10" stroke-width="6"/>
      <path id="Path_2644" data-name="Path 2644" d="M603.927,1707s-.012,1.654-.036,4.664c-.225,29.208-1.488,186.083-2.751,198.085-1.393,13.238-27.172,40.41-148.4,29.959s-147.01-11.844-155.371-20.9-21.6-64.1-18.115-96.149,8.361-243.159,9.057-259.88-2.787-76.64,69.673-83.608S573.271,1463.148,587.9,1516.1,603.927,1707,603.927,1707Z" transform="translate(-202.086 -1375.714)" fill="none" stroke="#753f39" stroke-miterlimit="10" stroke-width="12"/>
      <path id="Path_2645" data-name="Path 2645" d="M561.689,2143.277c.565,3.964,1.958,42.284,36.795,40.194s47.881-7.312,42.752-43.719" transform="translate(-287.915 -1577.669)" fill="none" stroke="#753f39" stroke-miterlimit="10" stroke-width="12"/>
      <path id="Path_2646" data-name="Path 2646" d="M334.741,2123.623c-.171,6.185,1.222,43.808,38.845,43.112s39.634-34.809,39.634-34.809" transform="translate(-219.085 -1572.778)" fill="none" stroke="#753f39" stroke-miterlimit="10" stroke-width="12"/>
      <path id="Path_2647" data-name="Path 2647" d="M413.811,1711.45a117.118,117.118,0,0,0,22.738,2.138c44.088-.139,96.136,5.689,109.635-3.311,14.631-9.754,43.69-132.634,44.591-140.74,1.393-12.541-25.779-47.378-43.2-52.951s-117.051-32.05-163.731-11.844-65.493,49.468-66.886,65.493c-1.528,17.574,16.721,126.8,27.172,128.2C351.9,1699.467,393.135,1707.427,413.811,1711.45Z" transform="translate(-213.669 -1382.819)" fill="none" stroke="#914f46" stroke-miterlimit="10" stroke-width="6"/>
      <path id="Path_2648" data-name="Path 2648" d="M316.655,1591.806c14.175-15.595,50.4-43.464,125.652-44.858s112.085,9.385,147.314,36.045" transform="translate(-213.603 -1397.854)" fill="none" stroke="#914f46" stroke-miterlimit="10" stroke-width="6"/>
      <path id="Path_2649" data-name="Path 2649" d="M476.377,1529.386,471.5,1505h16.025l2.09,24.385Z" transform="translate(-260.563 -1385.168)" fill="none" stroke="#914f46" stroke-linejoin="round" stroke-width="6"/>
      <path id="Path_2650" data-name="Path 2650" d="M460.615,1529.386,455.738,1505l-13.238,3.484,6.967,22.3Z" transform="translate(-251.768 -1385.168)" fill="none" stroke="#914f46" stroke-linejoin="round" stroke-width="6"/>
      <path id="Path_2651" data-name="Path 2651" d="M433.843,1533.275l-7.815-22.785-12.262,5.045,9.553,20.51Z" transform="translate(-243.054 -1386.833)" fill="none" stroke="#914f46" stroke-linejoin="round" stroke-width="6"/>
      <path id="Path_2652" data-name="Path 2652" d="M409.543,1539.629l-9.01-19.1-10.2,5.58,10.305,16.951Z" transform="translate(-235.948 -1389.877)" fill="none" stroke="#914f46" stroke-linejoin="round" stroke-width="6"/>
      <path id="Path_2653" data-name="Path 2653" d="M387.267,1549.052l-8.05-15.392-8.192,4.931,9.042,13.581Z" transform="translate(-230.092 -1393.86)" fill="none" stroke="#914f46" stroke-linejoin="round" stroke-width="6"/>
      <path id="Path_2654" data-name="Path 2654" d="M368.16,1557.809l-7.94-11.331-5.964,4.736,8.537,9.8Z" transform="translate(-225.006 -1397.747)" fill="none" stroke="#914f46" stroke-linejoin="round" stroke-width="6"/>
      <path id="Path_2655" data-name="Path 2655" d="M503.5,1507.287l1.393,21.6,16.025.7-2.09-23.689L503.5,1504.5Z" transform="translate(-270.268 -1385.017)" fill="none" stroke="#914f46" stroke-linejoin="round" stroke-width="5.351"/>
      <path id="Path_2656" data-name="Path 2656" d="M534.5,1509.59l1.393,20.205,13.238.7-2.09-20.9L534.5,1507.5Z" transform="translate(-279.669 -1385.926)" fill="none" stroke="#914f46" stroke-linejoin="round" stroke-width="5.351"/>
      <path id="Path_2657" data-name="Path 2657" d="M561.5,1513.932l1.288,18.675,12.235.644-1.932-19.318L561.5,1512Z" transform="translate(-287.857 -1387.291)" fill="none" stroke="#914f46" stroke-linejoin="round" stroke-width="6"/>
      <path id="Path_2658" data-name="Path 2658" d="M588.157,1518.8l.581,16.7,10.9.947-1.136-17.3-10.285-2.077Z" transform="translate(-295.942 -1388.831)" fill="none" stroke="#914f46" stroke-linejoin="round" stroke-width="6"/>
      <path id="Path_2659" data-name="Path 2659" d="M612.925,1525.538l.652,14.911,10.99.888-1.213-15.443L612.977,1524Z" transform="translate(-303.453 -1390.93)" fill="none" stroke="#914f46" stroke-linejoin="round" stroke-width="6"/>
      <path id="Path_2660" data-name="Path 2660" d="M638.881,1533.867l.614,14.04,10.348.836L648.7,1534.2l-9.769-1.783Z" transform="translate(-311.325 -1393.483)" fill="none" stroke="#914f46" stroke-linejoin="round" stroke-width="6"/>
      <path id="Path_2661" data-name="Path 2661" d="M337.32,1931c6.271,2.787-25.082,60.68-51.558,62.389a12.787,12.787,0,0,1-2.787-9.025" transform="translate(-203.372 -1514.361)" fill="#a69e99"/>
      <path id="Path_2662" data-name="Path 2662" d="M336.6,1931.437c1.9,5.966-27.363,56.195-53.838,57.9a12.787,12.787,0,0,1-2.787-9.025" transform="translate(-202.462 -1514.494)" fill="#6f6966"/>
      <path id="Path_2663" data-name="Path 2663" d="M683.774,1915c13.238,2.787,50.164,66.886,13.238,86.395s-6.708.249-6.708.249" transform="translate(-323.389 -1509.509)" fill="#a69e99"/>
      <path id="Path_2664" data-name="Path 2664" d="M680.774,1917c13.238,2.787,50.164,66.886,13.238,86.395s-6.708.249-6.708.249" transform="translate(-322.479 -1510.115)" fill="#6f6966"/>
      <g id="Group_896" data-name="Group 896" transform="translate(28.548 390.466)">
        <path id="Path_2665" data-name="Path 2665" d="M314.123,1913.043c-6.048,15.713-16.04,30.566-37.531,51.157s-64.11,2.05-66.776-21.581c-1.881-16.673,25.029-18.5,35.354-20.34s32.758-14.1,39.072-28.845" transform="translate(-209.721 -1893.435)" fill="#ddd2cc"/>
        <g id="Group_895" data-name="Group 895" transform="translate(0)" clip-path="url(#clip-path-6)">
          <path id="Path_2666" data-name="Path 2666" d="M234.013,1918.3c-12.639,13.218-27.09,42.736-14.348,57.525s-21.868-8.24-21.868-8.24l-15.59-35.508s23.368-17.833,24.826-17.284S234.013,1918.3,234.013,1918.3Z" transform="translate(-201.377 -1899.908)" fill="#ebe4e0"/>
          <path id="Path_2667" data-name="Path 2667" d="M294.371,1975.1c-14.573-19.533-32.635-44.062-35.251-41.968" transform="translate(-224.702 -1905.437)" fill="none" stroke="#914f46" stroke-miterlimit="10" stroke-width="6"/>
        </g>
        <path id="Path_2669" data-name="Path 2669" d="M314.123,1913.043c-6.048,15.713-16.04,30.566-37.531,51.157s-64.11,2.05-66.776-21.581c-1.881-16.673,25.029-18.5,35.354-20.34s32.758-14.1,39.072-28.845" transform="translate(-209.721 -1893.435)" fill="none" stroke="#753f39" stroke-linecap="round" stroke-miterlimit="10" stroke-width="12"/>
      </g>
      <g id="Group_898" data-name="Group 898" transform="translate(318.457 396.068)">
        <path id="Path_2670" data-name="Path 2670" d="M655.962,1901.475a99.842,99.842,0,0,1,7.6,8.589c8.488,10.79,15.916,24.831,23.657,46.627,9.96,28.048-24.434,59.307-47.078,52.042-15.977-5.125-6.6-30.414-4.043-40.587s.582-35.659-10.274-47.466" transform="translate(-625.821 -1901.475)" fill="#ddd2cc"/>
        <g id="Group_897" data-name="Group 897" clip-path="url(#clip-path-7)">
          <path id="Path_2671" data-name="Path 2671" d="M679.283,2017.123c-32.176,2.083-41.233,9.747-48.2-29.966S606,1985.763,606,1985.763s6.271,34.14,4.18,38.32,2.787,11.844,2.787,11.844l38.32,12.541Z" transform="translate(-619.81 -1921.995)" fill="#ebe4e0"/>
          <path id="Path_2672" data-name="Path 2672" d="M638.047,2004.055c24.353-.936,54.8-1.917,54.556-5.258" transform="translate(-629.529 -1930.99)" fill="none" stroke="#914f46" stroke-miterlimit="10" stroke-width="6"/>
        </g>
        <path id="Path_2674" data-name="Path 2674" d="M655.962,1901.475a99.842,99.842,0,0,1,7.6,8.589c8.488,10.79,15.916,24.831,23.657,46.627,9.96,28.048-24.434,59.307-47.078,52.042-15.977-5.125-6.6-30.414-4.043-40.587s.582-35.659-10.274-47.466" transform="translate(-625.821 -1901.475)" fill="none" stroke="#753f39" stroke-linecap="round" stroke-miterlimit="10" stroke-width="12"/>
      </g>
      <path id="Path_2675" data-name="Path 2675" d="M507.523,1860.5c-11.844,53.648-17.07,164.777-11.5,168.957" transform="translate(-267.323 -1492.981)" fill="none" stroke="#914f46" stroke-linecap="round" stroke-miterlimit="10" stroke-width="6"/>
    </g>
  </g>
</svg>
