<svg xmlns="http://www.w3.org/2000/svg" width="68.557" height="65.83" viewBox="0 0 68.557 65.83"><g transform="translate(4.5 4.518)"><path d="M2455.349,2028.037l7.92,16.047a1.653,1.653,0,0,0,1.247.906l17.708,2.573a1.657,1.657,0,0,1,.919,2.825l-12.813,12.491a1.654,1.654,0,0,0-.478,1.466l3.026,17.637a1.659,1.659,0,0,1-2.4,1.747l-15.838-8.327a1.651,1.651,0,0,0-1.543,0l-15.838,8.327a1.658,1.658,0,0,1-2.4-1.747l3.024-17.637a1.656,1.656,0,0,0-.476-1.466l-12.815-12.491a1.657,1.657,0,0,1,.919-2.825l17.708-2.573a1.658,1.658,0,0,0,1.247-.906l7.92-16.047a1.656,1.656,0,0,1,2.963,0Z" transform="translate(-2424.093 -2027.12)" fill="#f9cc52" stroke="#d84955" stroke-miterlimit="10" stroke-width="9"/><circle cx="8.5" cy="8.5" r="8.5" transform="translate(21.274 23.38)" fill="#f9cc52" stroke="#d84955" stroke-miterlimit="10" stroke-width="4.5"/></g></svg>