<svg xmlns="http://www.w3.org/2000/svg" xmlns:xlink="http://www.w3.org/1999/xlink" width="518" height="459" viewBox="0 0 518 459">
  <defs>
    <clipPath id="clip-path">
      <path id="Rectangle_204" data-name="Rectangle 204" d="M35,0H483a35,35,0,0,1,35,35V388a0,0,0,0,1,0,0H0a0,0,0,0,1,0,0V35A35,35,0,0,1,35,0Z" transform="translate(858 670)" fill="#fff"/>
    </clipPath>
    <clipPath id="clip-path-2">
      <path id="Path_3612" data-name="Path 3612" d="M520.6,773.642c-11.417-43.383-19.072-111.5-36.533-143.849-14.551-26.961-10.585-30.775-17.125-51.374-5.538-17.444-12.558-37.675-12.558-37.675s-14.842-30.824-13.7-45.666,7.992-57.083,7.992-57.083,19.913,43.723,26.258,49.091c7.421,6.28,30.254,16.554,30.254,16.554,6.98-13.961-7.5-89.933-13.129-103.319-4.947-11.767,7.991-41.1,7.991-41.1s5.708,26.258,20.55,38.816c16.582,14.031,31.4,2.855,21.121-21.12S520.6,338.671,520.6,338.671l46.205.571,252.783-.571c8.688,23.4,8.688,55.371,21.246,61.079s29.467,22.963,43.383,5.708c14.27-17.7,16.554-51.945,22.262-40.528,13.795,27.589,0,53.657-4,66.786-4.49,14.755-1.723,64.514,13.7,49.091S941.875,424.3,955,440.85c6.424,8.1,16.554,25.687,10.275,62.79-1.347,7.96-10.275,68.5-9.133,69.641s18.837-40.528,23.4-23.4c5.3,19.887-72.495,214.061-71.354,219.769S520.6,773.642,520.6,773.642Z" fill="#d84955" stroke="#4a2d14" stroke-linecap="round" stroke-linejoin="round" stroke-width="6.85"/>
    </clipPath>
    <clipPath id="clip-path-3">
      <path id="Path_3618" data-name="Path 3618" d="M532.021,625.227c-15.983-46.808-30.992-70.95-44.524-84.483-14.842-14.841-13.25-36.082-9.133-31.966,4.566,4.567,34.249,25.116,38.816,23.975,3.323-.831,9.991-14.618,14.841-26.258,5.709-13.7,9.134-22.833,0-37.675S529.738,430,529.738,430s21.692,34.249,31.966,36.533,25.117-10.275,25.117-10.275-28.22-25.507-20.55-42.241c12.558-27.4-2.283-54.8-2.283-54.8s37.674,13.7,57.082,34.25c6.7,7.091,31.7-54.229,31.7-54.229l126.381-.571c10.88,36.533-23.369,83.341.6,86.766,9.254,1.322,15.446-.758,19.562-3.81a5.873,5.873,0,0,1,9.342,3.947c1.9,14.817,6.006,35.314,14.479,40.963,13.7,9.133,9.133,5.708,43.383-7.992,15.758-6.3-2.283,42.241,13.7,63.933s53.658-22.833,50.233,14.841c-2.27,24.962-33.108,164.4-44.525,186.09S532.021,625.227,532.021,625.227Z" fill="#f9cc52" stroke="#4a2d14" stroke-linecap="round" stroke-linejoin="round" stroke-width="6.85"/>
    </clipPath>
    <clipPath id="clip-path-4">
      <path id="Path_3625" data-name="Path 3625" d="M881.421,639.35a15.967,15.967,0,0,0,1.008-5.911q-.457-22.241-1.617-44.458c-.245-4.678,2.855-17.27-.517-20.643-1.89-1.889-9.148.9-11.923,0-3.375-2.512-7.659-.045-11.871.064a18.382,18.382,0,0,0-5.528-2.054c-.1-1.2-.189-2.4-.29-3.6-.758-8.993-1.721-18.176-4.291-26.859a79.5,79.5,0,0,0-5.7-14.049,72.492,72.492,0,0,0-8.14-11.755c-5.129-6.377-11.707-11.524-18.346-16.229a189.86,189.86,0,0,0-17.988-10.967c-8.095-4.479-18.277-6.2-26.927-9.52-9.353-3.583-17.923-5.689-27.957-5.344-6.064.208-11.842-1.149-17.81-.1a18.037,18.037,0,0,0-3.545-.358,208.227,208.227,0,0,0-24.227-1.768c-3.9-.052-7.826-.051-11.722.183a35.407,35.407,0,0,0-8.786,1.365,30.07,30.07,0,0,0-4.566,1.92l-.12.026a128.589,128.589,0,0,0-18.467,1.492,75.038,75.038,0,0,0-18.906,5.732,52.338,52.338,0,0,0-17.774,12.628c-1.166,1.282-4.413.407-5.227,1.9-1.868,1.3-2.3,2.281-4.111,3.7-2.222,1.744-3.435,6.335-5.338,8.425a67.251,67.251,0,0,0-11.624,17.084,71.456,71.456,0,0,0-6.221,19.487,83.939,83.939,0,0,0-1.151,12.491c.014,2.223-1.825.742-1.567,2.949-1.9-.7-2.882-1.234-4.934-1.234-4.336,0-14.693-9.418-17.678-6.166-1.532,1.668-1.321,5.238-.83,7.855-1.126.288-1.86,13.111-2.019,17.217-.047.078-.1.152-.144.234a12.73,12.73,0,0,0-1.653,6.378c0,.186.013.366.029.543a15.444,15.444,0,0,0-.317,3.541c.1,3.261-.513,7.457,0,10.689.077.875.417,4.468.411,5.345-1.462,5.969,1,11.174-.593,17.094a33.865,33.865,0,0,0-.53,15.355,12.95,12.95,0,0,0-.79,2.351c-1.031,4.526-3.143,13.807-.553,17.824s8.366,2.347,12.9,3.923q21,7.3,42.3,13.7,2.838.851,5.682,1.7c.728.247,1.465.463,2.208.654a350.73,350.73,0,0,0,35.151,8.846,25.278,25.278,0,0,0,6.13.453,19.678,19.678,0,0,0,1.914.944,25.377,25.377,0,0,0,5.694,1.812q3.941.71,7.887,1.385c6.958,1.18,13.952,2.21,20.969,2.969a136.766,136.766,0,0,0,16.7.869c5.659-.082,9.969,1.416,15.553.574,2.183.525,5.563-1.124,8.07-.886a27.64,27.64,0,0,0,6.773-.3c9.188,1.307,18.472.86,27.765.626,4.838-.122,9.686-.206,14.505-.69,5.456-.549,10.812-1.576,16.211-2.43,2.169-.194,4.327-.251,6.518-.32a36.2,36.2,0,0,0,8.7-1.27l4.321.581a17.6,17.6,0,0,0,8.871-2.386,33.269,33.269,0,0,1,4.272-1.327,54.389,54.389,0,0,0,9.031-1.272c1.447-.373,2.865-.828,4.3-1.206.384.009.768.023,1.159.037a20.289,20.289,0,0,0,10.579-2.54c1.531-.912,3.8,1.372,5,.224,1.925.411,3.026-2.786,5.141-3.071,8.836-1.187,17.06.193,15.329-17.362a25.545,25.545,0,0,1,.116-3.384,20.528,20.528,0,0,0,1.545-6.925,25.343,25.343,0,0,0-.124-3.714C881.649,641.4,881.543,640.374,881.421,639.35Z" fill="#f2bea0"/>
    </clipPath>
    <clipPath id="clip-path-5">
      <path id="Path_3630" data-name="Path 3630" d="M879.1,556.732c-1.331-4.737-1.809-9.622-2.526-14.474a49.566,49.566,0,0,0-4.76-15.6,8,8,0,0,0-1.626-2.154,61.729,61.729,0,0,0-1.787-6.653c-3.7-11.114-10.7-21.811-21.138-27.566-.021-.023-.041-.046-.063-.069a80.87,80.87,0,0,0-15.039-12.388,30.891,30.891,0,0,0-4.075-2.245c-1.5-1.053-3.023-2.066-4.585-3.025-9.778-6-20.676-10.073-31.46-13.867-5.31-1.868-10.634-3.913-16.171-5.009-6.548-1.3-13.316-1.785-19.948-2.51-13.486-1.473-26.984-2.841-40.477-4.242a50.856,50.856,0,0,0-12.046-1.575c-4.048-.071-8.1.234-12.145-.021-.547-.034-3.45-.4-.891-.015-1.649-.251-3.308-.491-4.969-.656a30.306,30.306,0,0,0-8.1.536c-2.5.422-4.993.932-7.482,1.451-5.818-2.449-12.773.469-18.439,2.3a152.563,152.563,0,0,0-14.827,5.593,7.823,7.823,0,0,0-7.225-.812,118.89,118.89,0,0,0-12.569,6.171,23.569,23.569,0,0,0-12.562,5.609c-8.307,1.738-13.406,8.8-18.669,14.9l-.019.023a83.545,83.545,0,0,0-6.364,6.359,47.262,47.262,0,0,0-9.641,15.12,7.255,7.255,0,0,0-.469,2.263c-2.452,2.59-3.9,6.007-5.028,9.342A55.957,55.957,0,0,0,561.15,532.8q-.18.179-.345.372a10.52,10.52,0,0,0-2.986,7.09,11.009,11.009,0,0,0,1.4,5.16c1.713,3.243,5.415,5,8.959,5.169,1.643,1.277,4.024.739,5.842,1.935,9.029,5.94,9.915-4.337,9.867-9.867q-.03-3.378-.059-6.755a10.117,10.117,0,0,0-.379-2.643c1.585-4.61,3.156-9.226,4.766-13.828A9.5,9.5,0,0,0,590,514.4c.064-.179.126-.358.19-.536l.111-.309c2.678-2.442,4.35-5.458,6.021-8.794.265-.53.564-1.035.858-1.546.227-.231.453-.461.7-.676,1.284-1.162,2.755-2.106,3.988-3.328a28.788,28.788,0,0,0,4.283-5.711c.457-.763.886-1.543,1.364-2.293.094-.151.2-.3.3-.445.521-.468,1.018-.989,1.528-1.474.242-.171.483-.343.729-.508,1.2-.815,2.436-1.588,3.667-2.36a9.835,9.835,0,0,0,7.133-4.507c.007,0,.022-.011.046-.036l1.491-.945c.63-.071,1.567-.149.547-.171l-.352.047h0l.58-.077,2.623-.353c.61-.094,1.215-.2,1.816-.342,5.164-1.217,9.793-4.072,14.5-6.41.156-.078.313-.151.47-.228,6.686-2.38,13.868-3.044,20.86-4.025l12.144-1.7q2.7-.378,5.391-.756c.459-.054.92-.1,1.382-.126.379-.024.758-.028,1.137-.022a10.953,10.953,0,0,0,8.366-1.666c3.582.178,7.168-.041,10.752-.016a28.6,28.6,0,0,1,4.966.194c.506.139,1.157.313,1.393.367.929.212,1.844.472,2.755.751a8.839,8.839,0,0,0,3.8.28c11.566,1.2,23.133,2.384,34.7,3.618,5.677.607,11.355,1.22,17.026,1.892l.752.089.526.066c.275.047.528.092.6.1q2.1.351,4.164.876c2.787.708,5.513,1.626,8.229,2.565,5,1.73,10,3.465,14.931,5.38,1.141.443,2.274.906,3.41,1.361l.093.037.556.244c.812,1.849,4.364,3.592,6.184,4.848,3.333,2.3,3.482,4.971,7.4,6.167a25,25,0,0,0,4.1.9c.676.452,1.347.912,2.008,1.387.107.077.293.243.5.424.005-.05.134,0,.457.266.158.128.313.259.469.388a.515.515,0,0,0,.064.02l-.05-.009c1.747,1.439,3.455,2.913,5.083,4.489s3.183,3.224,4.663,4.938c.646.748,1.266,1.516,1.891,2.282l.041.057c.358.5.73,1,1.086,1.5a73.921,73.921,0,0,1,6.9,12.026c.132.289.244.64.383.958.043.08.084.162.122.246a1.969,1.969,0,0,0,.119.207c-.03-.041-.052-.074-.079-.113.005.014.012.028.017.041q.559,1.44,1.055,2.9c.995,2.939,1.788,5.941,2.564,8.944,1.312,5.084.321,11.623,3.963,15.289-.009.067,2.024-.4,2.016-.334a10.888,10.888,0,0,0-.581,3.269c-1.642,3.58-1.612,7.439.895,10.685,2.555,3.306,6.363,4.273,10.372,3.536l.053-.01h.209c.732,0,1.45,0,2.182.017h.1l.154.049c.694.213,1.407.362,2.1.584C874.194,571.181,881.078,563.759,879.1,556.732Z" fill="#935a27"/>
    </clipPath>
    <clipPath id="clip-path-6">
      <path id="Path_3637" data-name="Path 3637" d="M894.2,858.466q-1.012-5.826-2.026-11.653a11.729,11.729,0,0,0-1.166-3.287c0-3.2-.216-6.438-.316-9.593a113,113,0,0,0-.68-11.517,28.106,28.106,0,0,0-.642-3.315,20.436,20.436,0,0,0,.534-11.185c-1.379-6.445-2.473-12.941-3.4-19.465-3.625-28.369-1.69-56.484-6.212-84.852-.736-4.614,1.986-28.88-2.056-31.246-3.965-2.32-17.344,3.906-21.79,5.345-5.15,1.667-4.679-1.681-6.989,2.878-.818-1.6-4.4,1.244-5.756,0-1.248-.964-9.441,3.02-10.689,2.056-2.886-1.674-6.939,2.066-10.278,2.055-7.766-.926-10.121.618-17.679,2.056-1.459.078-8,1.347-9.456,1.233-6.431-1.066-12.4,3.371-18.953,3.249-6.969-.129-14.486-1.932-21.337-.782-10.412,1.748-18.353-.834-28.779.822-4.875.515-11.564-1.614-16.445-2.055-13.658-2.384-27.293-.72-40.7-4.112-16.817-4.253-28.368-4.933-45.224-7.811-2.456-.419-1.58-1.5-4.112-1.233-.223-.177-5.124-1.054-5.344-1.234-2.309-2.293-5.911-2.821-9.045-3.7-3.279-.881-4.944-2.937-8.223-2.056-.264.073-3.028-.907-3.289-.822-1.866-1.841-.454,2.185-2.878.411-.146-2.372-4.447-1.644-5.755-3.7-2.246-3.838-8.574-3.634-12.985-4.639-4.736-1.079-17.757-10.816-21.961-8.106-3.762,2.425-.115,16.389-.8,21.028a78.582,78.582,0,0,0-.7,20.429c.338,3.084.763,6.155,1.214,9.222-2.48,8.165-2.236,17.159-2.423,25.613q-.262,11.856-.259,23.717c0,15.715.7,31.39,1.025,47.1.085,4.094-.54,8.048-.747,12.116a30.586,30.586,0,0,0,1.277,10.285c.345,1.125.761,2.216,1.117,3.329a40.85,40.85,0,0,0-.978,10.267,39.045,39.045,0,0,0,1.412,8.225q.194.647.379,1.286c-.019.507,0,1.015-.023,1.525-1.32,23.76-2.6,16.623,2.381,20.471,4.534,3.5,15.073.127,20.743-.635a20.572,20.572,0,0,0,2.244-.452,195.74,195.74,0,0,0,25.64,2.949,15.91,15.91,0,0,0,4.735-.579c4.057.736,8.168,1.228,12.245,1.7,10.107,1.172,20.268,1.972,30.4,2.921,20.2,1.892,40.4,3.371,60.681,4.009,10.875.341,21.752.6,32.628.887a43.71,43.71,0,0,0,13.655,2.843,44.923,44.923,0,0,0,9.723-.937,19.942,19.942,0,0,0,2-.463c.6.152,1.2.293,1.816.4A64.1,64.1,0,0,0,780.1,880.5a128.049,128.049,0,0,1,13.023.419c4.279.474,8.543,1.179,12.851,1.34a55.592,55.592,0,0,0,11.856-1.121,24.216,24.216,0,0,0,10.692,2.261c3.138-.073,6.287-.517,9.426-.666a180.734,180.734,0,0,1,19.6.134c5.659.347,11.422.5,16.794-1.119a16.369,16.369,0,0,0,6.94-.52c4.477-1.449,16.167,3.122,12.173-8.652C891.766,867.607,895.095,863.621,894.2,858.466Z" fill="#f4f4f4"/>
    </clipPath>
    <clipPath id="clip-path-7">
      <path id="Path_3644" data-name="Path 3644" d="M824.406,885.657a6.188,6.188,0,0,0-5.636-3.791q-10.319.084-20.628.585a6.727,6.727,0,0,0-1.632.292c-.771-.13-1.546-.247-2.327-.326-4.055-.411-8.091.172-12.147.205a40.063,40.063,0,0,1-11.185-1.722,6.462,6.462,0,0,0-4.948.78,29.36,29.36,0,0,0-3.461-.722c-.077-.012-.135-.02-.183-.026l-.085-.02c-.578-.132-1.138-.3-1.709-.46a12.152,12.152,0,0,0-4.431-.548,8.209,8.209,0,0,0-1.192.216c-.143-.053-.285-.1-.431-.15a6.775,6.775,0,0,0-8.922,6.053c-.171,3.468,2.626,5.713,4.285,8.325a6.559,6.559,0,0,0,2.083,2.059,9.317,9.317,0,0,0,3.243,3.731,7.262,7.262,0,0,0,4.154,3.766q.661.273,1.32.525c2.235,2.773,5.259,4.858,8.843,4.721a9.1,9.1,0,0,0,2.565-.475,35.915,35.915,0,0,0,10.594,1.312,56.728,56.728,0,0,0,13.861-1.614c.432-.1.867-.212,1.3-.326a7.079,7.079,0,0,0,3.724.218,33.323,33.323,0,0,0,19.087-11.386,7.578,7.578,0,0,0,1.681-3.755c.3-.25.6-.5.9-.73C825.021,890.917,825.284,887.655,824.406,885.657Z" fill="#f2bea0"/>
    </clipPath>
    <clipPath id="clip-path-8">
      <path id="Path_3649" data-name="Path 3649" d="M681.437,875.4a9.459,9.459,0,0,0-7.833-.871q-6.437-.1-12.861-.546c-2.926-.208-5.845-.481-8.762-.79a30.847,30.847,0,0,0-9.653.465,13.3,13.3,0,0,1-5.942-.442,51.507,51.507,0,0,0-8.778-1.475c-2.746-.144-5.495.1-8.236-.212a36.6,36.6,0,0,1-7.262-1.949c-2.25-.858-5.141.416-6.482,2.21a6.216,6.216,0,0,0-.482,6.85,71.123,71.123,0,0,0,7.932,11.558c3.257,3.67,7.436,6.417,11.644,8.874a25.98,25.98,0,0,0,6.566,3.128,30.379,30.379,0,0,0,8.207.479,68.037,68.037,0,0,0,7.975-.67c1.282-.186,2.532-.466,3.794-.755l.2-.047a9.621,9.621,0,0,0,4.908-.37,8.233,8.233,0,0,0,1.983-1.075c.848-.174,1.688-.387,2.531-.638,2.233-.662,4.465-1.351,6.651-2.157a38.04,38.04,0,0,0,13.357-7.784,5.839,5.839,0,0,0,1.765-4.135A6.294,6.294,0,0,0,681.437,875.4Z" fill="#f2bea0"/>
    </clipPath>
    <clipPath id="clip-path-9">
      <path id="Path_3661" data-name="Path 3661" d="M760.927,346.515c-.529-5.619.124-18.178-2.326-23.21-2.405-4.938-6.973-2.8-11.512-5.755-2.249-1.466-5.8-.077-8.242-1.179-4.017-1.815-9.474-2.479-13.548-4.166-5.4-2.236-10.306-.439-16.034-1.645-4.487-.944-10.2-2.346-14.8-2.055-7.2.455-11.666-1.582-17.107,3.176a25.424,25.424,0,0,0-8.276,18.262c-.157,4.827-.671,9.238,1.126,13.508-.432,5.066,1.206,10.1,1.117,15.142-.27,15.353.766,30.7,1.622,46.017q.719,12.828,1.435,25.654c.363,6.5-1.565,12.949,1.582,18.847,3,5.629,6.557,4.1,12.745,4.933,3.172.426,8.286,1.945,11.511,1.234.294-.065,4.643.067,4.934,0,1.618-.038,3.32.658,4.934.822,5.429.836,8.906,1.308,14.389.822,3.693-.327,8.363.352,11.923-.411,3.228.994,4.589.221,7.811-.822,3.052-.988,6.763.446,9.126-1.723,3.6-3.3,5.143-8.385,5.419-13.082q2.253-38.336,2.374-76.756C761.147,358.294,761.475,352.33,760.927,346.515Z" fill="#f4f4f4"/>
    </clipPath>
    <clipPath id="clip-path-10">
      <path id="Path_3673" data-name="Path 3673" d="M740.391,552.584l-6.6-23.341c12-8.946,39.631-15.475,46.684-13.2s9.84,15.163,5.144,18.2S740.391,552.584,740.391,552.584Z" fill="#935a27" stroke="#914f46" stroke-linecap="round" stroke-linejoin="round" stroke-width="2.467"/>
    </clipPath>
    <clipPath id="clip-path-11">
      <path id="Path_3679" data-name="Path 3679" d="M686.582,540.862l6.563-23.352c-12.012-8.927-39.655-15.414-46.7-13.125s-9.817,15.178-5.117,18.207S686.582,540.862,686.582,540.862Z" fill="#935a27" stroke="#914f46" stroke-miterlimit="10" stroke-width="2.467"/>
    </clipPath>
    <clipPath id="clip-path-12">
      <path id="Path_3686" data-name="Path 3686" d="M784.737,714.219l41.592-46.053c-36.427-50.893,25.142-105.867,73.18-60.907s-12.9,117.011-65.636,68.593c-25.593,26.945-41.932,41.913-41.932,41.913Z" fill="#935a27" stroke="#753f39" stroke-miterlimit="10" stroke-width="8"/>
    </clipPath>
    <clipPath id="clip-path-13">
      <path id="Path_3692" data-name="Path 3692" d="M635.165,704.755,590.2,661.993c32.458-53.512-33.108-103.653-77.593-55.175s21.75,115.693,70.654,63.411c27.565,24.924,44.994,38.609,44.994,38.609Z" fill="#935a27" stroke="#753f39" stroke-miterlimit="10" stroke-width="8"/>
    </clipPath>
    <clipPath id="clip-path-14">
      <path id="Path_3698" data-name="Path 3698" d="M765.178,725.516c.1.074.785.643,1.041.833.156.205.515.635.572.717a36.007,36.007,0,0,1,1.971,3.285c.563,1.012,1.113,2.037,1.754,3,.282.425.576.842.89,1.244.2.248.414.484.622.724a6.658,6.658,0,0,0,3.387,3.757c3.239,1.57,2.021,10.031,9.317-3.23a7.035,7.035,0,0,0,.733-3.618,15.878,15.878,0,0,0,.71-2.244,9.495,9.495,0,0,0,1.061-8.3,8.206,8.206,0,0,0-5.282-6.049,18.007,18.007,0,0,0-3.774-1.134c-3.378-1.519-6.914-1.465-10.649-.885C757,715.253,760.939,722.336,765.178,725.516Z" fill="#f2bea0"/>
    </clipPath>
    <clipPath id="clip-path-15">
      <path id="Path_3708" data-name="Path 3708" d="M655.282,718.367c-.113.085-.891.732-1.182.948-.178.233-.585.722-.65.815a41.23,41.23,0,0,0-2.239,3.736c-.639,1.152-1.263,2.317-1.992,3.416-.32.483-.654.958-1.01,1.415-.227.282-.47.55-.707.824a7.572,7.572,0,0,1-3.848,4.273c-3.681,1.788-2.289,11.406-10.594-3.664a8,8,0,0,1-.837-4.113,17.988,17.988,0,0,1-.808-2.551,10.792,10.792,0,0,1-1.213-9.435c.525-3.269,3.009-5.625,6-6.881a20.5,20.5,0,0,1,4.29-1.293c3.839-1.729,7.859-1.67,12.106-1.014C664.574,706.692,660.1,714.748,655.282,718.367Z" fill="#f2bea0"/>
    </clipPath>
  </defs>
  <g id="Group_1282" data-name="Group 1282" transform="translate(778 -781)">
    <g id="Group_1281" data-name="Group 1281">
      <g id="Mask_Group_21" data-name="Mask Group 21" transform="translate(-1636 111)" clip-path="url(#clip-path)">
        <g id="Group_1280" data-name="Group 1280" transform="translate(409.374 307.552)">
          <g id="Rectangle_69" data-name="Rectangle 69">
            <rect id="Rectangle_202" data-name="Rectangle 202" width="518" height="388" transform="translate(448.582 362.671)" fill="#fad675"/>
            <rect id="Rectangle_203" data-name="Rectangle 203" width="517" height="387" transform="translate(449.082 363.171)" fill="#fad675"/>
          </g>
          <g id="Group_1246" data-name="Group 1246">
            <path id="Path_3608" data-name="Path 3608" d="M520.6,773.642c-11.417-43.383-19.072-111.5-36.533-143.849-14.551-26.961-10.585-30.775-17.125-51.374-5.538-17.444-12.558-37.675-12.558-37.675s-14.842-30.824-13.7-45.666,7.992-57.083,7.992-57.083,19.913,43.723,26.258,49.091c7.421,6.28,30.254,16.554,30.254,16.554,6.98-13.961-7.5-89.933-13.129-103.319-4.947-11.767,7.991-41.1,7.991-41.1s5.708,26.258,20.55,38.816c16.582,14.031,31.4,2.855,21.121-21.12S520.6,338.671,520.6,338.671l46.205.571,252.783-.571c8.688,23.4,8.688,55.371,21.246,61.079s29.467,22.963,43.383,5.708c14.27-17.7,16.554-51.945,22.262-40.528,13.795,27.589,0,53.657-4,66.786-4.49,14.755-1.723,64.514,13.7,49.091S941.875,424.3,955,440.85c6.424,8.1,16.554,25.687,10.275,62.79-1.347,7.96-10.275,68.5-9.133,69.641s18.837-40.528,23.4-23.4c5.3,19.887-72.495,214.061-71.354,219.769S520.6,773.642,520.6,773.642Z" fill="#d84955"/>
            <g id="Group_1245" data-name="Group 1245" clip-path="url(#clip-path-2)">
              <path id="Path_3609" data-name="Path 3609" d="M791.348,764.711c34.078-91.535,87.736-370.1,75.178-414.623s182.665,95.9,182.665,95.9l-29.683,254.589L890.5,866.116,791.348,764.711" fill="#6c252b"/>
              <path id="Path_3610" data-name="Path 3610" d="M812.868,749.667c35.392-37.675,148.415-327.655,117.591-399.579S844.835,301,844.835,301,747.794,705.142,682.72,743.959,812.868,749.667,812.868,749.667Z" fill="#a23740"/>
              <path id="Path_3611" data-name="Path 3611" d="M586.821,758.8c-15.983-60.508-20.55-403,13.7-461.228s-141.565,11.416-141.565,11.416L387.031,410.6s10.275,189.514,13.7,188.373,131.29,223.764,131.29,223.764Z" fill="#e89299"/>
            </g>
            <path id="Path_3613" data-name="Path 3613" d="M520.6,773.642c-11.417-43.383-19.072-111.5-36.533-143.849-14.551-26.961-10.585-30.775-17.125-51.374-5.538-17.444-12.558-37.675-12.558-37.675s-14.842-30.824-13.7-45.666,7.992-57.083,7.992-57.083,19.913,43.723,26.258,49.091c7.421,6.28,30.254,16.554,30.254,16.554,6.98-13.961-7.5-89.933-13.129-103.319-4.947-11.767,7.991-41.1,7.991-41.1s5.708,26.258,20.55,38.816c16.582,14.031,31.4,2.855,21.121-21.12S520.6,338.671,520.6,338.671l46.205.571,252.783-.571c8.688,23.4,8.688,55.371,21.246,61.079s29.467,22.963,43.383,5.708c14.27-17.7,16.554-51.945,22.262-40.528,13.795,27.589,0,53.657-4,66.786-4.49,14.755-1.723,64.514,13.7,49.091S941.875,424.3,955,440.85c6.424,8.1,16.554,25.687,10.275,62.79-1.347,7.96-10.275,68.5-9.133,69.641s18.837-40.528,23.4-23.4c5.3,19.887-72.495,214.061-71.354,219.769S520.6,773.642,520.6,773.642Z" fill="none" stroke="#753f39" stroke-linecap="round" stroke-linejoin="round" stroke-width="6.85"/>
          </g>
          <g id="Group_1248" data-name="Group 1248">
            <path id="Path_3614" data-name="Path 3614" d="M532.021,625.227c-15.983-46.808-30.992-70.95-44.524-84.483-14.842-14.841-13.25-36.082-9.133-31.966,4.566,4.567,34.249,25.116,38.816,23.975,3.323-.831,9.991-14.618,14.841-26.258,5.709-13.7,9.134-22.833,0-37.675S529.738,430,529.738,430s21.692,34.249,31.966,36.533,25.117-10.275,25.117-10.275-28.22-25.507-20.55-42.241c12.558-27.4-2.283-54.8-2.283-54.8s37.674,13.7,57.082,34.25c6.7,7.091,31.7-54.229,31.7-54.229l126.381-.571c10.88,36.533-23.369,83.341.6,86.766,9.254,1.322,15.446-.758,19.562-3.81a5.873,5.873,0,0,1,9.342,3.947c1.9,14.817,6.006,35.314,14.479,40.963,13.7,9.133,9.133,5.708,43.383-7.992,15.758-6.3-2.283,42.241,13.7,63.933s53.658-22.833,50.233,14.841c-2.27,24.962-33.108,164.4-44.525,186.09S532.021,625.227,532.021,625.227Z" fill="#f9cc52"/>
            <g id="Group_1247" data-name="Group 1247" clip-path="url(#clip-path-3)">
              <path id="Path_3615" data-name="Path 3615" d="M592.529,664.043c-17.125-37.675-10.275-226.048,34.25-309.388s-94.758-4.567-94.758-4.567L440.689,492.8l10.275,102.749,69.641,68.5Z" fill="#fbe097"/>
              <path id="Path_3616" data-name="Path 3616" d="M697.561,725.692c44.525-31.966,167.823-284.272,157.548-347.063S972.7,522.478,972.7,522.478L899.634,749.667,726.1,775.925l-34.25-42.241" fill="#bb993e"/>
              <path id="Path_3617" data-name="Path 3617" d="M801.452,748.525C817.435,731.4,931.417,491.062,936.646,466.241S948.725,654.91,948.725,654.91l-75.349,93.615-85.624-9.133Z" fill="#7d6629"/>
            </g>
            <path id="Path_3619" data-name="Path 3619" d="M532.021,625.227c-15.983-46.808-30.992-70.95-44.524-84.483-14.842-14.841-13.25-36.082-9.133-31.966,4.566,4.567,34.249,25.116,38.816,23.975,3.323-.831,9.991-14.618,14.841-26.258,5.709-13.7,9.134-22.833,0-37.675S529.738,430,529.738,430s21.692,34.249,31.966,36.533,25.117-10.275,25.117-10.275-28.22-25.507-20.55-42.241c12.558-27.4-2.283-54.8-2.283-54.8s37.674,13.7,57.082,34.25c6.7,7.091,31.7-54.229,31.7-54.229l126.381-.571c10.88,36.533-23.369,83.341.6,86.766,9.254,1.322,15.446-.758,19.562-3.81a5.873,5.873,0,0,1,9.342,3.947c1.9,14.817,6.006,35.314,14.479,40.963,13.7,9.133,9.133,5.708,43.383-7.992,15.758-6.3-2.283,42.241,13.7,63.933s53.658-22.833,50.233,14.841c-2.27,24.962-33.108,164.4-44.525,186.09S532.021,625.227,532.021,625.227Z" fill="none" stroke="#753f39" stroke-linecap="round" stroke-linejoin="round" stroke-width="6.85"/>
          </g>
          <g id="Group_1279" data-name="Group 1279">
            <g id="Group_1250" data-name="Group 1250">
              <path id="Path_3620" data-name="Path 3620" d="M881.421,639.35a15.967,15.967,0,0,0,1.008-5.911q-.457-22.241-1.617-44.458c-.245-4.678,2.855-17.27-.517-20.643-1.89-1.889-9.148.9-11.923,0-3.375-2.512-7.659-.045-11.871.064a18.382,18.382,0,0,0-5.528-2.054c-.1-1.2-.189-2.4-.29-3.6-.758-8.993-1.721-18.176-4.291-26.859a79.5,79.5,0,0,0-5.7-14.049,72.492,72.492,0,0,0-8.14-11.755c-5.129-6.377-11.707-11.524-18.346-16.229a189.86,189.86,0,0,0-17.988-10.967c-8.095-4.479-18.277-6.2-26.927-9.52-9.353-3.583-17.923-5.689-27.957-5.344-6.064.208-11.842-1.149-17.81-.1a18.037,18.037,0,0,0-3.545-.358,208.227,208.227,0,0,0-24.227-1.768c-3.9-.052-7.826-.051-11.722.183a35.407,35.407,0,0,0-8.786,1.365,30.07,30.07,0,0,0-4.566,1.92l-.12.026a128.589,128.589,0,0,0-18.467,1.492,75.038,75.038,0,0,0-18.906,5.732,52.338,52.338,0,0,0-17.774,12.628c-1.166,1.282-4.413.407-5.227,1.9-1.868,1.3-2.3,2.281-4.111,3.7-2.222,1.744-3.435,6.335-5.338,8.425a67.251,67.251,0,0,0-11.624,17.084,71.456,71.456,0,0,0-6.221,19.487,83.939,83.939,0,0,0-1.151,12.491c.014,2.223-1.825.742-1.567,2.949-1.9-.7-2.882-1.234-4.934-1.234-4.336,0-14.693-9.418-17.678-6.166-1.532,1.668-1.321,5.238-.83,7.855-1.126.288-1.86,13.111-2.019,17.217-.047.078-.1.152-.144.234a12.73,12.73,0,0,0-1.653,6.378c0,.186.013.366.029.543a15.444,15.444,0,0,0-.317,3.541c.1,3.261-.513,7.457,0,10.689.077.875.417,4.468.411,5.345-1.462,5.969,1,11.174-.593,17.094a33.865,33.865,0,0,0-.53,15.355,12.95,12.95,0,0,0-.79,2.351c-1.031,4.526-3.143,13.807-.553,17.824s8.366,2.347,12.9,3.923q21,7.3,42.3,13.7,2.838.851,5.682,1.7c.728.247,1.465.463,2.208.654a350.73,350.73,0,0,0,35.151,8.846,25.278,25.278,0,0,0,6.13.453,19.678,19.678,0,0,0,1.914.944,25.377,25.377,0,0,0,5.694,1.812q3.941.71,7.887,1.385c6.958,1.18,13.952,2.21,20.969,2.969a136.766,136.766,0,0,0,16.7.869c5.659-.082,9.969,1.416,15.553.574,2.183.525,5.563-1.124,8.07-.886a27.64,27.64,0,0,0,6.773-.3c9.188,1.307,18.472.86,27.765.626,4.838-.122,9.686-.206,14.505-.69,5.456-.549,10.812-1.576,16.211-2.43,2.169-.194,4.327-.251,6.518-.32a36.2,36.2,0,0,0,8.7-1.27l4.321.581a17.6,17.6,0,0,0,8.871-2.386,33.269,33.269,0,0,1,4.272-1.327,54.389,54.389,0,0,0,9.031-1.272c1.447-.373,2.865-.828,4.3-1.206.384.009.768.023,1.159.037a20.289,20.289,0,0,0,10.579-2.54c1.531-.912,3.8,1.372,5,.224,1.925.411,3.026-2.786,5.141-3.071,8.836-1.187,17.06.193,15.329-17.362a25.545,25.545,0,0,1,.116-3.384,20.528,20.528,0,0,0,1.545-6.925,25.343,25.343,0,0,0-.124-3.714C881.649,641.4,881.543,640.374,881.421,639.35Z" fill="#f2bea0"/>
              <g id="Group_1249" data-name="Group 1249" clip-path="url(#clip-path-4)">
                <path id="Path_3621" data-name="Path 3621" d="M587.982,507.08" fill="#f2bea0"/>
                <path id="Path_3622" data-name="Path 3622" d="M634.851,440.066C615.117,467.611,555.5,583.139,574.826,674.82c-46.868-24.667-39.879-57.558-39.879-57.558l46.868-172.674Z" fill="#ffe5dc"/>
                <path id="Path_3623" data-name="Path 3623" d="M809.581,695.377c13.156-21.379,69.48-50.569,28.779-201.453l35.357-20.968L944.431,594.65,902.5,689.21Z" fill="#d3a590"/>
                <path id="Path_3624" data-name="Path 3624" d="M842.06,701.132c8.633-18.089,41.524-138.55,34.123-181.718s21.79,45.224,21.79,45.224L880.295,705.655Z" fill="#c19781"/>
              </g>
            </g>
            <g id="Group_1253" data-name="Group 1253">
              <g id="Group_1252" data-name="Group 1252">
                <path id="Path_3626" data-name="Path 3626" d="M879.1,556.732c-1.331-4.737-1.809-9.622-2.526-14.474a49.566,49.566,0,0,0-4.76-15.6,8,8,0,0,0-1.626-2.154,61.729,61.729,0,0,0-1.787-6.653c-3.7-11.114-10.7-21.811-21.138-27.566-.021-.023-.041-.046-.063-.069a80.87,80.87,0,0,0-15.039-12.388,30.891,30.891,0,0,0-4.075-2.245c-1.5-1.053-3.023-2.066-4.585-3.025-9.778-6-20.676-10.073-31.46-13.867-5.31-1.868-10.634-3.913-16.171-5.009-6.548-1.3-13.316-1.785-19.948-2.51-13.486-1.473-26.984-2.841-40.477-4.242a50.856,50.856,0,0,0-12.046-1.575c-4.048-.071-8.1.234-12.145-.021-.547-.034-3.45-.4-.891-.015-1.649-.251-3.308-.491-4.969-.656a30.306,30.306,0,0,0-8.1.536c-2.5.422-4.993.932-7.482,1.451-5.818-2.449-12.773.469-18.439,2.3a152.563,152.563,0,0,0-14.827,5.593,7.823,7.823,0,0,0-7.225-.812,118.89,118.89,0,0,0-12.569,6.171,23.569,23.569,0,0,0-12.562,5.609c-8.307,1.738-13.406,8.8-18.669,14.9l-.019.023a83.545,83.545,0,0,0-6.364,6.359,47.262,47.262,0,0,0-9.641,15.12,7.255,7.255,0,0,0-.469,2.263c-2.452,2.59-3.9,6.007-5.028,9.342A55.957,55.957,0,0,0,561.15,532.8q-.18.179-.345.372a10.52,10.52,0,0,0-2.986,7.09,11.009,11.009,0,0,0,1.4,5.16c1.713,3.243,5.415,5,8.959,5.169,1.643,1.277,4.024.739,5.842,1.935,9.029,5.94,9.915-4.337,9.867-9.867q-.03-3.378-.059-6.755a10.117,10.117,0,0,0-.379-2.643c1.585-4.61,3.156-9.226,4.766-13.828A9.5,9.5,0,0,0,590,514.4c.064-.179.126-.358.19-.536l.111-.309c2.678-2.442,4.35-5.458,6.021-8.794.265-.53.564-1.035.858-1.546.227-.231.453-.461.7-.676,1.284-1.162,2.755-2.106,3.988-3.328a28.788,28.788,0,0,0,4.283-5.711c.457-.763.886-1.543,1.364-2.293.094-.151.2-.3.3-.445.521-.468,1.018-.989,1.528-1.474.242-.171.483-.343.729-.508,1.2-.815,2.436-1.588,3.667-2.36a9.835,9.835,0,0,0,7.133-4.507c.007,0,.022-.011.046-.036l1.491-.945c.63-.071,1.567-.149.547-.171l-.352.047h0l.58-.077,2.623-.353c.61-.094,1.215-.2,1.816-.342,5.164-1.217,9.793-4.072,14.5-6.41.156-.078.313-.151.47-.228,6.686-2.38,13.868-3.044,20.86-4.025l12.144-1.7q2.7-.378,5.391-.756c.459-.054.92-.1,1.382-.126.379-.024.758-.028,1.137-.022a10.953,10.953,0,0,0,8.366-1.666c3.582.178,7.168-.041,10.752-.016a28.6,28.6,0,0,1,4.966.194c.506.139,1.157.313,1.393.367.929.212,1.844.472,2.755.751a8.839,8.839,0,0,0,3.8.28c11.566,1.2,23.133,2.384,34.7,3.618,5.677.607,11.355,1.22,17.026,1.892l.752.089.526.066c.275.047.528.092.6.1q2.1.351,4.164.876c2.787.708,5.513,1.626,8.229,2.565,5,1.73,10,3.465,14.931,5.38,1.141.443,2.274.906,3.41,1.361l.093.037.556.244c.812,1.849,4.364,3.592,6.184,4.848,3.333,2.3,3.482,4.971,7.4,6.167a25,25,0,0,0,4.1.9c.676.452,1.347.912,2.008,1.387.107.077.293.243.5.424.005-.05.134,0,.457.266.158.128.313.259.469.388a.515.515,0,0,0,.064.02l-.05-.009c1.747,1.439,3.455,2.913,5.083,4.489s3.183,3.224,4.663,4.938c.646.748,1.266,1.516,1.891,2.282l.041.057c.358.5.73,1,1.086,1.5a73.921,73.921,0,0,1,6.9,12.026c.132.289.244.64.383.958.043.08.084.162.122.246a1.969,1.969,0,0,0,.119.207c-.03-.041-.052-.074-.079-.113.005.014.012.028.017.041q.559,1.44,1.055,2.9c.995,2.939,1.788,5.941,2.564,8.944,1.312,5.084.321,11.623,3.963,15.289-.009.067,2.024-.4,2.016-.334a10.888,10.888,0,0,0-.581,3.269c-1.642,3.58-1.612,7.439.895,10.685,2.555,3.306,6.363,4.273,10.372,3.536l.053-.01h.209c.732,0,1.45,0,2.182.017h.1l.154.049c.694.213,1.407.362,2.1.584C874.194,571.181,881.078,563.759,879.1,556.732Z" fill="#935a27"/>
                <g id="Group_1251" data-name="Group 1251" clip-path="url(#clip-path-5)">
                  <path id="Path_3627" data-name="Path 3627" d="M866.316,578.205c-13.567-55.091-5.755-94.56-57.558-120.461s116.35,59.614,116.35,59.614l-53.419,55.287Z" fill="#6e441d"/>
                  <path id="Path_3628" data-name="Path 3628" d="M873.306,578.205c-.412-10.278-6.99-69.892-9.045-81.4s30.012,77.7,30.012,77.7Z" fill="#4a2d14"/>
                  <path id="Path_3629" data-name="Path 3629" d="M571.126,562.993c.411-18.912,12.745-115.938,47.691-131.561s-68.658,71.125-68.658,71.125l4.111,47.28Z" fill="#be9c7d"/>
                </g>
              </g>
              <path id="Path_3631" data-name="Path 3631" d="M841.7,523.555c-.386-.712-.89-1.156.162.34-.013-.031-.026-.063-.04-.094C841.778,523.722,841.736,523.641,841.7,523.555Z" fill="#935a27"/>
              <path id="Path_3632" data-name="Path 3632" d="M820.709,496.64a1.444,1.444,0,0,0,.94.665l-.014-.011A3.469,3.469,0,0,1,820.709,496.64Z" fill="#935a27"/>
            </g>
            <g id="Group_1255" data-name="Group 1255">
              <path id="Path_3633" data-name="Path 3633" d="M894.2,858.466q-1.012-5.826-2.026-11.653a11.729,11.729,0,0,0-1.166-3.287c0-3.2-.216-6.438-.316-9.593a113,113,0,0,0-.68-11.517,28.106,28.106,0,0,0-.642-3.315,20.436,20.436,0,0,0,.534-11.185c-1.379-6.445-2.473-12.941-3.4-19.465-3.625-28.369-1.69-56.484-6.212-84.852-.736-4.614,1.986-28.88-2.056-31.246-3.965-2.32-17.344,3.906-21.79,5.345-5.15,1.667-4.679-1.681-6.989,2.878-.818-1.6-4.4,1.244-5.756,0-1.248-.964-9.441,3.02-10.689,2.056-2.886-1.674-6.939,2.066-10.278,2.055-7.766-.926-10.121.618-17.679,2.056-1.459.078-8,1.347-9.456,1.233-6.431-1.066-12.4,3.371-18.953,3.249-6.969-.129-14.486-1.932-21.337-.782-10.412,1.748-18.353-.834-28.779.822-4.875.515-11.564-1.614-16.445-2.055-13.658-2.384-27.293-.72-40.7-4.112-16.817-4.253-28.368-4.933-45.224-7.811-2.456-.419-1.58-1.5-4.112-1.233-.223-.177-5.124-1.054-5.344-1.234-2.309-2.293-5.911-2.821-9.045-3.7-3.279-.881-4.944-2.937-8.223-2.056-.264.073-3.028-.907-3.289-.822-1.866-1.841-.454,2.185-2.878.411-.146-2.372-4.447-1.644-5.755-3.7-2.246-3.838-8.574-3.634-12.985-4.639-4.736-1.079-17.757-10.816-21.961-8.106-3.762,2.425-.115,16.389-.8,21.028a78.582,78.582,0,0,0-.7,20.429c.338,3.084.763,6.155,1.214,9.222-2.48,8.165-2.236,17.159-2.423,25.613q-.262,11.856-.259,23.717c0,15.715.7,31.39,1.025,47.1.085,4.094-.54,8.048-.747,12.116a30.586,30.586,0,0,0,1.277,10.285c.345,1.125.761,2.216,1.117,3.329a40.85,40.85,0,0,0-.978,10.267,39.045,39.045,0,0,0,1.412,8.225q.194.647.379,1.286c-.019.507,0,1.015-.023,1.525-1.32,23.76-2.6,16.623,2.381,20.471,4.534,3.5,15.073.127,20.743-.635a20.572,20.572,0,0,0,2.244-.452,195.74,195.74,0,0,0,25.64,2.949,15.91,15.91,0,0,0,4.735-.579c4.057.736,8.168,1.228,12.245,1.7,10.107,1.172,20.268,1.972,30.4,2.921,20.2,1.892,40.4,3.371,60.681,4.009,10.875.341,21.752.6,32.628.887a43.71,43.71,0,0,0,13.655,2.843,44.923,44.923,0,0,0,9.723-.937,19.942,19.942,0,0,0,2-.463c.6.152,1.2.293,1.816.4A64.1,64.1,0,0,0,780.1,880.5a128.049,128.049,0,0,1,13.023.419c4.279.474,8.543,1.179,12.851,1.34a55.592,55.592,0,0,0,11.856-1.121,24.216,24.216,0,0,0,10.692,2.261c3.138-.073,6.287-.517,9.426-.666a180.734,180.734,0,0,1,19.6.134c5.659.347,11.422.5,16.794-1.119a16.369,16.369,0,0,0,6.94-.52c4.477-1.449,16.167,3.122,12.173-8.652C891.766,867.607,895.095,863.621,894.2,858.466Z" fill="#f4f4f4"/>
              <g id="Group_1254" data-name="Group 1254" clip-path="url(#clip-path-6)">
                <path id="Path_3634" data-name="Path 3634" d="M824.792,671.12c14.8,22.2,32.891,222.832,23.024,234.754s46.457-2.466,46.457-2.466l36.591-52.625L902.085,724.156l-21.79-67.837-55.914,8.223" fill="#b7b7b7"/>
                <path id="Path_3635" data-name="Path 3635" d="M851.927,671.12c16.445,27.546,40.7,233.521,30.423,240.921s29.191-16.445,30.013-21.378-32.068-234.344-32.068-234.344Z" fill="#7a7a7a"/>
                <path id="Path_3636" data-name="Path 3636" d="M581.4,648.1c-4.522,20.967-27.134,222.42-11.922,238.043s-41.113-9.456-41.113-9.456l-11.923-23.023,1.645-109.771,5.755-72.77L537,644.4Z" fill="#fdfdfd"/>
              </g>
            </g>
            <g id="Group_1257" data-name="Group 1257">
              <path id="Path_3638" data-name="Path 3638" d="M824.406,885.657a6.188,6.188,0,0,0-5.636-3.791q-10.319.084-20.628.585a6.727,6.727,0,0,0-1.632.292c-.771-.13-1.546-.247-2.327-.326-4.055-.411-8.091.172-12.147.205a40.063,40.063,0,0,1-11.185-1.722,6.462,6.462,0,0,0-4.948.78,29.36,29.36,0,0,0-3.461-.722c-.077-.012-.135-.02-.183-.026l-.085-.02c-.578-.132-1.138-.3-1.709-.46a12.152,12.152,0,0,0-4.431-.548,8.209,8.209,0,0,0-1.192.216c-.143-.053-.285-.1-.431-.15a6.775,6.775,0,0,0-8.922,6.053c-.171,3.468,2.626,5.713,4.285,8.325a6.559,6.559,0,0,0,2.083,2.059,9.317,9.317,0,0,0,3.243,3.731,7.262,7.262,0,0,0,4.154,3.766q.661.273,1.32.525c2.235,2.773,5.259,4.858,8.843,4.721a9.1,9.1,0,0,0,2.565-.475,35.915,35.915,0,0,0,10.594,1.312,56.728,56.728,0,0,0,13.861-1.614c.432-.1.867-.212,1.3-.326a7.079,7.079,0,0,0,3.724.218,33.323,33.323,0,0,0,19.087-11.386,7.578,7.578,0,0,0,1.681-3.755c.3-.25.6-.5.9-.73C825.021,890.917,825.284,887.655,824.406,885.657Z" fill="#f2bea0"/>
              <g id="Group_1256" data-name="Group 1256" clip-path="url(#clip-path-7)">
                <path id="Path_3639" data-name="Path 3639" d="M770.523,918.208C761.89,903,755.34,887.92,760.465,880.452s-17.9-2.945-17.9-2.945l-1.645,7.4s4.523,12.334,4.523,13.156S770.523,918.208,770.523,918.208Z" fill="#ffe5dc"/>
                <path id="Path_3640" data-name="Path 3640" d="M802.18,878.329c-1.233,10.278-1.88,24.288-10.807,32.7s12.452,3.479,12.452,3.479,18.5-10.689,18.912-11.1,6.167-13.979,6.167-13.979l-1.234-9.867-20.145-2.878Z" fill="#d3a590"/>
                <path id="Path_3641" data-name="Path 3641" d="M798.48,916.564c4.934-7.812,23.023-27.546,16.034-40.7s23.023,10.689,22.2,10.278-18.5,19.734-18.5,19.734Z" fill="#c19781"/>
                <path id="Path_3642" data-name="Path 3642" d="M585.515,727.838c-.822,1.662-2.877,67.443,0,73.61s23.023,1.644,23.023,1.644l-.892-2.821-17.24-1.96h0a21.988,21.988,0,0,1-2.875-7.119c.039-.434-2.428-61.727-2.017-63.354" fill="#c19781"/>
                <path id="Path_3643" data-name="Path 3643" d="M584.693,730.734c-1.644,4.933-4.933,69.069,4.523,71.125" fill="none" stroke="#914f46" stroke-miterlimit="10" stroke-width="2.467"/>
              </g>
            </g>
            <g id="Group_1259" data-name="Group 1259">
              <path id="Path_3645" data-name="Path 3645" d="M681.437,875.4a9.459,9.459,0,0,0-7.833-.871q-6.437-.1-12.861-.546c-2.926-.208-5.845-.481-8.762-.79a30.847,30.847,0,0,0-9.653.465,13.3,13.3,0,0,1-5.942-.442,51.507,51.507,0,0,0-8.778-1.475c-2.746-.144-5.495.1-8.236-.212a36.6,36.6,0,0,1-7.262-1.949c-2.25-.858-5.141.416-6.482,2.21a6.216,6.216,0,0,0-.482,6.85,71.123,71.123,0,0,0,7.932,11.558c3.257,3.67,7.436,6.417,11.644,8.874a25.98,25.98,0,0,0,6.566,3.128,30.379,30.379,0,0,0,8.207.479,68.037,68.037,0,0,0,7.975-.67c1.282-.186,2.532-.466,3.794-.755l.2-.047a9.621,9.621,0,0,0,4.908-.37,8.233,8.233,0,0,0,1.983-1.075c.848-.174,1.688-.387,2.531-.638,2.233-.662,4.465-1.351,6.651-2.157a38.04,38.04,0,0,0,13.357-7.784,5.839,5.839,0,0,0,1.765-4.135A6.294,6.294,0,0,0,681.437,875.4Z" fill="#f2bea0"/>
              <g id="Group_1258" data-name="Group 1258" clip-path="url(#clip-path-8)">
                <path id="Path_3646" data-name="Path 3646" d="M623.339,859.828c-2.877,24.257-3.289,34.535,10.279,52.213s-24.257-19.323-24.257-19.323l-12.334-15.211,2.056-13.568,5.344-5.755Z" fill="#ffe5dc"/>
                <path id="Path_3647" data-name="Path 3647" d="M653.763,909.986c4.933-6.989,11.512-33.713,6.989-41.524s27.957,6.578,29.19,6.578,1.234,22.2,1.234,22.2Z" fill="#d3a590"/>
                <path id="Path_3648" data-name="Path 3648" d="M667.33,909.986c4.111-11.1,13.156-42.346,9.456-47.691s17.268,20.967,17.268,20.967l-9.868,20.146-18.5,6.578Z" fill="#c19781"/>
              </g>
            </g>
            <path id="Path_3650" data-name="Path 3650" d="M745.465,879.989c-1.945,15.1,17.069,36.886,49.726,29.586,34.946-7.812,28.561-25.361,28.561-25.361" fill="none" stroke="#914f46" stroke-linecap="round" stroke-miterlimit="10" stroke-width="2.467"/>
            <path id="Path_3651" data-name="Path 3651" d="M605.99,869.114c-5.263,14.971,14.06,40.461,49.006,32.649S683.557,876.4,683.557,876.4" fill="none" stroke="#914f46" stroke-linecap="round" stroke-miterlimit="10" stroke-width="2.467"/>
            <path id="Path_3652" data-name="Path 3652" d="M550.364,652c-3.7,9.867-4.111,212.964,1.233,215.431s32.48-3.7,41.113,0,298.48,23.434,300.946,12.334S876.8,681.193,879.267,670.5s13.156-134.85-23.434-173.907-82.226-41.113-82.226-41.113-85.515-15.623-117.583-7.4-88.393,12.745-98.26,97.437S550.364,652,550.364,652Z" fill="none" stroke="#753f39" stroke-miterlimit="10" stroke-width="9"/>
            <path id="Path_3653" data-name="Path 3653" d="M879.267,670.5c-16.856,7.812-164.451,50.158-328.9-18.5" fill="none" stroke="#753f39" stroke-miterlimit="10" stroke-width="4.934"/>
            <path id="Path_3654" data-name="Path 3654" d="M557.58,545.438s23.446,14.783,25.085,7.792-7.884-95.787,139.307-86.443,123.412,96.11,129.582,99.8,28.544-.022,28.544-.022" fill="none" stroke="#753f39" stroke-miterlimit="10" stroke-width="9"/>
            <path id="Path_3655" data-name="Path 3655" d="M625.006,800.271" fill="none" stroke="#753f39" stroke-miterlimit="10" stroke-width="4.934"/>
            <circle id="Ellipse_534" data-name="Ellipse 534" cx="8.634" cy="8.634" r="8.634" transform="translate(698.987 731.145)" fill="#753f39" stroke="#753f39" stroke-miterlimit="10" stroke-width="4.934"/>
            <circle id="Ellipse_535" data-name="Ellipse 535" cx="8.634" cy="8.634" r="8.634" transform="translate(697.343 824.882)" fill="#753f39" stroke="#753f39" stroke-miterlimit="10" stroke-width="4.934"/>
            <circle id="Ellipse_536" data-name="Ellipse 536" cx="8.634" cy="8.634" r="8.634" transform="translate(698.987 778.013)" fill="#753f39" stroke="#753f39" stroke-miterlimit="10" stroke-width="4.934"/>
            <path id="Path_3656" data-name="Path 3656" d="M710.088,689.21c-.823,7.968-4.564,187.6-4.564,187.6" fill="none" stroke="#753f39" stroke-miterlimit="10" stroke-width="4.934"/>
            <g id="Group_1261" data-name="Group 1261">
              <path id="Path_3657" data-name="Path 3657" d="M760.927,346.515c-.529-5.619.124-18.178-2.326-23.21-2.405-4.938-6.973-2.8-11.512-5.755-2.249-1.466-5.8-.077-8.242-1.179-4.017-1.815-9.474-2.479-13.548-4.166-5.4-2.236-10.306-.439-16.034-1.645-4.487-.944-10.2-2.346-14.8-2.055-7.2.455-11.666-1.582-17.107,3.176a25.424,25.424,0,0,0-8.276,18.262c-.157,4.827-.671,9.238,1.126,13.508-.432,5.066,1.206,10.1,1.117,15.142-.27,15.353.766,30.7,1.622,46.017q.719,12.828,1.435,25.654c.363,6.5-1.565,12.949,1.582,18.847,3,5.629,6.557,4.1,12.745,4.933,3.172.426,8.286,1.945,11.511,1.234.294-.065,4.643.067,4.934,0,1.618-.038,3.32.658,4.934.822,5.429.836,8.906,1.308,14.389.822,3.693-.327,8.363.352,11.923-.411,3.228.994,4.589.221,7.811-.822,3.052-.988,6.763.446,9.126-1.723,3.6-3.3,5.143-8.385,5.419-13.082q2.253-38.336,2.374-76.756C761.147,358.294,761.475,352.33,760.927,346.515Z" fill="#f4f4f4"/>
              <g id="Group_1260" data-name="Group 1260" clip-path="url(#clip-path-9)">
                <path id="Path_3658" data-name="Path 3658" d="M726.122,471.723c12.745-23.846,18.911-169.385,7.4-181.719s55.091,37.413,55.091,37.413L777.924,456.922Z" fill="#b7b7b7"/>
                <path id="Path_3659" data-name="Path 3659" d="M751.612,308.505c6.989,14.8,0,157.051-8.634,166.507s41.524-29.19,41.524-29.19-13.156-119.639-13.156-121.283S751.612,308.505,751.612,308.505Z" fill="#7a7a7a"/>
                <path id="Path_3660" data-name="Path 3660" d="M694.876,291.237c-6.167,9.456-9.456,181.308-6.167,187.064s-38.646-33.713-38.646-33.713l4.522-138.961Z" fill="#fdfdfd"/>
              </g>
            </g>
            <g id="Group_1262" data-name="Group 1262">
              <path id="Path_3662" data-name="Path 3662" d="M669.8,323.716c18.706,18.707,77.7,12.745,84.692,11.923s8.223-10.278,0-15.212-50.568-11.511-66.191-11.1-18.5,10.689-18.5,14.389,3.289,102.371,4.111,114.294,1.879,14.713,14.595,15.829c11.717,1.027,64.753,8.017,68.864-4.317s2.467-117.994,2.467-117.994" fill="none" stroke="#914f46" stroke-miterlimit="10" stroke-width="5"/>
              <path id="Path_3663" data-name="Path 3663" d="M673.086,414.987c5.345,4.111,47.4,14.318,86.807-4.558" fill="none" stroke="#914f46" stroke-miterlimit="10" stroke-width="5"/>
              <path id="Path_3664" data-name="Path 3664" d="M681.309,417.454c.822-5.756,1.644-46.047,0-48.513" fill="none" stroke="#914f46" stroke-linecap="round" stroke-miterlimit="10" stroke-width="2.467"/>
              <path id="Path_3665" data-name="Path 3665" d="M720.366,420.743c.822-5.756,1.644-46.047,0-48.513" fill="none" stroke="#914f46" stroke-linecap="round" stroke-miterlimit="10" stroke-width="2.467"/>
              <path id="Path_3666" data-name="Path 3666" d="M702.276,421.154c.822-5.756,1.645-46.046,0-48.513" fill="none" stroke="#914f46" stroke-linecap="round" stroke-miterlimit="10" stroke-width="2.467"/>
              <path id="Path_3667" data-name="Path 3667" d="M742.567,416.632c.822-5.756,1.644-46.047,0-48.514" fill="none" stroke="#914f46" stroke-linecap="round" stroke-miterlimit="10" stroke-width="2.467"/>
            </g>
            <path id="Path_3668" data-name="Path 3668" d="M738.522,664.542c-6.94,7.129-41.94,8.129-57.558-2.056" fill="none" stroke="#d84955" stroke-linecap="round" stroke-miterlimit="10" stroke-width="2.467"/>
            <g id="Group_1263" data-name="Group 1263">
              <ellipse id="Ellipse_537" data-name="Ellipse 537" cx="59.745" cy="57.029" rx="59.745" ry="57.029" transform="translate(588.054 533.959)" fill="#feffc6"/>
              <ellipse id="Ellipse_538" data-name="Ellipse 538" cx="49.45" cy="48.198" rx="49.45" ry="48.198" transform="translate(598.453 542.79)" fill="#632037"/>
              <circle id="Ellipse_539" data-name="Ellipse 539" cx="19.404" cy="19.404" r="19.404" transform="translate(654.788 574.556)" fill="#fff" opacity="0.32"/>
              <circle id="Ellipse_540" data-name="Ellipse 540" cx="19.404" cy="19.404" r="19.404" transform="translate(656.04 570.8)" fill="#fff" opacity="0.32"/>
            </g>
            <g id="Group_1264" data-name="Group 1264">
              <ellipse id="Ellipse_541" data-name="Ellipse 541" cx="59.745" cy="57.029" rx="59.745" ry="57.029" transform="translate(722.082 546.704)" fill="#feffc6"/>
              <ellipse id="Ellipse_542" data-name="Ellipse 542" cx="49.45" cy="48.198" rx="49.45" ry="48.198" transform="translate(732.481 555.535)" fill="#632037"/>
              <circle id="Ellipse_543" data-name="Ellipse 543" cx="19.404" cy="19.404" r="19.404" transform="translate(788.816 587.301)" fill="#fff" opacity="0.32"/>
              <circle id="Ellipse_544" data-name="Ellipse 544" cx="19.404" cy="19.404" r="19.404" transform="translate(790.068 583.545)" fill="#fff" opacity="0.32"/>
            </g>
            <g id="Group_1266" data-name="Group 1266">
              <path id="Path_3669" data-name="Path 3669" d="M740.391,552.584l-6.6-23.341c12-8.946,39.631-15.475,46.684-13.2s9.84,15.163,5.144,18.2S740.391,552.584,740.391,552.584Z" fill="#935a27"/>
              <g id="Group_1265" data-name="Group 1265" clip-path="url(#clip-path-10)">
                <path id="Path_3670" data-name="Path 3670" d="M754.641,553.12c-5.857-5.607-18.106-27.779-15.148-35.451s-15.334,10.743-15.334,10.743l4.276,25.707Z" fill="#be9c7d"/>
                <path id="Path_3671" data-name="Path 3671" d="M772.9,546.677c1.72-9.031,4.668-33.362-2.548-37.731s23.205,1.985,23.205,1.985l6.538,24.641L785.5,544.4Z" fill="#6e441d"/>
                <path id="Path_3672" data-name="Path 3672" d="M779.918,541.276c.7-6.606,2.815-30.147-3.763-34.12s17.317,14.053,17.317,14.053-2.648,17.838-6.433,18.054A19.278,19.278,0,0,0,779.918,541.276Z" fill="#4a2d14"/>
              </g>
              <path id="Path_3674" data-name="Path 3674" d="M740.391,552.584l-6.6-23.341c12-8.946,39.631-15.475,46.684-13.2s9.84,15.163,5.144,18.2S740.391,552.584,740.391,552.584Z" fill="none" stroke="#914f46" stroke-linecap="round" stroke-linejoin="round" stroke-width="5"/>
            </g>
            <g id="Group_1268" data-name="Group 1268">
              <path id="Path_3675" data-name="Path 3675" d="M686.582,540.862l6.563-23.352c-12.012-8.927-39.655-15.414-46.7-13.125s-9.817,15.178-5.117,18.207S686.582,540.862,686.582,540.862Z" fill="#935a27"/>
              <g id="Group_1267" data-name="Group 1267" clip-path="url(#clip-path-11)">
                <path id="Path_3676" data-name="Path 3676" d="M663.278,537.167c4.946-5.443,20.416-19.459,18.571-28.092s19.371,13.131,19.371,13.131l-13.229,22.76Z" fill="#6e441d"/>
                <path id="Path_3677" data-name="Path 3677" d="M674.806,538.7c3.375-2.9,16.035-26.668,15.8-28.87s4.615,9.411,4.615,9.411l-3.262,16.166-7.566,13.247Z" fill="#4a2d14"/>
                <path id="Path_3678" data-name="Path 3678" d="M647.371,528.426c-1.782-7.334,5.2-24.588,8.863-26.976s-10.389.5-10.389.5l-8.1,7.546.262,8.187,1.609,6.431Z" fill="#be9c7d"/>
              </g>
              <path id="Path_3680" data-name="Path 3680" d="M686.582,540.862l6.563-23.352c-12.012-8.927-39.655-15.414-46.7-13.125s-9.817,15.178-5.117,18.207S686.582,540.862,686.582,540.862Z" fill="none" stroke="#914f46" stroke-miterlimit="10" stroke-width="5"/>
            </g>
            <path id="Path_3681" data-name="Path 3681" d="M550.57,759.1" fill="#914f46"/>
            <g id="Group_1270" data-name="Group 1270" transform="translate(-3 4)">
              <path id="Path_3682" data-name="Path 3682" d="M784.737,714.219l41.592-46.053c-36.427-50.893,25.142-105.867,73.18-60.907s-12.9,117.011-65.636,68.593c-25.593,26.945-41.932,41.913-41.932,41.913Z" fill="#935a27"/>
              <g id="Group_1269" data-name="Group 1269" clip-path="url(#clip-path-12)">
                <path id="Path_3683" data-name="Path 3683" d="M809.582,666.671c6-25,67-77,95-83s-39.718-15.386-39.718-15.386-36.619,11.134-46.951,15.26-20.2,34.836-20.2,34.836Z" fill="#be9c7d"/>
                <path id="Path_3684" data-name="Path 3684" d="M841.582,684.671c39-28,76-61,79-85s13,90,13,90l-83,23L841.768,700l-7.186-10.331,7-5" fill="#6e441d"/>
                <path id="Path_3685" data-name="Path 3685" d="M850.582,699.671c14-4,68-56,75-79s9,93,9,93l-63,8Z" fill="#4a2d14"/>
              </g>
              <path id="Path_3687" data-name="Path 3687" d="M784.737,714.219l41.592-46.053c-36.427-50.893,25.142-105.867,73.18-60.907s-12.9,117.011-65.636,68.593c-25.593,26.945-41.932,41.913-41.932,41.913Z" fill="none" stroke="#753f39" stroke-miterlimit="10" stroke-width="8"/>
            </g>
            <g id="Group_1272" data-name="Group 1272">
              <path id="Path_3688" data-name="Path 3688" d="M635.165,704.755,590.2,661.993c32.458-53.512-33.108-103.653-77.593-55.175s21.75,115.693,70.654,63.411c27.565,24.924,44.994,38.609,44.994,38.609Z" fill="#935a27"/>
              <g id="Group_1271" data-name="Group 1271" clip-path="url(#clip-path-13)">
                <path id="Path_3689" data-name="Path 3689" d="M587.582,693.671c-19-7-112-50-102-101s6,77,6,77,48,38,50,39S587.582,693.671,587.582,693.671Z" fill="#be9c7d"/>
                <path id="Path_3690" data-name="Path 3690" d="M598.582,662.671c-5-26-77-69-99-67s70-27,70-27l55.424,62.013Z" fill="#6e441d"/>
                <path id="Path_3691" data-name="Path 3691" d="M620.582,654.671c-11-17-34-50-103-71s66-9,66-9L629.206,645.2Z" fill="#4a2d14"/>
              </g>
              <path id="Path_3693" data-name="Path 3693" d="M635.165,704.755,590.2,661.993c32.458-53.512-33.108-103.653-77.593-55.175s21.75,115.693,70.654,63.411c27.565,24.924,44.994,38.609,44.994,38.609Z" fill="none" stroke="#753f39" stroke-miterlimit="10" stroke-width="8"/>
            </g>
            <g id="Group_1275" data-name="Group 1275">
              <g id="Group_1274" data-name="Group 1274">
                <path id="Path_3694" data-name="Path 3694" d="M765.178,725.516c.1.074.785.643,1.041.833.156.205.515.635.572.717a36.007,36.007,0,0,1,1.971,3.285c.563,1.012,1.113,2.037,1.754,3,.282.425.576.842.89,1.244.2.248.414.484.622.724a6.658,6.658,0,0,0,3.387,3.757c3.239,1.57,2.021,10.031,9.317-3.23a7.035,7.035,0,0,0,.733-3.618,15.878,15.878,0,0,0,.71-2.244,9.495,9.495,0,0,0,1.061-8.3,8.206,8.206,0,0,0-5.282-6.049,18.007,18.007,0,0,0-3.774-1.134c-3.378-1.519-6.914-1.465-10.649-.885C757,715.253,760.939,722.336,765.178,725.516Z" fill="#f2bea0"/>
                <g id="Group_1273" data-name="Group 1273" clip-path="url(#clip-path-14)">
                  <path id="Path_3695" data-name="Path 3695" d="M793.225,718.4c-6.936,11.358-20.193,20.8-26.378,21.582s9.692,11.967,9.692,11.967l11.068-8.53Z" fill="#ffe5dc"/>
                  <path id="Path_3696" data-name="Path 3696" d="M792.187,715.178c-10.182.666-30.272,9.087-32.2,12.056s-4.816-15.291-4.816-15.291l21.013-5.625Z" fill="#d3a590"/>
                  <path id="Path_3697" data-name="Path 3697" d="M789.342,710.93c-5.927,1.173-30.4,9.732-32.457,11.67S760.6,710.6,760.6,710.6l23.456-1.726Z" fill="#c19781"/>
                </g>
              </g>
              <path id="Path_3699" data-name="Path 3699" d="M723.072,813.487c8.154-3.5,68.017-38.562,69.93-48.234s-12.765-22.621-12.765-22.621l-.574,4.2,8.1,16.43s1.37,2.9-2.555,5.806-26.559,20.232-26.889,20.489-20.345,13.383-20.345,13.383Z" fill="#b7b7b7"/>
              <path id="Path_3700" data-name="Path 3700" d="M749.307,796.475c1.931-1.293,26-16.3,28.061-18.234s14.029-9.955,12.86-14.206-2.731-11.595-7.893-14.291,2.717,4.892,2.717,4.892l3.5,9.4-2.57,3.7s-8.334,7.557-8.734,7.808S749.307,796.475,749.307,796.475Z" fill="#7a7a7a"/>
              <path id="Path_3701" data-name="Path 3701" d="M682.872,756.88c7.72-6.848,66.655-54.15,71.052-47.585s35.419,47.875,33.889,55.612-66.407,49.509-66.407,49.509" fill="none" stroke="#914f46" stroke-miterlimit="10" stroke-width="5"/>
              <path id="Path_3702" data-name="Path 3702" d="M778.692,745.024c5.227-8.367,12.942-16.89,7.639-25.644s-19.95-7.468-26.342-2.281" fill="none" stroke="#914f46" stroke-miterlimit="10" stroke-width="5"/>
              <circle id="Ellipse_545" data-name="Ellipse 545" cx="9.76" cy="9.76" r="9.76" transform="translate(760.357 752.642)" fill="none" stroke="#914f46" stroke-miterlimit="10" stroke-width="2.788"/>
            </g>
            <path id="Path_3703" data-name="Path 3703" d="M754.4,758.425a41.228,41.228,0,0,0-11.875-12,9.844,9.844,0,0,0-2.237-1.089c-4.873-3.673-9.728-7.381-14.7-10.908-5.207-3.692-10.9-6.06-16.362-9.277-1.089-.642-2.16-1.345-3.219-2.077a8.765,8.765,0,0,0-2.566-4.531,144.014,144.014,0,0,0-18.665-14.9,21.825,21.825,0,0,0-3.271-2.279c-3.791-3.31-10.683-3.58-14.471-.018a60.36,60.36,0,0,0-10.686,13.869c-2.808,4.853-6.142,10.291-7.252,15.832-.065.32-.1.649-.159.973l-4.912,7.69a10.146,10.146,0,0,0-1.52,3.848,9.867,9.867,0,0,0-2.775,2.25,18.53,18.53,0,0,0-1.526,2.053l-.037-.029c-.072.136-.128.267-.2.4-4.882,7.871-3.347,18.515,5.141,23.563a9.47,9.47,0,0,0,3.919,2.277,18.356,18.356,0,0,0,4.462.756,11.782,11.782,0,0,0,2.141,3.524,18.09,18.09,0,0,0,7.738,4.952,18.662,18.662,0,0,0,5.188.772,9.056,9.056,0,0,0,1.834.283c2.809,2.945,5.058,6.206,7.9,9.272,7.412,8,18.327,11.2,25.942,18.792,3.322,3.314,8.095,3.552,12.118,1.563l18.456-9.123c6.8-3.361,11.114-7.487,11.221-15.56a25.047,25.047,0,0,0-.149-3.04c.987-.471,1.991-.906,3.014-1.3,5.819-2.232,11.379-4.245,12.911-11.045C761.071,768.317,757.416,762.892,754.4,758.425Z" fill="#f4f4f4"/>
            <g id="Group_1278" data-name="Group 1278">
              <g id="Group_1277" data-name="Group 1277">
                <path id="Path_3704" data-name="Path 3704" d="M655.282,718.367c-.113.085-.891.732-1.182.948-.178.233-.585.722-.65.815a41.23,41.23,0,0,0-2.239,3.736c-.639,1.152-1.263,2.317-1.992,3.416-.32.483-.654.958-1.01,1.415-.227.282-.47.55-.707.824a7.572,7.572,0,0,1-3.848,4.273c-3.681,1.788-2.289,11.406-10.594-3.664a8,8,0,0,1-.837-4.113,17.988,17.988,0,0,1-.808-2.551,10.792,10.792,0,0,1-1.213-9.435c.525-3.269,3.009-5.625,6-6.881a20.5,20.5,0,0,1,4.29-1.293c3.839-1.729,7.859-1.67,12.106-1.014C664.574,706.692,660.1,714.748,655.282,718.367Z" fill="#f2bea0"/>
                <g id="Group_1276" data-name="Group 1276" clip-path="url(#clip-path-15)">
                  <path id="Path_3705" data-name="Path 3705" d="M623.391,710.3c7.894,12.907,22.973,23.626,30.006,24.516s-11.011,13.612-11.011,13.612l-12.589-9.69Z" fill="#ffe5dc"/>
                  <path id="Path_3706" data-name="Path 3706" d="M624.568,706.635c11.576.749,34.423,10.307,36.616,13.681s5.464-17.388,5.464-17.388l-23.894-6.379Z" fill="#d3a590"/>
                  <path id="Path_3707" data-name="Path 3707" d="M627.8,701.8c6.739,1.329,34.568,11.041,36.91,13.243s-4.23-13.635-4.23-13.635l-26.668-1.944Z" fill="#c19781"/>
                </g>
              </g>
              <path id="Path_3709" data-name="Path 3709" d="M703.22,818.347c-9.273-3.976-77.358-43.788-79.54-54.782s14.495-25.727,14.495-25.727l.656,4.779-9.2,18.685s-1.556,3.3,2.909,6.6,30.21,22.981,30.585,23.273,23.141,15.2,23.141,15.2Z" fill="#b7b7b7"/>
              <path id="Path_3710" data-name="Path 3710" d="M673.38,799.027c-2.2-1.468-29.575-18.507-31.916-20.708s-15.957-11.307-14.631-16.141,3.1-13.185,8.962-16.254-3.085,5.565-3.085,5.565l-3.972,10.692,2.924,4.2s9.48,8.585,9.936,8.87S673.38,799.027,673.38,799.027Z" fill="#7a7a7a"/>
              <path id="Path_3711" data-name="Path 3711" d="M748.879,753.961c-8.781-7.78-75.821-61.511-80.814-54.044s-40.231,54.456-38.485,63.251S705.115,819.4,705.115,819.4" fill="none" stroke="#914f46" stroke-miterlimit="10" stroke-width="5"/>
              <path id="Path_3712" data-name="Path 3712" d="M639.934,740.556c-5.949-9.508-14.728-19.193-8.705-29.149s22.675-8.505,29.946-2.614" fill="none" stroke="#914f46" stroke-miterlimit="10" stroke-width="5"/>
              <circle id="Ellipse_546" data-name="Ellipse 546" cx="11.096" cy="11.096" r="11.096" transform="translate(638.6 749.21)" fill="none" stroke="#914f46" stroke-miterlimit="10" stroke-width="3.17"/>
            </g>
          </g>
          <path id="Path_3713" data-name="Path 3713" d="M680.026,689.141c5.112,8.214,17.047,12.107,35.3,13.171s40.9-5.968,37.713-8.915C749.4,693.862,687.162,691.707,680.026,689.141Z" transform="translate(-3.676 -0.938)" fill="#b7b7b7" opacity="0.374"/>
          <path id="Path_3714" data-name="Path 3714" d="M667.54,687.176c5.931,10.68,32.263,17.706,53.438,19.089s66.073-7.874,62.375-11.705C779.127,695.165,675.818,690.513,667.54,687.176Z" transform="translate(-11.412 -2)" fill="#7a7a7a" opacity="0.158"/>
          <ellipse id="Ellipse_547" data-name="Ellipse 547" cx="17.5" cy="8.5" rx="17.5" ry="8.5" transform="translate(766.626 664.448)" fill="#d84955" opacity="0.422"/>
          <ellipse id="Ellipse_548" data-name="Ellipse 548" cx="17.5" cy="10" rx="17.5" ry="10" transform="translate(621.626 653.448)" fill="#d84955" opacity="0.422"/>
        </g>
      </g>
      <path id="Rectangle_205" data-name="Rectangle 205" d="M0,0H518a0,0,0,0,1,0,0V37a35,35,0,0,1-35,35H35A35,35,0,0,1,0,37V0A0,0,0,0,1,0,0Z" transform="translate(-778 1168)" fill="#f29aa1"/>
    </g>
  </g>
</svg>
