<svg xmlns="http://www.w3.org/2000/svg" xmlns:xlink="http://www.w3.org/1999/xlink" width="410.921" height="563.099" viewBox="0 0 410.921 563.099">
  <defs>
    <clipPath id="clip-path">
      <path id="Path_535" data-name="Path 535" d="M509.948,997.354a8.968,8.968,0,0,0-1.814-3.769c1.214-4.746.864-10.106-2.157-13.768-.33-.4-.639-.813-.96-1.218a3.092,3.092,0,0,0-.031-.482,268.865,268.865,0,0,0-7.142-31.9c-.534-2.24-1.1-4.471-1.68-6.7a147.319,147.319,0,0,0-5.768-28.672,3.575,3.575,0,0,0-.416-.879q-.9-5.712-1.814-11.422a3.62,3.62,0,0,0-.481-1.322,208.24,208.24,0,0,0-4.56-23.024c2.156-3.708-1.231-8.267-1.629-13.735-.5-6.832.874-12.7-3.788-17.084q-.627-4.273-1.109-8.567a6.2,6.2,0,0,0,.724-1.412c1.141-3.069-2.809-4.906-5.132-3.69a33.663,33.663,0,0,0-7.186,5.428c-.137-.006-.369-.015-.749-.048a5.812,5.812,0,0,0-2.038.152,4.979,4.979,0,0,0-1.113.466c-.14-.016-.292-.124-.418-.06-10.531,5.341-20.422,4.256-30.609,7.446-3.155.988-6.062,1.8-8.854,2.481a3.323,3.323,0,0,0-1.335-.128,165.94,165.94,0,0,1-17.877,1.122c-5.024-.054-9.931-.968-14.927-1.323-4.753-.339-8.817.743-13.452,1.35-5.855.766-11.817.1-17.655-.482a3.1,3.1,0,0,0-1.511.194,3.045,3.045,0,0,0-1.721-.226c-3.564.492-7.315,1.131-10.885.583-3.411-.523-6.466-1.508-9.958-1.679-3.069-.15-6.006-1.272-9.008-1.378a11.369,11.369,0,0,0-2.915.706,9.791,9.791,0,0,0-1.917.125c-2.367.4-4.193-.156-6.561.152-.881.115-2.935-1.828-3.478-1.323-5.932-.96-10.5.143-16.3-1.357-9.985-2.579-19.058-1.917-29.34-2.869-18.257-1.69-38.12-8.409-56.943-6.183a8.8,8.8,0,0,0-3.786-2.108,40.113,40.113,0,0,1-12.905-1.1c-3.233-.845-6.368-2.848-9.681-1.437-3,1.277-1.112,3.293-.767,6.04-.051.11-.107.234-.166.366a9.473,9.473,0,0,0-1.117,2.73,3.107,3.107,0,0,0,.546,2.691c-2.352,3.185-.989,7.657-1.226,12-.088,1.625-2.785,2.733-2.909,4.356-.02.254-.033.438-.044.593-.013.111-.027.22-.044.365-.208,1.766-.455,3.527-.719,5.286a8.33,8.33,0,0,0-.722,3.193c-.014.521-.04,1.04-.058,1.56-.936,5.292-2.081,10.546-3.382,15.759a346.191,346.191,0,0,0-7.057,35.35c-3.237,23.3-13.766,41.856-16.072,66.5-.276,2.951-2.734,9.094-1.277,11.53a3.386,3.386,0,0,0-1.266,2.129,3.566,3.566,0,0,0-.508.75,4.135,4.135,0,0,0-.664.533,3.257,3.257,0,0,0-.251,4.255,3.418,3.418,0,0,0,4.2,2.253l3.23-.867a3.41,3.41,0,0,0,2.266-2.34c3.089,1.786,7.577.636,10.8.567,10.938-.234,20.889-1.458,31.821-1.019,5.1.2,8.582.343,13.674.7s10.018-.826,13.638-.437c11.8,1.268,24.516-3.432,36.331-2.3,11.775,1.127,18.162,3.172,29.621,1.327.84,2.394,3.8.823,4.546-.146.653-.85,3.478-.049,4.546-.146,2.493-.225,5.491.982,7.992.882,5.736-.229,12.48.54,18.22.554,10.971.026,22.03-.047,32.958-1.056,14.3-1.321,28.876.711,43.148-.924,5.121,2.236,8.907-.045,14.393-.053,7.033-.01,14.2.968,21.212,1.473,3.556.255,7.176.72,10.742.671,3.658-.05,7.2-.973,10.841-1.152,6.014-.3,12.177.381,18.23.893,4.1,1.115,9.183-1.087,13.447.55,5.019,1.928,10.164,3.4,14.454.031l0,0a3.774,3.774,0,0,0,5.47,1.838c.044-.025.079-.056.122-.082a3.619,3.619,0,0,0,3.069-3.842c0-.147-.015-.3-.03-.447A11.467,11.467,0,0,0,509.948,997.354Z" fill="#d84955"/>
    </clipPath>
    <clipPath id="clip-path-2">
      <path id="Path_541" data-name="Path 541" d="M288,1044.114a9.36,9.36,0,0,0-3.481.118c-3.313.3-5.275-.6-8.176-1.835-3.715-1.579-6.4-.369-10.137.3-8.1,1.442-17.495-6.046-24.58.657-1.475,1.4-.606,3.926.389,5.584l.073.121a3.662,3.662,0,0,0-.25,3.337,7.083,7.083,0,0,0,2.5,3.1c1.8,5.005,5.991,12.435,10.613,11.7a6.77,6.77,0,0,0,6.968,5.551c.161,0,.32-.019.48-.026a4.893,4.893,0,0,0,5.471,2.314c9.631-2.478,14.339-6.985,19.471-15.243C289.717,1055.955,296.213,1046.157,288,1044.114Z" fill="#f2bea0"/>
    </clipPath>
    <clipPath id="clip-path-3">
      <path id="Path_546" data-name="Path 546" d="M411.276,1042.145c-4.107-.029-8.217-.108-12.325-.087-3.871.019-7.63,1.207-11.413,1.213-3.412.005-6.729-1.277-10.243-1.208a55.847,55.847,0,0,0-11.126,1.8c-2.7.615-4.218,4.533-2.5,6.765,3.923,5.106,5.964,11,10.05,15.943,3.609,4.362,5.868,8.725,12.167,8.684a4.109,4.109,0,0,0,3.074-1.249c1.969.646,4.7-.036,5.515-2.094.061-.155.116-.307.17-.46.6-.221,1.2-.472,1.782-.746a13.981,13.981,0,0,0,5.591-2.194,4.437,4.437,0,0,0,1.758-2.161,21.549,21.549,0,0,0,5.4-5.226c2.422-3.5,3.657-7.53,5.563-11.325C417.961,1043.39,415.483,1042.175,411.276,1042.145Z" fill="#f2bea0"/>
    </clipPath>
    <clipPath id="clip-path-4">
      <path id="Path_552" data-name="Path 552" d="M475.1,793.5q-.534-5.246-.81-10.494a22.869,22.869,0,0,0,1.626-13.738l-1.382-14.2c-.024-3.533-.485-7.045-.772-10.567-.03-.364.014-2.785-.069-3.737.068-.383.123-.7.148-.874a36.2,36.2,0,0,0-.634-15.991,30.662,30.662,0,0,0-1.08-3.151c.356-2.431-.746-7.337-.932-9.013a145.038,145.038,0,0,0-5.041-25.61,25.676,25.676,0,0,0-2.315-5.356,60.02,60.02,0,0,0-6.769-20.592,3.2,3.2,0,0,0,.251-4.527c-7.581-9.946-15.562-19.984-26.586-26.3a42.592,42.592,0,0,0-15.988-5.449,45.887,45.887,0,0,0-6.7-.2,41.158,41.158,0,0,0-6.367-2.358,8.056,8.056,0,0,0-3.027-.736,50.394,50.394,0,0,0-6.658-.922c-15.5-1.112-31.378-2.476-46.926-1.223-1.488-.277-2.979-.58-4.487-.936-8.648-2.043-21.76-5.668-29.525.262-.082-.008-.161-.019-.242-.028-8.379-.853-16.455-2.241-24.848-1.311-3.663.406-3.177-.342-6.819.218,2.633-.663-3.284-.17-4.546.146-1.894.475-3.8,1.241-5.733.992-20.361-2.619-39.431.862-57.41,10.887a24.3,24.3,0,0,0-8.582,8.286,4.394,4.394,0,0,0-1.01.127,8.085,8.085,0,0,0-5.694,5.35,12.233,12.233,0,0,0-4.373,5.724,24.471,24.471,0,0,0-4.161,5.662c-3.911,7.462-5.366,16.117-6.182,24.406a183.834,183.834,0,0,0-.716,18.462,3.867,3.867,0,0,0-.538,2.325c.731,11.066.973,22.213-1.692,32.979a4.272,4.272,0,0,0,1.286,4.443c-.65,5.188-1.2,10.385-1.548,15.592a71.667,71.667,0,0,0,.776,16.308,4.145,4.145,0,0,0-1.644,2.042c-2.158,5.611,2.161,9.836,1.636,15.233-.024.244-.052.484-.077.726a3.642,3.642,0,0,0-1.473,3.229c.105,3.516.08,7.012-.061,10.512-.122,1.515-.212,3.042-.247,4.592a3.623,3.623,0,0,0,.794,2.49c.026,3.121.524,8.748,1.578,10.729a3.967,3.967,0,0,0-2.087,2.559l-.155.568a3.943,3.943,0,0,0,1.147,3.838c1.68,1.462,4.6,2.505,6.193,1.873a10.686,10.686,0,0,0,2.515.159,1.785,1.785,0,0,1,1.291.527,4.006,4.006,0,0,0,1.087.719,20.1,20.1,0,0,0,10.081,1.984,4.582,4.582,0,0,0,.734-.109q12.148,1.738,24.306,2.943a4.265,4.265,0,0,0,1.725.968c8.588,2.535,17.672,3.351,26.832,3.528a4.942,4.942,0,0,0,2.957,1.156c24.522,1.541,48.743,6.918,73.378,6.815,11.791-.049,23.7-1.4,35.274,1.519a45.628,45.628,0,0,0,15.031.84c6.265-.473,12.184-1.219,18.392-2.08a4.111,4.111,0,0,0,2.18-.977,58.208,58.208,0,0,0,11.558-.02c9.466-.964,18.919-2.482,28.338-3.832,7.648-1.1,15.385-2.341,22.523-5.422a38.944,38.944,0,0,0,9.366-5.6c3.8-3.115,5.243-3.121,4.652-7.935-.133-1.087.474-5.08-.182-5.683.953-2.051-.214-2.473.285-4.589A29.07,29.07,0,0,0,475.1,793.5Z" fill="#f2bea0"/>
    </clipPath>
    <clipPath id="clip-path-5">
      <path id="Path_560" data-name="Path 560" d="M476.315,777.373c-.151-7.54.157-15.71-1.292-23.282a129.9,129.9,0,0,0-1.138-20.056,4.466,4.466,0,0,0-.2-.836c-.027-.9-.047-1.8-.079-2.7q-.457-12.909-1.657-25.776c-1.11-11.925-1.578-24.02-7.97-33.925a4.161,4.161,0,0,0-.274-1.1c-6.143-15.172-13.243-31.041-28.592-38.721-2.367-1.454-4.867-2.649-7.711-4.046-2.589-1.272-5.146-2.346-7.4-1.829l-.019-.01a5.191,5.191,0,0,0-1.031-1.2c-1.807-1.5-4.774-1.816-7.771-1.8-1.248-.33-4.335-.147-5.6-.374.11-.151.929-3.269,1.028-3.445,4.622-8.208,9.631-16.923,10.852-28.109a6.037,6.037,0,0,0,1.712-2.084,7.131,7.131,0,0,0,.677-3.434c-.006-.283-.013-.579-.044-.862a3.526,3.526,0,0,0,.577-2.4,98.5,98.5,0,0,0-3.108-17.034,3.57,3.57,0,0,0-2.221-2.432,23.455,23.455,0,0,0-3.524-6.216c-.322-.4-.661-.791-1.013-1.166.554-1.232-.683-1.252-1.474-2.327-4.707-6.391-9.467-12.12-17.078-14.386a4.088,4.088,0,0,0-.939-.158,30.844,30.844,0,0,0-6.02-3.319c-3.089-1.236-4.165-2.81-7.34-2.747-.019-1.2-2.717-1.185-4.164-1.886-12.932-6.261-27.272-6.736-41.483-6.273-6.7-1.915-14.326-1.352-21.134-1.187a232.489,232.489,0,0,0-27.04,2.3,4.424,4.424,0,0,0-2.494,1.306c-5.4.688-10.78,1.52-16.243.983a3.094,3.094,0,0,0-3.545,2.662c-14.946.842-29.415,4.988-39.728,16.372a13.127,13.127,0,0,0-3.359,4.173c-1.1,2.061-4.339,7.282-2.634,8.351-4.2,7.8-3.086,12.915-2.273,22.071.309,3.478-1.139,7.231-.081,11a26.911,26.911,0,0,0,1.391,7.919c.456,1.586.549,4.312,1.319,5.646-2.483,3.755,4.122,7.8,9.247,11,.415.705.738,1.25.865,1.429.344.488.683.979,1.026,1.467a27.467,27.467,0,0,0,1.327,2.9c-6.1,1.356-12.026,3.347-15.919,8.054-3.252,2.134-5.726,5.478-8.941,7.577a15.607,15.607,0,0,0-2.865,1.483,3.707,3.707,0,0,0-1.419,1.826c-.725.7-1.412,1.436-2.045,2.161a16.749,16.749,0,0,0-2.324,2.844,4.322,4.322,0,0,0-.6,1.177,3.86,3.86,0,0,0-2.342,1.809c-2.467,4.3-6.2,3.855-7.334,8.467-.951.511.442,6.269.128,7.321-1.448,4.84-3.789,4.841-2.991,9.835.056.351.045,5.37.182,5.683-.117.832.116.346.036,1.136-.352,3.467,1.082,8.3.978,11.79a4.56,4.56,0,0,0-.4.925c-1.246,4.168-.785,8.367-.777,12.658.009,4.992-.265,9.968-.724,14.938a3.045,3.045,0,0,0,.64,2.19c.057,7.64-2.42,15.925-2.152,23.56-.3.531.247,6.09.218,6.819-.149,3.768.581,4.178.255,7.956-.246,2.857-.657,6.263-.845,9.128-.432,6.583-1.2,11.743.583,18.183.022.079-1.778,3.416,0,0a18.412,18.412,0,0,0-1.027,3.446c0,.745-.263,1.657.072,2.273-.965,2.108,1.226,1.294.791,3.5-1.563,7.9,2.947,6.622,7.739,1.869,1.665-1.652,1.258-4.765,2.4-7.133a6.492,6.492,0,0,0,.942-.745,7.634,7.634,0,0,0,2.127-4.476c.54-.773,1.091-1.525,1.657-2.216a3.894,3.894,0,0,0,.839-3.4,7.941,7.941,0,0,0,.785-1.593,65.558,65.558,0,0,0,3.7-16.87c.194-3.5-.222-6.883.094-10.417a29.77,29.77,0,0,0,.043-5.787c.415-2.736.817-5.476,1.24-8.216.671-4.342,1.274-8.984,3.3-12.943,2.22-4.336,6.318-6.46,9.752-9.673.031-.028.048-.059.077-.088a4.478,4.478,0,0,0,1.8-.424c9.216-4.252,15.461-15.453,19.474-25.506A37.024,37.024,0,0,0,238,685.2c.6-1.216,1.171-2.456,1.7-3.711,3.21-3.878,4.388-8.968,6.082-13.808a3.212,3.212,0,0,0-.534-3.224l3.913-9.382a4.015,4.015,0,0,0,.267-2.023,4.757,4.757,0,0,0,.279-.513,56.471,56.471,0,0,0,2.962-8.457,3.564,3.564,0,0,0,.1-1.036c2.327-1.933,4.43-4.268,4.955-6.707a69.809,69.809,0,0,0,13.017-6.835c4.514-1.088,9.763-.963,14.227-1.435,4.768-.505,9.547-1.142,14.33-1.481,5.115-.363,9.908.461,14.967.973,10.354,1.048,20.834-.474,31.08-1.928a39.737,39.737,0,0,1,16.408.652,18.8,18.8,0,0,0,5.679.642,4.062,4.062,0,0,0,2.11,1.268,3.416,3.416,0,0,0,.449.286c.906.472,1.787.967,2.655,1.475a3.931,3.931,0,0,0-.217,4.174c2.346,4.445,3.6,9.474,6.686,13.463a44.222,44.222,0,0,0,2.419,4.473c.954,2.123,1.85,2.082,2.418,4.473.311,1.307,1.386,4.1,2.419,4.473,5,12.1,11.41,21.856,19.241,31.963,3.9,5.04,8.7,9.523,14.825,11.65,8.09,2.811,13.414,9.4,18.482,16.17A107.489,107.489,0,0,1,458.3,764.125c2.326,11.716-3.421,23.966,3.013,34.42-.37,1.254,3.384,4.773,4.429,6.005,1.614,1.9,4.48,3.191,6.164,5.032,7.073,7.737,5.139.987,5.458-2.428C478.321,796.862,476.512,787.185,476.315,777.373Zm-202.6-160.9c-3.416-.223-7.046-.291-10.729-.169.087-.045.159-.1.241-.152,8.951-.782,17.952-1.056,26.956-1.164C284.6,615.881,279.539,616.849,273.712,616.469Zm29.84-.446c-.5-.224-1.008-.418-1.516-.593q1.518.067,3.039.1A10.685,10.685,0,0,0,303.552,616.023Zm15.013-.247a48.285,48.285,0,0,1-5.082-.344q2.874-.125,5.745-.367a3.163,3.163,0,0,0,1.266.465l1.588.228Z" fill="#ffc"/>
    </clipPath>
    <clipPath id="clip-path-6">
      <path id="Path_566" data-name="Path 566" d="M395.7,561.742c-2.459,1.762-5.344,1.964-7.846,3.664a11.006,11.006,0,0,0-2.236,1.21c-4.373,2.537-6.774,4.645-11.147,7.183a53.729,53.729,0,0,0-5.573,3.591c-.526.4-1.769-.484-2.273.073-.441.1-1.752,2.251-2.2,2.346-.85.18-1.115-1.829-1.357-1.687,1.141-.672-.632-2.364-.911-3.479.287-.179-.509-.861-.511-1.239a30.246,30.246,0,0,0-2.032-10.777,1.114,1.114,0,0,0,.269-.15,1.165,1.165,0,0,0,.105-1.6,1.6,1.6,0,0,0-.729-.562,2.524,2.524,0,0,0-.34-2c0-.005-.01-.006-.014-.011-.343-.548-1.342,1.908-1.918,2.412-1.546,1.355-1.944.869-3.336,2.382-.266.289-1.261-.131-1.218.23q-7.449,6.894-14.672,14.023c-.834.35-.879,2.034-1.784,2.241-.292-.518-1.528-2.373-1.884-2.825a31.371,31.371,0,0,1-1.926-2.713,34.562,34.562,0,0,1-3.021-6.052,1.093,1.093,0,0,0-1.182-.6q-.713-1.437-1.539-2.811a1.122,1.122,0,0,0-.084-.325q-1.291-2.689-2.828-5.252a1.41,1.41,0,0,0-.192-.225,7.278,7.278,0,0,0-1.9-2.993.936.936,0,0,0-.362-1.08c-.175-.843-.048-1.708-.7-.792-1.115,1.577-3.592,3.5-4.822,4.987s-2.644,2.795-3.893,4.26a23.982,23.982,0,0,0-1.828,2.563l-4,4.308a1.168,1.168,0,0,0-.273.514c-.118.1-.23.21-.35.31a1,1,0,0,0-.31.487c-.605.6-1.2,1.221-1.844,1.789a7.286,7.286,0,0,1-1.309.906,1.607,1.607,0,0,0-.7-.151c-.312.03-.062.08-.226-.087a11.317,11.317,0,0,1-.986-1.39c-.288-.407-.566-.824-.891-1.2a3.988,3.988,0,0,0-1.854-1.3c-.588-.947-1.208-1.874-1.824-2.774a22.955,22.955,0,0,0-3.807-4.266,9.4,9.4,0,0,0-2.41-3.777,1.354,1.354,0,0,0-.469-.725,4.925,4.925,0,0,1-1.205-1.944,15.72,15.72,0,0,0-1.055-2.225,7.23,7.23,0,0,0-2-2,4.208,4.208,0,0,0-2.145-2.376,1.142,1.142,0,0,0-2.2-.474c-.029.071-.06.14-.089.21a1.434,1.434,0,0,0-.507.113c-.483.2.26,1.72-.025,2.144-.632.939-1.761,1.308-2.2,2.346-.459,1.084-1.287,1.741-1.731,2.831a11.073,11.073,0,0,0-.446,1.323c-4.657,4.941-7.5,13.221-11.691,16.37a22.15,22.15,0,0,0-4.875-4.474,29.018,29.018,0,0,0-4.654-3.185,1.137,1.137,0,0,0-.435-1.246q-1.821-1.3-3.659-2.574-.9-.627-1.813-1.249c-.079-.054-.161-.1-.242-.154-.5-.6-1.006-1.2-1.541-1.776a89.087,89.087,0,0,0-10.471-9.09c-.364-.284-1.494-2.414-1.846-2.211-.083-.155-1.1,1.173-1.1,1.173-.665-1.329-.49-.207.036,1.136.771,1.967.867,4.388,1.379,6.43q.132.795.327,1.582l.756,3.53a62.842,62.842,0,0,0,1.964,13.031l.459,2.8a7.844,7.844,0,0,0,.479,3.4c.15.455.311.908.467,1.362a.908.908,0,0,0,.017.241c.737,2.514,1.387,5.051,2,7.6a1.01,1.01,0,0,0-.693,1.235c.256,1.183.586,2.343.95,3.491q1.061,3.894,2.12,7.788a.945.945,0,0,0-.061.393c.006.1.013.2.021.3h0v.007a12.807,12.807,0,0,0,.3,1.992q.127.831.253,1.661a.943.943,0,0,0-.053.62,7.7,7.7,0,0,1,.176.987,1.116,1.116,0,0,0-.1.618q.086.622.172,1.245a.948.948,0,0,0,.534.752c.012.3.019.606.007.915-.02.5-.163,6.114-.269,3.65-.115-2.673,6.16-1.36,8.8-1.571,4.439,1.111,9.1,1.408,13.628,1.947,5.08.6,9.994-2.182,15.074-1.578,2.363.281,4.432-.175,6.819-.218,2.3-.042,5.709.177,7.955-.255,4.761-.916,8.885,2.142,13.709,1.722a75.846,75.846,0,0,0,12.259-1.833,1.2,1.2,0,0,0,1.361.4c1.618-.573,2.877,1.268,4.565.966,2.5-.1,5.462-.077,7.955-.255a49.326,49.326,0,0,0,5.683-.182c1.223-.074,2.233,1.2,3.446,1.027.244.261,1.865.02,2.273-.072,1.283-.291,1.012,1.264,2.309,1.063,3.109-.17,5.942-1.356,9.055-1.428,1.389.1,5.506.843,6.856.918,6.207.349,9.732.444,15.947.627.174,0,2.124-.008,2.273-.073.3,0,.888.169,1.136-.036.128.231.79-2.427,1.064-2.309.321.137-.357-1.274-.037-1.137.977.418.363-.951,0-1.794-.09-.211-.167-.424-.249-.636,0-.014.013-.024.016-.039l.771-3.838a26.938,26.938,0,0,0,.627-2.813q.164-.571.326-1.143a1,1,0,0,0,.179-.288,18.163,18.163,0,0,0,1.106-5.6q.254-1.282.506-2.565c0-.008,0-.015,0-.023a1.438,1.438,0,0,0,.122-.372c.294-1.764,1.217-3.175,1.511-4.939.007-.049,0,.048,0,0,.482-1.962,1.853-3.749,2.091-5.755.005-.046,1.5-3.719-.073-2.273,1.179-1.474.786-2.758.991-4.582.234-2.09.722-3.63.954-5.719.267-.1-.11-.773-.036-1.137.366-1.787,1.762-2.831,2.127-4.618a5.173,5.173,0,0,0-.072-2.273c.386-1.274-.113-4.138,1.027-3.446.708.43-1.1,1.181-1.1,1.173.249-.178.851-.995,1.1-1.173C399.13,559.68,396.884,560.9,395.7,561.742Z" fill="#f9cc52"/>
    </clipPath>
    <clipPath id="clip-path-7">
      <path id="Path_584" data-name="Path 584" d="M354.127,898.361c.154-1.317.726-4.312-.142-5.366-.718-.87-2.659.268-3.855.454a5.809,5.809,0,0,0-3.4,1.474,6.094,6.094,0,0,0-.577.625,7.819,7.819,0,0,0-1.983.892,4.683,4.683,0,0,0-1.674,1.742c-1.792,1.281-1.937,3.453-1.052,5.331a7.034,7.034,0,0,0,3.758,3.093c1.861.846,4.893,5.13,7.093,4.646,1.471-.323,1.162-4.031,1.693-5.483a4.944,4.944,0,0,0-.077-3.242,6.18,6.18,0,0,1-.105-1.435C353.862,900.394,354.025,899.232,354.127,898.361Z" fill="#f2bea0"/>
    </clipPath>
    <clipPath id="clip-path-8">
      <path id="Path_595" data-name="Path 595" d="M314.9,894.481c-1.013-1.263-2.429-1.416-3.728-2.039a3.566,3.566,0,0,0-2.863-1.833,4.823,4.823,0,0,0-3.1-.117c-2.3.655-2.582-2.677-2.19,5.919.015.317.39.5.585.752a3.815,3.815,0,0,0,.106.516l.072.246a3.667,3.667,0,0,0,.849,1.467l-.009.026a4.507,4.507,0,0,0-.2,1.216,4.567,4.567,0,0,0-.085,1.226c.277,4.089,1.332,9.748,7.212,2.044.171-.1.308-.188.355-.223a5.848,5.848,0,0,0,1.64-1.752c.033-.051.057-.108.088-.16a8.044,8.044,0,0,0,.6-.611C315.815,899.291,316.557,896.552,314.9,894.481Z" fill="#f2bea0"/>
    </clipPath>
    <clipPath id="clip-path-9">
      <path id="Path_605" data-name="Path 605" d="M401.076,677.61c6.517,4.569,3.919,15.8-.736,12.537s-41.131-5.508-50.15-2.944-10.411-5.354-2.637-11.292S391.766,671.082,401.076,677.61Z" fill="#ffc" stroke="#914f46" stroke-miterlimit="10" stroke-width="2.949"/>
    </clipPath>
    <clipPath id="clip-path-10">
      <path id="Path_611" data-name="Path 611" d="M231.219,683.052c-6.212,4.977-2.9,16.02,1.537,12.465s40.694-8.13,49.859-6.148,10.046-6.011,1.909-11.438S240.092,675.942,231.219,683.052Z" fill="#ffc" stroke="#914f46" stroke-miterlimit="10" stroke-width="2.949"/>
    </clipPath>
  </defs>
  <g id="koningin" transform="translate(-117.601 -516.71)">
    <g id="Group_213" data-name="Group 213">
      <path id="Path_531" data-name="Path 531" d="M509.948,997.354a8.968,8.968,0,0,0-1.814-3.769c1.214-4.746.864-10.106-2.157-13.768-.33-.4-.639-.813-.96-1.218a3.092,3.092,0,0,0-.031-.482,268.865,268.865,0,0,0-7.142-31.9c-.534-2.24-1.1-4.471-1.68-6.7a147.319,147.319,0,0,0-5.768-28.672,3.575,3.575,0,0,0-.416-.879q-.9-5.712-1.814-11.422a3.62,3.62,0,0,0-.481-1.322,208.24,208.24,0,0,0-4.56-23.024c2.156-3.708-1.231-8.267-1.629-13.735-.5-6.832.874-12.7-3.788-17.084q-.627-4.273-1.109-8.567a6.2,6.2,0,0,0,.724-1.412c1.141-3.069-2.809-4.906-5.132-3.69a33.663,33.663,0,0,0-7.186,5.428c-.137-.006-.369-.015-.749-.048a5.812,5.812,0,0,0-2.038.152,4.979,4.979,0,0,0-1.113.466c-.14-.016-.292-.124-.418-.06-10.531,5.341-20.422,4.256-30.609,7.446-3.155.988-6.062,1.8-8.854,2.481a3.323,3.323,0,0,0-1.335-.128,165.94,165.94,0,0,1-17.877,1.122c-5.024-.054-9.931-.968-14.927-1.323-4.753-.339-8.817.743-13.452,1.35-5.855.766-11.817.1-17.655-.482a3.1,3.1,0,0,0-1.511.194,3.045,3.045,0,0,0-1.721-.226c-3.564.492-7.315,1.131-10.885.583-3.411-.523-6.466-1.508-9.958-1.679-3.069-.15-6.006-1.272-9.008-1.378a11.369,11.369,0,0,0-2.915.706,9.791,9.791,0,0,0-1.917.125c-2.367.4-4.193-.156-6.561.152-.881.115-2.935-1.828-3.478-1.323-5.932-.96-10.5.143-16.3-1.357-9.985-2.579-19.058-1.917-29.34-2.869-18.257-1.69-38.12-8.409-56.943-6.183a8.8,8.8,0,0,0-3.786-2.108,40.113,40.113,0,0,1-12.905-1.1c-3.233-.845-6.368-2.848-9.681-1.437-3,1.277-1.112,3.293-.767,6.04-.051.11-.107.234-.166.366a9.473,9.473,0,0,0-1.117,2.73,3.107,3.107,0,0,0,.546,2.691c-2.352,3.185-.989,7.657-1.226,12-.088,1.625-2.785,2.733-2.909,4.356-.02.254-.033.438-.044.593-.013.111-.027.22-.044.365-.208,1.766-.455,3.527-.719,5.286a8.33,8.33,0,0,0-.722,3.193c-.014.521-.04,1.04-.058,1.56-.936,5.292-2.081,10.546-3.382,15.759a346.191,346.191,0,0,0-7.057,35.35c-3.237,23.3-13.766,41.856-16.072,66.5-.276,2.951-2.734,9.094-1.277,11.53a3.386,3.386,0,0,0-1.266,2.129,3.566,3.566,0,0,0-.508.75,4.135,4.135,0,0,0-.664.533,3.257,3.257,0,0,0-.251,4.255,3.418,3.418,0,0,0,4.2,2.253l3.23-.867a3.41,3.41,0,0,0,2.266-2.34c3.089,1.786,7.577.636,10.8.567,10.938-.234,20.889-1.458,31.821-1.019,5.1.2,8.582.343,13.674.7s10.018-.826,13.638-.437c11.8,1.268,24.516-3.432,36.331-2.3,11.775,1.127,18.162,3.172,29.621,1.327.84,2.394,3.8.823,4.546-.146.653-.85,3.478-.049,4.546-.146,2.493-.225,5.491.982,7.992.882,5.736-.229,12.48.54,18.22.554,10.971.026,22.03-.047,32.958-1.056,14.3-1.321,28.876.711,43.148-.924,5.121,2.236,8.907-.045,14.393-.053,7.033-.01,14.2.968,21.212,1.473,3.556.255,7.176.72,10.742.671,3.658-.05,7.2-.973,10.841-1.152,6.014-.3,12.177.381,18.23.893,4.1,1.115,9.183-1.087,13.447.55,5.019,1.928,10.164,3.4,14.454.031l0,0a3.774,3.774,0,0,0,5.47,1.838c.044-.025.079-.056.122-.082a3.619,3.619,0,0,0,3.069-3.842c0-.147-.015-.3-.03-.447A11.467,11.467,0,0,0,509.948,997.354Z" fill="#d84955"/>
      <g id="Group_212" data-name="Group 212" clip-path="url(#clip-path)">
        <path id="Path_532" data-name="Path 532" d="M427.208,834.905c13.856,6.382,64.093,118.536,35.7,191.118s91.319,9.588,91.319,9.588L498.26,815.564Z" fill="#a23740"/>
        <path id="Path_533" data-name="Path 533" d="M508.726,1071.2s-32.565,48.824-27.385-2.536,12.431-180.145-31.949-251.533,68.443,5.771,68.443,5.771l7.719,240.933Z" fill="#6c252b"/>
        <path id="Path_534" data-name="Path 534" d="M167.327,819.341l-56.47,225.925,43.369,4.3s-5.61,2.456,7.635-45.75S180,859.89,208.458,824.849,167.327,819.341,167.327,819.341Z" fill="#efb6bb"/>
      </g>
    </g>
    <path id="Path_536" data-name="Path 536" d="M508.336,1004.88q-7.548.468-15.1.963c-7.726-1.048-15.612-.519-23.4-.53q-16.072-.023-32.128-.885c-20.415-1.095-40.136-3.452-60.54-1.546a15.9,15.9,0,0,0-1.681.154c-.057.009-.105.031-.161.041a4.107,4.107,0,0,0-1.653-.616,51.961,51.961,0,0,0-12.593-.789c-4.387.421-8.882.448-13.208.934a17.931,17.931,0,0,0-2.735.542,4.188,4.188,0,0,0-1.6-.525,4.926,4.926,0,0,0-.619-.043c-.054,0-.1-.013-.155-.011h-.036c-.067,0-.126-.013-.194-.01l-2.035.074-3.174.091a4.058,4.058,0,0,0-2.8,1.227c-5.563-.64-11.128-1.261-16.7-1.813-14.55-1.444-28.288-.049-42.758,1.356-13.944,1.354-27.7-1.08-41.675-.57-14.87.542-29.747.3-44.6-.628a3.647,3.647,0,0,0-3.808,2.158,8.545,8.545,0,0,0-2.3-.241c-5.187.208-10.239.982-15.479.909-4.632-.065-9.271-.3-13.9-.022a47.85,47.85,0,0,0-12.565,2.226c-2.465.844-4.682,2.394-7.124,3.215-1.969.663-4,.368-5.918,1.236-6.894,3.12-5.881,12.883-2.061,17.976a4.953,4.953,0,0,0,1.4,1.259c1.221,6.775,7.739,13.459,15.033,12.455,5.438-.749,10.809-2.026,16.182-3.263a22.364,22.364,0,0,0,7.857.28l.029.016c3.254,1.272,6.349,2,9.84,1.342a24.107,24.107,0,0,0,3.374-.936,41.829,41.829,0,0,0,4.438,1.851,22.175,22.175,0,0,0,7.892.665c3.279-.248,6.565-.734,9.843-1.283a29.315,29.315,0,0,0,10.915-1.851,4.254,4.254,0,0,0,1.353-.816,369.732,369.732,0,0,0,61.734,1.941,16.872,16.872,0,0,0,5.239,1.548c2.64.359,5.492.3,7.862,1.648a4.113,4.113,0,0,0,5.639-1.3,24.664,24.664,0,0,0,6.959-.2c1.162-.166,2.843-.716,4.55-1.137a4.705,4.705,0,0,0,2.141.556,1145.33,1145.33,0,0,0,121.145-3.517c26.757-.723,53.508-2.928,80.219-4.585,7.971-.494,14.562-7.093,14.3-15.247C523.333,1011.36,516.341,1004.383,508.336,1004.88Z" fill="#f4f4f4"/>
    <g id="Group_215" data-name="Group 215">
      <path id="Path_537" data-name="Path 537" d="M288,1044.114a9.36,9.36,0,0,0-3.481.118c-3.313.3-5.275-.6-8.176-1.835-3.715-1.579-6.4-.369-10.137.3-8.1,1.442-17.495-6.046-24.58.657-1.475,1.4-.606,3.926.389,5.584l.073.121a3.662,3.662,0,0,0-.25,3.337,7.083,7.083,0,0,0,2.5,3.1c1.8,5.005,5.991,12.435,10.613,11.7a6.77,6.77,0,0,0,6.968,5.551c.161,0,.32-.019.48-.026a4.893,4.893,0,0,0,5.471,2.314c9.631-2.478,14.339-6.985,19.471-15.243C289.717,1055.955,296.213,1046.157,288,1044.114Z" fill="#f2bea0"/>
      <g id="Group_214" data-name="Group 214" clip-path="url(#clip-path-2)">
        <path id="Path_538" data-name="Path 538" d="M266.911,1086.909c8.619-15.065,13.354-44.8,8.663-49.2s40.286,14.636,41.459,15.736-40.994,34.305-40.994,34.305Z" fill="#d3a590"/>
        <path id="Path_539" data-name="Path 539" d="M286.559,1096.518c1.617-20.529,1.7-53.523-5.267-57.851s37.978,13.573,37.978,13.573l-34.911,46.624Z" fill="#c19781"/>
        <path id="Path_540" data-name="Path 540" d="M250.046,1093.138c-5.493-29.4-4.939-47.623,14.054-58.47s-30.612,3.256-30.612,3.256l6.629,29.366Z" fill="#ffe5dc"/>
      </g>
    </g>
    <g id="Group_217" data-name="Group 217">
      <path id="Path_542" data-name="Path 542" d="M411.276,1042.145c-4.107-.029-8.217-.108-12.325-.087-3.871.019-7.63,1.207-11.413,1.213-3.412.005-6.729-1.277-10.243-1.208a55.847,55.847,0,0,0-11.126,1.8c-2.7.615-4.218,4.533-2.5,6.765,3.923,5.106,5.964,11,10.05,15.943,3.609,4.362,5.868,8.725,12.167,8.684a4.109,4.109,0,0,0,3.074-1.249c1.969.646,4.7-.036,5.515-2.094.061-.155.116-.307.17-.46.6-.221,1.2-.472,1.782-.746a13.981,13.981,0,0,0,5.591-2.194,4.437,4.437,0,0,0,1.758-2.161,21.549,21.549,0,0,0,5.4-5.226c2.422-3.5,3.657-7.53,5.563-11.325C417.961,1043.39,415.483,1042.175,411.276,1042.145Z" fill="#f2bea0"/>
      <g id="Group_216" data-name="Group 216" clip-path="url(#clip-path-3)">
        <path id="Path_543" data-name="Path 543" d="M373.7,1082.35c-4.138-22.62-.211-42.086,11.962-52.715s-34.306,13.044-34.306,13.044l-1.85,30.207Z" fill="#ffe5dc"/>
        <path id="Path_544" data-name="Path 544" d="M389.76,1086.386c5.209-14.956,10.054-41.277,4.044-51.323s37.613,2.207,37.613,2.207l-20.428,37.059Z" fill="#d3a590"/>
        <path id="Path_545" data-name="Path 545" d="M394.561,1094.2c14.854-33.468,13.366-61.644,13.366-61.644l23.708,11.537-33.665,50Z" fill="#c19781"/>
      </g>
    </g>
    <g id="Group_219" data-name="Group 219">
      <path id="Path_547" data-name="Path 547" d="M475.1,793.5q-.534-5.246-.81-10.494a22.869,22.869,0,0,0,1.626-13.738l-1.382-14.2c-.024-3.533-.485-7.045-.772-10.567-.03-.364.014-2.785-.069-3.737.068-.383.123-.7.148-.874a36.2,36.2,0,0,0-.634-15.991,30.662,30.662,0,0,0-1.08-3.151c.356-2.431-.746-7.337-.932-9.013a145.038,145.038,0,0,0-5.041-25.61,25.676,25.676,0,0,0-2.315-5.356,60.02,60.02,0,0,0-6.769-20.592,3.2,3.2,0,0,0,.251-4.527c-7.581-9.946-15.562-19.984-26.586-26.3a42.592,42.592,0,0,0-15.988-5.449,45.887,45.887,0,0,0-6.7-.2,41.158,41.158,0,0,0-6.367-2.358,8.056,8.056,0,0,0-3.027-.736,50.394,50.394,0,0,0-6.658-.922c-15.5-1.112-31.378-2.476-46.926-1.223-1.488-.277-2.979-.58-4.487-.936-8.648-2.043-21.76-5.668-29.525.262-.082-.008-.161-.019-.242-.028-8.379-.853-16.455-2.241-24.848-1.311-3.663.406-3.177-.342-6.819.218,2.633-.663-3.284-.17-4.546.146-1.894.475-3.8,1.241-5.733.992-20.361-2.619-39.431.862-57.41,10.887a24.3,24.3,0,0,0-8.582,8.286,4.394,4.394,0,0,0-1.01.127,8.085,8.085,0,0,0-5.694,5.35,12.233,12.233,0,0,0-4.373,5.724,24.471,24.471,0,0,0-4.161,5.662c-3.911,7.462-5.366,16.117-6.182,24.406a183.834,183.834,0,0,0-.716,18.462,3.867,3.867,0,0,0-.538,2.325c.731,11.066.973,22.213-1.692,32.979a4.272,4.272,0,0,0,1.286,4.443c-.65,5.188-1.2,10.385-1.548,15.592a71.667,71.667,0,0,0,.776,16.308,4.145,4.145,0,0,0-1.644,2.042c-2.158,5.611,2.161,9.836,1.636,15.233-.024.244-.052.484-.077.726a3.642,3.642,0,0,0-1.473,3.229c.105,3.516.08,7.012-.061,10.512-.122,1.515-.212,3.042-.247,4.592a3.623,3.623,0,0,0,.794,2.49c.026,3.121.524,8.748,1.578,10.729a3.967,3.967,0,0,0-2.087,2.559l-.155.568a3.943,3.943,0,0,0,1.147,3.838c1.68,1.462,4.6,2.505,6.193,1.873a10.686,10.686,0,0,0,2.515.159,1.785,1.785,0,0,1,1.291.527,4.006,4.006,0,0,0,1.087.719,20.1,20.1,0,0,0,10.081,1.984,4.582,4.582,0,0,0,.734-.109q12.148,1.738,24.306,2.943a4.265,4.265,0,0,0,1.725.968c8.588,2.535,17.672,3.351,26.832,3.528a4.942,4.942,0,0,0,2.957,1.156c24.522,1.541,48.743,6.918,73.378,6.815,11.791-.049,23.7-1.4,35.274,1.519a45.628,45.628,0,0,0,15.031.84c6.265-.473,12.184-1.219,18.392-2.08a4.111,4.111,0,0,0,2.18-.977,58.208,58.208,0,0,0,11.558-.02c9.466-.964,18.919-2.482,28.338-3.832,7.648-1.1,15.385-2.341,22.523-5.422a38.944,38.944,0,0,0,9.366-5.6c3.8-3.115,5.243-3.121,4.652-7.935-.133-1.087.474-5.08-.182-5.683.953-2.051-.214-2.473.285-4.589A29.07,29.07,0,0,0,475.1,793.5Z" fill="#f2bea0"/>
      <g id="Group_218" data-name="Group 218" clip-path="url(#clip-path-4)">
        <path id="Path_548" data-name="Path 548" d="M208.177,603.017C191.413,647.923,138.689,848.7,150.2,852.881s62.535,34.4,57.37,15.227,9.247-208.485,26.739-230.661S208.177,603.017,208.177,603.017Z" fill="#ffe5dc"/>
        <path id="Path_549" data-name="Path 549" d="M430.962,869.757c2.5-27.97,27.725-125.664-17.069-162.376-24.332-19.942,53.551-61.182,53.551-61.182l47.57,173.5Z" fill="#d3a590"/>
        <path id="Path_550" data-name="Path 550" d="M451.335,862.366s4.412-129.525-13.142-159.33,68.929,14.817,68.929,14.817l-2.073,125.883Z" fill="#c19781"/>
        <path id="Path_551" data-name="Path 551" d="M213.282,726.857c-20.857-11.846,69.6-100.068,69.6-100.068l-39.441-23.764-65.523,49.88s-13.908,63.016-14.9,67.6S213.282,726.857,213.282,726.857Z" fill="#ffe5dc"/>
      </g>
    </g>
    <g id="Group_221" data-name="Group 221">
      <path id="Path_553" data-name="Path 553" d="M476.315,777.373c-.151-7.54.157-15.71-1.292-23.282a129.9,129.9,0,0,0-1.138-20.056,4.466,4.466,0,0,0-.2-.836c-.027-.9-.047-1.8-.079-2.7q-.457-12.909-1.657-25.776c-1.11-11.925-1.578-24.02-7.97-33.925a4.161,4.161,0,0,0-.274-1.1c-6.143-15.172-13.243-31.041-28.592-38.721-2.367-1.454-4.867-2.649-7.711-4.046-2.589-1.272-5.146-2.346-7.4-1.829l-.019-.01a5.191,5.191,0,0,0-1.031-1.2c-1.807-1.5-4.774-1.816-7.771-1.8-1.248-.33-4.335-.147-5.6-.374.11-.151.929-3.269,1.028-3.445,4.622-8.208,9.631-16.923,10.852-28.109a6.037,6.037,0,0,0,1.712-2.084,7.131,7.131,0,0,0,.677-3.434c-.006-.283-.013-.579-.044-.862a3.526,3.526,0,0,0,.577-2.4,98.5,98.5,0,0,0-3.108-17.034,3.57,3.57,0,0,0-2.221-2.432,23.455,23.455,0,0,0-3.524-6.216c-.322-.4-.661-.791-1.013-1.166.554-1.232-.683-1.252-1.474-2.327-4.707-6.391-9.467-12.12-17.078-14.386a4.088,4.088,0,0,0-.939-.158,30.844,30.844,0,0,0-6.02-3.319c-3.089-1.236-4.165-2.81-7.34-2.747-.019-1.2-2.717-1.185-4.164-1.886-12.932-6.261-27.272-6.736-41.483-6.273-6.7-1.915-14.326-1.352-21.134-1.187a232.489,232.489,0,0,0-27.04,2.3,4.424,4.424,0,0,0-2.494,1.306c-5.4.688-10.78,1.52-16.243.983a3.094,3.094,0,0,0-3.545,2.662c-14.946.842-29.415,4.988-39.728,16.372a13.127,13.127,0,0,0-3.359,4.173c-1.1,2.061-4.339,7.282-2.634,8.351-4.2,7.8-3.086,12.915-2.273,22.071.309,3.478-1.139,7.231-.081,11a26.911,26.911,0,0,0,1.391,7.919c.456,1.586.549,4.312,1.319,5.646-2.483,3.755,4.122,7.8,9.247,11,.415.705.738,1.25.865,1.429.344.488.683.979,1.026,1.467a27.467,27.467,0,0,0,1.327,2.9c-6.1,1.356-12.026,3.347-15.919,8.054-3.252,2.134-5.726,5.478-8.941,7.577a15.607,15.607,0,0,0-2.865,1.483,3.707,3.707,0,0,0-1.419,1.826c-.725.7-1.412,1.436-2.045,2.161a16.749,16.749,0,0,0-2.324,2.844,4.322,4.322,0,0,0-.6,1.177,3.86,3.86,0,0,0-2.342,1.809c-2.467,4.3-6.2,3.855-7.334,8.467-.951.511.442,6.269.128,7.321-1.448,4.84-3.789,4.841-2.991,9.835.056.351.045,5.37.182,5.683-.117.832.116.346.036,1.136-.352,3.467,1.082,8.3.978,11.79a4.56,4.56,0,0,0-.4.925c-1.246,4.168-.785,8.367-.777,12.658.009,4.992-.265,9.968-.724,14.938a3.045,3.045,0,0,0,.64,2.19c.057,7.64-2.42,15.925-2.152,23.56-.3.531.247,6.09.218,6.819-.149,3.768.581,4.178.255,7.956-.246,2.857-.657,6.263-.845,9.128-.432,6.583-1.2,11.743.583,18.183.022.079-1.778,3.416,0,0a18.412,18.412,0,0,0-1.027,3.446c0,.745-.263,1.657.072,2.273-.965,2.108,1.226,1.294.791,3.5-1.563,7.9,2.947,6.622,7.739,1.869,1.665-1.652,1.258-4.765,2.4-7.133a6.492,6.492,0,0,0,.942-.745,7.634,7.634,0,0,0,2.127-4.476c.54-.773,1.091-1.525,1.657-2.216a3.894,3.894,0,0,0,.839-3.4,7.941,7.941,0,0,0,.785-1.593,65.558,65.558,0,0,0,3.7-16.87c.194-3.5-.222-6.883.094-10.417a29.77,29.77,0,0,0,.043-5.787c.415-2.736.817-5.476,1.24-8.216.671-4.342,1.274-8.984,3.3-12.943,2.22-4.336,6.318-6.46,9.752-9.673.031-.028.048-.059.077-.088a4.478,4.478,0,0,0,1.8-.424c9.216-4.252,15.461-15.453,19.474-25.506A37.024,37.024,0,0,0,238,685.2c.6-1.216,1.171-2.456,1.7-3.711,3.21-3.878,4.388-8.968,6.082-13.808a3.212,3.212,0,0,0-.534-3.224l3.913-9.382a4.015,4.015,0,0,0,.267-2.023,4.757,4.757,0,0,0,.279-.513,56.471,56.471,0,0,0,2.962-8.457,3.564,3.564,0,0,0,.1-1.036c2.327-1.933,4.43-4.268,4.955-6.707a69.809,69.809,0,0,0,13.017-6.835c4.514-1.088,9.763-.963,14.227-1.435,4.768-.505,9.547-1.142,14.33-1.481,5.115-.363,9.908.461,14.967.973,10.354,1.048,20.834-.474,31.08-1.928a39.737,39.737,0,0,1,16.408.652,18.8,18.8,0,0,0,5.679.642,4.062,4.062,0,0,0,2.11,1.268,3.416,3.416,0,0,0,.449.286c.906.472,1.787.967,2.655,1.475a3.931,3.931,0,0,0-.217,4.174c2.346,4.445,3.6,9.474,6.686,13.463a44.222,44.222,0,0,0,2.419,4.473c.954,2.123,1.85,2.082,2.418,4.473.311,1.307,1.386,4.1,2.419,4.473,5,12.1,11.41,21.856,19.241,31.963,3.9,5.04,8.7,9.523,14.825,11.65,8.09,2.811,13.414,9.4,18.482,16.17A107.489,107.489,0,0,1,458.3,764.125c2.326,11.716-3.421,23.966,3.013,34.42-.37,1.254,3.384,4.773,4.429,6.005,1.614,1.9,4.48,3.191,6.164,5.032,7.073,7.737,5.139.987,5.458-2.428C478.321,796.862,476.512,787.185,476.315,777.373Zm-202.6-160.9c-3.416-.223-7.046-.291-10.729-.169.087-.045.159-.1.241-.152,8.951-.782,17.952-1.056,26.956-1.164C284.6,615.881,279.539,616.849,273.712,616.469Zm29.84-.446c-.5-.224-1.008-.418-1.516-.593q1.518.067,3.039.1A10.685,10.685,0,0,0,303.552,616.023Zm15.013-.247a48.285,48.285,0,0,1-5.082-.344q2.874-.125,5.745-.367a3.163,3.163,0,0,0,1.266.465l1.588.228Z" fill="#ffc"/>
      <g id="Group_220" data-name="Group 220" clip-path="url(#clip-path-5)">
        <path id="Path_554" data-name="Path 554" d="M174.036,815.713c13.31-10.665,26.141-178.31,42.679-194.767s-49.495,17.513-49.459,18.649S174.036,815.713,174.036,815.713Z" fill="#fffff5"/>
        <path id="Path_555" data-name="Path 555" d="M226.87,618.345c5.464-7,12.116-83.436,33.382-94.356s-45.168,10.548-45.168,10.548l-13.69,69.835,25.476,13.973h0" fill="#fffff5"/>
        <path id="Path_556" data-name="Path 556" d="M474.54,820.874c-27.122-29.847-23.734-101.627-37.146-129.639s-25.759-58.332-25.941-64.014,15.4-16.421,15.4-16.421l78.62,74.841L482.568,822.892l-7.883,2.528Z" fill="#fffda4"/>
        <path id="Path_557" data-name="Path 557" d="M388.468,619.994c6.091-22.948-25.788-94.736-44.3-104.382s96.556,31.036,96.556,31.036l-19.772,57.516L408.889,618.2Z" fill="#fffda4"/>
        <path id="Path_558" data-name="Path 558" d="M378.409,519.066c10.447,6.491,34.989,97.854,30.552,101.409S451.055,585,451.055,585l-4.9-46.487" fill="#fffc8d"/>
        <path id="Path_559" data-name="Path 559" d="M429.345,617.546c11.948,17.82,30.051,50.231,30.706,70.688s10.133,103.2,28.789,117.393,11.5-102.757,11.5-102.757L456.548,614.4Z" fill="#fffc8d"/>
      </g>
    </g>
    <g id="Group_223" data-name="Group 223">
      <path id="Path_561" data-name="Path 561" d="M395.7,561.742c-2.459,1.762-5.344,1.964-7.846,3.664a11.006,11.006,0,0,0-2.236,1.21c-4.373,2.537-6.774,4.645-11.147,7.183a53.729,53.729,0,0,0-5.573,3.591c-.526.4-1.769-.484-2.273.073-.441.1-1.752,2.251-2.2,2.346-.85.18-1.115-1.829-1.357-1.687,1.141-.672-.632-2.364-.911-3.479.287-.179-.509-.861-.511-1.239a30.246,30.246,0,0,0-2.032-10.777,1.114,1.114,0,0,0,.269-.15,1.165,1.165,0,0,0,.105-1.6,1.6,1.6,0,0,0-.729-.562,2.524,2.524,0,0,0-.34-2c0-.005-.01-.006-.014-.011-.343-.548-1.342,1.908-1.918,2.412-1.546,1.355-1.944.869-3.336,2.382-.266.289-1.261-.131-1.218.23q-7.449,6.894-14.672,14.023c-.834.35-.879,2.034-1.784,2.241-.292-.518-1.528-2.373-1.884-2.825a31.371,31.371,0,0,1-1.926-2.713,34.562,34.562,0,0,1-3.021-6.052,1.093,1.093,0,0,0-1.182-.6q-.713-1.437-1.539-2.811a1.122,1.122,0,0,0-.084-.325q-1.291-2.689-2.828-5.252a1.41,1.41,0,0,0-.192-.225,7.278,7.278,0,0,0-1.9-2.993.936.936,0,0,0-.362-1.08c-.175-.843-.048-1.708-.7-.792-1.115,1.577-3.592,3.5-4.822,4.987s-2.644,2.795-3.893,4.26a23.982,23.982,0,0,0-1.828,2.563l-4,4.308a1.168,1.168,0,0,0-.273.514c-.118.1-.23.21-.35.31a1,1,0,0,0-.31.487c-.605.6-1.2,1.221-1.844,1.789a7.286,7.286,0,0,1-1.309.906,1.607,1.607,0,0,0-.7-.151c-.312.03-.062.08-.226-.087a11.317,11.317,0,0,1-.986-1.39c-.288-.407-.566-.824-.891-1.2a3.988,3.988,0,0,0-1.854-1.3c-.588-.947-1.208-1.874-1.824-2.774a22.955,22.955,0,0,0-3.807-4.266,9.4,9.4,0,0,0-2.41-3.777,1.354,1.354,0,0,0-.469-.725,4.925,4.925,0,0,1-1.205-1.944,15.72,15.72,0,0,0-1.055-2.225,7.23,7.23,0,0,0-2-2,4.208,4.208,0,0,0-2.145-2.376,1.142,1.142,0,0,0-2.2-.474c-.029.071-.06.14-.089.21a1.434,1.434,0,0,0-.507.113c-.483.2.26,1.72-.025,2.144-.632.939-1.761,1.308-2.2,2.346-.459,1.084-1.287,1.741-1.731,2.831a11.073,11.073,0,0,0-.446,1.323c-4.657,4.941-7.5,13.221-11.691,16.37a22.15,22.15,0,0,0-4.875-4.474,29.018,29.018,0,0,0-4.654-3.185,1.137,1.137,0,0,0-.435-1.246q-1.821-1.3-3.659-2.574-.9-.627-1.813-1.249c-.079-.054-.161-.1-.242-.154-.5-.6-1.006-1.2-1.541-1.776a89.087,89.087,0,0,0-10.471-9.09c-.364-.284-1.494-2.414-1.846-2.211-.083-.155-1.1,1.173-1.1,1.173-.665-1.329-.49-.207.036,1.136.771,1.967.867,4.388,1.379,6.43q.132.795.327,1.582l.756,3.53a62.842,62.842,0,0,0,1.964,13.031l.459,2.8a7.844,7.844,0,0,0,.479,3.4c.15.455.311.908.467,1.362a.908.908,0,0,0,.017.241c.737,2.514,1.387,5.051,2,7.6a1.01,1.01,0,0,0-.693,1.235c.256,1.183.586,2.343.95,3.491q1.061,3.894,2.12,7.788a.945.945,0,0,0-.061.393c.006.1.013.2.021.3h0v.007a12.807,12.807,0,0,0,.3,1.992q.127.831.253,1.661a.943.943,0,0,0-.053.62,7.7,7.7,0,0,1,.176.987,1.116,1.116,0,0,0-.1.618q.086.622.172,1.245a.948.948,0,0,0,.534.752c.012.3.019.606.007.915-.02.5-.163,6.114-.269,3.65-.115-2.673,6.16-1.36,8.8-1.571,4.439,1.111,9.1,1.408,13.628,1.947,5.08.6,9.994-2.182,15.074-1.578,2.363.281,4.432-.175,6.819-.218,2.3-.042,5.709.177,7.955-.255,4.761-.916,8.885,2.142,13.709,1.722a75.846,75.846,0,0,0,12.259-1.833,1.2,1.2,0,0,0,1.361.4c1.618-.573,2.877,1.268,4.565.966,2.5-.1,5.462-.077,7.955-.255a49.326,49.326,0,0,0,5.683-.182c1.223-.074,2.233,1.2,3.446,1.027.244.261,1.865.02,2.273-.072,1.283-.291,1.012,1.264,2.309,1.063,3.109-.17,5.942-1.356,9.055-1.428,1.389.1,5.506.843,6.856.918,6.207.349,9.732.444,15.947.627.174,0,2.124-.008,2.273-.073.3,0,.888.169,1.136-.036.128.231.79-2.427,1.064-2.309.321.137-.357-1.274-.037-1.137.977.418.363-.951,0-1.794-.09-.211-.167-.424-.249-.636,0-.014.013-.024.016-.039l.771-3.838a26.938,26.938,0,0,0,.627-2.813q.164-.571.326-1.143a1,1,0,0,0,.179-.288,18.163,18.163,0,0,0,1.106-5.6q.254-1.282.506-2.565c0-.008,0-.015,0-.023a1.438,1.438,0,0,0,.122-.372c.294-1.764,1.217-3.175,1.511-4.939.007-.049,0,.048,0,0,.482-1.962,1.853-3.749,2.091-5.755.005-.046,1.5-3.719-.073-2.273,1.179-1.474.786-2.758.991-4.582.234-2.09.722-3.63.954-5.719.267-.1-.11-.773-.036-1.137.366-1.787,1.762-2.831,2.127-4.618a5.173,5.173,0,0,0-.072-2.273c.386-1.274-.113-4.138,1.027-3.446.708.43-1.1,1.181-1.1,1.173.249-.178.851-.995,1.1-1.173C399.13,559.68,396.884,560.9,395.7,561.742Z" fill="#f9cc52"/>
      <g id="Group_222" data-name="Group 222" clip-path="url(#clip-path-6)">
        <path id="Path_562" data-name="Path 562" d="M249.084,542.288c-.056,18.229,33.813,90.746,19.566,91.7S212.385,598,212.385,598L226.168,544.2Z" fill="#fdebba"/>
        <path id="Path_563" data-name="Path 563" d="M366.49,628.613l46.724-17.447-1.9-75.331-42.5,5.19-39.851,95.283Z" fill="#bb993e"/>
        <path id="Path_564" data-name="Path 564" d="M391.581,541.377,358.77,624.688l40.921,1.544L411.8,563.214Z" fill="#7d6629"/>
        <path id="Path_565" data-name="Path 565" d="M397.013,528.059" fill="#7d6629"/>
      </g>
    </g>
    <path id="Path_567" data-name="Path 567" d="M339.509,811.2c-12.884-9.319-28.452-8.939-37.055-.467" fill="none" stroke="#d84955" stroke-linecap="round" stroke-miterlimit="10" stroke-width="2.949"/>
    <ellipse id="Ellipse_104" data-name="Ellipse 104" cx="18.761" cy="3.411" rx="18.761" ry="3.411" transform="matrix(0.999, -0.032, 0.032, 0.999, 369.401, 806.04)" fill="#d84955" opacity="0.61"/>
    <ellipse id="Ellipse_105" data-name="Ellipse 105" cx="18.761" cy="3.411" rx="18.761" ry="3.411" transform="matrix(0.999, -0.032, 0.032, 0.999, 244.389, 810.046)" fill="#d84955" opacity="0.61"/>
    <path id="Path_568" data-name="Path 568" d="M244.163,838.494c24.885,31.057,98.275,49.183,158.407,8.577C360.629,851.827,244.163,838.494,244.163,838.494Z" fill="#a23740" opacity="0.53"/>
    <path id="Path_569" data-name="Path 569" d="M256.664,838.094c9.565,14.483,96.52,29.9,129.959,8.35C362.757,847.209,256.664,838.094,256.664,838.094Z" fill="#6c252b" opacity="0.53"/>
    <ellipse id="Ellipse_106" data-name="Ellipse 106" cx="54.264" cy="51.798" rx="54.264" ry="51.798" transform="matrix(0.999, -0.032, 0.032, 0.999, 323.565, 700.083)" fill="#feffc6"/>
    <ellipse id="Ellipse_107" data-name="Ellipse 107" cx="54.264" cy="51.798" rx="54.264" ry="51.798" transform="matrix(0.999, -0.032, 0.032, 0.999, 206.508, 703.834)" fill="#feffc6"/>
    <path id="Path_570" data-name="Path 570" d="M243.657,615.319c-.5-4.373-9.842-59.362-11.161-67.118a.328.328,0,0,1,.54-.3l30.9,26.946a.328.328,0,0,0,.494-.072l16.67-26.355a.327.327,0,0,1,.538-.024l20.022,26.154a.328.328,0,0,0,.506.019l18.343-20.582a.329.329,0,0,1,.532.057l14.454,25.6a.328.328,0,0,0,.51.078L358.8,558.452a.328.328,0,0,1,.548.184L363,579.583a.329.329,0,0,0,.487.229l33.728-19.279a.328.328,0,0,1,.484.355l-12.281,56.289c-.035.159-.234,1.8-.395,1.789-3.723-.23-44.543-3.823-47.878-3.016-3.454.835-40.011-1.037-40.986-.962-.018,0-4.528.147-4.546.145l-47.658.471A.324.324,0,0,1,243.657,615.319Z" fill="none" stroke="#914f46" stroke-miterlimit="10" stroke-width="5"/>
    <g id="Group_224" data-name="Group 224">
      <ellipse id="Ellipse_108" data-name="Ellipse 108" cx="4.548" cy="8.528" rx="4.548" ry="8.528" transform="translate(445.887 1021.731) rotate(-54.71)" fill="#914f46"/>
      <ellipse id="Ellipse_109" data-name="Ellipse 109" cx="4.548" cy="8.528" rx="4.548" ry="8.528" transform="translate(494.756 1020.165) rotate(-54.71)" fill="#914f46"/>
      <ellipse id="Ellipse_110" data-name="Ellipse 110" cx="8.528" cy="4.548" rx="8.528" ry="4.548" transform="translate(417.736 1023.749) rotate(-34.622)" fill="#914f46"/>
      <ellipse id="Ellipse_111" data-name="Ellipse 111" cx="8.528" cy="4.548" rx="8.528" ry="4.548" transform="translate(470.046 1022.917) rotate(-34.622)" fill="#914f46"/>
      <ellipse id="Ellipse_112" data-name="Ellipse 112" cx="8.528" cy="4.548" rx="8.528" ry="4.548" transform="translate(357.466 1024.535) rotate(-34.622)" fill="#914f46"/>
      <ellipse id="Ellipse_113" data-name="Ellipse 113" cx="8.528" cy="4.548" rx="8.528" ry="4.548" transform="translate(218.747 1023.726) rotate(-34.622)" fill="#914f46"/>
      <ellipse id="Ellipse_114" data-name="Ellipse 114" cx="8.528" cy="4.548" rx="8.528" ry="4.548" transform="translate(156.203 1024.498) rotate(-34.622)" fill="#914f46"/>
      <ellipse id="Ellipse_115" data-name="Ellipse 115" cx="8.528" cy="4.548" rx="8.528" ry="4.548" transform="translate(291.524 1023.013) rotate(-34.622)" fill="#914f46"/>
      <ellipse id="Ellipse_116" data-name="Ellipse 116" cx="4.548" cy="8.528" rx="4.548" ry="8.528" transform="translate(385.624 1021.379) rotate(-54.71)" fill="#914f46"/>
      <ellipse id="Ellipse_117" data-name="Ellipse 117" cx="4.548" cy="8.528" rx="4.548" ry="8.528" transform="translate(326.485 1023.309) rotate(-54.71)" fill="#914f46"/>
      <ellipse id="Ellipse_118" data-name="Ellipse 118" cx="4.548" cy="8.528" rx="4.548" ry="8.528" transform="translate(254.858 1021.754) rotate(-54.71)" fill="#914f46"/>
      <ellipse id="Ellipse_119" data-name="Ellipse 119" cx="4.548" cy="8.528" rx="4.548" ry="8.528" transform="translate(186.636 1021.356) rotate(-54.71)" fill="#914f46"/>
      <ellipse id="Ellipse_120" data-name="Ellipse 120" cx="4.548" cy="8.528" rx="4.548" ry="8.528" transform="translate(127.575 1024.386) rotate(-54.71)" fill="#914f46"/>
    </g>
    <path id="Path_571" data-name="Path 571" d="M141.441,1005.606c21.447-5.238,357.072-4.615,369.755.667" fill="none" stroke="#753f39" stroke-miterlimit="10" stroke-width="5.898"/>
    <path id="Path_572" data-name="Path 572" d="M141.441,1005.606c6.753-37.759,37.33-155.81,37.578-176.4.934-77.39-.26-150.161,5.94-169.7s35.238-36.4,42.02-37.751-8.064-3.155-10.7-14.447-14.14-50.741,16-68.771,125.384-27.908,166.217,3.776c37.522,29.115,12.013,69.856,6.805,78.062a.944.944,0,0,0,.751,1.452c16.8.838,53.463,6.146,63.384,75.208,10.25,71.343,7.743,135.131,7.925,140.813S511.2,1006.273,511.2,1006.273c14.884,2.936,20.3,30.066-7.008,29.8s-86.3,5.041-86.3,5.041c-2.754,20.566-25.928,42.923-40,29.723s-15.648-26.8-15.648-26.8c-11.4-.772-67.125-.124-69.4-.051-1.581,21.666-24.682,46.3-48.431,15.2-5.46-10.633-3.992-18.074-3.992-18.074s-84.136,1.558-97.81.858-28.077-24.128-14.621-30.248Z" fill="none" stroke="#753f39" stroke-miterlimit="10" stroke-width="10"/>
    <path id="Path_573" data-name="Path 573" d="M179.247,805.886c10.813-4.907,20.422-24.555,21.53-60.995,1.436-26.212,15-28.922,21.71-32.55s20.537-33.649,26.446-62.28,67.569-21.5,67.569-21.5c17.011-1.682,44.141-7.1,52.351.6S396,695.406,417.925,704.942s41.451,51,40.162,81.761c.655,20.457,19.414,28.1,19.414,28.1" fill="none" stroke="#753f39" stroke-miterlimit="10" stroke-width="5.898"/>
    <path id="Path_574" data-name="Path 574" d="M405,621.17c-12.647-4.145-158.444-9.712-177.472,0" transform="translate(0 2)" fill="none" stroke="#753f39" stroke-miterlimit="10" stroke-width="5.898"/>
    <path id="Path_575" data-name="Path 575" d="M179.5,826.346c9.238,4.254,247.118,43.276,298.085.688" fill="none" stroke="#753f39" stroke-miterlimit="10" stroke-width="5.898"/>
    <path id="Path_576" data-name="Path 576" d="M511.2,1006.273" fill="none" stroke="#914f46" stroke-miterlimit="10" stroke-width="5.898"/>
    <path id="Path_577" data-name="Path 577" d="M241,1041.665c7.956-.255,52.424,2.871,52.424,2.871" transform="translate(3 -2)" fill="none" stroke="#753f39" stroke-miterlimit="10" stroke-width="5.898"/>
    <path id="Path_578" data-name="Path 578" d="M362.787,1043.451c6.783-1.355,55.688-1.784,55.688-1.784" transform="matrix(0.999, -0.035, 0.035, 0.999, -34.147, 12.268)" fill="none" stroke="#753f39" stroke-miterlimit="10" stroke-width="5.898"/>
    <g id="arm">
      <path id="Path_579" data-name="Path 579" d="M374.473,883.6c-5.5-5.234-14.59-4.929-18.393,1.929a4.092,4.092,0,0,0-.117,4.1c-.574,2.547-1.566,4.977-1.751,7.57-.216,3.016.189,5.864-.22,8.937-.412,3.092.131,6.113-.108,9.2a81.577,81.577,0,0,0-.588,9.43,48.379,48.379,0,0,0,4.441,18.41c1.052,2.282,2.2,5.063,4,6.873a6.05,6.05,0,0,0,2.829,1.684,8.607,8.607,0,0,0,.837,1.856,4.709,4.709,0,0,0,3.64,2.025c2.267,2.069,6.729,1.518,7.638-2.16q.627-2.538,1.255-5.077a4.378,4.378,0,0,0-.4-3.138,54.023,54.023,0,0,0,.73-5.666c.3-5.341.2-10.737.038-16.081q-.232-7.639-.957-15.237a4.713,4.713,0,0,0,.2-1.215c.137-5.183-.772-9.873-.217-15.131A9.271,9.271,0,0,0,374.473,883.6Z" fill="#f4f4f4"/>
      <g id="Group_226" data-name="Group 226">
        <path id="Path_580" data-name="Path 580" d="M354.127,898.361c.154-1.317.726-4.312-.142-5.366-.718-.87-2.659.268-3.855.454a5.809,5.809,0,0,0-3.4,1.474,6.094,6.094,0,0,0-.577.625,7.819,7.819,0,0,0-1.983.892,4.683,4.683,0,0,0-1.674,1.742c-1.792,1.281-1.937,3.453-1.052,5.331a7.034,7.034,0,0,0,3.758,3.093c1.861.846,4.893,5.13,7.093,4.646,1.471-.323,1.162-4.031,1.693-5.483a4.944,4.944,0,0,0-.077-3.242,6.18,6.18,0,0,1-.105-1.435C353.862,900.394,354.025,899.232,354.127,898.361Z" fill="#f2bea0"/>
        <g id="Group_225" data-name="Group 225" clip-path="url(#clip-path-7)">
          <path id="Path_581" data-name="Path 581" d="M338.256,899.187c4.51-1.282,16.975-2.819,20.457-.655s-3.7-8.983-3.7-8.983l-13.565,2.71Z" fill="#ffe5dc"/>
          <path id="Path_582" data-name="Path 582" d="M336.02,900.4c6.891,2.054,21.848,7.263,22.875,3.817s.328,10.229.328,10.229l-12.429,2.673Z" fill="#d3a590"/>
          <path id="Path_583" data-name="Path 583" d="M339.575,904.833c6.892,2.055,18.329,3.964,18.329,3.964l-3.264,4.655Z" fill="#c19781"/>
          <circle id="Ellipse_121" data-name="Ellipse 121" cx="17.056" cy="17.056" r="17.056" transform="translate(238.859 726.637)" fill="#fff"/>
        </g>
      </g>
      <path id="Path_585" data-name="Path 585" d="M375.581,954.708c3.711,8.043,42.056,4.391,62.014-8.647,6.71-3.628,4.973-2.967,6.5-4.145s3.488-4.362,3.09-7.135l-.733-5.1c-2.823.659-7.055,1.53-10.355,5.049S405.57,949.765,404.433,949.8s-18.038,5.128-19.174,5.164S375.581,954.708,375.581,954.708Z" fill="#a23740"/>
      <path id="Path_586" data-name="Path 586" d="M443.591,929.207c.073,2.273-3.045,8.226-6.491,10.447-5.573,3.591-38.061,16.606-43.813,17.331-6.073.765-11.677-1.173-11.446-2.08.042-.166,13.61-1.4,13.61-1.4l17.965-7.4,12.355-4.947L437.2,933.56Z" fill="#6c252b"/>
      <line id="Line_28" data-name="Line 28" x1="71.178" y2="2.281" transform="translate(377.002 882.743)" fill="none" stroke="#914f46" stroke-miterlimit="10" stroke-width="2.949"/>
      <g id="Group_227" data-name="Group 227">
        <ellipse id="Ellipse_122" data-name="Ellipse 122" cx="4.548" cy="8.528" rx="4.548" ry="8.528" transform="translate(356.908 890.417) rotate(-36.145)" fill="#914f46"/>
        <ellipse id="Ellipse_123" data-name="Ellipse 123" cx="8.528" cy="4.548" rx="8.528" ry="4.548" transform="translate(357.259 922.798) rotate(-56.234)" fill="#914f46"/>
        <ellipse id="Ellipse_124" data-name="Ellipse 124" cx="4.548" cy="8.528" rx="4.548" ry="8.528" transform="translate(356.512 937.123) rotate(-36.145)" fill="#914f46"/>
      </g>
      <path id="Path_587" data-name="Path 587" d="M376.424,954.216c11.64,1.284,24.986-1.307,42.915-9.845,23.213-11.055,23.521-17.72,30.248-14.621" fill="none" stroke="#914f46" stroke-miterlimit="10" stroke-width="2.949"/>
      <path id="Path_588" data-name="Path 588" d="M355.48,886.812c-1.623,13.595-6.292,48.7,3.529,60.429s18.912,12.053,19.4-1.583-1.3-59.211-1.3-59.211C371.836,874.881,355.724,879.994,355.48,886.812Z" fill="none" stroke="#914f46" stroke-miterlimit="10" stroke-width="2.949"/>
      <path id="Path_589" data-name="Path 589" d="M353.158,911.335l1.593-18.4c-7.585.277-19.9,6.36-9.421,13.987,4.74,3.449,6.794,4.681,7.622,5" fill="none" stroke="#914f46" stroke-miterlimit="10" stroke-width="2.949"/>
    </g>
    <g id="arm-2" data-name="arm">
      <path id="Path_590" data-name="Path 590" d="M305.231,911.131c-.144-6.66-.169-13.643-1.62-20.171-1.1-4.967-3.51-9.9-8.039-12.561-3.355-1.968-8.085-1.475-11.708.18-1.473.673-1.95,2.979-2.319,4.959a4.477,4.477,0,0,0-1.159,4.327c1.105,4.662.934,9.88,1.017,14.9-.028.252-.045.5-.071.752h-.009c-.009.111-.013.221-.022.331a68.729,68.729,0,0,0,.741,19.326c-.231,2.887-.551,5.791-.631,8.683-.091,3.328,1.048,6.184,1.4,9.463.413,3.9-.631,9.421,2.73,12.3A4.583,4.583,0,0,0,290,954.652c10.868-3.925,14.924-13.962,15.782-24.637C306.272,923.891,305.364,917.311,305.231,911.131Z" fill="#f4f4f4"/>
      <g id="Group_229" data-name="Group 229">
        <path id="Path_591" data-name="Path 591" d="M314.9,894.481c-1.013-1.263-2.429-1.416-3.728-2.039a3.566,3.566,0,0,0-2.863-1.833,4.823,4.823,0,0,0-3.1-.117c-2.3.655-2.582-2.677-2.19,5.919.015.317.39.5.585.752a3.815,3.815,0,0,0,.106.516l.072.246a3.667,3.667,0,0,0,.849,1.467l-.009.026a4.507,4.507,0,0,0-.2,1.216,4.567,4.567,0,0,0-.085,1.226c.277,4.089,1.332,9.748,7.212,2.044.171-.1.308-.188.355-.223a5.848,5.848,0,0,0,1.64-1.752c.033-.051.057-.108.088-.16a8.044,8.044,0,0,0,.6-.611C315.815,899.291,316.557,896.552,314.9,894.481Z" fill="#f2bea0"/>
        <g id="Group_228" data-name="Group 228" clip-path="url(#clip-path-8)">
          <path id="Path_592" data-name="Path 592" d="M300.753,900.389c5.463-7,8.764-10.52,14.446-10.7s-.146-4.545-3.555-4.436-11.146,7.183-11.146,7.183Z" fill="#ffe5dc"/>
          <path id="Path_593" data-name="Path 593" d="M298.48,900.462c4.582.991,18.183-.583,20.311-5.2s-3.009,12.61-3.009,12.61l-15.911.51Z" fill="#d3a590"/>
          <path id="Path_594" data-name="Path 594" d="M300.9,904.935c5.719.954,16.975-2.819,16.975-2.819l-4.291,8.1-12.575-1.873Z" fill="#c19781"/>
        </g>
      </g>
      <path id="Path_596" data-name="Path 596" d="M283.657,952.7c-3.189,8.264-41.936,8.054-62.688-3.68a64.881,64.881,0,0,0-6.5-4.7,7.436,7.436,0,0,1-3.54-6.923l.4-5.133c2.86.477,7.406.332,10.924,3.632s31.158,13.791,32.295,13.754,18.329,3.964,19.466,3.927S283.657,952.7,283.657,952.7Z" fill="#a23740"/>
      <path id="Path_597" data-name="Path 597" d="M214.154,931.6c.073,2.273,3.566,8.014,7.147,10.01,5.791,3.227,39.045,14.135,44.832,14.49,6.11.375,11.578-1.918,11.29-2.808-.053-.163-13.672-.528-13.672-.528l-18.4-6.237L232.7,942.387l-11.792-7.563Z" fill="#6c252b"/>
      <g id="Group_230" data-name="Group 230">
        <ellipse id="Ellipse_125" data-name="Ellipse 125" cx="8.528" cy="4.548" rx="8.528" ry="4.548" transform="matrix(0.537, -0.844, 0.844, 0.537, 282.425, 897.218)" fill="#914f46"/>
        <ellipse id="Ellipse_126" data-name="Ellipse 126" cx="4.548" cy="8.528" rx="4.548" ry="8.528" transform="translate(283.388 912.037) rotate(-37.437)" fill="#914f46"/>
        <ellipse id="Ellipse_127" data-name="Ellipse 127" cx="8.528" cy="4.548" rx="8.528" ry="4.548" transform="matrix(0.537, -0.844, 0.844, 0.537, 285.809, 943.803)" fill="#914f46"/>
      </g>
      <line id="Line_29" data-name="Line 29" y1="2.281" x2="71.178" transform="translate(208.69 883.525)" fill="none" stroke="#914f46" stroke-miterlimit="10" stroke-width="2.949"/>
      <path id="Path_598" data-name="Path 598" d="M284.874,952.538c-11.535,2.027-25.019.295-43.458-7.078-23.872-9.546-24.606-16.177-31.122-12.654" fill="none" stroke="#914f46" stroke-miterlimit="10" stroke-width="2.949"/>
      <path id="Path_599" data-name="Path 599" d="M301.459,883.931c2.491,13.464,9.4,48.2.347,60.531s-18.1,13.24-19.46-.337-2.5-59.173-2.5-59.173C284.374,873.072,300.78,877.143,301.459,883.931Z" fill="none" stroke="#914f46" stroke-miterlimit="10" stroke-width="2.949"/>
      <path id="Path_600" data-name="Path 600" d="M305.3,908.321c.026-.04.044-.065.044-.065L302.58,890c7.586-.209,20.27,5.073,10.3,13.356a56.884,56.884,0,0,1-7.061,5.361" fill="none" stroke="#914f46" stroke-miterlimit="10" stroke-width="2.949"/>
    </g>
    <ellipse id="Ellipse_128" data-name="Ellipse 128" cx="44.914" cy="43.777" rx="44.914" ry="43.777" transform="matrix(0.999, -0.032, 0.032, 0.999, 216.205, 711.548)" fill="#632037"/>
    <ellipse id="Ellipse_129" data-name="Ellipse 129" cx="44.914" cy="43.777" rx="44.914" ry="43.777" transform="matrix(0.999, -0.032, 0.032, 0.999, 332.694, 707.816)" fill="#632037"/>
    <g id="Group_232" data-name="Group 232">
      <path id="Path_601" data-name="Path 601" d="M401.076,677.61c6.517,4.569,3.919,15.8-.736,12.537s-41.131-5.508-50.15-2.944-10.411-5.354-2.637-11.292S391.766,671.082,401.076,677.61Z" fill="#ffc"/>
      <g id="Group_231" data-name="Group 231" clip-path="url(#clip-path-9)">
        <path id="Path_602" data-name="Path 602" d="M364.886,665.117c-9.937,9.42-18.228,34.714-18.228,34.714l-16.711-24.493,19.946-16.566Z" fill="#fffff5"/>
        <path id="Path_603" data-name="Path 603" d="M382.807,691.847c7.227-22.985,5.727-34.313,5.727-34.313l34.05,33.038L387.5,696.247Z" fill="#fffda4"/>
        <path id="Path_604" data-name="Path 604" d="M393.254,698.338c6.455-11.584,6.79-36.622,6.79-36.622l17.3,22.806-18.412,13.634Z" fill="#fffc8d"/>
      </g>
      <path id="Path_606" data-name="Path 606" d="M401.076,677.61c6.517,4.569,3.919,15.8-.736,12.537s-41.131-5.508-50.15-2.944-10.411-5.354-2.637-11.292S391.766,671.082,401.076,677.61Z" fill="none" stroke="#914f46" stroke-miterlimit="10" stroke-width="2.949"/>
    </g>
    <g id="Group_234" data-name="Group 234">
      <path id="Path_607" data-name="Path 607" d="M231.219,683.052c-6.212,4.977-2.9,16.02,1.537,12.465s40.694-8.13,49.859-6.148,10.046-6.011,1.909-11.438S240.092,675.942,231.219,683.052Z" fill="#ffc"/>
      <g id="Group_233" data-name="Group 233" clip-path="url(#clip-path-10)">
        <path id="Path_608" data-name="Path 608" d="M245.78,667.685c-2.319,24.644-2.8,37.865-2.8,37.865l-34.563-6.409,8.29-25.294Z" fill="#fffff5"/>
        <path id="Path_609" data-name="Path 609" d="M264.876,668.322c7.474,20.238,4.393,30.575,4.393,30.575l29.33-7.765-13.558-32.558-24.929,3.074Z" fill="#fffda4"/>
        <path id="Path_610" data-name="Path 610" d="M272.868,669.2c9.747,20.166,8.372,36.031,8.372,36.031l19.741-10.766,1.508-23.939Z" fill="#fffc8d"/>
      </g>
      <path id="Path_612" data-name="Path 612" d="M231.219,683.052c-6.212,4.977-2.9,16.02,1.537,12.465s40.694-8.13,49.859-6.148,10.046-6.011,1.909-11.438S240.092,675.942,231.219,683.052Z" fill="none" stroke="#914f46" stroke-miterlimit="10" stroke-width="2.949"/>
    </g>
    <circle id="Ellipse_130" data-name="Ellipse 130" cx="17.624" cy="17.624" r="17.624" transform="translate(383.573 733.359)" fill="#fff" opacity="0.32"/>
    <circle id="Ellipse_131" data-name="Ellipse 131" cx="17.624" cy="17.624" r="17.624" transform="translate(384.6 729.913)" fill="#fff" opacity="0.32"/>
    <circle id="Ellipse_132" data-name="Ellipse 132" cx="17.624" cy="17.624" r="17.624" transform="translate(268.826 738.173)" fill="#fff" opacity="0.32"/>
    <circle id="Ellipse_133" data-name="Ellipse 133" cx="17.624" cy="17.624" r="17.624" transform="translate(269.853 734.728)" fill="#fff" opacity="0.32"/>
    <path id="Path_613" data-name="Path 613" d="M306.992,823.5c4.91,11.219,29.839,8.145,29.548-.947" fill="none" stroke="#914f46" stroke-miterlimit="10" stroke-width="2.949"/>
  </g>
</svg>
