<svg xmlns="http://www.w3.org/2000/svg" xmlns:xlink="http://www.w3.org/1999/xlink" width="471.438" height="211.396" viewBox="0 0 471.438 211.396">
  <defs>
    <clipPath id="clip-path">
      <path id="Path_883" data-name="Path 883" d="M818.683,803.479c-.4-3.443-1.9-11.275.371-14.03,1.876-2.277,6.952.7,10.08,1.186,3.466.539,6.286,1.384,8.889,3.854a15.863,15.863,0,0,1,1.508,1.635,20.287,20.287,0,0,1,5.185,2.333,12.252,12.252,0,0,1,4.378,4.552c4.685,3.352,5.064,9.03,2.75,13.941-1.913,4.059-5.923,6.311-9.827,8.086-4.865,2.211-12.791,13.415-18.544,12.149-3.846-.846-3.038-10.54-4.426-14.338-1.122-3.07-.584-5.454.2-8.477a16.117,16.117,0,0,0,.275-3.751C819.375,808.793,818.95,805.756,818.683,803.479Z" fill="#f2bea0"/>
    </clipPath>
  </defs>
  <g id="Group_1130" data-name="Group 1130" transform="translate(493.987 -1973.846)">
    <g id="arm" transform="translate(-1046.284 1223.329)">
      <path id="Path_878" data-name="Path 878" d="M765.483,764.9c14.385-13.685,38.15-12.887,48.092,5.043a10.7,10.7,0,0,1,.307,10.716c1.5,6.66,4.094,13.013,4.579,19.792.564,7.886-.494,15.331.575,23.368,1.075,8.085-.343,15.984.282,24.062.641,8.282,1.848,16.3,1.536,24.657a126.461,126.461,0,0,1-11.612,48.135c-2.748,5.967-5.765,13.239-10.459,17.97a15.824,15.824,0,0,1-7.4,4.4A22.728,22.728,0,0,1,789.2,947.9a12.308,12.308,0,0,1-9.519,5.293c-5.928,5.409-17.593,3.97-19.971-5.648l-3.28-13.273a11.439,11.439,0,0,1,1.038-8.205,140.551,140.551,0,0,1-1.909-14.817c-.789-13.964-.527-28.073-.1-42.045q.611-19.976,2.5-39.84a12.149,12.149,0,0,1-.522-3.175c-.357-13.553,2.018-25.816.567-39.565C757.1,778.023,759.095,770.974,765.483,764.9Z" fill="#f4f4f4"/>
      <g id="Group_305" data-name="Group 305">
        <path id="Path_879" data-name="Path 879" d="M818.683,803.479c-.4-3.443-1.9-11.275.371-14.03,1.876-2.277,6.952.7,10.08,1.186,3.466.539,6.286,1.384,8.889,3.854a15.863,15.863,0,0,1,1.508,1.635,20.287,20.287,0,0,1,5.185,2.333,12.252,12.252,0,0,1,4.378,4.552c4.685,3.352,5.064,9.03,2.75,13.941-1.913,4.059-5.923,6.311-9.827,8.086-4.865,2.211-12.791,13.415-18.544,12.149-3.846-.846-3.038-10.54-4.426-14.338-1.122-3.07-.584-5.454.2-8.477a16.117,16.117,0,0,0,.275-3.751C819.375,808.793,818.95,805.756,818.683,803.479Z" fill="#f2bea0"/>
        <g id="Group_304" data-name="Group 304" clip-path="url(#clip-path)">
          <path id="Path_880" data-name="Path 880" d="M860.179,805.639c-11.791-3.352-44.382-7.371-53.487-1.713s9.676-23.487,9.676-23.487l35.467,7.086Z" fill="#ffe5dc"/>
          <path id="Path_881" data-name="Path 881" d="M866.026,808.8c-18.019,5.372-57.125,18.992-59.81,9.982s-.857,26.744-.857,26.744l32.5,6.99Z" fill="#d3a590"/>
          <path id="Path_882" data-name="Path 882" d="M856.731,820.4c-18.019,5.371-47.925,10.362-47.925,10.362l8.534,12.172Z" fill="#c19781"/>
          <circle id="Ellipse_198" data-name="Ellipse 198" cx="44.595" cy="44.595" r="44.595" transform="translate(1030.879 354.479)" fill="#fff"/>
        </g>
      </g>
      <path id="Path_884" data-name="Path 884" d="M758.495,935.892c-.794-2.434-2.858-3.767-3.969-5.872-1.922-3.64-.732-9.37-.733-13.292a44.016,44.016,0,0,0-1.554-11.631c9.172-14.19,3.016-33.1,2.413-49.2a220.464,220.464,0,0,1,1.021-28.91c.945-10.03,2.767-19.629.875-29.666-.781-4.145-1.988-7.763-1.013-11.953,1.083-4.655,2.065-9.211-.634-13.6-5.537-8.995-17.2-5.168-25.848-4.539q-15.535,1.128-31.126,1.144c-7.734.007-16.182-1.535-23.366,1.169-21.168-4.128-42.186-8.786-64.086-4.994a6.639,6.639,0,0,0-3.442,1.706c-4.1-.873-8.155-1.732-12.077-2.671a8.442,8.442,0,0,0-5.464.43,38.829,38.829,0,0,0-4.153-.505,13.242,13.242,0,0,0-15.673-1.134c-8.52,5.186-10.394,16.888-5.167,25a46.349,46.349,0,0,0,6.287,7.471,8.157,8.157,0,0,0-3.169,2.722c-4.245,1.325-7.831,5.41-6.131,10.32q1.738,5.021,3.763,9.924a87.343,87.343,0,0,1,2.709,11.277,15.328,15.328,0,0,0-8.241,12.793,18.943,18.943,0,0,0,.057,2.687,13.607,13.607,0,0,0-5.66,5.131c-3.622,5.918-1.4,11.724,2.907,16.218,2.63,2.744,3.164,5.914,1.054,9.182-4.535,7.021,4.569,16.333,11.629,11.63,3.818-2.544,8.678-6.486,13.568-5,4.848,1.47,9.02,6.7,12.736,9.889A191.683,191.683,0,0,0,625.3,912.281c20.322,11.689,42.425,20.093,64.648,27.382,11.285,3.7,22.644,7.338,34.087,10.525,10.4,2.9,30.009,7.51,34.511-6.662A12.456,12.456,0,0,0,758.495,935.892Z" fill="#d84955"/>
      <path id="Path_885" data-name="Path 885" d="M762.588,950.806c-9.705,21.031-109.964,11.483-162.148-22.608-17.543-9.486-13-7.758-16.989-10.838-4.023-3.106-9.119-11.406-8.077-18.657l1.914-13.325c7.381,1.724,18.447,4,27.076,13.2s79.813,39.3,82.784,39.4,47.163,13.409,50.135,13.5S762.588,950.806,762.588,950.806Z" fill="#a23740"/>
      <path id="Path_886" data-name="Path 886" d="M584.764,884.13c-.19,5.943,7.962,21.508,16.972,27.315,14.572,9.391,99.515,43.419,114.556,45.314,15.88,2,30.531-3.067,29.928-5.438-.111-.434-35.585-3.667-35.585-3.667L663.662,928.3l-32.306-12.933-29.868-19.858Z" fill="#6c252b"/>
      <line id="Line_39" data-name="Line 39" x2="186.106" y2="5.963" transform="translate(572.766 762.644)" fill="none" stroke="#914f46" stroke-miterlimit="10" stroke-width="7.71"/>
      <g id="Group_306" data-name="Group 306">
        <ellipse id="Ellipse_199" data-name="Ellipse 199" cx="22.298" cy="11.892" rx="22.298" ry="11.892" transform="translate(765.901 804.69) rotate(-53.855)" fill="#914f46"/>
        <ellipse id="Ellipse_200" data-name="Ellipse 200" cx="11.892" cy="22.298" rx="11.892" ry="22.298" transform="translate(765.934 843.519) rotate(-33.766)" fill="#914f46"/>
        <ellipse id="Ellipse_201" data-name="Ellipse 201" cx="22.298" cy="11.892" rx="22.298" ry="11.892" transform="translate(766.935 926.811) rotate(-53.855)" fill="#914f46"/>
      </g>
      <path id="Path_887" data-name="Path 887" d="M760.383,949.521c-30.435,3.357-65.331-3.419-112.208-25.743-60.693-28.9-61.5-46.33-79.088-38.229" fill="none" stroke="#914f46" stroke-miterlimit="10" stroke-width="7.71"/>
      <path id="Path_888" data-name="Path 888" d="M815.144,773.281c4.245,35.547,16.451,127.334-9.227,158S756.47,962.8,755.2,927.145s3.39-154.817,3.39-154.817C772.38,742.086,814.507,755.454,815.144,773.281Z" fill="none" stroke="#914f46" stroke-miterlimit="10" stroke-width="7.71"/>
      <path id="Path_889" data-name="Path 889" d="M821.217,837.4,817.051,789.3c19.832.724,52.042,16.629,24.632,36.573-12.394,9.018-17.764,12.238-19.928,13.061" fill="none" stroke="#914f46" stroke-miterlimit="10" stroke-width="7.71"/>
    </g>
    <g id="leple" transform="translate(-1046.284 1223.329)">
      <path id="Path_914" data-name="Path 914" d="M837.466,805.627c51.235-5.332,105.7,8.044,105.7,8.044,16-15,85-4,63,17s-69,0-69,0l-97.633-10.4a3.892,3.892,0,0,1-3.405-3.116l-1.506-7.639A3.266,3.266,0,0,1,837.466,805.627Z" fill="#a0a0a0" stroke="#914f46" stroke-miterlimit="10" stroke-width="5"/>
      <ellipse id="Ellipse_212" data-name="Ellipse 212" cx="14" cy="8" rx="14" ry="8" transform="translate(961.664 816.172)" fill="#7b7b7b"/>
    </g>
    <path id="Path_3075" data-name="Path 3075" d="M960.164,827.671c-11-8-19-38-19-38,3-27,97,0,76,20s-36,20-36,20Z" transform="translate(-1046.284 1223.329)" fill="#9c5717" stroke="#914f46" stroke-miterlimit="10" stroke-width="7"/>
  </g>
</svg>
