<svg xmlns="http://www.w3.org/2000/svg" xmlns:xlink="http://www.w3.org/1999/xlink" width="70.803" height="60.938" viewBox="0 0 70.803 60.938">
  <defs>
    <clipPath id="clip-path">
      <path id="Path_2441" data-name="Path 2441" d="M946.956,1062.713a3.574,3.574,0,0,0-.884-.505,1.132,1.132,0,0,0-.416-.513,1.794,1.794,0,0,0-2.507.63,1.082,1.082,0,0,0-.077.813,2.321,2.321,0,0,0-.309.623.7.7,0,0,0-.109.1c-.026.03-.049.061-.073.091a1.176,1.176,0,0,0-.486,1.724,1.053,1.053,0,0,0,.376.366,1.33,1.33,0,0,0,.148.453,1.783,1.783,0,0,0,1.514.807,3.525,3.525,0,0,0,3.16-1.462A2.293,2.293,0,0,0,946.956,1062.713Z" transform="translate(-941.892 -1061.415)" fill="#f9cc52"/>
    </clipPath>
    <clipPath id="clip-path-2">
      <path id="Path_2446" data-name="Path 2446" d="M599.4,1048.578a2.07,2.07,0,0,0-.17-1.584,1.664,1.664,0,0,0-.2-.279,1.844,1.844,0,0,0-.476-.584,2.065,2.065,0,0,0-.672-.368,1.743,1.743,0,0,1-.258-.326.993.993,0,0,0-1.7,0c-.038.083-.072.164-.1.244a1.937,1.937,0,0,0-2,1.5.907.907,0,0,0,.172.849.794.794,0,0,0,.1.722,1.276,1.276,0,0,0,.046.625,1.079,1.079,0,0,0,.019.485c.271.986,1.683,1.246,2.509.922a1.683,1.683,0,0,0,.183-.086,3.83,3.83,0,0,0,.589-.1.907.907,0,0,0,.7-.122,6.108,6.108,0,0,0,1.06-.808A.986.986,0,0,0,599.4,1048.578Z" transform="translate(-593.781 -1044.955)" fill="#f9cc52"/>
    </clipPath>
    <clipPath id="clip-path-3">
      <path id="Path_2452" data-name="Path 2452" d="M682,1093.367a1.217,1.217,0,0,0-1.088.457,1.332,1.332,0,0,0-1.063.292,21.507,21.507,0,0,0-1.813,1.586,1.162,1.162,0,0,0-.34.767,2.876,2.876,0,0,0-1.717,1.965c-.087.062-.174.127-.258.2a13.135,13.135,0,0,0-1.418,1.384,2.349,2.349,0,0,0-.814.584,5.189,5.189,0,0,0-.914,1.361c-.114.121-.233.236-.357.347-.533.476-1.114.9-1.677,1.345a13.811,13.811,0,0,0-1.361-1.558c-.1-.1-.214-.2-.321-.3l0-.018a3.3,3.3,0,0,0-.37-.907,3.133,3.133,0,0,0-1.318-1.19,4.027,4.027,0,0,0-1.1-.825,3.564,3.564,0,0,0-2.67-.249,3.17,3.17,0,0,0-1.422.891,1.9,1.9,0,0,0-.485.674,3.3,3.3,0,0,0-.411.57,2.65,2.65,0,0,0-.2.429,3.733,3.733,0,0,0-.562.693c-.347.538-.658,1.093-1,1.634a2.173,2.173,0,0,0-1.19.7,12.517,12.517,0,0,1-.927,1.066c-.065-.019-.132-.036-.2-.051a2.8,2.8,0,0,0-1.451-1.255,4.625,4.625,0,0,0-1.053-1.215,4.674,4.674,0,0,0-.681-.458,3.888,3.888,0,0,0-2.27-2.006,2.16,2.16,0,0,0-.309-.36,2.877,2.877,0,0,0-3.958,0,19.923,19.923,0,0,0-2.814,2.462c-.067.081-.133.164-.2.24l-.01.009c-.173.086-.344.217-.511.3-.251.13-.495.266-.731.413-.047-.08-.1-.159-.154-.239a11.756,11.756,0,0,0-1.163-1.454,3.414,3.414,0,0,0-1.042-.735,3.574,3.574,0,0,0-.868-.729l-.027-.147a.841.841,0,0,0-.72-.76c-.805-.053-.933-1.036-1.274-1.694-.064-.122-.254-.1-.38-.131a1.124,1.124,0,0,0-.274-.36,16.323,16.323,0,0,0-1.477-1.164.908.908,0,0,0-.155-.085c-.351-.367-.717-.723-1.069-1.085a1.159,1.159,0,0,0-.529-.324,2.126,2.126,0,0,0-.388-.293.308.308,0,0,0-.059-.03c-.031-.031-.06-.065-.087-.094l-.034-.036c-.022-.027-.058-.069-.067-.082l-.033-.047c-.035-.489-.849-.581-1.324-.69-.661-.151-.8-.191-1.02.441a1.777,1.777,0,0,0,.429,1.647,3.768,3.768,0,0,0,.495.579c.086.076-.1.374-.007.442.149.4.169.635.311,1.036.094.549.673,1,.959,1.5a1.18,1.18,0,0,0,.119.171c.052.145.105.289.157.434a1.4,1.4,0,0,0,.3.49,2.388,2.388,0,0,0,.093.977,3,3,0,0,0,.692,1.176,3.219,3.219,0,0,0,.375.96,11.959,11.959,0,0,0,.624,1.237c.156.207.256.517.414.725,0,.063,0,.247,0,.311.035.779.629,1.218,1.148,1.731l.06.09a12.064,12.064,0,0,0,1.2,3.263c.04.076-.168.229-.126.306a1.693,1.693,0,0,0,.207.622c.028.066-.031.25,0,.311-.076.076.193.074.144.179-.243.517.017.992-.167,1.546-.288.866,1.042.979,1.644.729.02.013.039.028.061.04a1.452,1.452,0,0,0,1.093.154l.1.031a3,3,0,0,0,.6.1,2,2,0,0,0,.668-.1c.021-.006.286-.146.465-.225a.629.629,0,0,0,.071.032,2.043,2.043,0,0,0,.963,0,5.586,5.586,0,0,1,1-.116c.84.013,1.67.219,2.512.178.386-.019.808-.182,1.181-.176a2.368,2.368,0,0,1,.352.1,2.184,2.184,0,0,0,.961-.022,1.013,1.013,0,0,0,.434-.217c.33-.01.526.223.873.156.276-.054.247.175.518.1.047,0,.149-.2.207-.207-.034,0,.239,0,.207,0h0c-.028-.014,0-.017,0,0,.031.288.193,0,.207,0,.054,0,.1.313.1.311-.026.008.241-.208.207-.207.128.028-.025.389.1.414.483.1.967-.645,1.46-.621.941.044,1.628.479,2.582.31.54.254,1.4-.156,2.086-.1.4.031.866.279,1.23.1a5.509,5.509,0,0,0,1.036-.207,10.671,10.671,0,0,0,3.762.056c.489-.066.936.243,1.42.151a3.207,3.207,0,0,0,2.28,0c.089-.008.3.114.415.1a8.287,8.287,0,0,0,.933,0,2.265,2.265,0,0,0,.933,0c.167-.022.253.135.415.1.156,0,.363-.1.518-.1.007,0,.1.305.1-.207.115.025.093.183.207.207.462.1.971-.26,1.442-.235a3.018,3.018,0,0,0,.437-.018c.063-.006.115-.008.16-.01a2.776,2.776,0,0,0,.976.021,1.089,1.089,0,0,0,.9.417,1.186,1.186,0,0,0,1.05-1.7,2.637,2.637,0,0,0,.407-1.256,2.287,2.287,0,0,0,.4-.9c.047-.238.121-.461.185-.693l.015-.054c.227-.49.447-.982.657-1.479.406-.962.506-2.008.835-3,.13-.393.405-.739.327-1.147.553-.422.54-1.241.71-1.859.178-.646.525-1.038.341-1.635a2.691,2.691,0,0,0,.305-.56,1.631,1.631,0,0,0,.194-.606,2.988,2.988,0,0,1,.146-.613,4.523,4.523,0,0,0,.4-.915,1.153,1.153,0,0,0,.054-.325q.563-1.26,1.164-2.5C683.722,1094.271,683.041,1093.064,682,1093.367Zm-13.338,8.239c-.149-.166-.228-.379,0,0Z" transform="translate(-630.796 -1093.073)" fill="#f9cc52"/>
    </clipPath>
    <clipPath id="clip-path-4">
      <path id="Path_2459" data-name="Path 2459" d="M683.622,904.218a6.41,6.41,0,0,0-.8-2.843c-.058-.11-.121-.216-.185-.322-.029-.127-.055-.255-.083-.384a7.4,7.4,0,0,0-.719-1.9,9.705,9.705,0,0,0-1.93-2.339,13.357,13.357,0,0,0-2.391-1.863,9.472,9.472,0,0,0-3.87-1.162l-1.226.165h0a5.02,5.02,0,0,0-.871-.008,19.418,19.418,0,0,0-3.019.472,16.612,16.612,0,0,0-3.8,1.474c-.067-.051-.134-.1-.2-.152l-.736-.541a5.911,5.911,0,0,0,.242-2.51,5.164,5.164,0,0,0,.257-1.406,5.581,5.581,0,0,0-.15-1.536,3.759,3.759,0,0,0-.173-1.264,5.133,5.133,0,0,0-2.12-2.756,9.408,9.408,0,0,0-2.853-1.546,6.006,6.006,0,0,0-2.137-.2l-.09.01a7.061,7.061,0,0,0-1.916-.391,7.139,7.139,0,0,0-4.325,1.211l-.246.041a8.115,8.115,0,0,0-3.845,2.01c-.456.394-.866.833-1.311,1.237h0a4.572,4.572,0,0,0-2.081-.232l.35-.047a4.541,4.541,0,0,1-.47.023,22.955,22.955,0,0,1-2.6-.969,8.822,8.822,0,0,0-1.47-.452,9.846,9.846,0,0,0-2.553-.265,7.889,7.889,0,0,0-5.211,2.264c-.342.342-.63.73-.937,1.1a5.74,5.74,0,0,0-1.926,1.733,6.14,6.14,0,0,0-1.524,1.611,7.058,7.058,0,0,0-.85,3.383c-.229,1.159-.623,2.278-.862,3.437a11.951,11.951,0,0,0-.011,5.544,8.3,8.3,0,0,0,3.93,5.061,17.253,17.253,0,0,0,4.69,1.7,22.677,22.677,0,0,0,2.3.376,1.26,1.26,0,0,0-.07.4c-.026,1.594-.052,3.19-.219,4.777s-.621,3.154-.682,4.763a1.03,1.03,0,0,0,.58,1.02,1.3,1.3,0,0,0-.038,1.676,7.36,7.36,0,0,1-.3,1.842,1.206,1.206,0,0,0,.833,1.466l.039.009c.031.084.062.168.091.249a1.848,1.848,0,0,0,.632.922,2.016,2.016,0,0,0,.2.146c.058.06.262.279.129.1a1.141,1.141,0,0,0,1.837.257.993.993,0,0,0,.3-.157l3.581-2.713c.453-.343.907-.7,1.384-1.008.274.208.53.457.811.655.685.484,1.382.952,2.073,1.427a.92.92,0,0,0,.085.051,1.289,1.289,0,0,0,.363.347,2.978,2.978,0,0,1,.586.8,9.333,9.333,0,0,0,1.016,1.258,6.209,6.209,0,0,0,1.679,1.186,1.229,1.229,0,0,0,1.911.287l.185-.214a1.337,1.337,0,0,0,.3-.583c.016-.013.04-.035.088-.078.093-.086.184-.174.279-.257q.07-.061.143-.118l.022-.016a13.146,13.146,0,0,0,1.406-1.119,5.206,5.206,0,0,0,.981-1.644,10.081,10.081,0,0,1,1.315-1.56l.012-.017a3.938,3.938,0,0,0,1.175-.405,3.213,3.213,0,0,0,.3-.218c.016-.012.057-.04.1-.069a1.3,1.3,0,0,1,.13-.015,3.359,3.359,0,0,1,.363.011,4.918,4.918,0,0,1,1.358.369c.227.092.448.2.667.31.13.137.261.273.4.4.157.145.333.259.493.4.091.081-.068-.111.051.031a10.037,10.037,0,0,0,.7.865c.11.181.226.358.353.529a9.715,9.715,0,0,1,.77.923,1.182,1.182,0,0,0,2.308.235,4.162,4.162,0,0,1,.43-.784.856.856,0,0,0,.052-.093l.057-.028a3.247,3.247,0,0,0,1.375-1.336,2.658,2.658,0,0,0,.037-2.025c.074-.476.12-.96.179-1.416a17.292,17.292,0,0,0,.01-4.629q.59-2.349,1.024-4.733a7.626,7.626,0,0,0,1.955.354c.492.1.985.2,1.479.282a9.719,9.719,0,0,0,2.879.163,5.441,5.441,0,0,0,3.362-.7,5.34,5.34,0,0,0,1.47-1.268,10.148,10.148,0,0,0,1.931-3.6,14.684,14.684,0,0,0,.423-2.075,10.7,10.7,0,0,0,.146-1.706A5.293,5.293,0,0,0,683.622,904.218Z" transform="translate(-624.647 -883.205)" fill="#f9cc52"/>
    </clipPath>
    <clipPath id="clip-path-5">
      <path id="Path_2464" data-name="Path 2464" d="M727.465,1085.214a2.071,2.071,0,0,0-.17-1.584,1.649,1.649,0,0,0-.2-.28,1.844,1.844,0,0,0-.476-.584,2.063,2.063,0,0,0-.672-.368,1.745,1.745,0,0,1-.258-.326.993.993,0,0,0-1.7,0c-.038.083-.072.164-.1.244a1.937,1.937,0,0,0-2,1.5.907.907,0,0,0,.172.849.794.794,0,0,0,.1.722,1.275,1.275,0,0,0,.046.625,1.079,1.079,0,0,0,.019.485c.271.986,1.683,1.246,2.509.922a1.709,1.709,0,0,0,.184-.086,3.831,3.831,0,0,0,.589-.1.908.908,0,0,0,.7-.122,6.106,6.106,0,0,0,1.06-.808A.986.986,0,0,0,727.465,1085.214Z" transform="translate(-721.849 -1081.591)" fill="#f9cc52"/>
    </clipPath>
    <clipPath id="clip-path-6">
      <path id="Path_2469" data-name="Path 2469" d="M807.465,1080.214a2.071,2.071,0,0,0-.17-1.584,1.649,1.649,0,0,0-.2-.28,1.845,1.845,0,0,0-.476-.584,2.063,2.063,0,0,0-.672-.368,1.745,1.745,0,0,1-.258-.326.993.993,0,0,0-1.7,0c-.038.083-.072.164-.1.244a1.937,1.937,0,0,0-2,1.5.907.907,0,0,0,.172.849.794.794,0,0,0,.1.722,1.275,1.275,0,0,0,.046.625,1.079,1.079,0,0,0,.019.485c.271.986,1.683,1.246,2.509.922a1.709,1.709,0,0,0,.184-.086,3.831,3.831,0,0,0,.589-.1.908.908,0,0,0,.7-.122,6.1,6.1,0,0,0,1.06-.808A.986.986,0,0,0,807.465,1080.214Z" transform="translate(-801.849 -1076.591)" fill="#f9cc52"/>
    </clipPath>
  </defs>
  <g id="Group_1367" data-name="Group 1367" transform="translate(-8858.497 1357.776)">
    <g id="moelleux_invulling" data-name="moelleux invulling" transform="translate(8860.137 -1356.497)">
      <g id="Group_841" data-name="Group 841" transform="translate(61.416 31.441)">
        <path id="Path_2437" data-name="Path 2437" d="M946.956,1062.713a3.574,3.574,0,0,0-.884-.505,1.132,1.132,0,0,0-.416-.513,1.794,1.794,0,0,0-2.507.63,1.082,1.082,0,0,0-.077.813,2.321,2.321,0,0,0-.309.623.7.7,0,0,0-.109.1c-.026.03-.049.061-.073.091a1.176,1.176,0,0,0-.486,1.724,1.053,1.053,0,0,0,.376.366,1.33,1.33,0,0,0,.148.453,1.783,1.783,0,0,0,1.514.807,3.525,3.525,0,0,0,3.16-1.462A2.293,2.293,0,0,0,946.956,1062.713Z" transform="translate(-941.892 -1061.415)" fill="#f9cc52"/>
        <g id="Group_840" data-name="Group 840" clip-path="url(#clip-path)">
          <path id="Path_2438" data-name="Path 2438" d="M939.881,1064.362c-1.588-1.411-.882-7.057-.529-7.763s-3.352,3.176-3.352,3.176Z" transform="translate(-937.04 -1057.379)" fill="#fdebba"/>
          <path id="Path_2439" data-name="Path 2439" d="M958,1066.429c.882-1.764,2.293-7.41,1.941-8.821s5.469,2.646,5.469,2.646l-3.352,6.175Z" transform="translate(-955.158 -1058.034)" fill="#bb993e"/>
          <path id="Path_2440" data-name="Path 2440" d="M966,1065.785c.353-.882,1.235-5.469.882-7.41s5.469,1.764,5.469,1.764l-6.351,6Z" transform="translate(-961.747 -1058.448)" fill="#7d6629"/>
        </g>
      </g>
      <g id="Group_843" data-name="Group 843" transform="translate(0 28.537)">
        <path id="Path_2442" data-name="Path 2442" d="M599.4,1048.578a2.07,2.07,0,0,0-.17-1.584,1.664,1.664,0,0,0-.2-.279,1.844,1.844,0,0,0-.476-.584,2.065,2.065,0,0,0-.672-.368,1.743,1.743,0,0,1-.258-.326.993.993,0,0,0-1.7,0c-.038.083-.072.164-.1.244a1.937,1.937,0,0,0-2,1.5.907.907,0,0,0,.172.849.794.794,0,0,0,.1.722,1.276,1.276,0,0,0,.046.625,1.079,1.079,0,0,0,.019.485c.271.986,1.683,1.246,2.509.922a1.683,1.683,0,0,0,.183-.086,3.83,3.83,0,0,0,.589-.1.907.907,0,0,0,.7-.122,6.108,6.108,0,0,0,1.06-.808A.986.986,0,0,0,599.4,1048.578Z" transform="translate(-593.781 -1044.955)" fill="#f9cc52"/>
        <g id="Group_842" data-name="Group 842" clip-path="url(#clip-path-2)">
          <path id="Path_2443" data-name="Path 2443" d="M597.02,1042c-.882,2.117-1.235,6.528,0,7.233C594.2,1048.881,594.726,1043.411,597.02,1042Z" transform="translate(-594.864 -1042.521)" fill="#fdebba"/>
          <path id="Path_2444" data-name="Path 2444" d="M614.53,1045.343c.612-1.583.612-5.817.083-6.7s4.234,6.175,4.234,6.175l-4.317.524" transform="translate(-610.869 -1039.694)" fill="#bb993e"/>
          <path id="Path_2445" data-name="Path 2445" d="M618,1051.213c.353-1.764.706-4.94.353-5.822s3.352,3,3.352,3l-2.47,3.7Z" transform="translate(-613.727 -1045.207)" fill="#7d6629"/>
        </g>
      </g>
      <g id="Group_846" data-name="Group 846" transform="translate(6.53 37.026)">
        <path id="Path_2447" data-name="Path 2447" d="M752.606,1210.1h.035l-.009,0Z" transform="translate(-731.116 -1189.453)" fill="#f9cc52"/>
        <g id="Group_845" data-name="Group 845">
          <path id="Path_2448" data-name="Path 2448" d="M682,1093.367a1.217,1.217,0,0,0-1.088.457,1.332,1.332,0,0,0-1.063.292,21.507,21.507,0,0,0-1.813,1.586,1.162,1.162,0,0,0-.34.767,2.876,2.876,0,0,0-1.717,1.965c-.087.062-.174.127-.258.2a13.135,13.135,0,0,0-1.418,1.384,2.349,2.349,0,0,0-.814.584,5.189,5.189,0,0,0-.914,1.361c-.114.121-.233.236-.357.347-.533.476-1.114.9-1.677,1.345a13.811,13.811,0,0,0-1.361-1.558c-.1-.1-.214-.2-.321-.3l0-.018a3.3,3.3,0,0,0-.37-.907,3.133,3.133,0,0,0-1.318-1.19,4.027,4.027,0,0,0-1.1-.825,3.564,3.564,0,0,0-2.67-.249,3.17,3.17,0,0,0-1.422.891,1.9,1.9,0,0,0-.485.674,3.3,3.3,0,0,0-.411.57,2.65,2.65,0,0,0-.2.429,3.733,3.733,0,0,0-.562.693c-.347.538-.658,1.093-1,1.634a2.173,2.173,0,0,0-1.19.7,12.517,12.517,0,0,1-.927,1.066c-.065-.019-.132-.036-.2-.051a2.8,2.8,0,0,0-1.451-1.255,4.625,4.625,0,0,0-1.053-1.215,4.674,4.674,0,0,0-.681-.458,3.888,3.888,0,0,0-2.27-2.006,2.16,2.16,0,0,0-.309-.36,2.877,2.877,0,0,0-3.958,0,19.923,19.923,0,0,0-2.814,2.462c-.067.081-.133.164-.2.24l-.01.009c-.173.086-.344.217-.511.3-.251.13-.495.266-.731.413-.047-.08-.1-.159-.154-.239a11.756,11.756,0,0,0-1.163-1.454,3.414,3.414,0,0,0-1.042-.735,3.574,3.574,0,0,0-.868-.729l-.027-.147a.841.841,0,0,0-.72-.76c-.805-.053-.933-1.036-1.274-1.694-.064-.122-.254-.1-.38-.131a1.124,1.124,0,0,0-.274-.36,16.323,16.323,0,0,0-1.477-1.164.908.908,0,0,0-.155-.085c-.351-.367-.717-.723-1.069-1.085a1.159,1.159,0,0,0-.529-.324,2.126,2.126,0,0,0-.388-.293.308.308,0,0,0-.059-.03c-.031-.031-.06-.065-.087-.094l-.034-.036c-.022-.027-.058-.069-.067-.082l-.033-.047c-.035-.489-.849-.581-1.324-.69-.661-.151-.8-.191-1.02.441a1.777,1.777,0,0,0,.429,1.647,3.768,3.768,0,0,0,.495.579c.086.076-.1.374-.007.442.149.4.169.635.311,1.036.094.549.673,1,.959,1.5a1.18,1.18,0,0,0,.119.171c.052.145.105.289.157.434a1.4,1.4,0,0,0,.3.49,2.388,2.388,0,0,0,.093.977,3,3,0,0,0,.692,1.176,3.219,3.219,0,0,0,.375.96,11.959,11.959,0,0,0,.624,1.237c.156.207.256.517.414.725,0,.063,0,.247,0,.311.035.779.629,1.218,1.148,1.731l.06.09a12.064,12.064,0,0,0,1.2,3.263c.04.076-.168.229-.126.306a1.693,1.693,0,0,0,.207.622c.028.066-.031.25,0,.311-.076.076.193.074.144.179-.243.517.017.992-.167,1.546-.288.866,1.042.979,1.644.729.02.013.039.028.061.04a1.452,1.452,0,0,0,1.093.154l.1.031a3,3,0,0,0,.6.1,2,2,0,0,0,.668-.1c.021-.006.286-.146.465-.225a.629.629,0,0,0,.071.032,2.043,2.043,0,0,0,.963,0,5.586,5.586,0,0,1,1-.116c.84.013,1.67.219,2.512.178.386-.019.808-.182,1.181-.176a2.368,2.368,0,0,1,.352.1,2.184,2.184,0,0,0,.961-.022,1.013,1.013,0,0,0,.434-.217c.33-.01.526.223.873.156.276-.054.247.175.518.1.047,0,.149-.2.207-.207-.034,0,.239,0,.207,0h0c-.028-.014,0-.017,0,0,.031.288.193,0,.207,0,.054,0,.1.313.1.311-.026.008.241-.208.207-.207.128.028-.025.389.1.414.483.1.967-.645,1.46-.621.941.044,1.628.479,2.582.31.54.254,1.4-.156,2.086-.1.4.031.866.279,1.23.1a5.509,5.509,0,0,0,1.036-.207,10.671,10.671,0,0,0,3.762.056c.489-.066.936.243,1.42.151a3.207,3.207,0,0,0,2.28,0c.089-.008.3.114.415.1a8.287,8.287,0,0,0,.933,0,2.265,2.265,0,0,0,.933,0c.167-.022.253.135.415.1.156,0,.363-.1.518-.1.007,0,.1.305.1-.207.115.025.093.183.207.207.462.1.971-.26,1.442-.235a3.018,3.018,0,0,0,.437-.018c.063-.006.115-.008.16-.01a2.776,2.776,0,0,0,.976.021,1.089,1.089,0,0,0,.9.417,1.186,1.186,0,0,0,1.05-1.7,2.637,2.637,0,0,0,.407-1.256,2.287,2.287,0,0,0,.4-.9c.047-.238.121-.461.185-.693l.015-.054c.227-.49.447-.982.657-1.479.406-.962.506-2.008.835-3,.13-.393.405-.739.327-1.147.553-.422.54-1.241.71-1.859.178-.646.525-1.038.341-1.635a2.691,2.691,0,0,0,.305-.56,1.631,1.631,0,0,0,.194-.606,2.988,2.988,0,0,1,.146-.613,4.523,4.523,0,0,0,.4-.915,1.153,1.153,0,0,0,.054-.325q.563-1.26,1.164-2.5C683.722,1094.271,683.041,1093.064,682,1093.367Zm-13.338,8.239c-.149-.166-.228-.379,0,0Z" transform="translate(-630.796 -1093.073)" fill="#f9cc52"/>
          <g id="Group_844" data-name="Group 844" clip-path="url(#clip-path-3)">
            <path id="Path_2449" data-name="Path 2449" d="M838.906,1083.617c-3.731,4.975-15.028,29.849-17.723,29.642s13.266-4.768,13.266-4.768l6.841-22.284Z" transform="translate(-787.342 -1085.285)" fill="#bb993e"/>
            <path id="Path_2450" data-name="Path 2450" d="M615.167,1083.409c.725,2.177,6.529,25.6,7.462,25.6s-6.219-1.347-6.219-1.347.1,5.7-3.317-4.042l-3.42-9.742-3.835-10.054v-1.969Z" transform="translate(-610.242 -1083.833)" fill="#fdebba"/>
            <path id="Path_2451" data-name="Path 2451" d="M860.8,1137.552c0-.311,8.6-20.107,12.126-22.284s-5.493,21.558-5.493,21.558Z" transform="translate(-820.221 -1111.237)" fill="#7d6629"/>
          </g>
        </g>
      </g>
      <g id="Group_848" data-name="Group 848" transform="translate(5.445 0)">
        <path id="Path_2453" data-name="Path 2453" d="M683.622,904.218a6.41,6.41,0,0,0-.8-2.843c-.058-.11-.121-.216-.185-.322-.029-.127-.055-.255-.083-.384a7.4,7.4,0,0,0-.719-1.9,9.705,9.705,0,0,0-1.93-2.339,13.357,13.357,0,0,0-2.391-1.863,9.472,9.472,0,0,0-3.87-1.162l-1.226.165h0a5.02,5.02,0,0,0-.871-.008,19.418,19.418,0,0,0-3.019.472,16.612,16.612,0,0,0-3.8,1.474c-.067-.051-.134-.1-.2-.152l-.736-.541a5.911,5.911,0,0,0,.242-2.51,5.164,5.164,0,0,0,.257-1.406,5.581,5.581,0,0,0-.15-1.536,3.759,3.759,0,0,0-.173-1.264,5.133,5.133,0,0,0-2.12-2.756,9.408,9.408,0,0,0-2.853-1.546,6.006,6.006,0,0,0-2.137-.2l-.09.01a7.061,7.061,0,0,0-1.916-.391,7.139,7.139,0,0,0-4.325,1.211l-.246.041a8.115,8.115,0,0,0-3.845,2.01c-.456.394-.866.833-1.311,1.237h0a4.572,4.572,0,0,0-2.081-.232l.35-.047a4.541,4.541,0,0,1-.47.023,22.955,22.955,0,0,1-2.6-.969,8.822,8.822,0,0,0-1.47-.452,9.846,9.846,0,0,0-2.553-.265,7.889,7.889,0,0,0-5.211,2.264c-.342.342-.63.73-.937,1.1a5.74,5.74,0,0,0-1.926,1.733,6.14,6.14,0,0,0-1.524,1.611,7.058,7.058,0,0,0-.85,3.383c-.229,1.159-.623,2.278-.862,3.437a11.951,11.951,0,0,0-.011,5.544,8.3,8.3,0,0,0,3.93,5.061,17.253,17.253,0,0,0,4.69,1.7,22.677,22.677,0,0,0,2.3.376,1.26,1.26,0,0,0-.07.4c-.026,1.594-.052,3.19-.219,4.777s-.621,3.154-.682,4.763a1.03,1.03,0,0,0,.58,1.02,1.3,1.3,0,0,0-.038,1.676,7.36,7.36,0,0,1-.3,1.842,1.206,1.206,0,0,0,.833,1.466l.039.009c.031.084.062.168.091.249a1.848,1.848,0,0,0,.632.922,2.016,2.016,0,0,0,.2.146c.058.06.262.279.129.1a1.141,1.141,0,0,0,1.837.257.993.993,0,0,0,.3-.157l3.581-2.713c.453-.343.907-.7,1.384-1.008.274.208.53.457.811.655.685.484,1.382.952,2.073,1.427a.92.92,0,0,0,.085.051,1.289,1.289,0,0,0,.363.347,2.978,2.978,0,0,1,.586.8,9.333,9.333,0,0,0,1.016,1.258,6.209,6.209,0,0,0,1.679,1.186,1.229,1.229,0,0,0,1.911.287l.185-.214a1.337,1.337,0,0,0,.3-.583c.016-.013.04-.035.088-.078.093-.086.184-.174.279-.257q.07-.061.143-.118l.022-.016a13.146,13.146,0,0,0,1.406-1.119,5.206,5.206,0,0,0,.981-1.644,10.081,10.081,0,0,1,1.315-1.56l.012-.017a3.938,3.938,0,0,0,1.175-.405,3.213,3.213,0,0,0,.3-.218c.016-.012.057-.04.1-.069a1.3,1.3,0,0,1,.13-.015,3.359,3.359,0,0,1,.363.011,4.918,4.918,0,0,1,1.358.369c.227.092.448.2.667.31.13.137.261.273.4.4.157.145.333.259.493.4.091.081-.068-.111.051.031a10.037,10.037,0,0,0,.7.865c.11.181.226.358.353.529a9.715,9.715,0,0,1,.77.923,1.182,1.182,0,0,0,2.308.235,4.162,4.162,0,0,1,.43-.784.856.856,0,0,0,.052-.093l.057-.028a3.247,3.247,0,0,0,1.375-1.336,2.658,2.658,0,0,0,.037-2.025c.074-.476.12-.96.179-1.416a17.292,17.292,0,0,0,.01-4.629q.59-2.349,1.024-4.733a7.626,7.626,0,0,0,1.955.354c.492.1.985.2,1.479.282a9.719,9.719,0,0,0,2.879.163,5.441,5.441,0,0,0,3.362-.7,5.34,5.34,0,0,0,1.47-1.268,10.148,10.148,0,0,0,1.931-3.6,14.684,14.684,0,0,0,.423-2.075,10.7,10.7,0,0,0,.146-1.706A5.293,5.293,0,0,0,683.622,904.218Z" transform="translate(-624.647 -883.205)" fill="#f9cc52"/>
        <g id="Group_847" data-name="Group 847" clip-path="url(#clip-path-4)">
          <path id="Path_2454" data-name="Path 2454" d="M839.651,1033.423l.934-20.087a2.075,2.075,0,0,1,2.267-1.97c8.132.765,19.576.926,20.429-2.3.933-3.524-2.384,33.062-2.384,33.062Z" transform="translate(-801.719 -986.664)" fill="#bb993e"/>
          <path id="Path_2455" data-name="Path 2455" d="M857.418,1047.192c.13-4.433.712-13.1.929-16.941a1.833,1.833,0,0,1,2-1.723c4.464.431,13.145,2.159,15.7-2.242s-1.551,17.6-2.844,24.323a1.834,1.834,0,0,1-2.244,1.434l-12.15-3.017A1.834,1.834,0,0,1,857.418,1047.192Z" transform="translate(-816.351 -1000.568)" fill="#7d6629"/>
          <path id="Path_2456" data-name="Path 2456" d="M570.945,867.354c-3.486,3.919-5.96,31.791-1.754,33.866s-16.089-5.487-16.089-5.487l-3.69-16.04Z" transform="translate(-562.684 -870.15)" fill="#fdebba"/>
          <path id="Path_2457" data-name="Path 2457" d="M736.935,896.368c-.518-3.938-.622-13.992,3.213-16.168s-6.115,2.384-6.115,2.384l.9,2.9a9.618,9.618,0,0,0-.773,2.718c.08.7.221,5.036.773,5.772S736.935,896.368,736.935,896.368Z" transform="translate(-714.734 -880.245)" fill="#fdebba"/>
          <path id="Path_2458" data-name="Path 2458" d="M820.3,941.43c4.249-.933,20-5.182,23.838-1.866-10.365-7.566-19.093-2.22-19.093-2.22l-.56,1.126-4.806,2.234Z" transform="translate(-785.269 -926.283)" fill="#fdebba"/>
        </g>
      </g>
      <g id="Group_850" data-name="Group 850" transform="translate(22.594 35)">
        <path id="Path_2460" data-name="Path 2460" d="M727.465,1085.214a2.071,2.071,0,0,0-.17-1.584,1.649,1.649,0,0,0-.2-.28,1.844,1.844,0,0,0-.476-.584,2.063,2.063,0,0,0-.672-.368,1.745,1.745,0,0,1-.258-.326.993.993,0,0,0-1.7,0c-.038.083-.072.164-.1.244a1.937,1.937,0,0,0-2,1.5.907.907,0,0,0,.172.849.794.794,0,0,0,.1.722,1.275,1.275,0,0,0,.046.625,1.079,1.079,0,0,0,.019.485c.271.986,1.683,1.246,2.509.922a1.709,1.709,0,0,0,.184-.086,3.831,3.831,0,0,0,.589-.1.908.908,0,0,0,.7-.122,6.106,6.106,0,0,0,1.06-.808A.986.986,0,0,0,727.465,1085.214Z" transform="translate(-721.849 -1081.591)" fill="#f9cc52"/>
        <g id="Group_849" data-name="Group 849" clip-path="url(#clip-path-5)">
          <path id="Path_2461" data-name="Path 2461" d="M725.088,1078.636c-.882,2.117-1.235,6.528,0,7.233C722.265,1085.517,722.794,1080.047,725.088,1078.636Z" transform="translate(-722.932 -1079.157)" fill="#fdebba"/>
          <path id="Path_2462" data-name="Path 2462" d="M742.6,1081.979c.612-1.583.612-5.817.083-6.7s4.234,6.175,4.234,6.175l-4.317.524" transform="translate(-738.937 -1076.33)" fill="#bb993e"/>
          <path id="Path_2463" data-name="Path 2463" d="M746.068,1087.849c.353-1.764.706-4.94.353-5.822s3.352,3,3.352,3l-2.47,3.7Z" transform="translate(-741.795 -1081.843)" fill="#7d6629"/>
        </g>
      </g>
      <g id="Group_852" data-name="Group 852" transform="translate(36.708 34.118)">
        <path id="Path_2465" data-name="Path 2465" d="M807.465,1080.214a2.071,2.071,0,0,0-.17-1.584,1.649,1.649,0,0,0-.2-.28,1.845,1.845,0,0,0-.476-.584,2.063,2.063,0,0,0-.672-.368,1.745,1.745,0,0,1-.258-.326.993.993,0,0,0-1.7,0c-.038.083-.072.164-.1.244a1.937,1.937,0,0,0-2,1.5.907.907,0,0,0,.172.849.794.794,0,0,0,.1.722,1.275,1.275,0,0,0,.046.625,1.079,1.079,0,0,0,.019.485c.271.986,1.683,1.246,2.509.922a1.709,1.709,0,0,0,.184-.086,3.831,3.831,0,0,0,.589-.1.908.908,0,0,0,.7-.122,6.1,6.1,0,0,0,1.06-.808A.986.986,0,0,0,807.465,1080.214Z" transform="translate(-801.849 -1076.591)" fill="#f9cc52"/>
        <g id="Group_851" data-name="Group 851" clip-path="url(#clip-path-6)">
          <path id="Path_2466" data-name="Path 2466" d="M805.088,1073.636c-.882,2.117-1.235,6.528,0,7.233C802.265,1080.517,802.794,1075.047,805.088,1073.636Z" transform="translate(-802.932 -1074.157)" fill="#fdebba"/>
          <path id="Path_2467" data-name="Path 2467" d="M822.6,1076.979c.612-1.583.612-5.817.083-6.7s4.234,6.175,4.234,6.175l-4.317.524" transform="translate(-818.937 -1071.33)" fill="#bb993e"/>
          <path id="Path_2468" data-name="Path 2468" d="M826.068,1082.849c.353-1.764.706-4.94.353-5.822s3.352,3,3.352,3l-2.47,3.7Z" transform="translate(-821.795 -1076.843)" fill="#7d6629"/>
        </g>
      </g>
      <path id="Path_2470" data-name="Path 2470" d="M724.952,1105.534c.538.76,4.419,3.759,5.83-1.534C729.371,1104.882,725.826,1106.891,724.952,1105.534Z" transform="translate(-701.81 -1065.046)" fill="#bb993e"/>
      <path id="Path_2471" data-name="Path 2471" d="M806.952,1102.534c.538.76,4.419,3.759,5.831-1.534C811.371,1101.882,807.826,1103.891,806.952,1102.534Z" transform="translate(-769.343 -1062.575)" fill="#bb993e"/>
    </g>
    <g id="moelleux_outline" data-name="moelleux outline" transform="translate(8860 -1356.269)">
      <path id="Path_2472" data-name="Path 2472" d="M677.284,1113.672c.223-1.036.327-1.347.518-2.384.824-4.455,4.069-12.547,4.664-13.992.725-1.762,2.384-4.353-.1-4.457s-11.608,10.364-11.608,10.364-3.317-4.768-6.011-5.39-6.219,7.359-7.877,6.737-5.7-6.011-7.255-6.219-5.6,5.182-6.633,4.146-9.535-10.157-11.608-10.053,7.255,16.479,7.048,18.863l-.207,2.384Z" transform="translate(-624.353 -1055.74)" fill="none" stroke="#753f39" stroke-linejoin="round" stroke-width="3"/>
      <path id="Path_2473" data-name="Path 2473" d="M683.121,1063.392c.238-3.83.653-15.023.653-15.023" transform="translate(-667.221 -1019.458)" fill="#f4f4f4" stroke="#753f39" stroke-linejoin="round" stroke-width="4"/>
      <path id="Path_2474" data-name="Path 2474" d="M639.182,926.11c-4.457-.725-14.925-2.9-15.547-8.6s2.7-23.086,17.93-17.309a5.994,5.994,0,0,1,2.263,1.346" transform="translate(-618.172 -896.473)" fill="none" stroke="#753f39" stroke-linecap="round" stroke-linejoin="round" stroke-width="3"/>
      <path id="Path_2475" data-name="Path 2475" d="M753.608,896.2s3.938-12.955-10.053-11.608S733.4,899,736.507,900.556" transform="translate(-708.761 -884.496)" fill="none" stroke="#753f39" stroke-linecap="round" stroke-linejoin="round" stroke-width="3"/>
      <path id="Path_2476" data-name="Path 2476" d="M820.763,945.38c4.664-2.487,13.577-6.944,20.211-1.866s8.084,26.533-13.785,17.309" transform="translate(-780.58 -931.187)" fill="none" stroke="#753f39" stroke-linecap="round" stroke-linejoin="round" stroke-width="3"/>
      <line id="Line_59" data-name="Line 59" y1="12.896" x2="0.928" transform="translate(49.431 31.247)" fill="none" stroke="#753f39" stroke-linecap="round" stroke-linejoin="round" stroke-width="3"/>
      <path id="Path_2477" data-name="Path 2477" d="M595.238,1046.215a2.575,2.575,0,0,0-1.558,1.338,4.112,4.112,0,0,0-.67,1.807,2.28,2.28,0,0,0,.586,1.792,2.788,2.788,0,0,0,1.659.7,3.59,3.59,0,0,0,2.714-.636,3.213,3.213,0,0,0,.9-1.257,2.821,2.821,0,0,0,.215-1.631,2.552,2.552,0,0,0-1.115-1.571,3.255,3.255,0,0,0-1.754-.62A6.652,6.652,0,0,0,595.238,1046.215Z" transform="translate(-593 -1017.62)" fill="none" stroke="#753f39" stroke-linejoin="round" stroke-width="3"/>
      <path id="Path_2478" data-name="Path 2478" d="M944.781,1062.664a2.575,2.575,0,0,0-1.558,1.338,4.108,4.108,0,0,0-.67,1.807,2.28,2.28,0,0,0,.586,1.792,2.788,2.788,0,0,0,1.659.7,3.59,3.59,0,0,0,2.714-.636,3.21,3.21,0,0,0,.9-1.257,2.82,2.82,0,0,0,.216-1.631,2.552,2.552,0,0,0-1.115-1.571,3.254,3.254,0,0,0-1.753-.62A6.652,6.652,0,0,0,944.781,1062.664Z" transform="translate(-880.875 -1031.167)" fill="none" stroke="#753f39" stroke-linejoin="round" stroke-width="3"/>
      <path id="Path_2479" data-name="Path 2479" d="M723.893,1082.051a2.573,2.573,0,0,0-1.558,1.338,4.109,4.109,0,0,0-.67,1.807,2.28,2.28,0,0,0,.586,1.793,2.788,2.788,0,0,0,1.659.7,3.59,3.59,0,0,0,2.714-.636,3.212,3.212,0,0,0,.9-1.257,2.821,2.821,0,0,0,.216-1.632,2.552,2.552,0,0,0-1.115-1.571,3.254,3.254,0,0,0-1.753-.62A6.619,6.619,0,0,0,723.893,1082.051Z" transform="translate(-698.957 -1047.134)" fill="none" stroke="#753f39" stroke-linejoin="round" stroke-width="3"/>
      <path id="Path_2480" data-name="Path 2480" d="M804.376,1079.113a2.575,2.575,0,0,0-1.558,1.338,4.112,4.112,0,0,0-.67,1.807,2.28,2.28,0,0,0,.586,1.792,2.788,2.788,0,0,0,1.659.7,3.59,3.59,0,0,0,2.714-.636,3.21,3.21,0,0,0,.9-1.257,2.821,2.821,0,0,0,.216-1.631,2.552,2.552,0,0,0-1.115-1.571,3.254,3.254,0,0,0-1.754-.62A6.652,6.652,0,0,0,804.376,1079.113Z" transform="translate(-765.241 -1044.714)" fill="none" stroke="#753f39" stroke-linejoin="round" stroke-width="3"/>
    </g>
  </g>
</svg>
