<svg xmlns="http://www.w3.org/2000/svg" xmlns:xlink="http://www.w3.org/1999/xlink" width="989.519" height="1172" viewBox="0 0 989.519 1172">
  <defs>
    <clipPath id="clip-path">
      <path id="Path_2684" data-name="Path 2684" d="M665.985,608.389c.286-1.128.612-2.232.963-3.327,6.105-11.744,15.023-21.833,20.449-33.99,5.272-11.813,8.619-23.576,8.523-36.714-.1-13.881-3.866-26.216-9.75-38.632-3.563-7.518-13.137-13.924-20.881-16.057-.777-.214-1.586-.389-2.407-.545-2.336-2.927-4.869-5.734-7.493-8.464a30.507,30.507,0,0,0-4.518-13.625,98.352,98.352,0,0,0-19.33-21.958A127.977,127.977,0,0,1,617.756,421.8c-10.483-14.491-19.658-29.591-32.746-42.149-10.765-10.327-22.549-19.591-32.294-30.909a94.5,94.5,0,0,1-7.271-12.732c-2.045-5.4-3.853-10.887-5.619-16.392-4.539-14.155-25.293-12.4-33.691-25.651-6.6-10.411-12.145,1.87-17.634,4.77-6.7,3.54-14.895,13.145-16.057,20.881a106.053,106.053,0,0,1-5.614,21.333A179.916,179.916,0,0,1,448.8,370.9c-.315.389-.636.773-.954,1.161-21.6,8.861-30.1,32.962-39.88,52.75a49.411,49.411,0,0,0-3.094,7.786q-1.076,1.751-2.232,3.455c-5.317,6.282-10.943,12.225-15.9,18.88a57.306,57.306,0,0,0-9.193,19.039,33.97,33.97,0,0,0-6.133,7.6c-9.171,10.99-11.581,27.553-3.8,40.474,6.112,10.15,12.156,20.334,17.152,31.076,5.485,14.516,8.521,29.713,10.765,45.048a493.59,493.59,0,0,1,3.671,65.306,36.2,36.2,0,0,0-14.4,16.81,65.29,65.29,0,0,0-7.572,5.324c-5.293,4.19-9.51,12.164-11.077,18.707a48.768,48.768,0,0,0-1.165,10.631,30.111,30.111,0,0,0,1.686,10.018q-.389,17.319-.72,34.641c-.277,15.77,1.393,31.077,3.026,46.727a344.452,344.452,0,0,1,1.617,48.692c-.159,4.216-.7,8.484-.714,12.7-.039,10.045,3.8,20.19,11.133,27.15,11.049,10.484,29.567,13.922,42.883,5.338a42.345,42.345,0,0,0,6.655-5.353,35.176,35.176,0,0,0,3.138,1.668,35.516,35.516,0,0,0,46.091,13.3c14.193,5.532,29.714,2.4,42.426-5.7q1.98,10.467,3.521,21.012,1.121,9.248,1.9,18.534c.785,9.409,3.368,17.841,10.233,24.706,6.06,6.06,16,10.624,24.706,10.234,18.286-.819,35.745-15.379,34.939-34.939q-.4-9.721-.8-19.441a37.759,37.759,0,0,0-2.792-12.639c-.656-4.672-1.39-9.333-2.165-13.986a35.109,35.109,0,0,0,8.1-1.043,36.074,36.074,0,0,0,4.757-1.559c4.356,8.216,11.728,14.745,21.129,16.886,18.37,4.184,37.907-5.515,42.98-24.4a119.671,119.671,0,0,0,3.9-27.024,50.99,50.99,0,0,0,2.645-12.311,271.954,271.954,0,0,0-1.1-61.867,34.742,34.742,0,0,0,2.649-13.348l2.122-16.341c.154-.446.29-.9.425-1.36.287-.734.581-1.484.886-2.251,3.014-7.56.771-20.264-3.522-26.923A37.964,37.964,0,0,0,661.7,712.314c-2.373-5.267-10.682,2.366-14.882-.879C644.7,709.8,646.261,696,643.775,694.8a72.635,72.635,0,0,0,1.977-15.2c.218-6.729,0-13.5-.008-20.23l-.028-28.359C655.353,627.15,663.207,619.336,665.985,608.389Z" transform="translate(-362.947 -289.856)" fill="#d6d6d6"/>
    </clipPath>
    <clipPath id="clip-path-2">
      <path id="Path_2689" data-name="Path 2689" d="M740.6,615.3c.106-.342.217-.681.313-1.029,2.3-8.363,1.263-19.5-3.522-26.923-.418-.648-.867-1.279-1.329-1.9a36.285,36.285,0,0,0-1.076-6.035l-2.577-8.428a34.82,34.82,0,0,0-24.6-24.433,20.667,20.667,0,0,0-1.032-6.255,16.966,16.966,0,0,0-3.115-5.619c.062-.5.126-1,.186-1.5l.14-.181a14.432,14.432,0,0,0,1.981-7.325,2.693,2.693,0,0,0,0-.361c-.005-.06-.014-.119-.022-.18q-.258-1.929-.518-3.858c-.006-.044-.014-.089-.024-.133a2.632,2.632,0,0,0-.1-.347c-.222-.625-.575-1.375-.779-1.86-.241-.571-.511-1.284-.807-1.9a13.979,13.979,0,0,0-14.461-6.929,10.794,10.794,0,0,0-5.4,1.722l-2.937,2.269a14.5,14.5,0,0,0-3.733,6.4q-.26,1.929-.518,3.858a14.777,14.777,0,0,0,.127,1.821,20.022,20.022,0,0,0-1.929,6.587c-.233,1.971-.511,3.935-.817,5.894a12.552,12.552,0,0,0-4.438,7.091c-.187.844-.407,1.677-.609,2.517-.025.054-.057.1-.081.155a291.293,291.293,0,0,1-15.234,30.4,16.5,16.5,0,0,0-.777,1.536,20.493,20.493,0,0,0-2.336,3.811c-.7,1.536-1.323,3.1-1.944,4.665-.151.318-.287.644-.453.958a16.494,16.494,0,0,0-1.89,6.4,34.419,34.419,0,0,0-6.435,10.345,26.113,26.113,0,0,0-2.861,6.011,34.826,34.826,0,0,0-7.162,13.429q-.192.764-.382,1.528a27.6,27.6,0,0,0-1.142,5.6,29.97,29.97,0,0,0-1.994,12.089,38.5,38.5,0,0,0,2.2,11.225q-.531,3.944-1.06,7.889a35.255,35.255,0,0,0,.929,7.976c-.158.387-.295.779-.418,1.176a13.831,13.831,0,0,0-.764,12.934,10.881,10.881,0,0,0,3,4.671l2.937,2.27a14.452,14.452,0,0,0,7.325,1.981l3.857-.518c.047-.013.09-.034.137-.047a26.527,26.527,0,0,0,8.869,3.944,27.767,27.767,0,0,0,2.693,2.9,26.229,26.229,0,0,0,9.75,6.686c-.606,4.493-.934,9.055-1.212,13.634a175.22,175.22,0,0,0,.321,24.631l-3.511,8.321a35.185,35.185,0,0,0,0,18.577q.974,6.976,1.949,13.953c.092.389.2.769.311,1.149a193.54,193.54,0,0,1-.661,29.67c-.636,6.412,2.333,14.1,6.327,19.932.364,3.6.756,7.2,1.2,10.794,1.179,9.6,3.119,17.59,10.234,24.706,6.06,6.06,16,10.624,24.706,10.233,9.037-.4,18.408-3.372,24.706-10.233,5.824-6.343,11.334-15.739,10.233-24.706a506.26,506.26,0,0,1-3.649-51.108c.439-6.163-.882-12.813-1.684-18.456-.471-3.317-1.065-6.585-1.86-9.84a28.7,28.7,0,0,0-2.325-6.168,28.1,28.1,0,0,0,3.915-16.7,175.625,175.625,0,0,1,.011-29.114,36.057,36.057,0,0,0,2.655-11.964,28.2,28.2,0,0,0,8.679-6.266c6.629-7.222,9.218-14.99,10.234-24.706C758.458,654.506,752.469,631.808,740.6,615.3Z" transform="translate(-625.953 -509.832)" fill="#d6d6d6"/>
    </clipPath>
    <clipPath id="clip-path-3">
      <path id="Path_2694" data-name="Path 2694" d="M403.351,607.683a116.282,116.282,0,0,0-2.2-13.791,14.486,14.486,0,0,1-.532-5.817,21.77,21.77,0,0,1,1.248-3.539,24.2,24.2,0,0,0,.4-14.2c-2.811-11.564-9.076-23.394-15.111-33.577a13.88,13.88,0,0,0-6.3-5.8c-2.325-6.861-6.472-13.736-9.838-20.02-3.832-7.151-7.992-14.11-12.418-20.9l-5.105-14.537a16.593,16.593,0,0,0-5.526-7.694,156.936,156.936,0,0,1-6.842-30.808c-.81-7.173-4.9-13.339-12.585-14.254a14.535,14.535,0,0,0-15.924,10.4,193.857,193.857,0,0,1-13,34.013q-12.057,19.2-22.628,39.266a15.768,15.768,0,0,0-1.79,8.3c-.195.41-.379.826-.548,1.252q-.4,1.021-.807,2.043a18.394,18.394,0,0,0-3.078,3.381,213.634,213.634,0,0,0-16.626,27.866c-9.211,12.344-13.182,28.013-14.583,43.359-1.269,13.908-1.182,28.034-1.052,42.1a18.459,18.459,0,0,0,.06,6.784c.03,3.881.048,7.752.025,11.611-.057,9.541,8.735,14.845,16.644,14.168.374.305.747.611,1.133.883a18.053,18.053,0,0,0,11.231,3.556l1.438,18.389c-3.324,18.736-2.368,37.569-1.486,56.537.292,6.273.506,12.416.443,18.472-3.587,1.731-6.508,4.759-7.147,8.829-.166,1.056-.319,2.112-.473,3.169a14.332,14.332,0,0,0-2.234,7.729l-.387,24.732a15.9,15.9,0,0,0,.346,3.451q-.008,4.952-.015,9.9a112.055,112.055,0,0,0-1.421,31.65,19.709,19.709,0,0,0,1.69,6.279c.019.124.031.252.054.374a13.9,13.9,0,0,0-1.174,4.189c-.8,6.715,3.214,14.461,10.4,15.924,7.285,1.484,14.565,3.2,21.9,4.411,9.29,1.532,17.494-1.949,21.258-10.093a20.253,20.253,0,0,0,3.91,5.437c7.136,7.164,20.241,5.811,28.371,1.187q.49-.279.959-.582a13.257,13.257,0,0,0,7.3,3.164,15.421,15.421,0,0,0,4.049-.047c.228.011.452.036.682.036,8.322,0,13.951-6.663,14.513-14.513a280.157,280.157,0,0,0,.53-30.312,463.9,463.9,0,0,0,1.718-46.391,16.657,16.657,0,0,0-.137-1.905c1.5-10.225.9-20.67.774-31.01q-.248-19.509.123-39.02c.238-12.508.548-25.041,1.289-37.533.392-6.609,2.43-11.191,9.081-13.678,4.464-1.669,9.456-2.307,13.225-5.224a13.232,13.232,0,0,0,4.814-7.718c.7-3.417.023-6.944-.151-10.428-.331-6.68,1.213-13.236,1.9-19.844A98.649,98.649,0,0,0,403.351,607.683Z" transform="translate(-238.215 -422.646)" fill="#d6d6d6"/>
    </clipPath>
    <clipPath id="clip-path-4">
      <path id="Path_2708" data-name="Path 2708" d="M396.208,550.353c0-.063.01-.125.01-.188,0-6.78-5.347-13.362-12.123-14.376-3.137-9.264-8.567-17.406-12.757-26.235-4.319-9.1-6.867-19.061-9.595-28.725a14.8,14.8,0,0,0-10.54-10.16,91.336,91.336,0,0,0-7.709-15.367,15.473,15.473,0,0,0-1.957-2.468q-.745-6.387-1.336-12.8c-.5-5.488-3.35-10.422-7.9-12.875a13.119,13.119,0,0,0-2.344-1.585c-6.258-3.306-16.638-2.233-19.856,5.207a105.928,105.928,0,0,0-8.178,30.183,10.573,10.573,0,0,0,.888,5.543l-26.564,44.8a11.766,11.766,0,0,0-1.387,1.308l-13.538,15.344c-4.425,5.015-9.4,9.986-12.363,16.045-3.44,7.038-1.909,15.695,5.207,19.856a15.5,15.5,0,0,0,15-.111,16.25,16.25,0,0,0,12.385,2.308c-.559.107,1.62.074,2.427.232,1.72.338,3.414.816,5.116,1.232a57.767,57.767,0,0,0,14.184,2.093c5.232-.063,10-1.8,15.072-2.594,3.583-.56,7.534,0,11.428.083,5.237.105,10.128-1.566,15.254-1.886,2.922-.183,6.646.758,9.844.73,7.921-.07,15.875-.673,23.8-1.114a14.926,14.926,0,0,0,2.726.26h.32a14.918,14.918,0,0,0,14.513-14.513Z" transform="translate(-247.202 -423.797)" fill="#d84955"/>
    </clipPath>
    <clipPath id="clip-path-5">
      <path id="Path_2713" data-name="Path 2713" d="M683.826,485.252a15.038,15.038,0,0,0-12.484-8.9c-.13-.072-.256-.148-.395-.211-.119-.054-.232-.116-.349-.172q-.476-.261-.984-.486c-1.3-.689-2.522-1.47-3.823-2.168,2.486,1.336.06.034-.656-.619-.364-.332-.715-.679-1.069-1.023a37.4,37.4,0,0,0-8.218-20.551,33.531,33.531,0,0,0-11.808-8.862c-4.025-1.858-9.526-3.539-12.28-5a23.271,23.271,0,0,1-4.177-2.869,16.265,16.265,0,0,0-1.58-3.943c-4.722-8.444-11.106-15.219-18.013-21.508a66.738,66.738,0,0,0-12.066-11.289c-.135-.228-.264-.461-.405-.687a15.28,15.28,0,0,0-3.718-4.077c-3.508-5.376-7.38-10.495-12.273-14.3a134.326,134.326,0,0,0-36.362-45.758,19.689,19.689,0,0,0-3.4-2.2q-1.709-3.983-3.421-7.965c-2.578-6-4.775-12.463-8.168-18.072-4.18-6.911-9.528-11.142-16.912-14.2a11.088,11.088,0,0,0-8.421-.034c-4.156-1.838-9.023-1.755-14.555,1.544-6.6,3.936-8.4,11.291-10.266,18.151-.277,1.026-.555,2.052-.868,3.067,0,.012-.1.293-.237.669a42.124,42.124,0,0,0-6.14,8.657,15.884,15.884,0,0,0-1.732,5.528q-3.064,5.065-5.849,10.308a15.555,15.555,0,0,0-1.643,9.862c-.086.128-.178.241-.263.373q-6.821,10.72-13.564,21.493c-1.729,2.764-3.633,5.566-5.411,8.448a17.973,17.973,0,0,0-1.653,1.249c-9.734,8.388-14.259,22.306-19.631,33.554-5.989,12.538-14.263,23.62-22.654,34.625a10.59,10.59,0,0,0-2.067,6q-8.672,8.982-16.77,18.5a17.056,17.056,0,0,0-3.925,8.473c-.212.11-.424.207-.635.329a27.431,27.431,0,0,0-2.988,2.1c-.321.247-.576.445-.8.614-4.5,1.519-8.126,4.527-9.531,9.642a14.8,14.8,0,0,0,6.67,16.39c6.564,3.781,14.276,5.016,21.642,6.343,7.8,1.405,15.7,2.273,23.59,3.019,14.714,1.39,29.523,3.17,44.322,3.174a25.864,25.864,0,0,0,12.264-2.9q2.053.332,4.176.5a91.471,91.471,0,0,0,9.418,1.591,54.633,54.633,0,0,0,23.226-2.306c1.709-.048,3.432-.1,5.19-.107,3.1-.011,6.2.168,9.289.418,1.376.111,2.75.243,4.123.381.076.008.215.031.386.062a14.405,14.405,0,0,0,13.6-.416c.1-.061.2-.135.3-.2a31.415,31.415,0,0,0,10.06,1.405,67.256,67.256,0,0,0,19.087-3.777,33.189,33.189,0,0,0,5.945.21c4.642-.307,9.169-1.551,13.84-1.446,4.787.11,9.486,1.263,14.541-.274q2.44-1,4.851-2.069l.188-.084c1.991.081,5.264.418,5.778.391,4.033-.215,8.069-2,11.615-2.54,5.372-.823,10.737-.52,15.988-2.11a14.646,14.646,0,0,0,8.752-2.015,38.365,38.365,0,0,0,11.794-1.12,13.6,13.6,0,0,0,2.9-1.173,14.54,14.54,0,0,0,4.427.7l.142-.019c.262.008.52.029.787.019l3.858-.519a14.492,14.492,0,0,0,6.4-3.732l2.269-2.938a14.437,14.437,0,0,0,1.981-7.324v-.233A10.935,10.935,0,0,0,683.826,485.252Zm-308.362-2.387c0,.018,0,.035,0,.054a23.216,23.216,0,0,0-4.255.979A5.39,5.39,0,0,1,375.464,482.866ZM536.13,431.686a15.536,15.536,0,0,0-1.977,2.5c-4.508,7.137-10.325,12.169-18.631,16.086-1.359.641-2.74,1.23-4.12,1.823-.151.065-.378.187-.61.315-.99-.268-2.21-.553-2.5-.638-1.49-.43-5.193-.5-7.481-.851a11.212,11.212,0,0,0-.8-.819,39.27,39.27,0,0,0-6.135-4.894,35.783,35.783,0,0,0-8.123-3.24,57.628,57.628,0,0,0-5.061-6.749c-1.458-1.707-3.067-3.289-4.5-5.022-.052-.094-.157-.262-.36-.564a2,2,0,0,0-.305-.381c0-.024,0-.039-.008-.065a30.966,30.966,0,0,1,.516-8.911,11.316,11.316,0,0,0,1.839-7.29l-.226-2.144a20.653,20.653,0,0,0-.788-3.9A20.373,20.373,0,0,1,477.92,405c1.125-1.718,4.282-4.513,5.842-6.736.707-1.008,1.258-2.161,1.979-3.154,2.372-2.019,5.215-3.484,7.57-5.587a11.057,11.057,0,0,0,5.677.931,22.4,22.4,0,0,1,3.176-.2l1.009.048c1.536.29,3.019.859,4.55,1.175a57.3,57.3,0,0,0,12.07,1.041,13.994,13.994,0,0,0,8.843,6.107c.223.214.406.391.474.47.67.778,1.3,1.591,1.946,2.392l.645.817c-.183-.229-.059-.059.378.518,1.441,1.947,2.83,3.927,4.188,5.928a14.787,14.787,0,0,0-.367,2.7q-.127,3.182-.257,6.361a12.668,12.668,0,0,0,1.176,5.781q.106.9.2,1.794C536.707,427.483,536.42,429.585,536.13,431.686Z" transform="translate(-361.178 -289.156)" fill="#d84955"/>
    </clipPath>
    <clipPath id="clip-path-6">
      <path id="Path_2719" data-name="Path 2719" d="M744.9,602.829c-1.393-3.313-2.475-6.2-5.338-8.56a18.812,18.812,0,0,0-4.042-2.538,24.787,24.787,0,0,0-8.594-6.046,15.449,15.449,0,0,0-2.693-3.552,10.2,10.2,0,0,1-1.522-2.145c2.02-6.82-.5-14.792-3.232-22.088a112.305,112.305,0,0,0-13.748-26.253,17.934,17.934,0,0,0-5.881-5.273c1.649-7.08-3.7-14.775-10.481-16.639-8.024-2.2-15.228,2.721-17.854,10.137-2.673,7.551-3.49,15.711-6.453,23.148-2.507,6.294-6.921,12.485-10.438,18.511a205.675,205.675,0,0,0-10.466,21.031c-1.31,2.982-2.531,6.019-4.073,8.893-.217.4-1.075,1.858-1.509,2.588-.1.088-.357.362-.767.817q-.319.187-.877.529c-15.961,9.1-2.079,33.511,13.865,25.463a14.485,14.485,0,0,0,4.07,1.729c10.4,2.68,21.51,1.13,32.1.656,2.488-.112,4.975-.228,7.463-.335q1.891-.092,3.785-.157c.662.016,1.123.024,1.4.025,2.7.47,5.2,1.182,8.055,1.036,2.621-.135,5.3-.7,7.9-1.039a20.51,20.51,0,0,0,6.8-2.088,17.45,17.45,0,0,0,4.588.985,20.954,20.954,0,0,0,7.8-.983C741.509,618.538,748.045,610.306,744.9,602.829Z" transform="translate(-629.867 -509.205)" fill="#d84955"/>
    </clipPath>
    <clipPath id="clip-path-7">
      <path id="Path_2728" data-name="Path 2728" d="M441.171,867.857c0-49.381-.851-126.857,57.043-126.857S556.45,867.857,556.45,867.857Z" transform="translate(-441.17 -741)" fill="#935a27" stroke="#914f46" stroke-linecap="round" stroke-linejoin="round" stroke-width="6"/>
    </clipPath>
    <clipPath id="clip-path-8">
      <path id="Path_2745" data-name="Path 2745" d="M99,1084.786c4.846-50.887,26.655-146.6,41.194-180.528s9.693-174.471,9.693-174.471H266.2c-3.635,59.369-6.058,121.16,2.423,123.584s47.252,6.058,47.252,6.058c6.058-23.02,8.481-49.675,8.481-49.675l37.559,4.846s-9.693,38.771,0,39.983,41.194,4.846,41.194,4.846c2.423-14.539,6.058-24.232,7.27-36.348s36.349-3.635,36.349-3.635,1.212,42.406,8.481,42.406,38.771,8.481,43.617-2.423,3.635-27.867,9.693-32.713h30c6.058,4.846,4.846,21.809,9.693,32.713s36.348,2.423,43.617,2.423,8.482-42.406,8.482-42.406,35.136-8.481,36.348,3.635,4.846,21.809,7.27,36.348c0,0,31.5-3.635,41.194-4.846s0-39.983,0-39.983l37.559-4.846s2.423,26.655,8.481,49.675c0,0,38.771-3.635,47.252-6.058s6.058-64.214,2.423-123.584H897.15s-4.846,140.546,9.693,174.471,36.348,129.642,41.194,180.528Z" transform="translate(-99 -729.787)" fill="#d5d5d5" stroke="#753f39" stroke-linecap="round" stroke-linejoin="round" stroke-width="12"/>
    </clipPath>
    <clipPath id="clip-path-9">
      <rect id="Rectangle_168" data-name="Rectangle 168" width="165" height="76" transform="translate(-0.371 0.298)" stroke-width="12" stroke="#753f39" stroke-linecap="round" stroke-linejoin="round" fill="#d5d5d5"/>
    </clipPath>
    <clipPath id="clip-path-10">
      <rect id="Rectangle_171" data-name="Rectangle 171" width="164" height="76" transform="translate(0.342 0.373)" stroke-width="12" stroke="#753f39" stroke-linecap="round" stroke-linejoin="round" fill="#d5d5d5"/>
    </clipPath>
    <clipPath id="clip-path-11">
      <path id="Path_2759" data-name="Path 2759" d="M426,1063.184C426,1000.83,424.925,903,498.029,903s73.535,160.184,73.535,160.184Z" transform="translate(-425.999 -903)" fill="#935a27" stroke="#914f46" stroke-linecap="round" stroke-linejoin="round" stroke-width="6"/>
    </clipPath>
  </defs>
  <g id="Group_1284" data-name="Group 1284" transform="translate(-4481.481 1421)">
    <path id="Path_3715" data-name="Path 3715" d="M0,0H987V1166H0Z" transform="translate(4484 -1421)" fill="#fad778"/>
    <g id="Group_1283" data-name="Group 1283" transform="translate(4463.721 -1377)">
      <g id="kasteel_invulling" data-name="kasteel invulling" transform="translate(248.665 293.296)">
        <g id="Group_902" data-name="Group 902" transform="translate(134.095 0.753)">
          <path id="Path_2679" data-name="Path 2679" d="M665.985,608.389c.286-1.128.612-2.232.963-3.327,6.105-11.744,15.023-21.833,20.449-33.99,5.272-11.813,8.619-23.576,8.523-36.714-.1-13.881-3.866-26.216-9.75-38.632-3.563-7.518-13.137-13.924-20.881-16.057-.777-.214-1.586-.389-2.407-.545-2.336-2.927-4.869-5.734-7.493-8.464a30.507,30.507,0,0,0-4.518-13.625,98.352,98.352,0,0,0-19.33-21.958A127.977,127.977,0,0,1,617.756,421.8c-10.483-14.491-19.658-29.591-32.746-42.149-10.765-10.327-22.549-19.591-32.294-30.909a94.5,94.5,0,0,1-7.271-12.732c-2.045-5.4-3.853-10.887-5.619-16.392-4.539-14.155-25.293-12.4-33.691-25.651-6.6-10.411-12.145,1.87-17.634,4.77-6.7,3.54-14.895,13.145-16.057,20.881a106.053,106.053,0,0,1-5.614,21.333A179.916,179.916,0,0,1,448.8,370.9c-.315.389-.636.773-.954,1.161-21.6,8.861-30.1,32.962-39.88,52.75a49.411,49.411,0,0,0-3.094,7.786q-1.076,1.751-2.232,3.455c-5.317,6.282-10.943,12.225-15.9,18.88a57.306,57.306,0,0,0-9.193,19.039,33.97,33.97,0,0,0-6.133,7.6c-9.171,10.99-11.581,27.553-3.8,40.474,6.112,10.15,12.156,20.334,17.152,31.076,5.485,14.516,8.521,29.713,10.765,45.048a493.59,493.59,0,0,1,3.671,65.306,36.2,36.2,0,0,0-14.4,16.81,65.29,65.29,0,0,0-7.572,5.324c-5.293,4.19-9.51,12.164-11.077,18.707a48.768,48.768,0,0,0-1.165,10.631,30.111,30.111,0,0,0,1.686,10.018q-.389,17.319-.72,34.641c-.277,15.77,1.393,31.077,3.026,46.727a344.452,344.452,0,0,1,1.617,48.692c-.159,4.216-.7,8.484-.714,12.7-.039,10.045,3.8,20.19,11.133,27.15,11.049,10.484,29.567,13.922,42.883,5.338a42.345,42.345,0,0,0,6.655-5.353,35.176,35.176,0,0,0,3.138,1.668,35.516,35.516,0,0,0,46.091,13.3c14.193,5.532,29.714,2.4,42.426-5.7q1.98,10.467,3.521,21.012,1.121,9.248,1.9,18.534c.785,9.409,3.368,17.841,10.233,24.706,6.06,6.06,16,10.624,24.706,10.234,18.286-.819,35.745-15.379,34.939-34.939q-.4-9.721-.8-19.441a37.759,37.759,0,0,0-2.792-12.639c-.656-4.672-1.39-9.333-2.165-13.986a35.109,35.109,0,0,0,8.1-1.043,36.074,36.074,0,0,0,4.757-1.559c4.356,8.216,11.728,14.745,21.129,16.886,18.37,4.184,37.907-5.515,42.98-24.4a119.671,119.671,0,0,0,3.9-27.024,50.99,50.99,0,0,0,2.645-12.311,271.954,271.954,0,0,0-1.1-61.867,34.742,34.742,0,0,0,2.649-13.348l2.122-16.341c.154-.446.29-.9.425-1.36.287-.734.581-1.484.886-2.251,3.014-7.56.771-20.264-3.522-26.923A37.964,37.964,0,0,0,661.7,712.314c-2.373-5.267-10.682,2.366-14.882-.879C644.7,709.8,646.261,696,643.775,694.8a72.635,72.635,0,0,0,1.977-15.2c.218-6.729,0-13.5-.008-20.23l-.028-28.359C655.353,627.15,663.207,619.336,665.985,608.389Z" transform="translate(-362.947 -289.856)" fill="#d6d6d6"/>
          <g id="Group_901" data-name="Group 901" clip-path="url(#clip-path)">
            <path id="Path_2680" data-name="Path 2680" d="M359,874.152c24.726,1.075,25.46-1.442,28.856-30.822" transform="translate(-363.244 -248.312)" fill="#d6d6d6"/>
            <path id="Path_2681" data-name="Path 2681" d="M389.524,872.621h0c3.4-29.381,2.321-134.737.171-134.737s-1.086-37.788,14.785-54.778c13.146-14.07,4.46-118.335,1.341-139.808C402.594,521.082,336.77,453.1,336.77,453.1l14.223,157.923-6.45,222.537,11.826,75.254,33.156-36.2" transform="translate(-364.912 -277.603)" fill="#ebe4e0"/>
            <path id="Path_2682" data-name="Path 2682" d="M623.026,911.4c3.225-48.378,17.2-152.659,3.225-184.91s-26.876-76.329-9.676-106.431,37.627-73.1,39.777-90.305,0-59.128,0-72.029S670.329,433,670.329,433l27.952,63.429-3.225,81.7-29.027,84.93,6.45,101.056V878.075l-6.45,51.6Z" transform="translate(-344.529 -279.112)" fill="#cac5c2"/>
            <path id="Path_2683" data-name="Path 2683" d="M638,666.075c3.225,18.276,17.357,193.73,2.229,236.085,36.4-13.12,39.7-42.574,39.7-41.5s-8.176-43-8.176-43L654.126,665Z" transform="translate(-342.302 -261.698)" fill="#a9a5a3"/>
          </g>
        </g>
        <g id="Group_904" data-name="Group 904" transform="translate(416.841 237.24)">
          <path id="Path_2685" data-name="Path 2685" d="M740.6,615.3c.106-.342.217-.681.313-1.029,2.3-8.363,1.263-19.5-3.522-26.923-.418-.648-.867-1.279-1.329-1.9a36.285,36.285,0,0,0-1.076-6.035l-2.577-8.428a34.82,34.82,0,0,0-24.6-24.433,20.667,20.667,0,0,0-1.032-6.255,16.966,16.966,0,0,0-3.115-5.619c.062-.5.126-1,.186-1.5l.14-.181a14.432,14.432,0,0,0,1.981-7.325,2.693,2.693,0,0,0,0-.361c-.005-.06-.014-.119-.022-.18q-.258-1.929-.518-3.858c-.006-.044-.014-.089-.024-.133a2.632,2.632,0,0,0-.1-.347c-.222-.625-.575-1.375-.779-1.86-.241-.571-.511-1.284-.807-1.9a13.979,13.979,0,0,0-14.461-6.929,10.794,10.794,0,0,0-5.4,1.722l-2.937,2.269a14.5,14.5,0,0,0-3.733,6.4q-.26,1.929-.518,3.858a14.777,14.777,0,0,0,.127,1.821,20.022,20.022,0,0,0-1.929,6.587c-.233,1.971-.511,3.935-.817,5.894a12.552,12.552,0,0,0-4.438,7.091c-.187.844-.407,1.677-.609,2.517-.025.054-.057.1-.081.155a291.293,291.293,0,0,1-15.234,30.4,16.5,16.5,0,0,0-.777,1.536,20.493,20.493,0,0,0-2.336,3.811c-.7,1.536-1.323,3.1-1.944,4.665-.151.318-.287.644-.453.958a16.494,16.494,0,0,0-1.89,6.4,34.419,34.419,0,0,0-6.435,10.345,26.113,26.113,0,0,0-2.861,6.011,34.826,34.826,0,0,0-7.162,13.429q-.192.764-.382,1.528a27.6,27.6,0,0,0-1.142,5.6,29.97,29.97,0,0,0-1.994,12.089,38.5,38.5,0,0,0,2.2,11.225q-.531,3.944-1.06,7.889a35.255,35.255,0,0,0,.929,7.976c-.158.387-.295.779-.418,1.176a13.831,13.831,0,0,0-.764,12.934,10.881,10.881,0,0,0,3,4.671l2.937,2.27a14.452,14.452,0,0,0,7.325,1.981l3.857-.518c.047-.013.09-.034.137-.047a26.527,26.527,0,0,0,8.869,3.944,27.767,27.767,0,0,0,2.693,2.9,26.229,26.229,0,0,0,9.75,6.686c-.606,4.493-.934,9.055-1.212,13.634a175.22,175.22,0,0,0,.321,24.631l-3.511,8.321a35.185,35.185,0,0,0,0,18.577q.974,6.976,1.949,13.953c.092.389.2.769.311,1.149a193.54,193.54,0,0,1-.661,29.67c-.636,6.412,2.333,14.1,6.327,19.932.364,3.6.756,7.2,1.2,10.794,1.179,9.6,3.119,17.59,10.234,24.706,6.06,6.06,16,10.624,24.706,10.233,9.037-.4,18.408-3.372,24.706-10.233,5.824-6.343,11.334-15.739,10.233-24.706a506.26,506.26,0,0,1-3.649-51.108c.439-6.163-.882-12.813-1.684-18.456-.471-3.317-1.065-6.585-1.86-9.84a28.7,28.7,0,0,0-2.325-6.168,28.1,28.1,0,0,0,3.915-16.7,175.625,175.625,0,0,1,.011-29.114,36.057,36.057,0,0,0,2.655-11.964,28.2,28.2,0,0,0,8.679-6.266c6.629-7.222,9.218-14.99,10.234-24.706C758.458,654.506,752.469,631.808,740.6,615.3Z" transform="translate(-625.953 -509.832)" fill="#d6d6d6"/>
          <g id="Group_903" data-name="Group 903" clip-path="url(#clip-path-2)">
            <path id="Path_2686" data-name="Path 2686" d="M724.6,867.023c-28.889-1.333-23.514-9.933-24.589-86.263s5.375-105.356,19.351-108.581,10.15-58.163,10.15-58.163L756.986,598l7.525,95.68L740.86,865.69,724.6,867.023" transform="translate(-620.403 -503.214)" fill="#a69e99"/>
            <path id="Path_2687" data-name="Path 2687" d="M711,865.007c2.15-7.344,0-65.4,0-65.4V736.122c0-4.241,4.123-42.772,11.736-50.383s14.065-24.812,17.29-43.088S751.852,619,751.852,619L775.5,665.228l-11.826,52.678-2.15,55.9,2.487,60.23s-10.012,37.6-13.237,37.6S711,865.007,711,865.007" transform="translate(-619.569 -501.637)" fill="#6f6966"/>
            <path id="Path_2688" data-name="Path 2688" d="M673.346,868.169c-1.075-26.876,8.6-147.283,8.6-163.409s-12.9-25.8-24.726-31.177-12.9,2.15-13.976-10.751-1.075-36.552-1.075-36.552-13.976-17.2-13.976-18.276-21.284,12.524-21.284,12.524L596.774,698.7l21.744,72.713,13.976,43Z" transform="translate(-628.143 -502.467)" fill="#ebe4e0"/>
          </g>
        </g>
        <g id="Group_906" data-name="Group 906" transform="translate(0 143.511)">
          <path id="Path_2690" data-name="Path 2690" d="M403.351,607.683a116.282,116.282,0,0,0-2.2-13.791,14.486,14.486,0,0,1-.532-5.817,21.77,21.77,0,0,1,1.248-3.539,24.2,24.2,0,0,0,.4-14.2c-2.811-11.564-9.076-23.394-15.111-33.577a13.88,13.88,0,0,0-6.3-5.8c-2.325-6.861-6.472-13.736-9.838-20.02-3.832-7.151-7.992-14.11-12.418-20.9l-5.105-14.537a16.593,16.593,0,0,0-5.526-7.694,156.936,156.936,0,0,1-6.842-30.808c-.81-7.173-4.9-13.339-12.585-14.254a14.535,14.535,0,0,0-15.924,10.4,193.857,193.857,0,0,1-13,34.013q-12.057,19.2-22.628,39.266a15.768,15.768,0,0,0-1.79,8.3c-.195.41-.379.826-.548,1.252q-.4,1.021-.807,2.043a18.394,18.394,0,0,0-3.078,3.381,213.634,213.634,0,0,0-16.626,27.866c-9.211,12.344-13.182,28.013-14.583,43.359-1.269,13.908-1.182,28.034-1.052,42.1a18.459,18.459,0,0,0,.06,6.784c.03,3.881.048,7.752.025,11.611-.057,9.541,8.735,14.845,16.644,14.168.374.305.747.611,1.133.883a18.053,18.053,0,0,0,11.231,3.556l1.438,18.389c-3.324,18.736-2.368,37.569-1.486,56.537.292,6.273.506,12.416.443,18.472-3.587,1.731-6.508,4.759-7.147,8.829-.166,1.056-.319,2.112-.473,3.169a14.332,14.332,0,0,0-2.234,7.729l-.387,24.732a15.9,15.9,0,0,0,.346,3.451q-.008,4.952-.015,9.9a112.055,112.055,0,0,0-1.421,31.65,19.709,19.709,0,0,0,1.69,6.279c.019.124.031.252.054.374a13.9,13.9,0,0,0-1.174,4.189c-.8,6.715,3.214,14.461,10.4,15.924,7.285,1.484,14.565,3.2,21.9,4.411,9.29,1.532,17.494-1.949,21.258-10.093a20.253,20.253,0,0,0,3.91,5.437c7.136,7.164,20.241,5.811,28.371,1.187q.49-.279.959-.582a13.257,13.257,0,0,0,7.3,3.164,15.421,15.421,0,0,0,4.049-.047c.228.011.452.036.682.036,8.322,0,13.951-6.663,14.513-14.513a280.157,280.157,0,0,0,.53-30.312,463.9,463.9,0,0,0,1.718-46.391,16.657,16.657,0,0,0-.137-1.905c1.5-10.225.9-20.67.774-31.01q-.248-19.509.123-39.02c.238-12.508.548-25.041,1.289-37.533.392-6.609,2.43-11.191,9.081-13.678,4.464-1.669,9.456-2.307,13.225-5.224a13.232,13.232,0,0,0,4.814-7.718c.7-3.417.023-6.944-.151-10.428-.331-6.68,1.213-13.236,1.9-19.844A98.649,98.649,0,0,0,403.351,607.683Z" transform="translate(-238.215 -422.646)" fill="#d6d6d6"/>
          <g id="Group_905" data-name="Group 905" clip-path="url(#clip-path-3)">
            <path id="Path_2691" data-name="Path 2691" d="M331.45,838.942c-5.375-43,7.525-170.935,5.375-174.16s-9.676,18.276,0-3.225,25.715-29.075,26.876-43c2.15-25.8,2.093-64.5,2.093-64.5L399.179,539l25.8,230.063-54.9,102.822L325,871.194Z" transform="translate(-231.701 -413.913)" fill="#a69e99"/>
            <path id="Path_2692" data-name="Path 2692" d="M350.552,887.32c-6.45-58.053-13.976-210.712,0-227.913s27.952-12.9,27.952-29.027-3.151-71.879,1.649-75.179S416.131,539,416.131,539l5.923,88.379L408.605,769.063,378.5,893.77Z" transform="translate(-230.376 -413.913)" fill="#6f6966"/>
            <path id="Path_2693" data-name="Path 2693" d="M282.1,876.569c0-33.327,8.6-135.458,6.45-165.559s-4.3-67.729-18.276-68.8-17.2-51.6-13.976-65.579S264.9,539,264.9,539L209,547.6l8.6,56.978,6.45,46.228L234.8,683.058l30.1,198.886,17.2-5.375" transform="translate(-240.408 -413.913)" fill="#ebe4e0"/>
          </g>
        </g>
        <path id="Path_2695" data-name="Path 2695" d="M706.778,645.248a14.572,14.572,0,0,0-18.137-13.961,13.347,13.347,0,0,0-7.336.039,23.266,23.266,0,0,0-13.157,9.909,16.065,16.065,0,0,0,3.8,21.078,16.39,16.39,0,0,0,4.558,2.473,14.812,14.812,0,0,0,5.7,3.075c5.389,1.484,9.994-.368,14.12-3.733a15.16,15.16,0,0,0,4.056-5.2A17.794,17.794,0,0,0,706.778,645.248Z" transform="translate(-206.123 -263.512)" fill="#a69e99"/>
        <path id="Path_2696" data-name="Path 2696" d="M323.751,589.7a17.644,17.644,0,0,0-18.4.939,19.238,19.238,0,0,0-3.4,1.672,14.607,14.607,0,0,0-11.219,7.046c-3.512,6.013-6.3,13.328-4.5,20.348,1.089,4.244,3.322,8.346,5.477,12.32a21.771,21.771,0,0,0,1.993,3.751c4.768,7.166,12.262,8.159,18.133,5.52a24.991,24.991,0,0,0,26.707-16.721C342.842,611.911,335.279,596.013,323.751,589.7Z" transform="translate(-234.654 -266.758)" fill="#a69e99"/>
        <path id="Path_2697" data-name="Path 2697" d="M510.2,388.166c-15.315-6.978-35.963-1.534-39.979,16.591-.086.39-.148.782-.205,1.173a17.423,17.423,0,0,0-1.665,13.294,22.846,22.846,0,0,0,4.354,8.313,17.59,17.59,0,0,0,7.453,10.885c13.6,8.865,33.412,2.754,41.643-10.615C530.47,413.728,525.286,395.039,510.2,388.166Z" transform="translate(-220.988 -281.944)" fill="#a69e99"/>
        <path id="Path_2698" data-name="Path 2698" d="M540.038,604.183c-.252-.507-.49-1.04-.722-1.582a16.464,16.464,0,0,0-.324-5.246q-2.387-10.761-4.774-21.521a12.9,12.9,0,0,0-3.273-6.256,13.035,13.035,0,0,0-2.176-2.269c-.6-1.077-1.251-2.144-1.971-3.2l-.149-.345-.052.041c-.69-1-1.418-1.988-2.218-2.978-4.486-5.552-13.922-5.224-19.057-1.134-.044.036-.082.073-.126.109a18.137,18.137,0,0,0-4.3,1.773c-12.077,6.954-12.678,23.943-13.937,36.2a10.274,10.274,0,0,0-.045,1.189,14.021,14.021,0,0,0-5.165,7.534c-2.033,7.4,2.488,16,10.137,17.852,4.015.974,9.932.89,13.482-2.017,1.256.068,2.62-.1,3.808-.1,1.6,0,3.206.005,4.809.013.305,0,1.667.118,2.511.143.229.15.521.328.772.49a25.33,25.33,0,0,0,6.377,2.618C536.522,629.435,545.371,614.975,540.038,604.183Z" transform="translate(-219.972 -269.078)" fill="#a69e99"/>
        <path id="Path_2699" data-name="Path 2699" d="M615.1,604.336c-.1-.19-.185-.326-.256-.439q.09-4.093-.023-8.193a14.179,14.179,0,0,0-1.624-6.275,13.419,13.419,0,0,0,.065-2.667c-.616-8.1-3.061-18.354-9.823-23.557-7.4-5.69-19.249-5.162-26.724-.033-7.019,4.816-9.772,12.745-12.278,20.5q-1.761,5.455-3.04,11.048c-.395,1.725-.686,3.474-1.087,5.2-.543,2.336-2.49,4.36.829.243-4.535,5.628-5.955,13.005-1.135,19.057a14.9,14.9,0,0,0,14.844,5.339,13.672,13.672,0,0,0,2.573.553,44.657,44.657,0,0,0,7.829.645c4.61.043,9.225-.056,13.835-.1A14.425,14.425,0,0,0,615.1,604.336Z" transform="translate(-214.287 -268.891)" fill="#a69e99"/>
        <path id="Path_2700" data-name="Path 2700" d="M600.691,695.291a23.816,23.816,0,0,0-.057-3.161,61.4,61.4,0,0,0-2.2-10.756c-1.645-6.228-3.08-13.466-6.493-18.994-4.4-7.119-13.489-10.379-21.514-8.469-7.847,1.867-12.878,7.429-17.206,13.91a13.272,13.272,0,0,0-1.279,11.492,26.416,26.416,0,0,0-1.615,8.624,60.225,60.225,0,0,0-2.855,10.545c-3.169,4.329-4.221,9.97-.639,15.1,5.905,8.452,15.513,9.873,22.8,5.256.991.073,1.972.14,2.917.2a49.558,49.558,0,0,0,7.114-.034c.616.036,1.233.068,1.849.1l1.95.106c6.372,3.319,15.99,1.412,19.316-5.484C605.78,707.511,605.618,700.409,600.691,695.291Z" transform="translate(-215.219 -261.817)" fill="#a69e99"/>
        <path id="Path_2701" data-name="Path 2701" d="M460,602.5c-.21-1.879-.3-3.792-.532-5.66a140.328,140.328,0,0,0-2.332-13.889c-1.967-8.589-5.023-17.778-13.182-22.439-9.345-5.338-22.007-3.186-27.444,6.7a16.786,16.786,0,0,0-1.341,3.2,30.663,30.663,0,0,0-4.746,13.257c-1.126,8-.9,14.381-5.4,20.466-7.1,9.594,2.737,21.143,12.532,21.838,4.988.354,9.494-1.536,14.291-2.059,4.387-.478,8.818.518,13.091,1.348C459.415,628.077,467.622,612.738,460,602.5Z" transform="translate(-225.876 -269.001)" fill="#a69e99"/>
        <path id="Path_2702" data-name="Path 2702" d="M528.083,698.188c-.641-1.218-1.7-7.8-2.32-10.763a11.861,11.861,0,0,0-1.962-4.417c0-.017,0-.033,0-.051a57.51,57.51,0,0,0-3.434-17.408c-2.132-5.559-6.669-9.8-12.272-10.54A19.014,19.014,0,0,0,497,651.285c-12.405-.007-21.655,11.085-21.013,22.734a15.988,15.988,0,0,0-2.71,10.235,11.947,11.947,0,0,0-2.592,5.272,96.38,96.38,0,0,0-1.581,10.672c-1.186,4.271-.312,8.889,1.628,13.4,2.489,5.795,10.763,8.217,16.39,6.671a13.823,13.823,0,0,0,2.248-.836c1.973.092,3.968.1,5.948.11,5.2.033,12.463-1.315,16.374-.04C524.344,723.633,533.672,708.814,528.083,698.188Z" transform="translate(-220.925 -261.974)" fill="#a69e99"/>
        <path id="Path_2703" data-name="Path 2703" d="M446.843,696.934c-.235-2.294-.7-4.622-1.172-6.99q-1.537-7.719-3.071-15.437c-.921-4.628-1.728-8.974-4.356-13a17.815,17.815,0,0,0-19.659-7.5c-2.861.788-4.757,2.24-7.051,3.89q2.1-.737-.184.118a10.923,10.923,0,0,0-4.364,2.109,15.728,15.728,0,0,0-6.462,7.95c-3.944,2.959-5.838,8.9-5.16,13.408a15.251,15.251,0,0,0,1.335,4.36,20.2,20.2,0,0,0-2.433,7.475c-.09.7-.173,1.369-.257,2.005a14,14,0,0,0-4.526,10.338A14.725,14.725,0,0,0,404,720.173l31.9.67c7.843.164,14.513-6.788,14.513-14.513A14.2,14.2,0,0,0,446.843,696.934Z" transform="translate(-226.861 -261.818)" fill="#a69e99"/>
        <g id="Group_908" data-name="Group 908" transform="translate(9.661 144.748)">
          <path id="Path_2704" data-name="Path 2704" d="M396.208,550.353c0-.063.01-.125.01-.188,0-6.78-5.347-13.362-12.123-14.376-3.137-9.264-8.567-17.406-12.757-26.235-4.319-9.1-6.867-19.061-9.595-28.725a14.8,14.8,0,0,0-10.54-10.16,91.336,91.336,0,0,0-7.709-15.367,15.473,15.473,0,0,0-1.957-2.468q-.745-6.387-1.336-12.8c-.5-5.488-3.35-10.422-7.9-12.875a13.119,13.119,0,0,0-2.344-1.585c-6.258-3.306-16.638-2.233-19.856,5.207a105.928,105.928,0,0,0-8.178,30.183,10.573,10.573,0,0,0,.888,5.543l-26.564,44.8a11.766,11.766,0,0,0-1.387,1.308l-13.538,15.344c-4.425,5.015-9.4,9.986-12.363,16.045-3.44,7.038-1.909,15.695,5.207,19.856a15.5,15.5,0,0,0,15-.111,16.25,16.25,0,0,0,12.385,2.308c-.559.107,1.62.074,2.427.232,1.72.338,3.414.816,5.116,1.232a57.767,57.767,0,0,0,14.184,2.093c5.232-.063,10-1.8,15.072-2.594,3.583-.56,7.534,0,11.428.083,5.237.105,10.128-1.566,15.254-1.886,2.922-.183,6.646.758,9.844.73,7.921-.07,15.875-.673,23.8-1.114a14.926,14.926,0,0,0,2.726.26h.32a14.918,14.918,0,0,0,14.513-14.513Z" transform="translate(-247.202 -423.797)" fill="#d84955"/>
          <g id="Group_907" data-name="Group 907" clip-path="url(#clip-path-4)">
            <path id="Path_2705" data-name="Path 2705" d="M277.9,580.235C276.828,577.01,339.182,405,339.182,405l-94.605,87.08L222,564.109Z" transform="translate(-249.094 -425.208)" fill="#efb6bb"/>
            <path id="Path_2706" data-name="Path 2706" d="M370.753,586.661C366.453,582.361,317,391,317,391L425.581,575.91Z" transform="translate(-241.963 -426.259)" fill="#a23740"/>
            <path id="Path_2707" data-name="Path 2707" d="M389.753,573.133C385.453,570.983,336,439.826,336,439.826L368.252,428l75.254,170.935Z" transform="translate(-240.537 -423.482)" fill="#6c252b"/>
          </g>
        </g>
        <g id="Group_910" data-name="Group 910" transform="translate(132.193)">
          <path id="Path_2709" data-name="Path 2709" d="M683.826,485.252a15.038,15.038,0,0,0-12.484-8.9c-.13-.072-.256-.148-.395-.211-.119-.054-.232-.116-.349-.172q-.476-.261-.984-.486c-1.3-.689-2.522-1.47-3.823-2.168,2.486,1.336.06.034-.656-.619-.364-.332-.715-.679-1.069-1.023a37.4,37.4,0,0,0-8.218-20.551,33.531,33.531,0,0,0-11.808-8.862c-4.025-1.858-9.526-3.539-12.28-5a23.271,23.271,0,0,1-4.177-2.869,16.265,16.265,0,0,0-1.58-3.943c-4.722-8.444-11.106-15.219-18.013-21.508a66.738,66.738,0,0,0-12.066-11.289c-.135-.228-.264-.461-.405-.687a15.28,15.28,0,0,0-3.718-4.077c-3.508-5.376-7.38-10.495-12.273-14.3a134.326,134.326,0,0,0-36.362-45.758,19.689,19.689,0,0,0-3.4-2.2q-1.709-3.983-3.421-7.965c-2.578-6-4.775-12.463-8.168-18.072-4.18-6.911-9.528-11.142-16.912-14.2a11.088,11.088,0,0,0-8.421-.034c-4.156-1.838-9.023-1.755-14.555,1.544-6.6,3.936-8.4,11.291-10.266,18.151-.277,1.026-.555,2.052-.868,3.067,0,.012-.1.293-.237.669a42.124,42.124,0,0,0-6.14,8.657,15.884,15.884,0,0,0-1.732,5.528q-3.064,5.065-5.849,10.308a15.555,15.555,0,0,0-1.643,9.862c-.086.128-.178.241-.263.373q-6.821,10.72-13.564,21.493c-1.729,2.764-3.633,5.566-5.411,8.448a17.973,17.973,0,0,0-1.653,1.249c-9.734,8.388-14.259,22.306-19.631,33.554-5.989,12.538-14.263,23.62-22.654,34.625a10.59,10.59,0,0,0-2.067,6q-8.672,8.982-16.77,18.5a17.056,17.056,0,0,0-3.925,8.473c-.212.11-.424.207-.635.329a27.431,27.431,0,0,0-2.988,2.1c-.321.247-.576.445-.8.614-4.5,1.519-8.126,4.527-9.531,9.642a14.8,14.8,0,0,0,6.67,16.39c6.564,3.781,14.276,5.016,21.642,6.343,7.8,1.405,15.7,2.273,23.59,3.019,14.714,1.39,29.523,3.17,44.322,3.174a25.864,25.864,0,0,0,12.264-2.9q2.053.332,4.176.5a91.471,91.471,0,0,0,9.418,1.591,54.633,54.633,0,0,0,23.226-2.306c1.709-.048,3.432-.1,5.19-.107,3.1-.011,6.2.168,9.289.418,1.376.111,2.75.243,4.123.381.076.008.215.031.386.062a14.405,14.405,0,0,0,13.6-.416c.1-.061.2-.135.3-.2a31.415,31.415,0,0,0,10.06,1.405,67.256,67.256,0,0,0,19.087-3.777,33.189,33.189,0,0,0,5.945.21c4.642-.307,9.169-1.551,13.84-1.446,4.787.11,9.486,1.263,14.541-.274q2.44-1,4.851-2.069l.188-.084c1.991.081,5.264.418,5.778.391,4.033-.215,8.069-2,11.615-2.54,5.372-.823,10.737-.52,15.988-2.11a14.646,14.646,0,0,0,8.752-2.015,38.365,38.365,0,0,0,11.794-1.12,13.6,13.6,0,0,0,2.9-1.173,14.54,14.54,0,0,0,4.427.7l.142-.019c.262.008.52.029.787.019l3.858-.519a14.492,14.492,0,0,0,6.4-3.732l2.269-2.938a14.437,14.437,0,0,0,1.981-7.324v-.233A10.935,10.935,0,0,0,683.826,485.252Zm-308.362-2.387c0,.018,0,.035,0,.054a23.216,23.216,0,0,0-4.255.979A5.39,5.39,0,0,1,375.464,482.866ZM536.13,431.686a15.536,15.536,0,0,0-1.977,2.5c-4.508,7.137-10.325,12.169-18.631,16.086-1.359.641-2.74,1.23-4.12,1.823-.151.065-.378.187-.61.315-.99-.268-2.21-.553-2.5-.638-1.49-.43-5.193-.5-7.481-.851a11.212,11.212,0,0,0-.8-.819,39.27,39.27,0,0,0-6.135-4.894,35.783,35.783,0,0,0-8.123-3.24,57.628,57.628,0,0,0-5.061-6.749c-1.458-1.707-3.067-3.289-4.5-5.022-.052-.094-.157-.262-.36-.564a2,2,0,0,0-.305-.381c0-.024,0-.039-.008-.065a30.966,30.966,0,0,1,.516-8.911,11.316,11.316,0,0,0,1.839-7.29l-.226-2.144a20.653,20.653,0,0,0-.788-3.9A20.373,20.373,0,0,1,477.92,405c1.125-1.718,4.282-4.513,5.842-6.736.707-1.008,1.258-2.161,1.979-3.154,2.372-2.019,5.215-3.484,7.57-5.587a11.057,11.057,0,0,0,5.677.931,22.4,22.4,0,0,1,3.176-.2l1.009.048c1.536.29,3.019.859,4.55,1.175a57.3,57.3,0,0,0,12.07,1.041,13.994,13.994,0,0,0,8.843,6.107c.223.214.406.391.474.47.67.778,1.3,1.591,1.946,2.392l.645.817c-.183-.229-.059-.059.378.518,1.441,1.947,2.83,3.927,4.188,5.928a14.787,14.787,0,0,0-.367,2.7q-.127,3.182-.257,6.361a12.668,12.668,0,0,0,1.176,5.781q.106.9.2,1.794C536.707,427.483,536.42,429.585,536.13,431.686Z" transform="translate(-361.178 -289.156)" fill="#d84955"/>
          <g id="Group_909" data-name="Group 909" clip-path="url(#clip-path-5)">
            <path id="Path_2710" data-name="Path 2710" d="M389.6,560.167c-3.225-30.1,97.83-233.288,116.107-265.54S467.007,257,467.007,257L418.63,344.08l-69.879,86L338,480.613l24.726,63.429Z" transform="translate(-362.918 -291.569)" fill="#efb6bb"/>
            <path id="Path_2711" data-name="Path 2711" d="M630.257,519.064C618.431,494.338,512,291.151,512,289S729.162,511.539,729.162,511.539Z" transform="translate(-349.857 -289.168)" fill="#a23740"/>
            <path id="Path_2712" data-name="Path 2712" d="M652.653,524.11c-24.726-35.477-109.611-202.094-109.611-202.094s174.37,187.9,172.092,189.623S652.653,524.11,652.653,524.11Z" transform="translate(-347.527 -286.689)" fill="#6c252b"/>
          </g>
        </g>
        <g id="Group_912" data-name="Group 912" transform="translate(421.049 236.566)">
          <path id="Path_2714" data-name="Path 2714" d="M744.9,602.829c-1.393-3.313-2.475-6.2-5.338-8.56a18.812,18.812,0,0,0-4.042-2.538,24.787,24.787,0,0,0-8.594-6.046,15.449,15.449,0,0,0-2.693-3.552,10.2,10.2,0,0,1-1.522-2.145c2.02-6.82-.5-14.792-3.232-22.088a112.305,112.305,0,0,0-13.748-26.253,17.934,17.934,0,0,0-5.881-5.273c1.649-7.08-3.7-14.775-10.481-16.639-8.024-2.2-15.228,2.721-17.854,10.137-2.673,7.551-3.49,15.711-6.453,23.148-2.507,6.294-6.921,12.485-10.438,18.511a205.675,205.675,0,0,0-10.466,21.031c-1.31,2.982-2.531,6.019-4.073,8.893-.217.4-1.075,1.858-1.509,2.588-.1.088-.357.362-.767.817q-.319.187-.877.529c-15.961,9.1-2.079,33.511,13.865,25.463a14.485,14.485,0,0,0,4.07,1.729c10.4,2.68,21.51,1.13,32.1.656,2.488-.112,4.975-.228,7.463-.335q1.891-.092,3.785-.157c.662.016,1.123.024,1.4.025,2.7.47,5.2,1.182,8.055,1.036,2.621-.135,5.3-.7,7.9-1.039a20.51,20.51,0,0,0,6.8-2.088,17.45,17.45,0,0,0,4.588.985,20.954,20.954,0,0,0,7.8-.983C741.509,618.538,748.045,610.306,744.9,602.829Z" transform="translate(-629.867 -509.205)" fill="#d84955"/>
          <g id="Group_911" data-name="Group 911" clip-path="url(#clip-path-6)">
            <path id="Path_2715" data-name="Path 2715" d="M687,502" transform="translate(-625.579 -509.746)" fill="#d84955"/>
            <path id="Path_2716" data-name="Path 2716" d="M645.556,629.932,692.858,502l-20.426,18.276S606.853,612.731,609,618.107,645.556,629.932,645.556,629.932Z" transform="translate(-631.437 -509.746)" fill="#efb6bb"/>
            <path id="Path_2717" data-name="Path 2717" d="M726.3,630.383,679,496l67.729,26.876V638.983Z" transform="translate(-626.179 -510.196)" fill="#a23740"/>
            <path id="Path_2718" data-name="Path 2718" d="M741.828,627.782,687,502l34.4,17.2,73.1,125.782Z" transform="translate(-625.579 -509.746)" fill="#6c252b"/>
          </g>
        </g>
      </g>
      <g id="afbeelding_kasteel" data-name="afbeelding kasteel" transform="translate(99 234)">
        <path id="Path_2720" data-name="Path 2720" d="M632,612.3c19.351,6.45,104.281,8.6,118.257-4.3" transform="translate(-58.993 -205.927)" fill="none" stroke="#914f46" stroke-linecap="round" stroke-linejoin="round" stroke-width="6"/>
        <path id="Path_2721" data-name="Path 2721" d="M653,684.219c15.051,5.375,70.361,5.546,83.02-3.139" transform="translate(-57.416 -200.442)" fill="none" stroke="#914f46" stroke-linecap="round" stroke-linejoin="round" stroke-width="6"/>
        <path id="Path_2722" data-name="Path 2722" d="M261,651c19.351,6.45,87.08,18.276,123.632,1.075" transform="translate(-86.84 -202.7)" fill="none" stroke="#914f46" stroke-linecap="round" stroke-linejoin="round" stroke-width="6"/>
        <path id="Path_2723" data-name="Path 2723" d="M243,553c32.252,5.375,142.3,6.45,154.467,0" transform="translate(-88.191 -210.056)" fill="none" stroke="#914f46" stroke-miterlimit="10" stroke-width="6"/>
        <g id="Group_914" data-name="Group 914" transform="translate(367.854 545.056)">
          <path id="Path_2724" data-name="Path 2724" d="M441.171,867.857c0-49.381-.851-126.857,57.043-126.857S556.45,867.857,556.45,867.857Z" transform="translate(-441.17 -741)" fill="#935a27"/>
          <g id="Group_913" data-name="Group 913" clip-path="url(#clip-path-7)">
            <line id="Line_60" data-name="Line 60" y2="130" transform="translate(56.426 -0.056)" fill="#935a27" stroke="#914f46" stroke-linecap="round" stroke-linejoin="round" stroke-width="6"/>
            <path id="Path_2725" data-name="Path 2725" d="M456.952,879.145c0-21.5,6.45-135.458,21.5-144.058s-32.252,30.1-32.252,30.1L429,792.065l2.15,41.927,6.45,47.3Z" transform="translate(-442.084 -741.537)" fill="#be9c7d"/>
            <path id="Path_2726" data-name="Path 2726" d="M530.462,869.4c-5.375-25.8-8.6-123.632-31.177-133.307s55.9,35.477,55.9,35.477l25.8,69.879L570.239,878Z" transform="translate(-437.114 -741.47)" fill="#6e441d"/>
            <path id="Path_2727" data-name="Path 2727" d="M542.077,867.629C538.852,851.5,521.651,735.4,513.05,730.021S575.4,793.449,575.4,793.449l-1.462,73.944Z" transform="translate(-435.829 -741.846)" fill="#4a2d14"/>
          </g>
          <path id="Path_2729" data-name="Path 2729" d="M441.171,867.857c0-49.381-.851-126.857,57.043-126.857S556.45,867.857,556.45,867.857Z" transform="translate(-441.17 -741)" fill="none" stroke="#914f46" stroke-linecap="round" stroke-linejoin="round" stroke-width="6"/>
        </g>
        <path id="Path_2730" data-name="Path 2730" d="M490,269.477s55.9,1.075,56.978,0-17.2-13.976-17.2-13.976l17.2-21.5H490v50.528" transform="translate(-69.651 -234)" fill="#d84955" stroke="#914f46" stroke-linecap="round" stroke-linejoin="round" stroke-width="6"/>
        <path id="Path_2731" data-name="Path 2731" d="M359,492.45c36.552,20.426,246.189,21.5,332.194-6.45" transform="translate(-79.484 -215.085)" fill="none" stroke="#914f46" stroke-linecap="round" stroke-linejoin="round" stroke-width="6"/>
        <path id="Path_2732" data-name="Path 2732" d="M656.758,873.7s5.839-151.762,3.518-166.366-34.824-4.493-35.985-15.726-4.643-51.673,1.161-64.03S688.135,498.4,688.135,498.4s65,131.429,67.327,135.922,6.964,60.66-3.483,64.03-26.7,2.247-25.537,6.741S733.884,873.7,733.884,873.7Z" transform="translate(-59.729 -214.154)" fill="none" stroke="#753f39" stroke-linecap="round" stroke-linejoin="round" stroke-width="12.746"/>
        <path id="Path_2733" data-name="Path 2733" d="M263.312,702.191l.072-26.612a6.093,6.093,0,0,0-6.189-6.134c-5.486.128-13.106-.735-16.369-5.956-5.375-8.6-2.15-93.53,3.225-99.981S326.83,413,326.83,413s69.879,146.208,74.179,155.884,9.676,99.981,0,99.981-26.876,9.676-27.952,16.126,4.231,196.352,4.231,196.352L263.4,891.4,229,865.6Z" transform="translate(-89.242 -220.564)" fill="none" stroke="#753f39" stroke-linecap="round" stroke-linejoin="round" stroke-width="12"/>
        <g id="Group_916" data-name="Group 916" transform="translate(0 533.001)">
          <path id="Path_2734" data-name="Path 2734" d="M99,1084.786c4.846-50.887,26.655-146.6,41.194-180.528s9.693-174.471,9.693-174.471H266.2c-3.635,59.369-6.058,121.16,2.423,123.584s47.252,6.058,47.252,6.058c6.058-23.02,8.481-49.675,8.481-49.675l37.559,4.846s-9.693,38.771,0,39.983,41.194,4.846,41.194,4.846c2.423-14.539,6.058-24.232,7.27-36.348s36.349-3.635,36.349-3.635,1.212,42.406,8.481,42.406,38.771,8.481,43.617-2.423,3.635-27.867,9.693-32.713h30c6.058,4.846,4.846,21.809,9.693,32.713s36.348,2.423,43.617,2.423,8.482-42.406,8.482-42.406,35.136-8.481,36.348,3.635,4.846,21.809,7.27,36.348c0,0,31.5-3.635,41.194-4.846s0-39.983,0-39.983l37.559-4.846s2.423,26.655,8.481,49.675c0,0,38.771-3.635,47.252-6.058s6.058-64.214,2.423-123.584H897.15s-4.846,140.546,9.693,174.471,36.348,129.642,41.194,180.528Z" transform="translate(-99 -729.787)" fill="#d5d5d5"/>
          <g id="Group_915" data-name="Group 915" clip-path="url(#clip-path-8)">
            <path id="Path_2735" data-name="Path 2735" d="M744.922,900.768c-4.332-2.535-8.688-2.269-13.045-.65-.223-.033-.523-.078-.934-.148-1.462-.252-3.056-.295-4.54-.442-3.153-.312-6.312-.518-9.48-.575-6.841-.124-13.52.17-19.637,3.541a14.353,14.353,0,0,0-7.188,12.532c.164,3.519.2,7.041.053,10.549a14.133,14.133,0,0,0-1.643,6.576l0,7.973a14.127,14.127,0,0,0,1.221,5.688l.047.526a18.918,18.918,0,0,0,1.171,5.117,18.293,18.293,0,0,0-2.63,7.926l-.639,6.493c-.626,6.353,4.967,12.3,10.655,14,6.55,1.953,12.96,1.708,19.648.96,6.058-.677,9.833-.628,15.073.928,8.454,2.509,19.17-4.591,18.372-14a279.968,279.968,0,0,1,.679-54.462C752.653,908.376,748.964,903.133,744.922,900.768Z" transform="translate(-54.817 -717.095)" fill="#a69e99"/>
            <path id="Path_2736" data-name="Path 2736" d="M656.618,937.138c-.274-4.3.37-8.273-.263-12.583a10.38,10.38,0,0,0-1.557-4.141c.041-.235.078-.467.119-.7,1.143-6.643-.771-13.743-6.953-17.363-4.491-2.63-8.641-2.446-13.6-1.886a65.458,65.458,0,0,1-23.315-1.409c-7.205-1.774-16.271,2.268-17.854,10.137q-1.134,5.641-2.268,11.284a16.354,16.354,0,0,0,1.665,11.22c-1.809,7.747-2.964,15.98-2.379,23.9a33.711,33.711,0,0,0,1.333,7.348,15,15,0,0,0,1.76,9,17.371,17.371,0,0,0,11.534,8.458,42.3,42.3,0,0,0,5.775,1.646c2.222.5,7.082,2.68,11.484,2.583a16.908,16.908,0,0,0,10.5-3.742,14.612,14.612,0,0,0,6.978,1.934c8.673,0,13.514-6.7,14.513-14.513.948-7.394,2.19-14.816,2.811-22.246A59.979,59.979,0,0,0,656.618,937.138Z" transform="translate(-62.141 -717.113)" fill="#a69e99"/>
            <path id="Path_2737" data-name="Path 2737" d="M286.653,934.526c1.715-7.433,3.225-15.27.853-22.252-4.439-13.067-17.594-13.175-29.146-14.551-11.363-1.353-23.74-3.247-30.994,8.082a25.887,25.887,0,0,0-3.979,13.637c-.061,4.623,1.4,8.963.872,13.02-.75,5.784-2.294,11.349-2.354,17.243a82.125,82.125,0,0,0,1.37,15.6c1.229,6.6,5.434,12.2,11.985,14.293,4.554,1.456,9.723,1.559,14.484,1.906,10.075.734,24.481,3.249,32.385-4.654,5.045-5.045,5.128-12.254,5.687-18.894.445-5.279.759-10.566.985-15.858A12.908,12.908,0,0,0,286.653,934.526Z" transform="translate(-89.775 -717.259)" fill="#a69e99"/>
            <path id="Path_2738" data-name="Path 2738" d="M381.662,942.99a13.907,13.907,0,0,0,2.263-8.015,25.889,25.889,0,0,0-1.888-9.734c.267-2.258.59-4.525.966-6.834,1.456-8.932-3.737-18.635-14-18.371-5.918.152-11.844.405-17.764.438-5.77.03-10.374-1.39-16.565-1.724-9.738-.525-16.275,9.759-13.971,18.425-1.621,6.392-1.207,13.764-1,19.7a15.416,15.416,0,0,0,2.867,8.483c-.262,1.145-.547,2.3-.845,3.483a14.738,14.738,0,0,0-.3,1.537c-4.913,9.509-2.624,23.14,6.793,28.779a16.514,16.514,0,0,0,9.033,2.414c.489-.012.9-.029,1.284-.051.334.11.7.226,1.093.349a21.2,21.2,0,0,0,6.3,1.015,11.52,11.52,0,0,0,4.728-.851A33.191,33.191,0,0,0,360.11,984a19.8,19.8,0,0,0,9.848-2.172c.306-.153,1.641-.761,2.531-1.226,3.342-1.273,5.838-3.5,8.557-7.033,2.333-3.026,2.444-7.508,1.285-11.331C382.924,955.876,382.223,949.514,381.662,942.99Z" transform="translate(-82.493 -717.106)" fill="#a69e99"/>
            <path id="Path_2739" data-name="Path 2739" d="M233.938,827.405c-.488-1.725-.38-3.174-.572-6.322-.22-3.608-.688-7.2-1.228-10.775a83.03,83.03,0,0,0-4.673-17.96c-2.881-7.336-7.776-13.358-15.73-15.416-7.925-2.05-15.749.857-22.406,5.041a15.141,15.141,0,0,0-7.063,13.966c-1.125,2.473-2.148,4.92-3.122,7.12a36.094,36.094,0,0,0-3.358,12.936c-.091,1.506-.04,3-.024,4.511.006.6.011,1.018.02,1.307a13.771,13.771,0,0,0-1,12.976c2.2,5,7.47,9.293,13.263,8.922,9.492-.608,20.141-1.321,28.043,1.548C226.693,849.11,236.765,837.427,233.938,827.405Z" transform="translate(-93.401 -726.299)" fill="#a69e99"/>
            <path id="Path_2740" data-name="Path 2740" d="M397.287,553.388c-13.83,6.033-135.311,10.333-149.287,3.883" transform="translate(-87.816 -743.028)" fill="#914f46"/>
            <path id="Path_2741" data-name="Path 2741" d="M164.656,1077.761c3.225-39.777,26.877-109.656,22.576-165.559s-10.9-138.065-7.065-180.839-58.513-11.6-58.513-11.6L102.3,788.57v68.8l-23.651,68.8-18.276,75.254L55,1047.659l1.075,63.429s55.9,6.45,62.354,5.375S164.656,1077.761,164.656,1077.761Z" transform="translate(-102.303 -731.362)" fill="#ebe4e0"/>
            <path id="Path_2742" data-name="Path 2742" d="M787.535,687c-6.45,26.877-12.9,218.237-1.075,232.213s20.426,197.811,13.976,204.262,124.707,3.225,124.707,3.225l46.228-47.3L933.743,967.591,910.092,849.334,863.864,755.8Z" transform="translate(-47.893 -732.999)" fill="#cac5c2"/>
            <path id="Path_2743" data-name="Path 2743" d="M814.288,696c1.075,41.927-13.976,195.661,7.525,227.913s9.676,187.06,13.976,189.211,98.906-15.051,98.906-15.051l-3.225-78.479-36.552-64.5-20.426-69.879-6.45-64.5V715.351Z" transform="translate(-45.62 -732.323)" fill="#a9a5a3"/>
            <path id="Path_2744" data-name="Path 2744" d="M815.02,819.919c.721-3.7.441-7.679.227-11.54-.327-5.9.138-12.714-1.633-18.376-2.445-7.815-10.053-11.816-17.812-12.186-5.306-.252-12,.8-16.592,3.657-5.726,3.558-7.854,9.478-10.135,15.459-3.075,8.063-4.612,19.353-8.624,25.187-3.235,4.7-2.224,11.9,1.135,16.118,3.878,4.869,9.253,6.228,15.255,5.2a85.517,85.517,0,0,1,11.35-1.115q3.061-.111,6.122-.046a11.551,11.551,0,0,1,1.165.1,13.973,13.973,0,0,0,4.614,2.217c6.86,1.885,16.671-2.34,17.852-10.137C818.777,828.979,818.307,823.934,815.02,819.919Z" transform="translate(-49.499 -726.185)" fill="#a69e99"/>
          </g>
          <path id="Path_2746" data-name="Path 2746" d="M99,1084.786c4.846-50.887,26.655-146.6,41.194-180.528s9.693-174.471,9.693-174.471H266.2c-3.635,59.369-6.058,121.16,2.423,123.584s47.252,6.058,47.252,6.058c6.058-23.02,8.481-49.675,8.481-49.675l37.559,4.846s-9.693,38.771,0,39.983,41.194,4.846,41.194,4.846c2.423-14.539,6.058-24.232,7.27-36.348s36.349-3.635,36.349-3.635,1.212,42.406,8.481,42.406,38.771,8.481,43.617-2.423,3.635-27.867,9.693-32.713h30c6.058,4.846,4.846,21.809,9.693,32.713s36.348,2.423,43.617,2.423,8.482-42.406,8.482-42.406,35.136-8.481,36.348,3.635,4.846,21.809,7.27,36.348c0,0,31.5-3.635,41.194-4.846s0-39.983,0-39.983l37.559-4.846s2.423,26.655,8.481,49.675c0,0,38.771-3.635,47.252-6.058s6.058-64.214,2.423-123.584H897.15s-4.846,140.546,9.693,174.471,36.348,129.642,41.194,180.528Z" transform="translate(-99 -729.787)" fill="none" stroke="#753f39" stroke-linecap="round" stroke-linejoin="round" stroke-width="12"/>
        </g>
        <g id="Group_918" data-name="Group 918" transform="translate(23.651 482.702)">
          <rect id="Rectangle_167" data-name="Rectangle 167" width="165" height="76" transform="translate(-0.371 0.298)" fill="#d5d5d5"/>
          <g id="Group_917" data-name="Group 917" clip-path="url(#clip-path-9)">
            <path id="Path_2747" data-name="Path 2747" d="M161.329,776.994c-8.6-49.453,1.075-109.656,10.751-124.707s-62.354,16.126-62.354,16.126L85,696.364l1.075,65.579,18.276,34.4Z" transform="translate(-123.702 -685.614)" fill="#ebe4e0"/>
            <path id="Path_2748" data-name="Path 2748" d="M217.865,790.18c17.346-32.173,34.547-60.125,11.971-97.752S291.114,680.6,291.114,680.6l11.826,68.8-24.726,34.4-60.348,6.372" transform="translate(-113.729 -683.828)" fill="#cac5c2"/>
            <path id="Path_2749" data-name="Path 2749" d="M247.584,768.82c-16.353,16.6,9.458-79.334,6.233-95.46S294.67,684.11,294.67,684.11l6.45,76.329L286.069,775.49S247.8,768.6,247.584,768.82Z" transform="translate(-111.909 -684.11)" fill="#a9a5a3"/>
          </g>
          <rect id="Rectangle_169" data-name="Rectangle 169" width="165" height="76" transform="translate(-0.371 0.298)" stroke-width="12" stroke="#753f39" stroke-linecap="round" stroke-linejoin="round" fill="none"/>
        </g>
        <g id="Group_920" data-name="Group 920" transform="translate(657.937 481.627)">
          <rect id="Rectangle_170" data-name="Rectangle 170" width="164" height="76" transform="translate(0.342 0.373)" fill="#d5d5d5"/>
          <g id="Group_919" data-name="Group 919" clip-path="url(#clip-path-10)">
            <path id="Path_2750" data-name="Path 2750" d="M759.479,779.177c-18.276-38.7-9.676-106.431-6.45-125.782S681,670.6,681,670.6l3.225,86,34.4,29.027Z" transform="translate(-713.252 -684.571)" fill="#ebe4e0"/>
            <path id="Path_2751" data-name="Path 2751" d="M812,765.288c13.975-26.106,18.275-100.285,9.674-112.111s73.1,21.5,73.1,21.5,19.351-47.3,19.351,15.051v62.354l-30.1,25.8Z" transform="translate(-703.419 -684.354)" fill="#cac5c2"/>
            <path id="Path_2752" data-name="Path 2752" d="M829,772.435c17.2-30.1,15.051-73.1,13.976-98.906S893.5,696.105,893.5,696.105l5.375,33.327-15.051,40.852Z" transform="translate(-702.143 -683.205)" fill="#a9a5a3"/>
          </g>
          <rect id="Rectangle_172" data-name="Rectangle 172" width="164" height="76" transform="translate(0.342 0.373)" stroke-width="12" stroke="#753f39" stroke-linecap="round" stroke-linejoin="round" fill="none"/>
        </g>
        <g id="Group_922" data-name="Group 922" transform="translate(351.544 719.216)">
          <path id="Path_2753" data-name="Path 2753" d="M426,1063.184C426,1000.83,424.925,903,498.029,903s73.535,160.184,73.535,160.184Z" transform="translate(-425.999 -903)" fill="#935a27"/>
          <g id="Group_921" data-name="Group 921" clip-path="url(#clip-path-11)">
            <path id="Path_2754" data-name="Path 2754" d="M494.009,903c0,10.751-.13,160.184-.13,160.184" transform="translate(-420.904 -903)" fill="#935a27" stroke="#914f46" stroke-linecap="round" stroke-linejoin="round" stroke-width="6"/>
            <path id="Path_2755" data-name="Path 2755" d="M441.012,1086.337c1.075-37.627,19.351-193.511,37.627-205.337-90.305,68.8-62.354,195.661-62.354,195.661Z" transform="translate(-427.035 -904.651)" fill="#be9c7d"/>
            <path id="Path_2756" data-name="Path 2756" d="M505,895c8.6,8.6,41.927,170.935,38.7,191.361s32.252-10.751,32.252-10.751l17.2-20.426-24.726-84.93-19.351-44.077Z" transform="translate(-420.069 -903.6)" fill="#6e441d"/>
            <path id="Path_2757" data-name="Path 2757" d="M550.354,1066.905c3.225-21.5-17.2-152.659-32.252-168.785s91.38,86,91.38,86l-11.826,76.329Z" transform="translate(-419.195 -903.496)" fill="#4a2d14"/>
            <ellipse id="Ellipse_393" data-name="Ellipse 393" cx="4.5" cy="4" rx="4.5" ry="4" transform="translate(43.737 93.785)" fill="#935a27" stroke="#914f46" stroke-linecap="round" stroke-linejoin="round" stroke-width="6"/>
            <circle id="Ellipse_394" data-name="Ellipse 394" cx="4" cy="4" r="4" transform="translate(92.737 93.785)" stroke-width="6" stroke="#914f46" stroke-linecap="round" stroke-linejoin="round" fill="#935a27"/>
            <path id="Path_2758" data-name="Path 2758" d="M452,1056.838v0Z" transform="translate(-424.048 -891.816)" fill="#935a27" stroke="#914f46" stroke-linecap="round" stroke-linejoin="round" stroke-width="6"/>
          </g>
          <path id="Path_2760" data-name="Path 2760" d="M426,1063.184C426,1000.83,424.925,903,498.029,903s73.535,160.184,73.535,160.184Z" transform="translate(-425.999 -903)" fill="none" stroke="#914f46" stroke-linecap="round" stroke-linejoin="round" stroke-width="6"/>
        </g>
        <path id="Path_2761" data-name="Path 2761" d="M359,507.838,499.833,281,691.194,501.387v47.3" transform="translate(-79.484 -230.472)" fill="none" stroke="#753f39" stroke-linecap="round" stroke-linejoin="round" stroke-width="12"/>
        <ellipse id="Ellipse_395" data-name="Ellipse 395" cx="30.5" cy="30" rx="30.5" ry="30" transform="translate(395.28 160)" fill="none" stroke="#914f46" stroke-linecap="round" stroke-linejoin="round" stroke-width="6"/>
        <circle id="Ellipse_396" data-name="Ellipse 396" cx="28" cy="28" r="28" transform="translate(201.28 379)" stroke-width="6" stroke="#914f46" stroke-linecap="round" stroke-linejoin="round" fill="none"/>
        <circle id="Ellipse_397" data-name="Ellipse 397" cx="19.351" cy="19.351" r="19.351" transform="translate(611.172 425.186)" stroke-width="6" stroke="#914f46" stroke-linecap="round" stroke-linejoin="round" fill="none"/>
        <path id="Path_2762" data-name="Path 2762" d="M175,842.654C176.709,793.09,183.546,776,209.182,776s23.927,66.654,23.927,66.654Z" transform="translate(-93.295 -193.317)" fill="none" stroke="#914f46" stroke-linecap="round" stroke-linejoin="round" stroke-width="6"/>
        <path id="Path_2763" data-name="Path 2763" d="M760.4,842.654C762.11,793.09,768.947,776,794.584,776s23.927,66.654,23.927,66.654Z" transform="translate(-49.355 -193.317)" fill="none" stroke="#914f46" stroke-linecap="round" stroke-linejoin="round" stroke-width="6"/>
        <path id="Path_2764" data-name="Path 2764" d="M545.4,718.654C547.11,669.09,553.947,652,579.584,652s23.927,66.654,23.927,66.654Z" transform="translate(-65.493 -202.625)" fill="none" stroke="#914f46" stroke-linecap="round" stroke-linejoin="round" stroke-width="6"/>
        <path id="Path_2765" data-name="Path 2765" d="M470.4,718.654C472.11,669.09,478.947,652,504.584,652s23.927,66.654,23.927,66.654Z" transform="translate(-71.122 -202.625)" fill="none" stroke="#914f46" stroke-linecap="round" stroke-linejoin="round" stroke-width="6"/>
        <path id="Path_2766" data-name="Path 2766" d="M391.4,718.654C393.11,669.09,399.947,652,425.584,652s23.927,66.654,23.927,66.654Z" transform="translate(-77.052 -202.625)" fill="none" stroke="#914f46" stroke-linecap="round" stroke-linejoin="round" stroke-width="6"/>
        <path id="Path_2767" data-name="Path 2767" d="M483.4,623.654C485.11,574.09,491.947,557,517.584,557s23.927,66.654,23.927,66.654Z" transform="translate(-70.147 -209.755)" fill="none" stroke="#914f46" stroke-linecap="round" stroke-linejoin="round" stroke-width="6"/>
        <path id="Path_2768" data-name="Path 2768" d="M558.4,623.654C560.11,574.09,566.947,557,592.584,557s23.927,66.654,23.927,66.654Z" transform="translate(-64.517 -209.755)" fill="none" stroke="#914f46" stroke-linecap="round" stroke-linejoin="round" stroke-width="6"/>
        <path id="Path_2769" data-name="Path 2769" d="M404.4,623.654C406.11,574.09,412.947,557,438.583,557s23.927,66.654,23.927,66.654Z" transform="translate(-76.076 -209.755)" fill="none" stroke="#914f46" stroke-linecap="round" stroke-linejoin="round" stroke-width="6"/>
        <rect id="Rectangle_173" data-name="Rectangle 173" width="65" height="85" rx="14.004" transform="translate(133.28 714)" stroke-width="6" stroke="#914f46" stroke-linecap="round" stroke-linejoin="round" fill="none"/>
        <rect id="Rectangle_174" data-name="Rectangle 174" width="65" height="85" rx="13.646" transform="translate(237.28 714)" stroke-width="6" stroke="#914f46" stroke-linecap="round" stroke-linejoin="round" fill="none"/>
        <rect id="Rectangle_175" data-name="Rectangle 175" width="64" height="85" rx="13.735" transform="translate(530.28 714)" stroke-width="6" stroke="#914f46" stroke-linecap="round" stroke-linejoin="round" fill="none"/>
        <rect id="Rectangle_176" data-name="Rectangle 176" width="65" height="85" rx="12.116" transform="translate(634.28 714)" stroke-width="6" stroke="#914f46" stroke-linecap="round" stroke-linejoin="round" fill="none"/>
      </g>
    </g>
    <path id="Path_3716" data-name="Path 3716" d="M199.014,184.5c-25-22-89.516-41.875-117,7-34-19-65.167.03-86.018,29.746S9.015,301.5,9.015,301.5c-15,14-54.208,88.356,59,123-16.778,25.366-2.143,65.014,31.857,68.014,20.094,1.773,71.625,21.706,90.072-30.749,5.645,42.809,57.21,45.882,69.071,30.749.072-39.385,0-315.014,0-315.014S222.988,150.668,199.014,184.5Z" transform="translate(5211.466 -1433.398)" fill="#ffecb7"/>
    <path id="Path_3717" data-name="Path 3717" d="M572.343,257.5c16,7,70,30,95,18,14,48,63,43,79,41s43-27,43-27c5,27,67,19,67,19s38.552-7.086,46.78-39.91c32.133,11.775,60.22.91,70.22-11.09s24.159-41.868-2-59c41.942-33.754,2.876-69.909-52.534-64.934C988.561,118.145,956.343,45.5,945.343,48.5s-374,0-374,0Z" transform="translate(3910.138 -1469.398)" fill="#ffecb7"/>
  </g>
</svg>
