<svg xmlns="http://www.w3.org/2000/svg" xmlns:xlink="http://www.w3.org/1999/xlink" width="534" height="709" viewBox="0 0 534 709">
  <defs>
    <clipPath id="clip-path">
      <path id="Path_3754" data-name="Path 3754" d="M35,0H499a35,35,0,0,1,35,35V709H0V35A35,35,0,0,1,35,0Z" transform="translate(994 3309)" fill="#d6d6d6"/>
    </clipPath>
    <clipPath id="clip-path-2">
      <path id="Path_3728" data-name="Path 3728" d="M1330.474,491.9c10.246-28.229-7.46-61.3-29.813-80.176-13.136-19.4-34.295-32.923-57.063-42.243-33.3-13.631-69.162-19.034-104.785-22.463a27.792,27.792,0,0,0-11.935-2.975c-7.37-.181-14.748-.116-22.122.142-24.445-1.359-49.134-.478-72.024,8.111a34.688,34.688,0,0,0-5.574,2.7c-3.8.937-7.592,1.91-11.36,2.964a25.956,25.956,0,0,0-2.7.923,47.894,47.894,0,0,0-18.838,4.054c-23.5-1.316-44.173,11.644-57.854,30.065-.315.425-.575.873-.842,1.318a23.979,23.979,0,0,0-5.309.912c-11.076,3.281-20.132,9.425-28.393,17.38-2.893,2.787-5.574,5.784-8.426,8.612q-1.493,1.481-3.049,2.9c.15-.26-2.493,1.679-3.622,2.308-10.818,6.024-15.463,19.5-12.212,31.039a12.86,12.86,0,0,0-4.3,3.508c-20.855,26.594-13.776,59.133-10.819,90.333,2.971,31.347,4.271,64.036,16.375,93.5,3.7,9.008,11.987,15.408,22.2,12.6,8.524-2.343,16.328-13.127,12.6-22.2-10.093-24.572-11.948-50.8-14.428-76.954-1.3-13.731-2.719-27.458-3.89-41.2-.777-9.129-2.739-22.637,3.481-30.568a23.809,23.809,0,0,0,4.676-9.84,27.819,27.819,0,0,0,13.642-3.486,75.922,75.922,0,0,0,13.8-10.125,31.808,31.808,0,0,0,3.465-.538c33.2-7.216,67.259-5.446,100.538,4.636,1.867,6.286,6.01,11.706,12.055,15.886l.681.471a22.188,22.188,0,0,0,12.478,3.836c1.022.663,2.04,1.333,3.074,1.985a71.1,71.1,0,0,0,17.659,8.167c6.61,1.963,13.68,2.487,20.524,3.1,2.656.239,5.4.255,8.047.632-.555.039,4.749,1.406,1.735.121a42.162,42.162,0,0,0,8.658,2.681,246.086,246.086,0,0,1,4.354,24.357,25.008,25.008,0,0,0-3,6.757c-3.166,11.519-6.525,23.01-9.575,34.566a19.089,19.089,0,0,0-4.516,6.206,80.147,80.147,0,0,0-5.69,18.631,25.283,25.283,0,0,0-5.084,3.954,59.236,59.236,0,0,0-16.789,32.6c-.884,1.3-1.768,2.6-2.638,3.9a90.892,90.892,0,0,0-9.155,17.412c-.564.28-1.114.6-1.672.9a27.609,27.609,0,0,0-25.22.838c-12.811,6.868-24.637,14.617-33.356,26.465a47.006,47.006,0,0,0-8.21,18.066c-2.972,14.119,2,25.9,13.9,34.1a22.691,22.691,0,0,0,12.254,4.068c7.791,6.279,18.844,9.181,29.1,8.342,14.583-1.191,29.147-2.713,43.715-4.069,16.222-1.51,28.788-3.925,41.64-14.14a30.949,30.949,0,0,0,21.728.68c7.9-1.43,15.1-5.8,21.027-11.629a42.408,42.408,0,0,0,25.3,8.762A41.309,41.309,0,0,0,1238,708.551a78.266,78.266,0,0,0,19.889-4.362c16.807-6.31,42.791-25.87,48.9-46.263a24.057,24.057,0,0,0,8.14-8.712c7.294-13.432,8.679-27.554,6.862-42.493-.3-2.465-1.81-14.653-1.024-7.711-.289-2.552-.62-5.1-.766-7.667q-.162-2.488-.124-4.979c.258-1.065.513-2.129.745-3.2,8.2-14.179,9.611-28.225,10.044-44.366.406-15.113.057-30.223-.854-45.31C1330.029,492.955,1330.274,492.452,1330.474,491.9Z" transform="translate(-855.855 -343.672)" fill="#935a27"/>
    </clipPath>
    <clipPath id="clip-path-3">
      <path id="Path_3737" data-name="Path 3737" d="M1107.225,567.088c30.444-51.462-92.117-20.788-110.3-20.788-14.435,0-64.957,21.652-68.566,28.869s-28.869,32.478-21.652,54.13c3.423,10.271-1.8,30.674-27.065,41.5s-18.044,66.761-3.609,77.587,86.61,27.065,106.458-9.022,21.652-43.3,27.065-54.13,37.892-27.065,45.109-30.674S1097.866,582.908,1107.225,567.088Z" transform="translate(-862.925 -537.228)" fill="#914f46" stroke="#753f39" stroke-miterlimit="10" stroke-width="10.952"/>
    </clipPath>
    <clipPath id="clip-path-4">
      <path id="Path_3743" data-name="Path 3743" d="M947.314,96.671c.989,39.542-10.874,250.1-82.049,186.834s-32.622-97.865-55.358-107.751,30.645,137.407-11.862,197.708-136.418,11.862-132.464-23.725,12.851-208.582,17.794-222.421S947.314,96.671,947.314,96.671Z" transform="translate(-665.46 -96.671)" fill="#935a27" stroke="#914f46" stroke-miterlimit="10" stroke-width="12"/>
    </clipPath>
    <clipPath id="clip-path-5">
      <path id="Path_3747" data-name="Path 3747" d="M1181.43,82.671c-13.839,42.507-38.553,217.479,62.278,192.765S1325.757,227,1325.757,227L1247.662,82.671Z" transform="translate(-1168.325 -82.671)" fill="#935a27" stroke="#914f46" stroke-miterlimit="10" stroke-width="12"/>
    </clipPath>
    <clipPath id="clip-path-6">
      <path id="Path_3752" data-name="Path 3752" d="M641.582,873.663c73.152-3.954,240.951,7.853,228.352,65.244,36.576,0,117.636,7.908,117.636,27.679s-285.688,0-285.688,0Z" transform="translate(-641.582 -872.969)" fill="#935a27" stroke="#914f46" stroke-miterlimit="10" stroke-width="12"/>
    </clipPath>
  </defs>
  <g id="moelleuxafbeelding" transform="translate(-3970 -523)">
    <path id="Path_3720" data-name="Path 3720" d="M35,0H499a35,35,0,0,1,35,35V709H0V35A35,35,0,0,1,35,0Z" transform="translate(3970 523)" fill="#fad675"/>
    <g id="Mask_Group_23" data-name="Mask Group 23" transform="translate(2976 -2786)" clip-path="url(#clip-path)">
      <g id="Group_1303" data-name="Group 1303" transform="translate(328.929 3138.764)">
        <ellipse id="Ellipse_33" data-name="Ellipse 33" cx="586.478" cy="207.878" rx="586.478" ry="207.878" transform="translate(736.76 436.568)" fill="#ddd2cc" stroke="#914f46" stroke-miterlimit="10" stroke-width="12"/>
        <g id="Group_1296" data-name="Group 1296" transform="translate(853.399 340.68)">
          <g id="Group_1292" data-name="Group 1292">
            <path id="Path_3721" data-name="Path 3721" d="M1330.474,491.9c10.246-28.229-7.46-61.3-29.813-80.176-13.136-19.4-34.295-32.923-57.063-42.243-33.3-13.631-69.162-19.034-104.785-22.463a27.792,27.792,0,0,0-11.935-2.975c-7.37-.181-14.748-.116-22.122.142-24.445-1.359-49.134-.478-72.024,8.111a34.688,34.688,0,0,0-5.574,2.7c-3.8.937-7.592,1.91-11.36,2.964a25.956,25.956,0,0,0-2.7.923,47.894,47.894,0,0,0-18.838,4.054c-23.5-1.316-44.173,11.644-57.854,30.065-.315.425-.575.873-.842,1.318a23.979,23.979,0,0,0-5.309.912c-11.076,3.281-20.132,9.425-28.393,17.38-2.893,2.787-5.574,5.784-8.426,8.612q-1.493,1.481-3.049,2.9c.15-.26-2.493,1.679-3.622,2.308-10.818,6.024-15.463,19.5-12.212,31.039a12.86,12.86,0,0,0-4.3,3.508c-20.855,26.594-13.776,59.133-10.819,90.333,2.971,31.347,4.271,64.036,16.375,93.5,3.7,9.008,11.987,15.408,22.2,12.6,8.524-2.343,16.328-13.127,12.6-22.2-10.093-24.572-11.948-50.8-14.428-76.954-1.3-13.731-2.719-27.458-3.89-41.2-.777-9.129-2.739-22.637,3.481-30.568a23.809,23.809,0,0,0,4.676-9.84,27.819,27.819,0,0,0,13.642-3.486,75.922,75.922,0,0,0,13.8-10.125,31.808,31.808,0,0,0,3.465-.538c33.2-7.216,67.259-5.446,100.538,4.636,1.867,6.286,6.01,11.706,12.055,15.886l.681.471a22.188,22.188,0,0,0,12.478,3.836c1.022.663,2.04,1.333,3.074,1.985a71.1,71.1,0,0,0,17.659,8.167c6.61,1.963,13.68,2.487,20.524,3.1,2.656.239,5.4.255,8.047.632-.555.039,4.749,1.406,1.735.121a42.162,42.162,0,0,0,8.658,2.681,246.086,246.086,0,0,1,4.354,24.357,25.008,25.008,0,0,0-3,6.757c-3.166,11.519-6.525,23.01-9.575,34.566a19.089,19.089,0,0,0-4.516,6.206,80.147,80.147,0,0,0-5.69,18.631,25.283,25.283,0,0,0-5.084,3.954,59.236,59.236,0,0,0-16.789,32.6c-.884,1.3-1.768,2.6-2.638,3.9a90.892,90.892,0,0,0-9.155,17.412c-.564.28-1.114.6-1.672.9a27.609,27.609,0,0,0-25.22.838c-12.811,6.868-24.637,14.617-33.356,26.465a47.006,47.006,0,0,0-8.21,18.066c-2.972,14.119,2,25.9,13.9,34.1a22.691,22.691,0,0,0,12.254,4.068c7.791,6.279,18.844,9.181,29.1,8.342,14.583-1.191,29.147-2.713,43.715-4.069,16.222-1.51,28.788-3.925,41.64-14.14a30.949,30.949,0,0,0,21.728.68c7.9-1.43,15.1-5.8,21.027-11.629a42.408,42.408,0,0,0,25.3,8.762A41.309,41.309,0,0,0,1238,708.551a78.266,78.266,0,0,0,19.889-4.362c16.807-6.31,42.791-25.87,48.9-46.263a24.057,24.057,0,0,0,8.14-8.712c7.294-13.432,8.679-27.554,6.862-42.493-.3-2.465-1.81-14.653-1.024-7.711-.289-2.552-.62-5.1-.766-7.667q-.162-2.488-.124-4.979c.258-1.065.513-2.129.745-3.2,8.2-14.179,9.611-28.225,10.044-44.366.406-15.113.057-30.223-.854-45.31C1330.029,492.955,1330.274,492.452,1330.474,491.9Z" transform="translate(-855.855 -343.672)" fill="#935a27"/>
            <g id="Group_1291" data-name="Group 1291" clip-path="url(#clip-path-2)">
              <path id="Path_3722" data-name="Path 3722" d="M1248.546,715.6c21.653-59.544,62.789-167.905,31.4-178.681,54.494-41.4,80.475-21.6,80.475-21.6l-37.891,193.066Z" transform="translate(-860.356 -345.585)" fill="#6e441d"/>
              <path id="Path_3723" data-name="Path 3723" d="M1287.334,690.839c8.57-24.212,39.244-173.974,26.613-179.387S1346.426,488,1346.426,488l3.609,106.457-62.7,96.386" transform="translate(-860.8 -345.326)" fill="#4a2d14"/>
              <path id="Path_3724" data-name="Path 3724" d="M1281.013,535.42c5.413-21.652,39.7-131.718-19.848-153.371s95.631,14.436,95.631,14.436l-17.757,80.45-58.026,58.485" transform="translate(-860.344 -344.032)" fill="#6e441d"/>
              <path id="Path_3725" data-name="Path 3725" d="M1303.305,517.426c10.825-19.848,23.456-117.283,12.629-135.327s52.327,63.153,52.327,63.153l-64.957,72.174" transform="translate(-860.983 -344.082)" fill="#4a2d14"/>
              <path id="Path_3726" data-name="Path 3726" d="M991.341,726.451c19.691,8.214,21.495-9.83,32.321-24.265s43.3-36.088,52.326-39.7,23.457-63.152,23.457-63.152l-12.329,7.039-35.559,51.212-40.526,28.357-19.691,40.5" transform="translate(-857.408 -346.602)" fill="#6e441d"/>
              <path id="Path_3727" data-name="Path 3727" d="M1117.639,354.227C1061.7,330.771,872.246,422.793,863.224,509.4c-5.473,52.538-16.239-79.392-16.239-79.392l164.2-120.892Z" transform="translate(-855.753 -343.276)" fill="#be9c7d"/>
            </g>
          </g>
          <path id="Path_3729" data-name="Path 3729" d="M1098.415,503.312c-11.287,1.381-22.436.858-33.073-2.706a31.26,31.26,0,0,0-9.051-3.968q-1.435-1.575-2.942-3.017a20.033,20.033,0,0,0-8.108-13.012c-36.7-24.863-84.668-26.668-124.013-7.156a14.66,14.66,0,0,0-5.756,5.123,30.935,30.935,0,0,0-7,4.029c-6.561,4.953-10.89,12.414-10.565,20.794a21.72,21.72,0,0,0,1.619,7.255,22.9,22.9,0,0,0-.761,11.2c-.091,14.255-1.076,28.532-.275,42.765,5.009,89.058,19.512,23.035,30.8,12.758a107.7,107.7,0,0,1,37.566-22.2l25.258.633c5.614.14,10.385-2.78,13.621-6.988,16.626,2.182,33.5.076,50.833-2.806,4.178-.695,7.714-3.614,10.083-7.3a92,92,0,0,1,21.926,7.148c12.865,6.085,26-1.336,27.151-15.58l.724-8.923C1117.181,512.443,1107.564,502.192,1098.415,503.312Z" transform="translate(-856.337 -345.008)" fill="#5b322c"/>
          <g id="Group_1295" data-name="Group 1295" transform="translate(6.989 9.006)">
            <g id="Path_3730" data-name="Path 3730" transform="translate(-863.088 -352.782)" fill="none" stroke-linecap="round" stroke-linejoin="round">
              <path d="M878,473.816c-1.8,28.869-3.608,160.588,25.261,185.848s129.012,92.925,255.317,62.251,147.957-66.762,155.175-95.631,7.218-138.936,10.827-149.762,10.826-90.218-178.632-119.088S871.689,442.239,878,473.816Z" stroke="none"/>
              <path d="M 1086.7275390625 352.7822265625 C 938.79248046875 352.7809448242188 872.3896484375 445.74267578125 878.0037841796875 473.815673828125 C 876.1998291015625 502.68505859375 874.3956298828125 634.4037475585938 903.264892578125 659.6639404296875 C 926.9703369140625 680.4059448242188 998.743408203125 729.741455078125 1093.581420898438 729.741455078125 C 1114.24365234375 729.741455078125 1135.986572265625 727.4024658203125 1158.581665039062 721.9151611328125 C 1284.887084960938 691.24072265625 1306.5390625 655.1531982421875 1313.75634765625 626.283935546875 C 1320.974609375 597.4136962890625 1320.974609375 487.3477172851562 1324.583129882812 476.5223388671875 C 1328.192016601562 465.69580078125 1335.409423828125 386.3043212890625 1145.951049804688 357.43408203125 C 1124.928466796875 354.230712890625 1105.191528320312 352.7823486328125 1086.7275390625 352.7822265625 M 1086.724487304688 330.87890625 C 1086.724609375 330.87890625 1086.724731445312 330.87890625 1086.724731445312 330.87890625 C 1106.869873046875 330.8790893554688 1127.906616210938 332.5282592773438 1149.250610351562 335.7806396484375 C 1245.61279296875 350.4646606445312 1308.005126953125 380.0364379882812 1334.694458007812 423.674560546875 C 1348.953857421875 446.9891357421875 1349.554443359375 469.6766357421875 1345.662353515625 482.5059814453125 C 1344.7041015625 488.211669921875 1343.7783203125 511.4208374023438 1343.03125 530.15185546875 C 1341.166748046875 576.9002685546875 1339.391845703125 614.0540771484375 1335.005615234375 631.5968017578125 C 1325.791015625 668.4548950195312 1298.238525390625 710.5382080078125 1163.750854492188 743.1998291015625 C 1140.676147460938 748.8035888671875 1117.067749023438 751.6448364257812 1093.581420898438 751.6448364257812 C 978.448974609375 751.6448364257812 897.6729736328125 683.8753662109375 888.841552734375 676.14794921875 C 849.0322265625 641.3154296875 854.9886474609375 495.01220703125 856.01708984375 474.7650756835938 C 854.2386474609375 458.0144653320312 862.9969482421875 436.5796508789062 880.4559326171875 415.2833862304688 C 944.6622314453125 336.965576171875 1054.56884765625 330.87890625 1086.724487304688 330.87890625 Z" stroke="none" fill="#753f39"/>
            </g>
            <path id="Path_3731" data-name="Path 3731" d="M1130.816,577.089c23.456,1.8,162.965-7.764,206.885-108.535" transform="translate(-865.996 -354.109)" fill="none" stroke="#753f39" stroke-linecap="round" stroke-linejoin="round" stroke-width="21.903"/>
            <path id="Path_3732" data-name="Path 3732" d="M1012.284,674.064c20.915-.612,56.051-23.907,62.594-40.263,7.217-18.044,50.522-97.435,43.3-126.3-59.544,0-61.349-21.653-81.2-34.284s-63.153-19.848-88.414-12.631-54.13,21.208-54.13,36.088c0,28.869,0,111.87,12.631,117.283" transform="translate(-863.286 -353.985)" fill="none" stroke="#914f46" stroke-linejoin="round" stroke-width="10.952"/>
            <g id="Group_1294" data-name="Group 1294" transform="translate(0 182.332)">
              <path id="Path_3733" data-name="Path 3733" d="M1107.225,567.088c30.444-51.462-92.117-20.788-110.3-20.788-14.435,0-64.957,21.652-68.566,28.869s-28.869,32.478-21.652,54.13c3.423,10.271-1.8,30.674-27.065,41.5s-18.044,66.761-3.609,77.587,86.61,27.065,106.458-9.022,21.652-43.3,27.065-54.13,37.892-27.065,45.109-30.674S1097.866,582.908,1107.225,567.088Z" transform="translate(-862.925 -537.228)" fill="#914f46"/>
              <g id="Group_1293" data-name="Group 1293" clip-path="url(#clip-path-3)">
                <path id="Path_3734" data-name="Path 3734" d="M916.345,759.686c27.066-12.631,70.37-72.175,79.393-95.631s50.521-32.478,55.934-36.088,48.445-44.577,53.092-49.354-29.635,83.636-29.635,83.636L956.041,812.013l-39.7-52.326" transform="translate(-863.537 -537.7)" fill="#6d3b35"/>
                <path id="Path_3735" data-name="Path 3735" d="M856.108,740.747c14.435-34.283,23.457-63.152,45.109-79.392C849.286,637.57,856.108,740.747,856.108,740.747Z" transform="translate(-862.844 -538.61)" fill="#bd9590"/>
                <path id="Path_3736" data-name="Path 3736" d="M907.112,643.812c12.631-23.457,41.5-97.435,111.87-97.435-39.7-12.63-121.088,27.314-121.088,27.314l9.218,70.121" transform="translate(-863.326 -537.305)" fill="#bd9590"/>
              </g>
              <path id="Path_3738" data-name="Path 3738" d="M1107.225,567.088c30.444-51.462-92.117-20.788-110.3-20.788-14.435,0-64.957,21.652-68.566,28.869s-28.869,32.478-21.652,54.13c3.423,10.271-1.8,30.674-27.065,41.5s-18.044,66.761-3.609,77.587,86.61,27.065,106.458-9.022,21.652-43.3,27.065-54.13,37.892-27.065,45.109-30.674S1097.866,582.908,1107.225,567.088Z" transform="translate(-862.925 -537.228)" fill="none" stroke="#753f39" stroke-miterlimit="10" stroke-width="10.952"/>
            </g>
          </g>
        </g>
        <g id="Group_1298" data-name="Group 1298" transform="translate(631.186 131.511)">
          <path id="Path_3739" data-name="Path 3739" d="M947.314,96.671c.989,39.542-10.874,250.1-82.049,186.834s-32.622-97.865-55.358-107.751,30.645,137.407-11.862,197.708-136.418,11.862-132.464-23.725,12.851-208.582,17.794-222.421S947.314,96.671,947.314,96.671Z" transform="translate(-665.46 -96.671)" fill="#935a27"/>
          <g id="Group_1297" data-name="Group 1297" clip-path="url(#clip-path-4)">
            <path id="Path_3740" data-name="Path 3740" d="M702.582,395.623c41.519-5.931,109.728-59.312,114.67-86s-4.943,78.095-4.943,78.095l-48.438,32.622-32.622-4.943Z" transform="translate(-665.885 -99.062)" fill="#be9c7d"/>
            <path id="Path_3741" data-name="Path 3741" d="M670.3,308.932c34.063-79.112,169.213-188.99,202.176-193.385S706.557,71.6,703.26,72.694s-62.631,212.065-62.631,212.065Z" transform="translate(-665.175 -96.396)" fill="#6e441d"/>
            <path id="Path_3742" data-name="Path 3742" d="M661.075,281.637c25.02-53.3,106.82-159.972,140.327-171.873s-140.327,9.79-140.327,9.79l-18.493,48.951Z" transform="translate(-665.197 -96.78)" fill="#4a2d14"/>
          </g>
          <path id="Path_3744" data-name="Path 3744" d="M947.314,96.671c.989,39.542-10.874,250.1-82.049,186.834s-32.622-97.865-55.358-107.751,30.645,137.407-11.862,197.708-136.418,11.862-132.464-23.725,12.851-208.582,17.794-222.421S947.314,96.671,947.314,96.671Z" transform="translate(-665.46 -96.671)" fill="none" stroke="#914f46" stroke-miterlimit="10" stroke-width="12"/>
        </g>
        <g id="Group_1300" data-name="Group 1300" transform="translate(1084.288 110.671)">
          <path id="Path_3745" data-name="Path 3745" d="M1181.43,82.671c-13.839,42.507-38.553,217.479,62.278,192.765S1325.757,227,1325.757,227L1247.662,82.671Z" transform="translate(-1168.325 -82.671)" fill="#935a27"/>
          <g id="Group_1299" data-name="Group 1299" transform="translate(0)" clip-path="url(#clip-path-5)">
            <path id="Path_3746" data-name="Path 3746" d="M1146.536,160.671c15.817,41.519,101.82,135.43,145.315,139.384-86,5.931-122.579-4.943-123.567-9.885s-25.7-77.106-25.7-84.026S1146.536,160.671,1146.536,160.671Z" transform="translate(-1168.03 -83.565)" fill="#be9c7d"/>
          </g>
          <path id="Path_3748" data-name="Path 3748" d="M1181.43,82.671c-13.839,42.507-38.553,217.479,62.278,192.765S1325.757,227,1325.757,227L1247.662,82.671Z" transform="translate(-1168.325 -82.671)" fill="none" stroke="#914f46" stroke-miterlimit="10" stroke-width="12"/>
        </g>
        <g id="Group_1302" data-name="Group 1302" transform="translate(588.582 787.911)">
          <path id="Path_3749" data-name="Path 3749" d="M641.582,873.663c73.152-3.954,240.951,7.853,228.352,65.244,36.576,0,117.636,7.908,117.636,27.679s-285.688,0-285.688,0Z" transform="translate(-641.582 -872.969)" fill="#935a27"/>
          <g id="Group_1301" data-name="Group 1301" clip-path="url(#clip-path-6)">
            <path id="Path_3750" data-name="Path 3750" d="M683.582,865.487c39.542,18.782,182.88,46.461,199.685,76.118,20.759-34.6-7.908-69.2-7.908-69.2S820,856.59,807.149,850.659,683.582,865.487,683.582,865.487Z" transform="translate(-642.063 -872.701)" fill="#be9c7d"/>
            <path id="Path_3751" data-name="Path 3751" d="M896.582,924.51c28.668,14.828,36.494,34.6,53.341,37.07s65.284,14.334,65.284,14.334l-18.782-27.679-86.991-37.565Z" transform="translate(-644.505 -873.401)" fill="#be9c7d"/>
          </g>
          <path id="Path_3753" data-name="Path 3753" d="M641.582,873.663c73.152-3.954,240.951,7.853,228.352,65.244,36.576,0,117.636,7.908,117.636,27.679s-285.688,0-285.688,0Z" transform="translate(-641.582 -872.969)" fill="none" stroke="#914f46" stroke-miterlimit="10" stroke-width="12"/>
        </g>
      </g>
    </g>
  </g>
</svg>
