<svg xmlns="http://www.w3.org/2000/svg" xmlns:xlink="http://www.w3.org/1999/xlink" width="518" height="459" viewBox="0 0 518 459">
  <defs>
    <clipPath id="clip-path">
      <path id="Rectangle_201" data-name="Rectangle 201" d="M35,0H483a35,35,0,0,1,35,35V388a0,0,0,0,1,0,0H0a0,0,0,0,1,0,0V35A35,35,0,0,1,35,0Z" transform="translate(858 670)" fill="#b5b5b5"/>
    </clipPath>
    <clipPath id="clip-path-2">
      <path id="Path_3508" data-name="Path 3508" d="M1530.208,731.686l25.477-70.153a7.372,7.372,0,0,0-4.982-9.469l-24.564-3.938a5.99,5.99,0,0,0-6.868,5l-10.983,71.521,16.425,9.168A3.825,3.825,0,0,0,1530.208,731.686Z" fill="#935a27" stroke="#753f39" stroke-linecap="round" stroke-linejoin="round" stroke-width="10"/>
    </clipPath>
    <clipPath id="clip-path-3">
      <path id="Path_3518" data-name="Path 3518" d="M1143.93,794.166a3.761,3.761,0,0,1,1.035-1.611l.169-.131a7.4,7.4,0,0,1,.333-1.172,6.7,6.7,0,0,1,.185-2.707,5.514,5.514,0,0,1,1.06-1.955,42.68,42.68,0,0,1,2-5.788c.1-.246.221-.492.329-.741l.026-.091c0-.05.006-.094.007-.118a9.826,9.826,0,0,1,1.43-4.782,5.238,5.238,0,0,1,.465-.588c.553-2.41,1.2-4.815,1.856-7.188a212.942,212.942,0,0,0,6.992-38.474c.741-8.653,1.464-17.348,5.813-24.5l.135-2.107a5.816,5.816,0,0,1,.66-2.287c.1-.613.182-1.232.264-1.845a4.189,4.189,0,0,1-.55-2.293c.153-2.687.394-5.367.639-8.047a5.046,5.046,0,0,1,.132-5.95c1.628-2.107,4.137-2.32,6.455-1.288l1.134.5a4.435,4.435,0,0,1,1.963,2.11c.144.1.287.212.433.314a36.43,36.43,0,0,0,9.39,4.626c5.492,1.9,11.18,3.149,16.647,5.121,2.276.82,7.578.551,7.134,3.034,6.509,2.669,8.483,1.134,15.014,2.5,7.506,0,12.348.936,20.017,2.5,2.656.542,5.249-2.234,7.548-1.046a139.959,139.959,0,0,0,14.118.509c7.674-.179,14.266-.542,21.653,2.179.655.241,1.289.521,1.911.819l1.862.062a16.765,16.765,0,0,1,11.533-2.063c1.388-.275,3.268-.455,4.334-.671,4.213-.851,8.6-.754,12.871-.894a139.631,139.631,0,0,0,21.483-2.258c10.847-2.006,21.725-2.81,32.569-4.414a19.131,19.131,0,0,1,4.47-2.178,31.584,31.584,0,0,1,11.667-1.643,18.678,18.678,0,0,1,8.283-2.831,10.157,10.157,0,0,1,2.6-1.21,64.133,64.133,0,0,1,8.545-3.188c10.119-3.3,19.867-6.862,29.086-12.318a21.429,21.429,0,0,0,5.613-4.329,12.94,12.94,0,0,1,2.444-2.648c1.849-1.232,4.053-.653,5.761-2.207,1.361-1.239,1.955-3.147,3.886-3.7a5.175,5.175,0,0,1,5.821,2.325,12.83,12.83,0,0,1,1.207,3.681c2.066,9.288,6.109,17.582,8.942,26.592,1.171,3.722,1.754,7.634,3.5,11.187,1.666,3.4,3.56,6.743,4.195,10.52.138.824.22,1.693.288,2.581a4.232,4.232,0,0,1,.981,1.889c.676,3.113,1.483,6.152,2.4,9.14.13.242.25.493.359.751q.717,1.705,1.425,3.406c.136.288.253.575.365.873,2.255,5.4,4.528,10.769,7.052,16.07a4.546,4.546,0,0,1,1.745,3.76c-.021,8.425,2.78,17.007,4.774,25.136,1.012,4.122,2.163,8.2,3.269,12.3a37.98,37.98,0,0,1,1.087,5.438,11.493,11.493,0,0,1,.256,3.056.511.511,0,0,0-.007.154c2.553.409,4.7,2.128,4.7,4.948a5.175,5.175,0,0,1-4.314,4.982,3.451,3.451,0,0,1-1.569.69c-3.648.527-7.293,1.1-10.954,1.538a40.522,40.522,0,0,1-8.179.184c-5.842.989-11.7,1.907-17.549,2.844a4.726,4.726,0,0,1-2.54.6l-1.162-.04a4.648,4.648,0,0,1-2.525-.843,15.425,15.425,0,0,1-2.448,1.02,18.135,18.135,0,0,1-5.986.5c-3.89-.188-7.821-.58-11.707-.1s-7.666,1.479-11.584,1.186a15.274,15.274,0,0,1-5.288.843,43.7,43.7,0,0,1-6.283-.674c-.2.04-.391.088-.593.114a181.6,181.6,0,0,1-31.48,1.111,5.253,5.253,0,0,1-2.356.624c-6.628.228-13.529-.063-20.1.862a6.113,6.113,0,0,1-4.314-.878c-9.772,1.031-18.585.771-28.594.771-2.2,0-4.981,2.785-6.141,1-16.067-.875-32.147.294-48.224-.8a5.173,5.173,0,0,1-2.2-.644,120.461,120.461,0,0,1-12.059.6c-6.188.2-12.246,1.2-18.466,1a85.1,85.1,0,0,1-11.377-1.141c-3.564-.6-7.091-1.9-10.715-1.956-3.988-.062-7.731.454-11.723-.106s-7.963-1.2-11.974-1.626a101.353,101.353,0,0,0-10.346-1.047,7.329,7.329,0,0,1-1.523.384l-.216.028a4.521,4.521,0,0,1-3.789-1.816c-7.447.137-14.946-.61-21.186-4.627l-2.563-.782c-1.062-.324-2.183-.621-3.242-1.035a4.791,4.791,0,0,1-2.559-.652,6.533,6.533,0,0,1-.808-.619,6.892,6.892,0,0,1-2.4-1.2l-1.314-.176a5,5,0,0,1-2.208-1.287l-.179-.179a4.838,4.838,0,0,1-1.035-5.467Z" fill="#d84955"/>
    </clipPath>
    <clipPath id="clip-path-4">
      <path id="Path_3542" data-name="Path 3542" d="M1327.672,861.36c13.975-.069,33-2.327,46.943-1.319,2.026.147,13.109-1.184,18.114-1.184,14.729,2.33,3.06,8.009,2.5,7.507,3.879-1.694,2.5,3.57,2.5,7.506,0,7.507-6.007,3.219-7.506,12.511-.08.494-4.925,4.512-5.005,5.005-1.193,7.4-5.445,10.1-12.511,10.009-4-.051-3.6,1.978-7.506,2.5-.147.076-4.853-2.576-5.005-2.5-10.593,5.164-.253.594-12.51-2.5-5.363-1.355-6.559,4.777-8.27-.546-5.532-.391-11.893-7.25-14.25-11.965C1320.166,876.373,1311.173,861.441,1327.672,861.36Z" fill="#f2bea0"/>
    </clipPath>
    <clipPath id="clip-path-5">
      <path id="Path_3558" data-name="Path 3558" d="M1128.68,767.407q.037-9.583.614-19.152a5.668,5.668,0,0,1,.118-.8,153.047,153.047,0,0,1,.3-31.8,221.138,221.138,0,0,1,1.548-50.956,213.079,213.079,0,0,1,5.991-27.881c-2.229-6.79,1.047-14.324,2.863-20.856,2.092-7.521,4.207-15.036,6.273-22.564a164.314,164.314,0,0,0,4.254-22.317,123.073,123.073,0,0,1,5.13-21.866c7.8-24.092,19.124-48.632,39.584-64.542,6.357-4.944,10.013-12.557,17.215-16.156,5.862-2.931,16.136-7.516,22.519-7.507,4.17-1,5.719.1,10.009,0,6.99-1.536,10.446-1.371,17.515-2.5a5.315,5.315,0,0,1,2.5,0c.1-.069,2.406.069,2.5,0,1.044-.744,4.032-.128,5,0,.561-.29-.6-2.292,0-2.5.636-2.035,5.728-.042,7.943-.012,16.055.223,31.058-1.966,47.1-2.49,7.834-.257,17.189-2.236,25.022-2.5,4.106-.139,7.736,3.358,11.831,3.007,4.059-.348,8.118-1.289,12.2-1.032a4.852,4.852,0,0,1,3.923,2.268c11.435.213,22.825.051,34.071,2.8,1.96.479.155-1.021.529.46-.388-5.281,2.387-.027,2.5,0h0c.855-.067,1.786-.416,2.5,0,2.262.532,5.244,1.97,7.506,2.5,1.639.386,3.3,3.231,4.883,3.823,1.521.569,3.859.2,5.126,1.181,1.339,1.038,1.065-.9,2.5,0,2.088,1.3,5.532,3.532,7.507,5.005.77.574,1.754,1.9,2.5,2.5,1.351,1.087-1.3-1.143,0,0,.04.035,2.462,2.468,2.5,2.5,2.3,2.022,7.868,2.818,10.009,5.005,2.745,2.8,4.972,7.013,7.507,10.008s5.108,6.889,7.506,10.009,5.181,6.838,7.507,10.009c.371.506-.371,4.5,0,5,.017.024,4.416,3.573,2.5,2.5,3.685,4.205,2.377,5.3,4.409,10.8,2.3,6.236,3.532,12.921,5.1,19.369l5.3,21.825A4.694,4.694,0,0,1,1501,575.5c.189,1.348.406,2.691.57,4.045a4.559,4.559,0,0,1-2.612,4.323,142,142,0,0,1-.415,16.4,5.637,5.637,0,0,1-.5,1.906q.939,21.148.384,42.329a5.446,5.446,0,0,1-.18,1.238c.112,1.212.213,2.425.34,3.636a4.246,4.246,0,0,1-1.442,3.494q.87,14.883,2.624,29.707a4.576,4.576,0,0,1-2.661,4.347c.118,4.93.2,9.86.146,14.784-.034,3.29-.289,6.566-.376,9.853-.079,2.955,3.017,5.043,2,7.744-3.559,9.436,1.29,13.048-.011,19.442a4.188,4.188,0,0,1-4.3,3.583c-2.461.677-5.628-.831-6.156-3.495a183.262,183.262,0,0,0-4.644-19.607c-.808-2.567-1.644-5.093-2.428-7.628a6.3,6.3,0,0,1-1.5-2.286c-2.153-5.626-4.524-11.168-5.842-17.061-1.326-5.93-4.157-11.079-5.827-16.9-.87-3.033-1.763-6.06-2.644-9.092a3.455,3.455,0,0,1-1.142-1.35,31.113,31.113,0,0,0-2.537-4.173,13.446,13.446,0,0,1-2.222-6.793,4.051,4.051,0,0,1,.056-.6,3.484,3.484,0,0,1-.489-1.3c-.181-1.267-.277-2.525-.406-3.787a5.222,5.222,0,0,1-2.241-4.118,65.032,65.032,0,0,1,2.252-20.735,4.939,4.939,0,0,1-1.082-3.459,143.02,143.02,0,0,1,.821-23.454,6.661,6.661,0,0,1,.225-1.115c0-.169,0-.337,0-.505a4.854,4.854,0,0,1,.833-2.794q-.025-5.965-.05-11.932c0-.069.021-.122.023-.19a4.594,4.594,0,0,1-.624-4.005l.117-.284c.039-.1.092-.18.134-.273a108.044,108.044,0,0,1-2.361-10.683c-.206-1.505-.355-3.01-.477-4.515a134.486,134.486,0,0,1-2.156-21.151c-.049-2.524-5.877-7.446-3.912-7.984l-10.009-7.506c-.276-2.474-12-4.449-10.008-5.005-4.188-4.829-4.869-3.685-10.009-7.506-.308-.1-7.2-2.4-7.507-2.5-6.345-2.059,2.667,4.377-2.5,0-1.162-.984-5.177-1.016-5-2.5-.188-.1-7.318.1-7.507,0-.553.192-36.521-.922-5-2.5,1.656-.083,6.649.158,5,0-.377.01-17.869,4.571-7.506,0-9.055-.969,3.973-.944-5.005-2.5-1.155-.2,1.159.168,0,0,1.373,3.055,2.445,2.706-1.814,2.426-14.618-.959-29.1-3.26-43.564-5.568-5.7.785-11.405,1.3-17.158,1.8-3.569.313-9.108-2.231-12.529-1.163-3.318,1.036-3.986,2.589-7.507,2.5-2.391-.059-5.963,1.516-8.479,1.788l-2.185.684c-2.937,1.463-5.332,3.176-8.863,1.94a5.165,5.165,0,0,1-3.414-5.957c-1-.185-1.992-.4-2.971-.684-.085-.024-.16-.066-.241-.1q-2.317.756-4.659,1.43a25.99,25.99,0,0,1-5.4,3.78,5.09,5.09,0,0,1-5.963-.842c-3.311.8-6.628,1.579-9.929,2.424-9.29,2.376-18.237,6.569-27.626,8.549a53.649,53.649,0,0,0-8.388,6.625,213.9,213.9,0,0,0-14.683,17.6c-.624.8-1.216,1.624-1.833,2.43a193.3,193.3,0,0,0-9.269,18.457c-1.511,13.964-6.384,26.905-11.669,39.727a4.421,4.421,0,0,1,2.448,5.592c-3.454,11.034-7.378,22.085-10.519,33.3a4.52,4.52,0,0,1,.494,2.578c-.719,8.513-1.234,17.118-1.919,25.705a4.966,4.966,0,0,1,1.517,5.031,74.741,74.741,0,0,0-2.549,11.789,3.853,3.853,0,0,1,.078,2.986c-.238.567-.41,1.143-.59,1.718-.167,1.218-.394,2.423-.6,3.632a22.491,22.491,0,0,1-.058,5.084,36.85,36.85,0,0,0-.5,5.4,4.831,4.831,0,0,1-.784,2.722q-.108,1.2-.217,2.4a6.264,6.264,0,0,1-.314,1.425c-.093.905-.149,1.818-.253,2.721-.378,3.273-1.338,6.417-1.739,9.678a89.69,89.69,0,0,0-.605,11.015,4.527,4.527,0,0,1-2.034,3.955,34.1,34.1,0,0,0-.791,3.876,92.57,92.57,0,0,1-2.024,10.126c-.268,1.05-.586,2.085-.89,3.124a59.7,59.7,0,0,0-.209,9.951,5.034,5.034,0,0,1-1.465,3.538,5.174,5.174,0,0,1-1.419.967q-.585,3.75-1.235,7.49a4.156,4.156,0,0,1-1.861,2.677c-.589,2.755-1.212,5.522-1.98,8.235-.351,1.562-.741,3.116-1.191,4.654a4.985,4.985,0,0,1-.478,1.083c-.582,2.63-1.238,5.243-1.905,7.853a4.8,4.8,0,0,1-2.166,2.858c-.305,1-.632,2-1.017,2.973-.992,2.512-3.35,4.266-6.156,3.5a5.11,5.11,0,0,1-3.495-6.156,19.771,19.771,0,0,0,.264-2.208,5.129,5.129,0,0,1-.479-3.743c.182-.7.408-1.395.613-2.093,0-.366,0-.748.005-1.1q.051-4.433.1-8.866a51.666,51.666,0,0,0-1.546-6.8A36.182,36.182,0,0,1,1128.68,767.407Z" fill="#ffc"/>
    </clipPath>
    <clipPath id="clip-path-6">
      <path id="Path_3591" data-name="Path 3591" d="M1446.526,524.816c5.635,3.586-1.809,24.3-7.277,32.17a2.767,2.767,0,0,1-4.522-.071c-12.915-17.817-56.265-24.467-65.769-22.09-10.009,2.5-10.009-12.511-5-25.022S1419,507.3,1446.526,524.816Z" fill="#ffc" stroke="#914f46" stroke-miterlimit="10" stroke-width="3.753"/>
    </clipPath>
    <clipPath id="clip-path-7">
      <path id="Path_3597" data-name="Path 3597" d="M1197.846,523.005c-5.785,3.338.755,24.351,5.876,32.455a2.767,2.767,0,0,0,4.521.125c13.675-17.241,57.272-22.005,66.664-19.219,9.891,2.933,10.542-12.066,6.084-24.782S1226.1,506.7,1197.846,523.005Z" fill="#ffc" stroke="#914f46" stroke-miterlimit="10" stroke-width="3.753"/>
    </clipPath>
  </defs>
  <g id="Group_1244" data-name="Group 1244" transform="translate(766 -191)">
    <path id="Rectangle_199" data-name="Rectangle 199" d="M0,0H518a0,0,0,0,1,0,0V37a35,35,0,0,1-35,35H35A35,35,0,0,1,0,37V0A0,0,0,0,1,0,0Z" transform="translate(-766 578)" fill="#f29aa1"/>
    <g id="Mask_Group_20" data-name="Mask Group 20" transform="translate(-1624 -479)" clip-path="url(#clip-path)">
      <rect id="Rectangle_200" data-name="Rectangle 200" width="518" height="388" transform="translate(858 670)" fill="#fad675"/>
      <g id="Group_1243" data-name="Group 1243" transform="translate(-250.731 289.572)">
        <g id="Group_1214" data-name="Group 1214">
          <g id="Group_1213" data-name="Group 1213">
            <path id="Path_3504" data-name="Path 3504" d="M1530.208,731.686l25.477-70.153a7.372,7.372,0,0,0-4.982-9.469l-24.564-3.938a5.99,5.99,0,0,0-6.868,5l-10.983,71.521,16.425,9.168A3.825,3.825,0,0,0,1530.208,731.686Z" fill="#935a27"/>
            <g id="Group_1212" data-name="Group 1212" clip-path="url(#clip-path-2)">
              <path id="Path_3505" data-name="Path 3505" d="M1550.687,706.671c-11-48-22-65-23-69s28.393,10.378,28.393,10.378l9.607,8.622-10,40Z" fill="#be9c7d"/>
              <path id="Path_3506" data-name="Path 3506" d="M1546.687,738.671c-11-21-26-44-31-77s-19,76-19,76Z" fill="#6e441d"/>
              <path id="Path_3507" data-name="Path 3507" d="M1540.687,762.671c-30-55-38-83-38-83l-11,52,55,42" fill="#4a2d14"/>
            </g>
            <path id="Path_3509" data-name="Path 3509" d="M1530.208,731.686l25.477-70.153a7.372,7.372,0,0,0-4.982-9.469l-24.564-3.938a5.99,5.99,0,0,0-6.868,5l-10.983,71.521,16.425,9.168A3.825,3.825,0,0,0,1530.208,731.686Z" fill="none" stroke="#753f39" stroke-linecap="round" stroke-linejoin="round" stroke-width="10"/>
          </g>
          <path id="Path_3510" data-name="Path 3510" d="M1523.069,649.126c-5.28-19.36-7.04-109.122,38.721-151.363,45.315-41.829,76.823,113.1-4.607,158.846" fill="none" stroke="#753f39" stroke-linecap="round" stroke-linejoin="round" stroke-width="7"/>
          <path id="Path_3511" data-name="Path 3511" d="M1553.36,652.671c16.294-21.936,70.008-80.053,25.849-161.83-41.654,24.353-48.792,125.9-48.554,156.8" fill="none" stroke="#753f39" stroke-linecap="round" stroke-linejoin="round" stroke-width="7"/>
          <path id="Path_3512" data-name="Path 3512" d="M1545.639,650.248c13.83-31.517,47.9-123.585,32.871-158.645-23.665,37.188-37.078,128.134-37.532,156.447" fill="none" stroke="#753f39" stroke-linecap="round" stroke-linejoin="round" stroke-width="7"/>
        </g>
        <path id="Path_3513" data-name="Path 3513" d="M1115.544,853.053a61.715,61.715,0,0,0,4.64-8.019c1.312-2.619,3.326-4.295,5.145-6.5a13.214,13.214,0,0,0,1.993-3.538,5.6,5.6,0,0,1,.146-.791,43.19,43.19,0,0,1,2.929-7.4c.962-1.919.086-3.411,2.1-2.973-.458-.593,2.5-.439,2.251-1.292a6.386,6.386,0,0,1-.234-1.746c0-.121.027-.244.035-.365a3.641,3.641,0,0,1-.119-1.082,43.729,43.729,0,0,1,2.313-11.513,5.437,5.437,0,0,1,2.107-2.849,5.609,5.609,0,0,1,2.79-5.286c3.668-2.093,8,.5,8.646,4.4.528.149.985.282,1.078.3q2.971.682,5.944,1.36c1.906.436,3.808.9,5.723,1.3,1.823.381,3.653.4,5.5.633a30.023,30.023,0,0,1,6.031,1.728,19.288,19.288,0,0,0,5.2.717,22.652,22.652,0,0,1,9.209,2.936c7.31-1.143,14.314.391,21.559,1.579,7.361,1.207,14.836-.24,22.15,1.424a4.655,4.655,0,0,1,1.092.46,43.339,43.339,0,0,1,7.059-.662c6.6.011,13.158,1.132,19.77.747a4.181,4.181,0,0,1,1.89.342c4.292.136,8.573.578,12.858.827,1.228-.112,2.461-.187,3.655-.3,1.046-.1,2.049-.188,3.022-.2,1.487-.3,2.977-.559,4.471-.727,8.4-.946,16.864-.337,25.24.633a21.067,21.067,0,0,1,2.634-.073,29.092,29.092,0,0,1,6.01,1.006c.351.089.712.194,1.079.3l.022,0,9.112-2.245a5.144,5.144,0,0,1,1.974-.106,24.98,24.98,0,0,1,6.562.273c.517.078,1.051.214,1.572.243-1.377-.078.383.026.638.042a18.632,18.632,0,0,0,2.892-.1,36.615,36.615,0,0,1,6.013.229c.388.026.777.044,1.165.036.128,0,.255-.014.383-.022l.115-.023a6.283,6.283,0,0,1,5,.58c2.557-.216,5.116-.411,7.679-.461,1.6-.031,3.19.048,4.78.154a4.592,4.592,0,0,1,4.213-2.5c8.26-.1,16.756-.764,24.977.2,7.616.9,15.614,1.591,22.981-1.066a4.67,4.67,0,0,1,4.641,1.128l6.473-.458a5.785,5.785,0,0,1,1.829-1.027c4.056-1.392,8.5-1.651,12.73-2.225a33.392,33.392,0,0,1,7.341-.418,13.807,13.807,0,0,1,5.634,1.486c2.7-.468,5.4-.931,8.107-1.312,3.921-.552,8.155-1.514,12.046-.971,4.135-.672,8.263-1.423,12.4-2.024,6.9-1,14.214-3.063,20.833-.01,2.74,1.264,3.014,4,1.92,6.184a6.956,6.956,0,0,1-1.825,6.468,5.738,5.738,0,0,1,.149.6A18.031,18.031,0,0,1,1521.64,832a4.442,4.442,0,0,1,.1,1.422,11.868,11.868,0,0,1,.759,2.087,4.589,4.589,0,0,1,.094.618,4.894,4.894,0,0,1,4.425,3.619,14.785,14.785,0,0,1,.29,3.6,4.312,4.312,0,0,1-1.1,4.458,7.91,7.91,0,0,1-4.549,4.157,8.439,8.439,0,0,1-6.256-.231,5.1,5.1,0,0,1-1.554.705,29.217,29.217,0,0,1-12.24.57q-7.788,1.847-15.7,2.98c-.089.027-.164.066-.257.089a117.935,117.935,0,0,1-12.8,2.439,5.162,5.162,0,0,1-3.456,3.534l-1.371.451a4.779,4.779,0,0,1-3.931-.581c-.252-.038-.5-.063-.755-.1-.754-.121-1.506-.26-2.257-.4-.97-.181-.03-.067-.9-.122a25.354,25.354,0,0,0-3.738.032c-.273.024-.545.055-.817.086-.056.01-.221.036-.514.079-.621.115-1.243.221-1.861.345-1.5.3-3,.643-4.511.969a17.233,17.233,0,0,1-3.527.79,16.9,16.9,0,0,1-5.157.845,20.32,20.32,0,0,1-2.959-.464,6.18,6.18,0,0,1-1.417-.341,36.941,36.941,0,0,0-6.074-1.239c-.644-.052-1.288-.1-1.932-.145a4.476,4.476,0,0,1-3.574,1.414q-6.13-.171-12.262-.318a4.973,4.973,0,0,1-2.134.519h-.617a3.773,3.773,0,0,1-1.928-.431,3.814,3.814,0,0,1-.443-.21c-15.65-.346-31.3-.488-46.953.052-10.264.354-20.583.883-30.842.126-5.48-.4-14.686-.767-19.624-4.743a21.186,21.186,0,0,1-3.719.166,71.484,71.484,0,0,0-8.529.2,5.015,5.015,0,0,1,.372.959c.666,2.426-.822,5.673-3.495,6.156a42.642,42.642,0,0,1-12.652.59c-1.394-.163-2.848-.5-4.31-.783a5.98,5.98,0,0,1-1.542.314,36.673,36.673,0,0,1-6.39-.142,5.843,5.843,0,0,1-1.739-.47c-3.24-.012-6.49.2-9.734.453a7.192,7.192,0,0,1-1.025.191c-5.642.618-11.263,1.44-16.954,1.285-5.016-.136-10.036-.513-15.048-.766a5.328,5.328,0,0,1-2.135-.543,4.957,4.957,0,0,1-1.889.995c-4.213,1.163-8.444.712-12.741.415l-13.065-.9c-4.271-.295-8.511-.706-12.778-.17a41.683,41.683,0,0,1-7.67.172,5.555,5.555,0,0,1-3.737-.27c-.489-.043-.967-.081-1.468-.125-1.662-.147-3.486.061-5.154-.24-2.813,1.6-6.873,1.429-9.89,1.677a50.19,50.19,0,0,1-13.161-.482c-3.853-.7-7.526-2.789-11.428-3.118-4.041-.342-7.843,2.189-11.988,2.034-2.926-.11-4.7-2.221-5-5.005C1112.069,858.029,1113.787,855.549,1115.544,853.053Z" fill="#fcdee2"/>
        <g id="Group_1216" data-name="Group 1216">
          <path id="Path_3514" data-name="Path 3514" d="M1143.93,794.166a3.761,3.761,0,0,1,1.035-1.611l.169-.131a7.4,7.4,0,0,1,.333-1.172,6.7,6.7,0,0,1,.185-2.707,5.514,5.514,0,0,1,1.06-1.955,42.68,42.68,0,0,1,2-5.788c.1-.246.221-.492.329-.741l.026-.091c0-.05.006-.094.007-.118a9.826,9.826,0,0,1,1.43-4.782,5.238,5.238,0,0,1,.465-.588c.553-2.41,1.2-4.815,1.856-7.188a212.942,212.942,0,0,0,6.992-38.474c.741-8.653,1.464-17.348,5.813-24.5l.135-2.107a5.816,5.816,0,0,1,.66-2.287c.1-.613.182-1.232.264-1.845a4.189,4.189,0,0,1-.55-2.293c.153-2.687.394-5.367.639-8.047a5.046,5.046,0,0,1,.132-5.95c1.628-2.107,4.137-2.32,6.455-1.288l1.134.5a4.435,4.435,0,0,1,1.963,2.11c.144.1.287.212.433.314a36.43,36.43,0,0,0,9.39,4.626c5.492,1.9,11.18,3.149,16.647,5.121,2.276.82,7.578.551,7.134,3.034,6.509,2.669,8.483,1.134,15.014,2.5,7.506,0,12.348.936,20.017,2.5,2.656.542,5.249-2.234,7.548-1.046a139.959,139.959,0,0,0,14.118.509c7.674-.179,14.266-.542,21.653,2.179.655.241,1.289.521,1.911.819l1.862.062a16.765,16.765,0,0,1,11.533-2.063c1.388-.275,3.268-.455,4.334-.671,4.213-.851,8.6-.754,12.871-.894a139.631,139.631,0,0,0,21.483-2.258c10.847-2.006,21.725-2.81,32.569-4.414a19.131,19.131,0,0,1,4.47-2.178,31.584,31.584,0,0,1,11.667-1.643,18.678,18.678,0,0,1,8.283-2.831,10.157,10.157,0,0,1,2.6-1.21,64.133,64.133,0,0,1,8.545-3.188c10.119-3.3,19.867-6.862,29.086-12.318a21.429,21.429,0,0,0,5.613-4.329,12.94,12.94,0,0,1,2.444-2.648c1.849-1.232,4.053-.653,5.761-2.207,1.361-1.239,1.955-3.147,3.886-3.7a5.175,5.175,0,0,1,5.821,2.325,12.83,12.83,0,0,1,1.207,3.681c2.066,9.288,6.109,17.582,8.942,26.592,1.171,3.722,1.754,7.634,3.5,11.187,1.666,3.4,3.56,6.743,4.195,10.52.138.824.22,1.693.288,2.581a4.232,4.232,0,0,1,.981,1.889c.676,3.113,1.483,6.152,2.4,9.14.13.242.25.493.359.751q.717,1.705,1.425,3.406c.136.288.253.575.365.873,2.255,5.4,4.528,10.769,7.052,16.07a4.546,4.546,0,0,1,1.745,3.76c-.021,8.425,2.78,17.007,4.774,25.136,1.012,4.122,2.163,8.2,3.269,12.3a37.98,37.98,0,0,1,1.087,5.438,11.493,11.493,0,0,1,.256,3.056.511.511,0,0,0-.007.154c2.553.409,4.7,2.128,4.7,4.948a5.175,5.175,0,0,1-4.314,4.982,3.451,3.451,0,0,1-1.569.69c-3.648.527-7.293,1.1-10.954,1.538a40.522,40.522,0,0,1-8.179.184c-5.842.989-11.7,1.907-17.549,2.844a4.726,4.726,0,0,1-2.54.6l-1.162-.04a4.648,4.648,0,0,1-2.525-.843,15.425,15.425,0,0,1-2.448,1.02,18.135,18.135,0,0,1-5.986.5c-3.89-.188-7.821-.58-11.707-.1s-7.666,1.479-11.584,1.186a15.274,15.274,0,0,1-5.288.843,43.7,43.7,0,0,1-6.283-.674c-.2.04-.391.088-.593.114a181.6,181.6,0,0,1-31.48,1.111,5.253,5.253,0,0,1-2.356.624c-6.628.228-13.529-.063-20.1.862a6.113,6.113,0,0,1-4.314-.878c-9.772,1.031-18.585.771-28.594.771-2.2,0-4.981,2.785-6.141,1-16.067-.875-32.147.294-48.224-.8a5.173,5.173,0,0,1-2.2-.644,120.461,120.461,0,0,1-12.059.6c-6.188.2-12.246,1.2-18.466,1a85.1,85.1,0,0,1-11.377-1.141c-3.564-.6-7.091-1.9-10.715-1.956-3.988-.062-7.731.454-11.723-.106s-7.963-1.2-11.974-1.626a101.353,101.353,0,0,0-10.346-1.047,7.329,7.329,0,0,1-1.523.384l-.216.028a4.521,4.521,0,0,1-3.789-1.816c-7.447.137-14.946-.61-21.186-4.627l-2.563-.782c-1.062-.324-2.183-.621-3.242-1.035a4.791,4.791,0,0,1-2.559-.652,6.533,6.533,0,0,1-.808-.619,6.892,6.892,0,0,1-2.4-1.2l-1.314-.176a5,5,0,0,1-2.208-1.287l-.179-.179a4.838,4.838,0,0,1-1.035-5.467Z" fill="#d84955"/>
          <g id="Group_1215" data-name="Group 1215" clip-path="url(#clip-path-3)">
            <path id="Path_3515" data-name="Path 3515" d="M1181.162,686.155c.124,2.674,20.825,6.618,23.253,10.478-22.857,20.69-34.324,118.705-28.515,121.115l-23.235-9.64" fill="#a23740"/>
            <path id="Path_3516" data-name="Path 3516" d="M1169.551,680.922c.122,2.6,18.349,6.525,20.5,10.289a33.668,33.668,0,0,0-5.712,8.711c-.6,1.209-1.2,2.48-1.795,3.8-14.681,32.449-21.461,103.087-17.053,105.126l-20.481-9.474" fill="#6c252b"/>
            <path id="Path_3517" data-name="Path 3517" d="M1463.6,656.175c.118,3.343-27.24,10.438-30.086,15.5,32.878,23.348,58.717,144.173,51.179,147.786l30.15-14.454" fill="#efb6bb"/>
          </g>
        </g>
        <g id="Group_1234" data-name="Group 1234">
          <g id="Group_1233" data-name="Group 1233">
            <g id="Group_1217" data-name="Group 1217">
              <path id="Path_3519" data-name="Path 3519" d="M1309.907,762.807c0-66.45,21.266-57.59,21.266,0Z" fill="#ffc"/>
            </g>
            <g id="Group_1218" data-name="Group 1218">
              <path id="Path_3520" data-name="Path 3520" d="M1310.827,758.482c27.027-60.705,42.851-43.961,19.427,8.65Z" fill="#ffc"/>
            </g>
            <g id="Group_1219" data-name="Group 1219">
              <path id="Path_3521" data-name="Path 3521" d="M1313.425,754.905c49.382-44.463,57.027-22.731,14.23,15.8Z" fill="#ffc"/>
            </g>
            <g id="Group_1220" data-name="Group 1220">
              <path id="Path_3522" data-name="Path 3522" d="M1317.254,752.694c63.2-20.534,61.343,2.429,6.572,20.225Z" fill="#ffc"/>
            </g>
            <g id="Group_1221" data-name="Group 1221">
              <path id="Path_3523" data-name="Path 3523" d="M1321.652,752.232c66.085,6.946,55.051,27.169-2.223,21.15Z" fill="#ffc"/>
            </g>
            <g id="Group_1222" data-name="Group 1222">
              <path id="Path_3524" data-name="Path 3524" d="M1325.857,753.6c57.547,33.224,39.241,47.211-10.633,18.416Z" fill="#ffc"/>
            </g>
            <g id="Group_1223" data-name="Group 1223">
              <path id="Path_3525" data-name="Path 3525" d="M1329.142,756.557c39.059,53.759,16.646,59.091-17.2,12.5Z" fill="#ffc"/>
            </g>
            <g id="Group_1224" data-name="Group 1224">
              <path id="Path_3526" data-name="Path 3526" d="M1330.941,760.6c13.815,65-8.828,60.753-20.8,4.422Z" fill="#ffc"/>
            </g>
            <g id="Group_1225" data-name="Group 1225">
              <path id="Path_3527" data-name="Path 3527" d="M1330.941,765.018c-13.816,65-32.775,51.91-20.8-4.422Z" fill="#ffc"/>
            </g>
            <g id="Group_1226" data-name="Group 1226">
              <path id="Path_3528" data-name="Path 3528" d="M1329.142,769.057c-39.058,53.759-51.054,34.091-17.2-12.5Z" fill="#ffc"/>
            </g>
            <g id="Group_1227" data-name="Group 1227">
              <path id="Path_3529" data-name="Path 3529" d="M1325.857,772.015c-57.548,33.225-60.508,10.378-10.633-18.416Z" fill="#ffc"/>
            </g>
            <g id="Group_1228" data-name="Group 1228">
              <path id="Path_3530" data-name="Path 3530" d="M1321.652,773.382c-66.086,6.945-59.5-15.13-2.223-21.15Z" fill="#ffc"/>
            </g>
            <g id="Group_1229" data-name="Group 1229">
              <path id="Path_3531" data-name="Path 3531" d="M1317.254,772.919c-63.2-20.534-48.2-38.021,6.572-20.225Z" fill="#ffc"/>
            </g>
            <g id="Group_1230" data-name="Group 1230">
              <path id="Path_3532" data-name="Path 3532" d="M1313.425,770.709c-49.381-44.464-28.568-54.339,14.23-15.8Z" fill="#ffc"/>
            </g>
            <g id="Group_1231" data-name="Group 1231">
              <path id="Path_3533" data-name="Path 3533" d="M1310.827,767.132c-27.028-60.705-4-61.261,19.427-8.65Z" fill="#ffc"/>
            </g>
            <g id="Group_1232" data-name="Group 1232">
              <path id="Path_3534" data-name="Path 3534" d="M1309.907,762.807c0-66.45,21.266-57.59,21.266,0Z" fill="#ffc"/>
            </g>
          </g>
          <ellipse id="Ellipse_527" data-name="Ellipse 527" cx="16.634" cy="19.96" rx="16.634" ry="19.96" transform="translate(1304.363 742.847)" fill="#914f46"/>
        </g>
        <path id="Path_3535" data-name="Path 3535" d="M1167.532,656.18c-.147-1.568-.425-15.814,0-17.515,5.005-20.017,5.866-23.353,10.009-42.537a182.173,182.173,0,0,1,7.507-25.022c0-2.63,2.007-5.045,2.5-7.506,3.443-17.1,17.463-31.818,32.528-40.035,27.524-15.013,64.575-23.1,100.088-25.022,39.562-2.137,74.59,3.4,110.661,21.01,17.551,8.568,25.725,25,27.053,43.9,1.13,16.078-.035,32.252-.125,48.431.031,4.266.5,8.128.031,11.772-.2,1.564.256,3.605,0,5,2.091,1.951-1.471,4.662-.486,8.08,2.019,7,.486,11.938,2.988,16.942-7.507,10.009-26.37,20.006-42.537,27.524-13.472,6.265-23.008,7.547-37.533,10.009-15.5,2.627-34.408,8.445-50.044,10.009-25.022,2.5-52.546,0-75.065,0-4.9,0-12.245,1.375-15.013-2.5-10.279.09-18.7-3.894-28.884-5.475-7.461,2.58-26.164-7.036-33.671-9.538-11.567-3.856-11.782-.1-12.511-7.507C1164.2,667.734,1167.532,661.185,1167.532,656.18Z" fill="#f2bea0"/>
        <path id="Path_3536" data-name="Path 3536" d="M1501.828,715.035c-9.19,5.3,1.428,8.828,8.51,15.9,8.85,5.3,3.553,21.229,16.277,8.854C1542.773,724.073,1517.782,699.06,1501.828,715.035Z" fill="#f2bea0"/>
        <path id="Path_3537" data-name="Path 3537" d="M1205.65,781.836l7.838-1.084c2.284-.524,2.243-1.108,4.486-2.217,2.257.262,3.7-1.317,5.595.025,2.039,1.236-1.6-1.112-.47.931,1.5,1.856,1.176,4.5,1.553,6.907.091,1.511-2.359,5.193-2.268,6.7-2.243,1.109-2.817-.344-4.486,2.218-.99,1.145-2.388,3.315-3.378,4.46-2.413,2.124-4.686.456-7.838,1.084-.226.031-3.126-1.166-3.352-1.135a9.187,9.187,0,0,1-5.595-.025c-2.257-.262.783-.9-1.109-2.243-2.038-1.235.019-.2-1.108-2.243-1.5-1.856-4.084-.967-4.461-3.378l-.5-3.769c.23-3.05-2.226-7.1-.557-9.664.99-1.146.12,3.389,1.109,2.243C1193.326,785.136,1202.5,782.463,1205.65,781.836Z" fill="#f2bea0"/>
        <g id="Group_1236" data-name="Group 1236">
          <path id="Path_3538" data-name="Path 3538" d="M1327.672,861.36c13.975-.069,33-2.327,46.943-1.319,2.026.147,13.109-1.184,18.114-1.184,14.729,2.33,3.06,8.009,2.5,7.507,3.879-1.694,2.5,3.57,2.5,7.506,0,7.507-6.007,3.219-7.506,12.511-.08.494-4.925,4.512-5.005,5.005-1.193,7.4-5.445,10.1-12.511,10.009-4-.051-3.6,1.978-7.506,2.5-.147.076-4.853-2.576-5.005-2.5-10.593,5.164-.253.594-12.51-2.5-5.363-1.355-6.559,4.777-8.27-.546-5.532-.391-11.893-7.25-14.25-11.965C1320.166,876.373,1311.173,861.441,1327.672,861.36Z" fill="#f2bea0"/>
          <g id="Group_1235" data-name="Group 1235" clip-path="url(#clip-path-4)">
            <path id="Path_3539" data-name="Path 3539" d="M1400.235,856.355c1.813,9.131.95,31.32-29,44.249,0,0,13.245-23.066,9.112-42.812s10.092-5.281,10.092-5.281" fill="#ffe5dc"/>
            <path id="Path_3540" data-name="Path 3540" d="M1317.077,865.226c1.742,9.145,3.211,36.63,35.827,37.392,0,0-19.163-21.4-22.73-41.258s-13.1,3.866-13.1,3.866" fill="#c19781"/>
            <path id="Path_3541" data-name="Path 3541" d="M1328.378,862.95c1.742,9.145-3.3,37.682,29.32,38.445,0,0-14.417-17.475-17.984-37.33s-11.336-1.115-11.336-1.115" fill="#d3a590"/>
          </g>
        </g>
        <path id="Path_3543" data-name="Path 3543" d="M1205.065,878.875c1.992-5.3-1.209-9.084,5-10.009,12.013-1.789,25.022,0,37.533-2.5,12.626,1.813,22.52,0,32.529,2.5,17.515-5,7.506,12.511,5,25.022-.737,3.686-3.04,4.912-6.5,6.016a17.375,17.375,0,0,1-5.634,4.5c-14.526,7.533-34.27,9-50.421,4.495C1208.769,905.05,1199.257,894.343,1205.065,878.875Z" fill="#f2bea0"/>
        <path id="Path_3544" data-name="Path 3544" d="M1304.437,431.083c.2-.62-2.275-4.65-1.787-5.1,0-2.5,1.882.2,2.5,0,.6-.314,3.17,2,3.859,2.027l1.33.179a5.015,5.015,0,0,1,1.439.693c1.025-.127,2.536,1.481,3.381,2.105s1.113-.193,1.8.563c.3.032.665-.039.888.178a5.222,5.222,0,0,0,5.291,1.284,5.726,5.726,0,0,1,2.143-2.475,5.874,5.874,0,0,1,.745-.371l.228-.54a5,5,0,0,1,1.15-1.3c.066-.139.106-.289.176-.425a8.967,8.967,0,0,1,1.016-1.374,5.837,5.837,0,0,1,1.305-1.084,4.314,4.314,0,0,1,1.33-.574q.05-.01.1-.018l.013,0c.506-.21.759-1.393,1.328-1.372.924-1.549,2.038.134,2.8,1.744a5.512,5.512,0,0,1,2.116,2.144,7.4,7.4,0,0,1,.569,1.415c.057.292.114.616.153.943l2.337,1.684c.666.322-1.056,1.653-.471,2.079.234.17,2.837-.627,3.054-.435a5.226,5.226,0,0,1,1.621-.424,3.767,3.767,0,0,1,1.688-.886l.61-.082c.314-.425.618-.859.955-1.265.775-.933,2.468-1.008,3.539-1.466,1.044-.446,5.2-3.869,6.048-2.948.876.953-2.442,6.173-2.5,7.506-.062,1.4,0,2.5-.008,3.985,0,.025-.031.04-.047.059a27.022,27.022,0,0,0-1.966,2.978c-.228.406-.464.812-.732,1.194a12.809,12.809,0,0,1-3.414,7.264,6.4,6.4,0,0,1-7.711,1.358,5.713,5.713,0,0,1-2.471-2.807c-.27.047-.542.088-.812.133-.05.034-.086.06-.158.106-.394.253-.778.5-1.151.785a4.337,4.337,0,0,1-5.131-.145c-.082,0-.164.014-.245.017-.358.014-.709-.015-1.064-.018a8.881,8.881,0,0,1-1.669.4,15.855,15.855,0,0,1-5.585-.389,6.792,6.792,0,0,1-1.744.7,11.114,11.114,0,0,1-2.631.252c-.057,0-.115,0-.173,0a4.231,4.231,0,0,1-.88.431,6.365,6.365,0,0,1-3.99.312,5.97,5.97,0,0,1-2.947-1.5,6.179,6.179,0,0,1-1.486-3.036,26.95,26.95,0,0,1-3.086-4.8,5.342,5.342,0,0,1-.35-3.953c-.088-.076-.189-.128-.273-.211q-.391-.506-.782-1.013a4.979,4.979,0,0,1-.684-2.525v-.058A3.773,3.773,0,0,1,1304.437,431.083Z" fill="#f9cc52"/>
        <path id="Path_3545" data-name="Path 3545" d="M1373.346,635.6a5.158,5.158,0,0,1,6.514-.506c.391-.031.786-.051,1.176-.09,1.309-.128,2.623-.282,3.785-.453q4.621-.681,9.181-1.71c2.933-.666,5.84-1.707,8.814-2.141a21.187,21.187,0,0,1,4-.132c.466.018.946.04,1.418.013l.014-.005c-.01-.026.109-.116.377-.28,1.555-1.178,3.769-.822,5.357.263a9.666,9.666,0,0,1,1.326.046c4.02.424,7.23,2.743,10.279,5.226,1.756,1.43,1.74,4.236.782,6.064a5.42,5.42,0,0,1-2.506,2.332,4.945,4.945,0,0,1-1.106.637,5.867,5.867,0,0,1-1.705.426c-.011.019-.016.039-.026.058a5.835,5.835,0,0,1-2.887,2.5,7.436,7.436,0,0,1-4.505.4,6.377,6.377,0,0,1-.922.1c-.1,0-.2-.016-.3-.021a20.9,20.9,0,0,1-10.442,2.326,26.47,26.47,0,0,1-10.373-2.222l-2.182-.114a20.184,20.184,0,0,1-7.379-1.389,5.865,5.865,0,0,1-3.118-.637l-1.013-.782a5.108,5.108,0,0,1-.5-.646,6.676,6.676,0,0,1-4.063-2.185A5.13,5.13,0,0,1,1373.346,635.6Z" fill="#d84955" opacity="0.75"/>
        <path id="Path_3546" data-name="Path 3546" d="M1221.042,636.449c-.241.028.386-.588.555-.92,1.076-2.113,3.533-2.66,5.651-2.3,3.471.59,6.91,1.328,10.308,2.252,1.631.444,3.242.94,4.854,1.449.16.051.606.2.936.3,1.594-1.235,3.987-1.7,5.632-.452a9.224,9.224,0,0,0,3.632,1.749,12.359,12.359,0,0,0,4.3-.9c3.555-1.488,7.447-2.958,11.114-.778,4.284,2.546,2.8,7.813-.378,10.493a21.4,21.4,0,0,1-9.9,4.4,82.374,82.374,0,0,1-21.362.96c-6.889-.575-15.771-2.333-19.658-8.721C1214.559,640.427,1217.464,636.873,1221.042,636.449Z" fill="#d84955" opacity="0.75"/>
        <path id="Path_3547" data-name="Path 3547" d="M1167.532,681.2s5.005-112.6,30.026-140.122c17.944-40.307,35.031-15.013,30.027-12.511-25.321,12.66-50.044,102.59-42.537,160.14C1177.541,691.211,1167.532,681.2,1167.532,681.2Z" fill="#c19781" opacity="0.53"/>
        <path id="Path_3548" data-name="Path 3548" d="M1182.315,684.2s1.031-112.7,25.067-141.094c16.511-40.914,34.479-16.239,29.566-13.562-24.858,13.546-46.4,104.291-36.864,161.541C1192.67,693.849,1182.315,684.2,1182.315,684.2Z" fill="#d3a590" opacity="0.53"/>
        <path id="Path_3549" data-name="Path 3549" d="M1459.195,659.188s8.6-113.1-21.107-141.74c-15.333-23.909-34.011-17.2-29.175-14.384,4.326,2.517,8.372,7.618,12.04,14.626a100.34,100.34,0,0,1,4.5,10.01c14.065,36.014,20.632,100.919,12.313,143.494C1445.1,674.165,1459.195,659.188,1459.195,659.188Z" fill="#ffe5dc"/>
        <path id="Path_3550" data-name="Path 3550" d="M1227.585,868.866s-10.009,35.031,0,40.035-12.511-2.5-12.511-2.5,3.777-39.431,3.139-38.482S1227.585,868.866,1227.585,868.866Z" fill="#d3a590"/>
        <path id="Path_3551" data-name="Path 3551" d="M1287.532,867.415s-.385,28.5-8.9,32.489-19.024,8.752-19.024,8.752,10.606-7.546,13.013-14.768c2.5-7.507,4.547-25.642,4.547-25.642l10.361-.831" fill="#ffe5dc"/>
        <path id="Path_3552" data-name="Path 3552" d="M1212.288,902.041s-10.709-8.112-7.715-13.137,7.715-20.66,7.715-20.66l7.386-.829s-7.1,36.482.4,38.984c8.3,2.767-7.79-4.358-7.79-4.358" fill="#c19781"/>
        <path id="Path_3553" data-name="Path 3553" d="M1337.681,673.7q-15.014,11.259-30.026,0" fill="none" stroke="#914f46" stroke-linecap="round" stroke-miterlimit="10" stroke-width="3.753"/>
        <g id="Group_1238" data-name="Group 1238">
          <path id="Path_3554" data-name="Path 3554" d="M1128.68,767.407q.037-9.583.614-19.152a5.668,5.668,0,0,1,.118-.8,153.047,153.047,0,0,1,.3-31.8,221.138,221.138,0,0,1,1.548-50.956,213.079,213.079,0,0,1,5.991-27.881c-2.229-6.79,1.047-14.324,2.863-20.856,2.092-7.521,4.207-15.036,6.273-22.564a164.314,164.314,0,0,0,4.254-22.317,123.073,123.073,0,0,1,5.13-21.866c7.8-24.092,19.124-48.632,39.584-64.542,6.357-4.944,10.013-12.557,17.215-16.156,5.862-2.931,16.136-7.516,22.519-7.507,4.17-1,5.719.1,10.009,0,6.99-1.536,10.446-1.371,17.515-2.5a5.315,5.315,0,0,1,2.5,0c.1-.069,2.406.069,2.5,0,1.044-.744,4.032-.128,5,0,.561-.29-.6-2.292,0-2.5.636-2.035,5.728-.042,7.943-.012,16.055.223,31.058-1.966,47.1-2.49,7.834-.257,17.189-2.236,25.022-2.5,4.106-.139,7.736,3.358,11.831,3.007,4.059-.348,8.118-1.289,12.2-1.032a4.852,4.852,0,0,1,3.923,2.268c11.435.213,22.825.051,34.071,2.8,1.96.479.155-1.021.529.46-.388-5.281,2.387-.027,2.5,0h0c.855-.067,1.786-.416,2.5,0,2.262.532,5.244,1.97,7.506,2.5,1.639.386,3.3,3.231,4.883,3.823,1.521.569,3.859.2,5.126,1.181,1.339,1.038,1.065-.9,2.5,0,2.088,1.3,5.532,3.532,7.507,5.005.77.574,1.754,1.9,2.5,2.5,1.351,1.087-1.3-1.143,0,0,.04.035,2.462,2.468,2.5,2.5,2.3,2.022,7.868,2.818,10.009,5.005,2.745,2.8,4.972,7.013,7.507,10.008s5.108,6.889,7.506,10.009,5.181,6.838,7.507,10.009c.371.506-.371,4.5,0,5,.017.024,4.416,3.573,2.5,2.5,3.685,4.205,2.377,5.3,4.409,10.8,2.3,6.236,3.532,12.921,5.1,19.369l5.3,21.825A4.694,4.694,0,0,1,1501,575.5c.189,1.348.406,2.691.57,4.045a4.559,4.559,0,0,1-2.612,4.323,142,142,0,0,1-.415,16.4,5.637,5.637,0,0,1-.5,1.906q.939,21.148.384,42.329a5.446,5.446,0,0,1-.18,1.238c.112,1.212.213,2.425.34,3.636a4.246,4.246,0,0,1-1.442,3.494q.87,14.883,2.624,29.707a4.576,4.576,0,0,1-2.661,4.347c.118,4.93.2,9.86.146,14.784-.034,3.29-.289,6.566-.376,9.853-.079,2.955,3.017,5.043,2,7.744-3.559,9.436,1.29,13.048-.011,19.442a4.188,4.188,0,0,1-4.3,3.583c-2.461.677-5.628-.831-6.156-3.495a183.262,183.262,0,0,0-4.644-19.607c-.808-2.567-1.644-5.093-2.428-7.628a6.3,6.3,0,0,1-1.5-2.286c-2.153-5.626-4.524-11.168-5.842-17.061-1.326-5.93-4.157-11.079-5.827-16.9-.87-3.033-1.763-6.06-2.644-9.092a3.455,3.455,0,0,1-1.142-1.35,31.113,31.113,0,0,0-2.537-4.173,13.446,13.446,0,0,1-2.222-6.793,4.051,4.051,0,0,1,.056-.6,3.484,3.484,0,0,1-.489-1.3c-.181-1.267-.277-2.525-.406-3.787a5.222,5.222,0,0,1-2.241-4.118,65.032,65.032,0,0,1,2.252-20.735,4.939,4.939,0,0,1-1.082-3.459,143.02,143.02,0,0,1,.821-23.454,6.661,6.661,0,0,1,.225-1.115c0-.169,0-.337,0-.505a4.854,4.854,0,0,1,.833-2.794q-.025-5.965-.05-11.932c0-.069.021-.122.023-.19a4.594,4.594,0,0,1-.624-4.005l.117-.284c.039-.1.092-.18.134-.273a108.044,108.044,0,0,1-2.361-10.683c-.206-1.505-.355-3.01-.477-4.515a134.486,134.486,0,0,1-2.156-21.151c-.049-2.524-5.877-7.446-3.912-7.984l-10.009-7.506c-.276-2.474-12-4.449-10.008-5.005-4.188-4.829-4.869-3.685-10.009-7.506-.308-.1-7.2-2.4-7.507-2.5-6.345-2.059,2.667,4.377-2.5,0-1.162-.984-5.177-1.016-5-2.5-.188-.1-7.318.1-7.507,0-.553.192-36.521-.922-5-2.5,1.656-.083,6.649.158,5,0-.377.01-17.869,4.571-7.506,0-9.055-.969,3.973-.944-5.005-2.5-1.155-.2,1.159.168,0,0,1.373,3.055,2.445,2.706-1.814,2.426-14.618-.959-29.1-3.26-43.564-5.568-5.7.785-11.405,1.3-17.158,1.8-3.569.313-9.108-2.231-12.529-1.163-3.318,1.036-3.986,2.589-7.507,2.5-2.391-.059-5.963,1.516-8.479,1.788l-2.185.684c-2.937,1.463-5.332,3.176-8.863,1.94a5.165,5.165,0,0,1-3.414-5.957c-1-.185-1.992-.4-2.971-.684-.085-.024-.16-.066-.241-.1q-2.317.756-4.659,1.43a25.99,25.99,0,0,1-5.4,3.78,5.09,5.09,0,0,1-5.963-.842c-3.311.8-6.628,1.579-9.929,2.424-9.29,2.376-18.237,6.569-27.626,8.549a53.649,53.649,0,0,0-8.388,6.625,213.9,213.9,0,0,0-14.683,17.6c-.624.8-1.216,1.624-1.833,2.43a193.3,193.3,0,0,0-9.269,18.457c-1.511,13.964-6.384,26.905-11.669,39.727a4.421,4.421,0,0,1,2.448,5.592c-3.454,11.034-7.378,22.085-10.519,33.3a4.52,4.52,0,0,1,.494,2.578c-.719,8.513-1.234,17.118-1.919,25.705a4.966,4.966,0,0,1,1.517,5.031,74.741,74.741,0,0,0-2.549,11.789,3.853,3.853,0,0,1,.078,2.986c-.238.567-.41,1.143-.59,1.718-.167,1.218-.394,2.423-.6,3.632a22.491,22.491,0,0,1-.058,5.084,36.85,36.85,0,0,0-.5,5.4,4.831,4.831,0,0,1-.784,2.722q-.108,1.2-.217,2.4a6.264,6.264,0,0,1-.314,1.425c-.093.905-.149,1.818-.253,2.721-.378,3.273-1.338,6.417-1.739,9.678a89.69,89.69,0,0,0-.605,11.015,4.527,4.527,0,0,1-2.034,3.955,34.1,34.1,0,0,0-.791,3.876,92.57,92.57,0,0,1-2.024,10.126c-.268,1.05-.586,2.085-.89,3.124a59.7,59.7,0,0,0-.209,9.951,5.034,5.034,0,0,1-1.465,3.538,5.174,5.174,0,0,1-1.419.967q-.585,3.75-1.235,7.49a4.156,4.156,0,0,1-1.861,2.677c-.589,2.755-1.212,5.522-1.98,8.235-.351,1.562-.741,3.116-1.191,4.654a4.985,4.985,0,0,1-.478,1.083c-.582,2.63-1.238,5.243-1.905,7.853a4.8,4.8,0,0,1-2.166,2.858c-.305,1-.632,2-1.017,2.973-.992,2.512-3.35,4.266-6.156,3.5a5.11,5.11,0,0,1-3.495-6.156,19.771,19.771,0,0,0,.264-2.208,5.129,5.129,0,0,1-.479-3.743c.182-.7.408-1.395.613-2.093,0-.366,0-.748.005-1.1q.051-4.433.1-8.866a51.666,51.666,0,0,0-1.546-6.8A36.182,36.182,0,0,1,1128.68,767.407Z" fill="#ffc"/>
          <g id="Group_1237" data-name="Group 1237" clip-path="url(#clip-path-5)">
            <path id="Path_3555" data-name="Path 3555" d="M1135.828,780.247l14.718-57.1c-7.286-7.415,35.791-230.578,70.229-239.922,30.925-8.392,49.823-32.809,49.824-31.854s-65.468-.666-65.468-.666l-41.924,82.544-39.89,174.436Z" fill="#fffda4"/>
            <path id="Path_3556" data-name="Path 3556" d="M1495.318,741.255l-3.885-.354s-11.128-227.345-36.15-247.362-44.771-39.425-44.9-38.479,64.923,8.452,64.923,8.452l30.026,87.577-10.009,190.166Z" fill="#fffff5"/>
            <path id="Path_3557" data-name="Path 3557" d="M1119.991,783.792l14.717-57.1c-7.285-7.416,35.792-230.579,70.229-239.923,30.925-8.391,49.823-32.808,49.824-31.853s-65.467-.667-65.467-.667l-41.924,82.545-39.89,174.436Z" fill="#fffc99"/>
          </g>
        </g>
        <path id="Path_3559" data-name="Path 3559" d="M1235.091,703.722c4.913,2.677,91.986,31.193,130.114,15.013s37.533-30.026,37.533-30.026-75.074,17.957-87.577,17.515S1235.091,703.722,1235.091,703.722Z" fill="#a23740" opacity="0.45"/>
        <path id="Path_3560" data-name="Path 3560" d="M1234.913,703.341c4.913,2.677,91.905,20.772,130.033,4.593s33.568-20.157,33.568-20.157-76.079,18.655-88.582,18.214Z" fill="#6c252b" opacity="0.45"/>
        <path id="Path_3561" data-name="Path 3561" d="M1371.46,638.665c0,6.231,12.311,11.26,27.524,11.26s27.524-5.029,27.524-11.26c0-4.415-6.162-8.219-15.158-10.066a2.553,2.553,0,0,0-1.626.215,61.682,61.682,0,0,1-27,6.1,63.475,63.475,0,0,1-7.9-.492,2.33,2.33,0,0,0-2.151.931A5.525,5.525,0,0,0,1371.46,638.665Z" fill="none" stroke="#d84955" stroke-miterlimit="10" stroke-width="2.502" opacity="0.8"/>
        <path id="Path_3562" data-name="Path 3562" d="M1510.878,805.329c-59.348,12.242-346.634,22.6-368.135-7.6" fill="none" stroke="#914f46" stroke-miterlimit="10" stroke-width="3.753"/>
        <path id="Path_3563" data-name="Path 3563" d="M1216.325,641.167c0,6.231,12.311,11.26,27.524,11.26s27.524-5.029,27.524-11.26a5.94,5.94,0,0,0-1.838-4.058,5.024,5.024,0,0,0-4.832-1.383,63.015,63.015,0,0,1-14.6,1.688,62.2,62.2,0,0,1-21.357-3.714,8.217,8.217,0,0,0-6.587.537C1218.507,636.144,1216.325,638.554,1216.325,641.167Z" fill="none" stroke="#d84955" stroke-miterlimit="10" stroke-width="2.502" opacity="0.8"/>
        <path id="Path_3564" data-name="Path 3564" d="M1167.532,681.2c2.5,17.516-18.766,111.348-31.277,131.365l-2.5,5" fill="none" stroke="#914f46" stroke-miterlimit="10" stroke-width="3.753"/>
        <path id="Path_3565" data-name="Path 3565" d="M1350.192,449.75H1310.1l-8.915-25.82,20.017,10.009,12.511-12.511,7.507,12.511,17.515-10.009-7.506,22.52Z" fill="none" stroke="#914f46" stroke-miterlimit="10" stroke-width="3.753"/>
        <path id="Path_3566" data-name="Path 3566" d="M1495.747,752.407s-28.776-76.269-36.71-102.482" fill="none" stroke="#914f46" stroke-miterlimit="10" stroke-width="3.753"/>
        <line id="Line_81" data-name="Line 81" x1="45.039" transform="translate(1243.849 867.615)" fill="none" stroke="#914f46" stroke-linecap="round" stroke-miterlimit="10" stroke-width="3.753"/>
        <line id="Line_82" data-name="Line 82" x1="36.282" transform="translate(1301.399 862.611)" fill="none" stroke="#914f46" stroke-linecap="round" stroke-miterlimit="10" stroke-width="3.753"/>
        <line id="Line_83" data-name="Line 83" x1="45.039" transform="translate(1351.443 862.611)" fill="none" stroke="#914f46" stroke-linecap="round" stroke-miterlimit="10" stroke-width="3.753"/>
        <path id="Path_3567" data-name="Path 3567" d="M1514.085,852.6c-14.309-22.076-22.52-40.035-22.52-42.537" fill="none" stroke="#914f46" stroke-linecap="round" stroke-miterlimit="10" stroke-width="3.753"/>
        <path id="Path_3568" data-name="Path 3568" d="M1488.358,859.664c-14.308-22.075-21.815-44.6-21.815-47.1" fill="none" stroke="#914f46" stroke-linecap="round" stroke-miterlimit="10" stroke-width="3.753"/>
        <path id="Path_3569" data-name="Path 3569" d="M1460.466,863.4c-10.86-23.961-16.815-48.357-16.442-50.831" fill="none" stroke="#914f46" stroke-linecap="round" stroke-miterlimit="10" stroke-width="3.753"/>
        <path id="Path_3570" data-name="Path 3570" d="M1440.449,865.9c-10.861-23.96-16.816-48.357-16.443-50.831" fill="none" stroke="#914f46" stroke-linecap="round" stroke-miterlimit="10" stroke-width="3.753"/>
        <path id="Path_3571" data-name="Path 3571" d="M1420.431,863.4c-10.86-23.961-14.313-45.855-13.94-48.329" fill="none" stroke="#914f46" stroke-linecap="round" stroke-miterlimit="10" stroke-width="3.753"/>
        <path id="Path_3572" data-name="Path 3572" d="M1400.414,863.4c-11.154-22.014-14.28-43.573-13.941-45.827" fill="none" stroke="#914f46" stroke-linecap="round" stroke-miterlimit="10" stroke-width="3.753"/>
        <path id="Path_3573" data-name="Path 3573" d="M1378.574,862.251c-9.688-19.7-12.438-42.554-12.118-44.68" fill="none" stroke="#914f46" stroke-linecap="round" stroke-miterlimit="10" stroke-width="3.753"/>
        <path id="Path_3574" data-name="Path 3574" d="M1358.6,862.138c-7.722-16.46-12.452-42.633-12.161-44.567" fill="none" stroke="#914f46" stroke-linecap="round" stroke-miterlimit="10" stroke-width="3.753"/>
        <path id="Path_3575" data-name="Path 3575" d="M1331.508,861.959c-6.014-17.116-10.492-42.587-10.091-44.388" fill="none" stroke="#914f46" stroke-linecap="round" stroke-miterlimit="10" stroke-width="3.753"/>
        <path id="Path_3576" data-name="Path 3576" d="M1312.782,862.138c-3.864-15.8-4.491-42.81-3.876-44.567" fill="none" stroke="#914f46" stroke-linecap="round" stroke-miterlimit="10" stroke-width="3.753"/>
        <path id="Path_3577" data-name="Path 3577" d="M1149.416,868.244c10.476-22.318,16.427-53.922,16.854-59.846" fill="none" stroke="#914f46" stroke-linecap="round" stroke-miterlimit="10" stroke-width="3.753"/>
        <path id="Path_3578" data-name="Path 3578" d="M1177.557,868.155c7.506-25.214,9.447-53.187,8.742-55.588" fill="none" stroke="#914f46" stroke-linecap="round" stroke-miterlimit="10" stroke-width="3.753"/>
        <path id="Path_3579" data-name="Path 3579" d="M1198.069,870.394c7.505-25.214,8.952-52.924,8.247-55.325" fill="none" stroke="#914f46" stroke-linecap="round" stroke-miterlimit="10" stroke-width="3.753"/>
        <path id="Path_3580" data-name="Path 3580" d="M1228.836,815.069" fill="none" stroke="#914f46" stroke-linecap="round" stroke-miterlimit="10" stroke-width="2.502"/>
        <path id="Path_3581" data-name="Path 3581" d="M1219.674,867.415c5.575-19.824,9.159-45.294,9.234-51.216" fill="none" stroke="#914f46" stroke-linecap="round" stroke-miterlimit="10" stroke-width="3.753"/>
        <path id="Path_3582" data-name="Path 3582" d="M1247.2,867.415c6.1-21.685,2.308-47.623,1.655-49.844" fill="none" stroke="#914f46" stroke-linecap="round" stroke-miterlimit="10" stroke-width="3.753"/>
        <path id="Path_3583" data-name="Path 3583" d="M1269.717,867.415c6.1-21.685,4.81-47.623,4.158-49.844" fill="none" stroke="#914f46" stroke-linecap="round" stroke-miterlimit="10" stroke-width="3.753"/>
        <path id="Path_3584" data-name="Path 3584" d="M1289.735,869.917c6.1-21.685,4.81-50.125,4.158-52.346" fill="none" stroke="#914f46" stroke-linecap="round" stroke-miterlimit="10" stroke-width="3.753"/>
        <path id="Path_3585" data-name="Path 3585" d="M1531.6,847.6a250.289,250.289,0,0,1-30.026-72.564c-7.224-30.547-5.987-52.078-2.5-147.629,2.551-69.941,2.736-81.637-5.005-100.087-3.869-9.223-22.483-50.558-65.056-67.559-11.028-4.4-22.365-5.438-45.04-7.507-18.4-1.678-53.183-3.691-105.092,2.5-34.075,4.065-51.113,6.1-60.052,10.008-52.243,22.853-68.059,93.774-80.07,147.629-9.652,43.278-19.671,114.584-5,205.179q-12.512,25.023-25.022,50.044l100.087,2.5c-6.565,14.086-4.2,21.653-2.5,25.022,9.973,19.776,60.657,21.09,77.568,0,8.986-11.207-2.5-32.528,17.515-32.528h10.661a5.745,5.745,0,0,1,5.6,4.353c1.182,4.9,1.355,8.573,3.754,15.664,5.9,17.437,33.053,26.868,52.545,17.515,12.657-6.072,20.89-19.492,22.335-34.783a2.663,2.663,0,0,1,3.035-2.35,268.319,268.319,0,0,0,89.731-2.9A264.437,264.437,0,0,0,1531.6,847.6Z" fill="none" stroke="#753f39" stroke-miterlimit="10" stroke-width="9"/>
        <line id="Line_84" data-name="Line 84" x1="36.282" transform="translate(1191.303 867.615)" fill="none" stroke="#914f46" stroke-linecap="round" stroke-miterlimit="10" stroke-width="3.753"/>
        <path id="Path_3586" data-name="Path 3586" d="M1168.783,682.453c127.612,50.044,266.386,2.728,290.254-27.524v-5c-5.005-20.017,2.5-90.079-7.507-112.6s-67.559-37.533-102.589-40.035-95.083,5-137.62,32.528c-34.855,22.553-44.254,126.07-42.538,147.629Z" fill="none" stroke="#914f46" stroke-miterlimit="10" stroke-width="7.507"/>
        <g id="Group_1240" data-name="Group 1240">
          <path id="Path_3587" data-name="Path 3587" d="M1446.526,524.816c5.635,3.586-1.809,24.3-7.277,32.17a2.767,2.767,0,0,1-4.522-.071c-12.915-17.817-56.265-24.467-65.769-22.09-10.009,2.5-10.009-12.511-5-25.022S1419,507.3,1446.526,524.816Z" fill="#ffc"/>
          <g id="Group_1239" data-name="Group 1239" clip-path="url(#clip-path-6)">
            <path id="Path_3588" data-name="Path 3588" d="M1449.7,534.04c.577-.467-6.929,9.542-14.436,7.04s-15.013,10.009-12.511,12.511,22.52,7.506,22.52,7.506Z" fill="#fffff5"/>
            <path id="Path_3589" data-name="Path 3589" d="M1400.235,506.049s-10.008-2.5-17.515,10.009-10.009,27.524-10.009,27.524L1357.7,531.071l-2.5-25.022,20.018-15.013Z" fill="#fffda4"/>
            <path id="Path_3590" data-name="Path 3590" d="M1383.408,502.718s-18.2,10.085-18.2,30.1-12.511,0-12.511,0V500.292Z" fill="#fffc8d"/>
          </g>
          <path id="Path_3592" data-name="Path 3592" d="M1446.526,524.816c5.635,3.586-1.809,24.3-7.277,32.17a2.767,2.767,0,0,1-4.522-.071c-12.915-17.817-56.265-24.467-65.769-22.09-10.009,2.5-10.009-12.511-5-25.022S1419,507.3,1446.526,524.816Z" fill="none" stroke="#914f46" stroke-miterlimit="10" stroke-width="6"/>
        </g>
        <g id="Group_1242" data-name="Group 1242">
          <path id="Path_3593" data-name="Path 3593" d="M1197.846,523.005c-5.785,3.338.755,24.351,5.876,32.455a2.767,2.767,0,0,0,4.521.125c13.675-17.241,57.272-22.005,66.664-19.219,9.891,2.933,10.542-12.066,6.084-24.782S1226.1,506.7,1197.846,523.005Z" fill="#ffc"/>
          <g id="Group_1241" data-name="Group 1241" clip-path="url(#clip-path-7)">
            <path id="Path_3594" data-name="Path 3594" d="M1219.476,513.437" fill="#ffc" stroke="#914f46" stroke-miterlimit="10" stroke-width="3.753"/>
            <path id="Path_3595" data-name="Path 3595" d="M1216.927,514.332s-16.866,19.241-19.369,24.246-10.008-12.511-10.008-12.511l10.008-12.511,19.369.776" fill="#fffc8d"/>
            <path id="Path_3596" data-name="Path 3596" d="M1282.633,508.552l-17.515,26.921,15.013,8.11,12.511-20.274-10.009-14.756" fill="#fffff5"/>
          </g>
          <path id="Path_3598" data-name="Path 3598" d="M1197.846,523.005c-5.785,3.338.755,24.351,5.876,32.455a2.767,2.767,0,0,0,4.521.125c13.675-17.241,57.272-22.005,66.664-19.219,9.891,2.933,10.542-12.066,6.084-24.782S1226.1,506.7,1197.846,523.005Z" fill="none" stroke="#914f46" stroke-miterlimit="10" stroke-width="6"/>
        </g>
        <path id="Path_3599" data-name="Path 3599" d="M1445.129,734.723c1.52-5.531,6.985-8.034,12.3-6.984,1.914.378,3.819.8,5.691,1.321a7.848,7.848,0,0,1,2.084-1.29c7.218-3.06,15.645-3.755,23.606-4.7a10.634,10.634,0,0,1,11.009-.828c4.489,2.484,8.964,5.262,12.154,9.354,4.047,5.191,9.713,14.073-4.412,16.714a135.455,135.455,0,0,0-15.3,3.528c-5,1.549-9.768,3.884-15.048,4.319-5.657.466-10.082-1.5-14.35-5.06-3.177-2.648-6.713-3.277-10.75-4.074C1446.813,745.977,1443.774,739.655,1445.129,734.723Z" fill="#d84955"/>
        <path id="Path_3600" data-name="Path 3600" d="M1451.948,727.437c12.387,1.76,44.012-5.121,51.3-12.421,15.913-15.935,46.014,17.662,12.406,30.07s-47.766,8.879-47.766,8.879" fill="none" stroke="#914f46" stroke-linecap="round" stroke-miterlimit="10" stroke-width="3.753"/>
        <path id="Path_3601" data-name="Path 3601" d="M1226.132,725.4c-5.469,11.252-8.6,43.465-3.886,52.64,10.3,20.028-30.9,38.4-32.424,2.6s6.174-48.19,6.174-48.19" fill="none" stroke="#914f46" stroke-linecap="round" stroke-miterlimit="10" stroke-width="3.753"/>
        <path id="Path_3602" data-name="Path 3602" d="M1328.923,589.873c0,22.269,19.342,40.785,44.714,44.388a63.523,63.523,0,0,0,9.083.651,61.543,61.543,0,0,0,27.774-6.481c15.589-7.857,26.023-22.194,26.023-38.558,0-24.872-24.1-45.04-53.8-45.04S1328.923,565,1328.923,589.873Z" fill="#ffc"/>
        <ellipse id="Ellipse_528" data-name="Ellipse 528" cx="47.82" cy="40.035" rx="47.82" ry="40.035" transform="translate(1330.357 558.744) rotate(-8.659)" fill="#632037"/>
        <path id="Path_3603" data-name="Path 3603" d="M1196.307,592.375c0,17.615,12.086,32.853,29.676,40.235a61.738,61.738,0,0,0,24.121,4.8,62.574,62.574,0,0,0,16.965-2.3c21.394-5.93,36.832-22.82,36.832-42.737,0-24.872-24.1-45.04-53.8-45.04S1196.307,567.5,1196.307,592.375Z" fill="#ffc"/>
        <ellipse id="Ellipse_529" data-name="Ellipse 529" cx="47.82" cy="40.035" rx="47.82" ry="40.035" transform="translate(1203.223 553.591)" fill="#632037"/>
        <path id="Path_3604" data-name="Path 3604" d="M1496.712,719.1c8.313,4.765,26.018,22.446,18.944,25.99" fill="none" stroke="#914f46" stroke-miterlimit="10" stroke-width="3.753"/>
        <path id="Path_3605" data-name="Path 3605" d="M1222.568,777.451c-8.505,4.416-32.952,9.748-32.107,1.881" fill="none" stroke="#914f46" stroke-miterlimit="10" stroke-width="3.753"/>
        <path id="Path_3606" data-name="Path 3606" d="M1126.426,866.344c11.178-23.814,22.68-61.307,22.34-63.786" fill="none" stroke="#914f46" stroke-linecap="round" stroke-miterlimit="10" stroke-width="3.753"/>
        <path id="Path_3607" data-name="Path 3607" d="M1353.945,647.423c-17.515,17.515-60.052,12.511-65.057,0" fill="none" stroke="#d84955" stroke-linecap="round" stroke-miterlimit="10" stroke-width="3.753"/>
        <circle id="Ellipse_530" data-name="Ellipse 530" cx="15.013" cy="15.013" r="15.013" transform="translate(1392.729 556.093)" fill="#fff" opacity="0.18"/>
        <circle id="Ellipse_531" data-name="Ellipse 531" cx="15.013" cy="15.013" r="15.013" transform="translate(1252.607 556.093)" fill="#fff" opacity="0.18"/>
        <circle id="Ellipse_532" data-name="Ellipse 532" cx="15.013" cy="15.013" r="15.013" transform="translate(1257.611 558.595)" fill="#fff" opacity="0.18"/>
        <circle id="Ellipse_533" data-name="Ellipse 533" cx="15.013" cy="15.013" r="15.013" transform="translate(1390.227 553.591)" fill="#fff" opacity="0.18"/>
      </g>
    </g>
  </g>
</svg>
