<svg xmlns="http://www.w3.org/2000/svg" xmlns:xlink="http://www.w3.org/1999/xlink" width="488.612" height="386.883" viewBox="0 0 488.612 386.883">
  <defs>
    <clipPath id="clip-path">
      <path id="Path_403" data-name="Path 403" d="M1470.784,893.125c-5.521-25.941-11.35-52.814-21.734-77.306a287.868,287.868,0,0,0-17.893-34.3c-3.069-5.175-5.983-10.556-9.727-15.285-3.648-4.607-8.717-6.881-12.821-10.877-8.724-8.495-18.063-13.379-30.213-15.134-12.051-1.74-25.314-2.314-37.163.888-16.94,4.579-30.4,17.459-36.924,33.31a7.067,7.067,0,0,0-3.538,4.987,43.421,43.421,0,0,0-.7,14.04,10.358,10.358,0,0,0,.6,2.381q.12,1.362.271,2.725c-4.987,4.7-7.955,11.339-3.658,18.047,5.689,8.879,19.228,5.345,27.818,4.394,1.535-.17,3.108-.318,4.7-.454,1.2.114,2.4.19,3.615.208a43.56,43.56,0,0,0,8.975-.812c13.145-.081,26.767,1.682,37.941,7.293,8.04,4.037,12.508,10.293,16.433,18.212A288.892,288.892,0,0,1,1408.53,872.3c6.747,18.007,11.572,37.5,8.513,56.8-1.068,6.741,3.686,11.565,10.456,10.456a79.664,79.664,0,0,0,33.336-13.6c4.714-3.379,9.711-7.118,11.537-12.9C1474.418,906.581,1472.149,899.537,1470.784,893.125Z" fill="#bb993e"/>
    </clipPath>
    <clipPath id="clip-path-2">
      <path id="Path_412" data-name="Path 412" d="M1412.959,958.264a1.545,1.545,0,0,0-.43-.669l-.07-.055a3.085,3.085,0,0,0-.138-.487,2.778,2.778,0,0,0-.077-1.124,2.293,2.293,0,0,0-.44-.812,17.813,17.813,0,0,0-.832-2.405c-.044-.1-.092-.2-.137-.308l-.011-.037,0-.049a4.089,4.089,0,0,0-.594-1.987,2.278,2.278,0,0,0-.193-.244c-.23-1-.5-2-.771-2.986a88.461,88.461,0,0,1-2.9-15.984c-.308-3.594-.608-7.206-2.415-10.176l-.056-.876a2.408,2.408,0,0,0-.274-.95c-.043-.255-.076-.511-.11-.766a1.739,1.739,0,0,0,.229-.953c-.064-1.116-.164-2.229-.266-3.343a2.1,2.1,0,0,0-.054-2.471,2.118,2.118,0,0,0-2.682-.536l-.471.21a1.843,1.843,0,0,0-.816.877l-.179.13a13.658,13.658,0,0,1-1.264.779,13.883,13.883,0,0,1-2.637,1.143c-2.282.787-4.645,1.308-6.916,2.127-.945.341-3.148.229-2.964,1.261-2.7,1.108-3.524.471-6.237,1.039a36.828,36.828,0,0,0-8.315,1.04c-1.1.225-2.181-.928-3.136-.435a57.862,57.862,0,0,1-5.865.211c-3.188-.074-5.927-.225-8.995.906-.272.1-.536.216-.794.34l-.774.026a6.96,6.96,0,0,0-4.791-.857c-.576-.115-1.357-.189-1.8-.279a32.4,32.4,0,0,0-5.347-.372,57.921,57.921,0,0,1-8.925-.938c-4.506-.833-9.025-1.167-13.53-1.833a7.915,7.915,0,0,0-1.857-.905,13.123,13.123,0,0,0-4.847-.682,7.759,7.759,0,0,0-3.44-1.177,4.211,4.211,0,0,0-1.083-.5,26.682,26.682,0,0,0-3.549-1.325,59.307,59.307,0,0,1-12.084-5.117,8.9,8.9,0,0,1-2.331-1.8,5.381,5.381,0,0,0-1.016-1.1c-.768-.512-1.684-.271-2.393-.917-.566-.515-.812-1.307-1.614-1.539a2.152,2.152,0,0,0-2.419.966,5.365,5.365,0,0,0-.5,1.529c-.858,3.859-2.538,7.3-3.715,11.047a31.792,31.792,0,0,1-1.453,4.648,16.25,16.25,0,0,0-1.743,4.37c-.057.342-.091.7-.119,1.072a1.757,1.757,0,0,0-.408.785c-.281,1.293-.616,2.556-.995,3.8-.054.1-.1.205-.149.312-.2.472-.4.943-.592,1.415-.057.12-.1.239-.152.363-.937,2.242-1.881,4.473-2.929,6.675a1.888,1.888,0,0,0-.725,1.563c.008,3.5-1.155,7.065-1.984,10.441-.42,1.713-.9,3.407-1.358,5.109a15.819,15.819,0,0,0-.451,2.259,4.764,4.764,0,0,0-.107,1.27.178.178,0,0,1,0,.063,2.113,2.113,0,0,0-1.954,2.056,2.15,2.15,0,0,0,1.792,2.07,1.426,1.426,0,0,0,.652.286c1.515.219,3.03.458,4.55.639a16.818,16.818,0,0,0,3.4.077c2.427.411,4.86.792,7.29,1.181a1.964,1.964,0,0,0,1.055.248l.483-.016a1.935,1.935,0,0,0,1.049-.351,6.347,6.347,0,0,0,1.017.424,7.542,7.542,0,0,0,2.487.208,28.619,28.619,0,0,1,4.863-.043,24.444,24.444,0,0,0,4.813.493,6.331,6.331,0,0,0,2.2.35,17.944,17.944,0,0,0,2.61-.28c.082.017.163.037.247.048a75.413,75.413,0,0,0,13.078.461,2.187,2.187,0,0,0,.978.26,80.155,80.155,0,0,1,8.351.357,2.534,2.534,0,0,0,1.792-.364,109.4,109.4,0,0,0,11.878.32c.915,0,2.07,1.157,2.551.417,6.675-.364,13.356.122,20.034-.335a2.143,2.143,0,0,0,.914-.267c1.661.221,3.339.2,5.01.249,2.571.083,5.088.5,7.672.414a35.342,35.342,0,0,0,4.726-.474,30.128,30.128,0,0,1,4.451-.813,38.063,38.063,0,0,0,4.87-.044c1.659-.233,3.308-.5,4.975-.675a41.924,41.924,0,0,1,4.3-.435,3.009,3.009,0,0,0,.632.159l.09.012a1.88,1.88,0,0,0,1.574-.754c3.093.057,6.209-.254,8.8-1.923l1.065-.324c.441-.135.907-.258,1.347-.43a1.994,1.994,0,0,0,1.063-.271,4.091,4.091,0,0,1,1.331-.756l.546-.073a2.073,2.073,0,0,0,.917-.535l.074-.074a1.545,1.545,0,0,0,.43-.669,1.882,1.882,0,0,0,0-1.6Z" fill="#d84955"/>
    </clipPath>
    <clipPath id="clip-path-3">
      <path id="Path_436" data-name="Path 436" d="M1336.628,986.178c-5.806-.029-13.71-.967-19.5-.548-.841.061-5.445-.492-7.524-.492-6.119.968-1.272,3.328-1.04,3.119-1.611-.7-1.039,1.483-1.039,3.118,0,3.119,2.495,1.337,3.118,5.2.033.2,2.046,1.874,2.079,2.079.5,3.073,2.262,4.194,5.2,4.157,1.661-.02,1.5.822,3.119,1.04.061.031,2.016-1.07,2.079-1.04,4.4,2.146.1.248,5.2-1.039,2.228-.563,2.725,1.984,3.435-.227,2.3-.162,4.941-3.012,5.92-4.97C1339.746,992.415,1343.482,986.212,1336.628,986.178Z" fill="#f2bea0"/>
    </clipPath>
    <clipPath id="clip-path-4">
      <path id="Path_449" data-name="Path 449" d="M1419.3,947.148q-.016-3.983-.255-7.957a2.484,2.484,0,0,0-.049-.334,63.6,63.6,0,0,0-.126-13.209,91.845,91.845,0,0,0-.643-21.168,88.607,88.607,0,0,0-2.489-11.583c.926-2.821-.435-5.95-1.189-8.664-.869-3.124-1.748-6.246-2.606-9.373a68.261,68.261,0,0,1-1.767-9.272,51.172,51.172,0,0,0-2.132-9.084c-3.238-10.008-7.944-20.2-16.444-26.812-2.641-2.053-4.16-5.216-7.151-6.712-2.436-1.217-6.7-3.122-9.356-3.118-1.732-.415-2.375.043-4.157,0-2.9-.638-4.34-.57-7.277-1.039a2.193,2.193,0,0,0-1.039,0c-.04-.029-1,.028-1.04,0-.434-.309-1.675-.054-2.079,0-.233-.121.25-.953,0-1.04-.264-.845-2.379-.017-3.3-.005-6.67.093-12.9-.816-19.569-1.034-3.254-.107-7.141-.929-10.4-1.04-1.706-.058-3.213,1.4-4.915,1.249a34.27,34.27,0,0,0-5.068-.429,2.018,2.018,0,0,0-1.63.943c-4.75.088-9.482.021-14.154,1.164-.814.2-.064-.424-.22.192.161-2.2-.991-.012-1.039,0h0c-.355-.028-.742-.173-1.04,0-.939.221-2.178.818-3.118,1.039-.681.16-1.372,1.342-2.028,1.588-.632.237-1.6.083-2.13.491-.556.431-.442-.373-1.039,0-.868.541-2.3,1.467-3.119,2.079-.32.238-.728.789-1.039,1.039-.562.452.541-.475,0,0-.017.015-1.023,1.026-1.04,1.04-.954.84-3.268,1.17-4.158,2.079-1.14,1.165-2.065,2.913-3.118,4.158s-2.122,2.861-3.119,4.158-2.152,2.84-3.118,4.157c-.154.211.154,1.869,0,2.079-.007.01-1.835,1.485-1.039,1.04-1.531,1.747-.988,2.2-1.832,4.486a72.6,72.6,0,0,0-2.118,8.046l-2.2,9.067a1.948,1.948,0,0,0,.674,2.055c-.078.561-.169,1.119-.237,1.681a1.9,1.9,0,0,0,1.085,1.8,58.956,58.956,0,0,0,.173,6.813,2.346,2.346,0,0,0,.206.792q-.39,8.785-.16,17.585a2.3,2.3,0,0,0,.075.514c-.047.5-.088,1.007-.141,1.51a1.764,1.764,0,0,0,.6,1.452q-.361,6.183-1.09,12.341a1.9,1.9,0,0,0,1.1,1.806c-.049,2.048-.082,4.1-.061,6.142.015,1.367.121,2.727.157,4.093.032,1.227-1.253,2.1-.83,3.217,1.478,3.92-.536,5.42,0,8.076a1.741,1.741,0,0,0,1.788,1.489,2.1,2.1,0,0,0,2.558-1.452,76.215,76.215,0,0,1,1.929-8.145c.336-1.066.683-2.116,1.009-3.169a2.624,2.624,0,0,0,.623-.95,51.548,51.548,0,0,0,2.427-7.087c.551-2.464,1.727-4.6,2.421-7.02.361-1.259.732-2.517,1.1-3.776a1.446,1.446,0,0,0,.475-.561,12.847,12.847,0,0,1,1.054-1.734,5.592,5.592,0,0,0,.923-2.822,1.605,1.605,0,0,0-.024-.247,1.456,1.456,0,0,0,.2-.541c.075-.526.115-1.049.168-1.573a2.167,2.167,0,0,0,.931-1.711,27.005,27.005,0,0,0-.935-8.614,2.053,2.053,0,0,0,.449-1.437,59.4,59.4,0,0,0-.341-9.743,2.7,2.7,0,0,0-.094-.463c0-.07,0-.14,0-.21a2.022,2.022,0,0,0-.346-1.161q.01-2.478.021-4.956c0-.029-.009-.051-.01-.08a1.9,1.9,0,0,0,.259-1.663l-.048-.118c-.016-.04-.039-.075-.056-.114a44.93,44.93,0,0,0,.981-4.438c.085-.625.147-1.25.2-1.875a55.836,55.836,0,0,0,.9-8.787c.02-1.049,2.441-3.093,1.625-3.317l4.158-3.118c.114-1.028,4.985-1.848,4.157-2.079,1.74-2.006,2.023-1.531,4.158-3.119l3.119-1.039c2.636-.855-1.108,1.819,1.039,0,.483-.409,2.151-.422,2.079-1.039.078-.043,3.04.041,3.119,0,.229.079,15.172-.384,2.079-1.04-.689-.034-2.763.066-2.079,0,.156,0,7.423,1.9,3.118,0,3.761-.4-1.65-.392,2.079-1.039.48-.084-.481.069,0,0-.57,1.269-1.016,1.123.754,1.007,6.073-.4,12.09-1.354,18.1-2.313,2.366.326,4.737.539,7.127.749,1.483.13,3.784-.927,5.205-.483,1.378.43,1.656,1.076,3.119,1.04.993-.025,2.477.629,3.522.742l.908.284c1.22.608,2.31-.139,3.777-.653,1.136-.4,2.279,2.01,2.079,1.039.414-.076-.407.119,0,0,.035-.01,1.006.013,1.039,0,.642.21.391-.185,1.04,0,.683.614,2.308-.418,3.118,0,.914.473,1.471.586,2.079,0,1.376.331,1.748,1.729,3.119,2.079,3.859.988,7.534,3.336,11.434,4.158,1.218.839,1.037,1,2.079,2.079,2.2,2.273,6.572,3.248,8.513,5.742.259.333.505.675.761,1.01a80.02,80.02,0,0,1,3.85,7.667c.628,5.8,2.653,11.177,4.848,16.5a1.837,1.837,0,0,0-1.017,2.323c1.435,4.584,3.065,9.175,4.37,13.834a1.878,1.878,0,0,0-.2,1.071c.3,3.537.512,7.111.8,10.679a2.06,2.06,0,0,0-.63,2.089,31.057,31.057,0,0,1,1.059,4.9,1.594,1.594,0,0,0-.032,1.24c.1.236.17.475.244.714.07.506.164,1.007.249,1.509a9.341,9.341,0,0,0,.024,2.112,15.337,15.337,0,0,1,.209,2.242,2,2,0,0,0,.326,1.131l.09,1a2.609,2.609,0,0,0,.13.592c.039.376.062.755.1,1.13.157,1.36.556,2.666.723,4.021a37.172,37.172,0,0,1,.251,4.575,1.883,1.883,0,0,0,.845,1.644,14.259,14.259,0,0,1,.329,1.609,38.553,38.553,0,0,0,.84,4.207c.112.436.244.866.37,1.3a24.819,24.819,0,0,1,.087,4.134,2.093,2.093,0,0,0,.609,1.47,2.157,2.157,0,0,0,.589.4q.243,1.557.513,3.111a1.728,1.728,0,0,0,.773,1.112c.245,1.145.5,2.294.823,3.421.146.649.308,1.294.495,1.933a2.015,2.015,0,0,0,.2.45c.242,1.093.515,2.179.792,3.263a1.989,1.989,0,0,0,.9,1.187c.126.417.262.83.422,1.235a2.079,2.079,0,1,0,4.009-1.1,8.3,8.3,0,0,1-.11-.918,2.127,2.127,0,0,0,.2-1.554c-.076-.293-.17-.58-.255-.87,0-.152,0-.311,0-.456q-.021-1.842-.043-3.683a21.559,21.559,0,0,1,.643-2.823A15.089,15.089,0,0,0,1419.3,947.148Z" fill="#ffc"/>
    </clipPath>
    <clipPath id="clip-path-5">
      <path id="Path_479" data-name="Path 479" d="M1278.5,856.342c-1.452,2.364,5.1,8.744,8.571,10.69a1.15,1.15,0,0,0,1.676-.849c1.581-9,16.561-19.374,20.543-20.216,4.193-.886,1.462-6.493-2.684-10.255S1285.594,844.793,1278.5,856.342Z" fill="#ffc" stroke="#914f46" stroke-miterlimit="10" stroke-width="1.559"/>
    </clipPath>
    <clipPath id="clip-path-6">
      <path id="Path_485" data-name="Path 485" d="M1401.23,852.182c1.975,1.948-2.857,9.709-5.765,12.43a1.149,1.149,0,0,1-1.83-.424c-3.69-8.364-20.715-14.851-24.782-14.716-4.284.142-2.973-5.956.153-10.6S1391.581,842.664,1401.23,852.182Z" fill="#ffc" stroke="#914f46" stroke-miterlimit="10" stroke-width="1.559"/>
    </clipPath>
    <clipPath id="clip-path-7">
      <path id="Path_507" data-name="Path 507" d="M1578.845,1072.7a102.255,102.255,0,0,0-7.78-25.335c-.139-.439-.278-.878-.423-1.315a102.4,102.4,0,0,0-2.595-9.937c-5.929-31.984-12.723-63.835-23.529-94.551a46.707,46.707,0,0,0-.184-9.147c1.317-10.1,1.946-20.271.732-30.411-.788-6.582-2.149-13.028-2.8-19.62a33.084,33.084,0,0,0-2-8.213,15.937,15.937,0,0,0,.608-8.057c-1.709-9.748-9.166-18.479-14.408-26.605-5.048-7.824-9.943-15.775-15.2-23.457a76.151,76.151,0,0,0-14.621-16.461,15.831,15.831,0,0,0-8.152-5.774c-1.127-1.153-1.3-1.336-.509-.531q-.741-1.212-1.393-2.472c-2.115-3.879-4.268-7.731-7.7-10.629-5.571-4.7-32.834-29.977-38.3-24.514-1,1,13.606,38.885,19.206,43.606q1.67,1.731.71.263a26.3,26.3,0,0,1,1.448,2.389c.817,1.442,1.509,2.95,2.36,4.374a31.462,31.462,0,0,0,3.064,4.268,15.374,15.374,0,0,0,1.457,4.375l.348.679c1.386,16.948,9.2,32.451,13.535,48.725q4.889,18.347,9.32,36.831c.465,5.581.832,11.154.893,16.706.047,4.36.279,8.848.186,13.28-.61.244-1.216.5-1.819.779a56.233,56.233,0,0,0-9.208,5.8c-1.369.991-2.737,1.993-4.188,2.864-.689.425-1.4.811-2.124,1.173.518-.283.133-.206-1.179.24a41.691,41.691,0,0,0-14.289,3.734,11.072,11.072,0,0,0-3.263,2.595c-22.813,3.775-45.69,7.17-68.635,10.046-19.381,2.43-39.268,3.509-58.641,6.694a11.459,11.459,0,0,0-5.559-1.159,84.169,84.169,0,0,0-12.665,1.643,19.081,19.081,0,0,0-9.743-2.872c-8.58-.147-17.516,1.982-26.315,3.387a8.823,8.823,0,0,0-2.335-.708,125.092,125.092,0,0,0-25.492-.937,10.894,10.894,0,0,0-4.807.3q-2.162.156-4.342.345a167.665,167.665,0,0,1-33.449-.326c-10.674-1.2-20.822-.852-31.51-.452-5.085.191-9.049.11-13.747-1.317a34.094,34.094,0,0,0-6.28-1.345c-3.273-3.219-8.117-1.452-12.807-3.452-15.957-6.8-15.578,4.9-9.429,16.606,1.1,2.095,1.357,4.535,2.384,6.672q3.749,10.484,7.5,20.968c-.187.591-.358,1.187-.493,1.794a44.394,44.394,0,0,0-.87,6.695,11.722,11.722,0,0,0-1.731,2.405q-.781,1.464-1.574,2.917a29.971,29.971,0,0,0-2.429,3.293,11.68,11.68,0,0,0-1.468,3.38,16.015,16.015,0,0,0-4.093,4.9,39.435,39.435,0,0,0-7.185,8.728,40.6,40.6,0,0,0-3.987,9.324,11.915,11.915,0,0,0-4.926,7.189,5.824,5.824,0,0,0-.168,1.108,3.44,3.44,0,0,0-.791.91c-3.123,4.35-2.4,9.906.407,14.11a58.515,58.515,0,0,0-2.646,16.025,12.656,12.656,0,0,0,2.121,7.183c.879,10.857,13.582,16.34,22.839,8.679a38.583,38.583,0,0,0,7.491-8.448,11.7,11.7,0,0,0,4.971-3.2c.2-.213.383-.431.576-.645.408.07.818.12,1.231.156a14.358,14.358,0,0,0,9.42,3.831,12.949,12.949,0,0,0,3.384-.447,13.854,13.854,0,0,0,13.535,3.913,14.377,14.377,0,0,0,6.852-4.512,13.572,13.572,0,0,0,4.619-1.045,13.18,13.18,0,0,0,6.093.331,14.553,14.553,0,0,0,14.353.326,12.454,12.454,0,0,0,5.574-6.478,14.3,14.3,0,0,0,6.585-.07c1.294,2.146,2.618,4.276,4.008,6.372,3.7,5.58,10.51,8.315,16.858,5.524a14.907,14.907,0,0,0,7.451-7.568,19.106,19.106,0,0,0,3.176,1.094,32.044,32.044,0,0,0,6.363,3.873,24.023,24.023,0,0,0,2.029,1.464c8.88,5.7,21.157,4.845,27.56-3.77.265-.2.538-.382.792-.6.267-.146.54-.277.8-.438a14.3,14.3,0,0,0,3.434-2.978,25.155,25.155,0,0,0,3.09,1.457,11.076,11.076,0,0,0,8.637-.424c3.341,3.2,8.882,4.093,13.126,3.2a10.969,10.969,0,0,1,5.56.128,16.5,16.5,0,0,1,5.312,2.468c5.639,4.613,13.575,5.517,19.092,0a14.1,14.1,0,0,0,3.834-8.554c.018-.04.031-.083.048-.123a13.251,13.251,0,0,0,3.026-1.292,12.549,12.549,0,0,0,5.365-5.923,19.536,19.536,0,0,0,3.456,2.533,15.869,15.869,0,0,0,7.947,2.127,26.96,26.96,0,0,0,5.442-.437c.024.028.039.049.064.079,4.337,5.04,12.827,4.958,17.726,1.056.3-.239.584-.49.859-.748a12.314,12.314,0,0,0,9.643-.256,14.073,14.073,0,0,0,3.4-2.14,15.033,15.033,0,0,0,4.026.416,13.588,13.588,0,0,0,9.994,1.964c.377.644.754,1.287,1.123,1.936a13.707,13.707,0,0,0,18.47,4.843,14.669,14.669,0,0,0,1.283-.846,13.148,13.148,0,0,0,7.356-1.752c.061-.036.113-.077.173-.114a14.1,14.1,0,0,0,8.225-1.657,12.661,12.661,0,0,0,5.072-5.323,13.993,13.993,0,0,0,4.14.722q1.857,3.018,3.873,5.935a14.1,14.1,0,0,0,8.906,5.977c7.21,4.458,18.334,1.277,20.281-7.763.219-1.015.4-2.032.557-3.049a12.761,12.761,0,0,0,10.812,1.821,13,13,0,0,0,4.518-2.318,13.909,13.909,0,0,0,7.2-.745,12.578,12.578,0,0,0,8.39.5c.067-.018.129-.046.2-.065a12.7,12.7,0,0,0,8.388,3.309,14.259,14.259,0,0,0,14.883,5.425c.316-.087.614-.2.915-.3a13.609,13.609,0,0,0,12.643,3.13c5.647-1.552,8.582-5.779,9.389-10.749A16.587,16.587,0,0,0,1578.845,1072.7Z" fill="#fad675"/>
    </clipPath>
  </defs>
  <g id="krib" transform="translate(-1098.694 -717.778)">
    <g id="Group_176" data-name="Group 176">
      <path id="Path_401" data-name="Path 401" d="M1470.784,893.125c-5.521-25.941-11.35-52.814-21.734-77.306a287.868,287.868,0,0,0-17.893-34.3c-3.069-5.175-5.983-10.556-9.727-15.285-3.648-4.607-8.717-6.881-12.821-10.877-8.724-8.495-18.063-13.379-30.213-15.134-12.051-1.74-25.314-2.314-37.163.888-16.94,4.579-30.4,17.459-36.924,33.31a7.067,7.067,0,0,0-3.538,4.987,43.421,43.421,0,0,0-.7,14.04,10.358,10.358,0,0,0,.6,2.381q.12,1.362.271,2.725c-4.987,4.7-7.955,11.339-3.658,18.047,5.689,8.879,19.228,5.345,27.818,4.394,1.535-.17,3.108-.318,4.7-.454,1.2.114,2.4.19,3.615.208a43.56,43.56,0,0,0,8.975-.812c13.145-.081,26.767,1.682,37.941,7.293,8.04,4.037,12.508,10.293,16.433,18.212A288.892,288.892,0,0,1,1408.53,872.3c6.747,18.007,11.572,37.5,8.513,56.8-1.068,6.741,3.686,11.565,10.456,10.456a79.664,79.664,0,0,0,33.336-13.6c4.714-3.379,9.711-7.118,11.537-12.9C1474.418,906.581,1472.149,899.537,1470.784,893.125Z" fill="#bb993e"/>
      <g id="Group_175" data-name="Group 175" clip-path="url(#clip-path)">
        <path id="Path_402" data-name="Path 402" d="M1374.582,699.671c20,28,85,251,72,285s96-112,96-112l-109-165Z" fill="#fce6c3" opacity="0.22"/>
      </g>
    </g>
    <path id="Path_404" data-name="Path 404" d="M1268.41,923.246c-8.226.076-15.786-2.6-23.921.146-7.239,2.444-13.463,5.543-21.249,6.12-14.9,1.1-28.593,1.333-43.842,4.476-51.816,10.683-1.214,19.487,8.58,14.679,5.518-2.708,11.977-2.342,17.955-2.147,5.645.184,11.271.357,16.9-.008a7.987,7.987,0,0,0,10.473,1.925c4.713-2.669,11-.567,16.085-.185,6.121.459,12.341-.438,18.44-.942,6.44-.531,9.082-6.764,7.868-11.538C1278.135,930.712,1275.719,923.178,1268.41,923.246Z" fill="#bb993e"/>
    <path id="Path_405" data-name="Path 405" d="M1300.082,914.171c-3.047-8.532-6.283-55.67-3.7-96.635" fill="none" stroke="#753f39" stroke-linecap="round" stroke-linejoin="round" stroke-width="7"/>
    <path id="Path_406" data-name="Path 406" d="M1266.792,920.029c10.067-1.571,16.36-2.492,16.36-2.492-5.25-15.748-10.867-45.459-10.936-77.088" fill="none" stroke="#753f39" stroke-linejoin="round" stroke-width="7"/>
    <g id="prinses">
      <path id="Path_407" data-name="Path 407" d="M1424.752,982.727a25.665,25.665,0,0,1-1.928-3.331,14.648,14.648,0,0,0-2.137-2.7,5.458,5.458,0,0,1-.828-1.47,2.393,2.393,0,0,0-.061-.328,17.933,17.933,0,0,0-1.217-3.076c-.4-.8-.035-1.417-.874-1.235.19-.246-1.038-.183-.935-.537a2.683,2.683,0,0,0,.1-.725c0-.051-.011-.1-.015-.152a1.5,1.5,0,0,0,.05-.45,18.153,18.153,0,0,0-.961-4.782,2.265,2.265,0,0,0-.875-1.184,2.331,2.331,0,0,0-1.159-2.2,2.464,2.464,0,0,0-3.592,1.829c-.22.062-.409.117-.448.126l-2.469.565c-.792.181-1.582.375-2.378.541-.757.158-1.517.165-2.283.263a12.409,12.409,0,0,0-2.505.718,8.049,8.049,0,0,1-2.162.3,9.4,9.4,0,0,0-3.825,1.22c-3.038-.475-5.947.163-8.957.656-3.058.5-6.163-.1-9.2.592a1.918,1.918,0,0,0-.454.191,18.028,18.028,0,0,0-2.933-.275c-2.744,0-5.466.47-8.213.31a1.739,1.739,0,0,0-.785.142c-1.783.056-3.561.24-5.341.344-.511-.047-1.023-.078-1.519-.125-.434-.041-.851-.077-1.255-.084-.618-.123-1.237-.232-1.858-.3a46.215,46.215,0,0,0-10.485.263,8.694,8.694,0,0,0-1.094-.031,12.078,12.078,0,0,0-2.5.418c-.146.037-.3.081-.448.124h-.009l-3.786-.933a2.159,2.159,0,0,0-.819-.044,10.4,10.4,0,0,0-2.727.114c-.214.032-.436.088-.653.1.572-.033-.159.011-.265.017a7.779,7.779,0,0,1-1.2-.043,15.107,15.107,0,0,0-2.5.1c-.161.011-.323.018-.484.015-.053,0-.106-.006-.159-.009l-.048-.01a2.611,2.611,0,0,0-2.076.241c-1.063-.09-2.126-.171-3.19-.191-.665-.013-1.326.019-1.986.064a1.907,1.907,0,0,0-1.75-1.04,80.728,80.728,0,0,0-10.377.085c-3.163.373-6.486.661-9.546-.443a1.939,1.939,0,0,0-1.928.468l-2.689-.19a2.386,2.386,0,0,0-.76-.426,27.752,27.752,0,0,0-5.288-.925,13.86,13.86,0,0,0-3.05-.173,5.719,5.719,0,0,0-2.341.617c-1.12-.195-2.241-.387-3.368-.545a18.686,18.686,0,0,0-5-.4c-1.718-.279-3.433-.591-5.149-.84-2.867-.417-5.905-1.273-8.655,0a1.782,1.782,0,0,0-.8,2.569,2.89,2.89,0,0,0,.759,2.687,2.1,2.1,0,0,0-.062.25,7.488,7.488,0,0,0-3.252,4.536,1.865,1.865,0,0,0-.041.591,4.938,4.938,0,0,0-.315.867,1.763,1.763,0,0,0-.039.257,2.033,2.033,0,0,0-1.839,1.5,6.131,6.131,0,0,0-.12,1.495,1.791,1.791,0,0,0,.457,1.853,3.285,3.285,0,0,0,1.889,1.726,3.5,3.5,0,0,0,2.6-.1,2.087,2.087,0,0,0,.645.293,12.12,12.12,0,0,0,5.085.237q3.235.768,6.523,1.238c.037.011.068.028.107.037a48.855,48.855,0,0,0,5.317,1.013,2.146,2.146,0,0,0,1.436,1.468l.57.188a1.987,1.987,0,0,0,1.633-.242c.1-.015.209-.026.314-.043.313-.05.625-.108.937-.166.4-.075.013-.028.375-.051a10.6,10.6,0,0,1,1.553.013c.113.01.226.023.339.036l.214.033c.258.048.516.092.773.143.623.126,1.247.267,1.874.4a7.172,7.172,0,0,0,1.465.328,7.039,7.039,0,0,0,2.142.351,8.472,8.472,0,0,0,1.229-.193,2.532,2.532,0,0,0,.589-.142,15.4,15.4,0,0,1,2.523-.514c.268-.022.536-.041.8-.061a1.859,1.859,0,0,0,1.485.588q2.547-.07,5.094-.132a2.066,2.066,0,0,0,.886.215h.257a1.566,1.566,0,0,0,.8-.179,1.63,1.63,0,0,0,.184-.087c6.5-.143,13-.2,19.505.022a118.815,118.815,0,0,0,12.813.052c2.277-.168,6.1-.319,8.152-1.97a8.823,8.823,0,0,0,1.545.069,29.438,29.438,0,0,1,3.543.083,2.054,2.054,0,0,0-.154.4,2.1,2.1,0,0,0,1.452,2.558,17.761,17.761,0,0,0,5.256.245c.579-.068,1.183-.209,1.79-.326a2.507,2.507,0,0,0,.641.131,15.28,15.28,0,0,0,2.654-.059,2.413,2.413,0,0,0,.723-.2c1.346,0,2.7.085,4.043.189a2.991,2.991,0,0,0,.426.079,51.785,51.785,0,0,0,7.044.534c2.083-.057,4.169-.213,6.251-.318a2.214,2.214,0,0,0,.887-.226,2.039,2.039,0,0,0,.784.413,15.5,15.5,0,0,0,5.293.173l5.428-.375a27.37,27.37,0,0,1,5.308-.071,17.263,17.263,0,0,0,3.187.072,2.308,2.308,0,0,0,1.552-.112l.61-.052c.69-.061,1.448.025,2.141-.1,1.169.663,2.855.594,4.109.7a20.9,20.9,0,0,0,5.467-.2c1.6-.291,3.126-1.159,4.747-1.3,1.679-.142,3.259.91,4.981.845a2.142,2.142,0,0,0,2.078-2.079A4.953,4.953,0,0,0,1424.752,982.727Z" fill="#f4f4f4"/>
      <g id="Group_178" data-name="Group 178">
        <path id="Path_408" data-name="Path 408" d="M1412.959,958.264a1.545,1.545,0,0,0-.43-.669l-.07-.055a3.085,3.085,0,0,0-.138-.487,2.778,2.778,0,0,0-.077-1.124,2.293,2.293,0,0,0-.44-.812,17.813,17.813,0,0,0-.832-2.405c-.044-.1-.092-.2-.137-.308l-.011-.037,0-.049a4.089,4.089,0,0,0-.594-1.987,2.278,2.278,0,0,0-.193-.244c-.23-1-.5-2-.771-2.986a88.461,88.461,0,0,1-2.9-15.984c-.308-3.594-.608-7.206-2.415-10.176l-.056-.876a2.408,2.408,0,0,0-.274-.95c-.043-.255-.076-.511-.11-.766a1.739,1.739,0,0,0,.229-.953c-.064-1.116-.164-2.229-.266-3.343a2.1,2.1,0,0,0-.054-2.471,2.118,2.118,0,0,0-2.682-.536l-.471.21a1.843,1.843,0,0,0-.816.877l-.179.13a13.658,13.658,0,0,1-1.264.779,13.883,13.883,0,0,1-2.637,1.143c-2.282.787-4.645,1.308-6.916,2.127-.945.341-3.148.229-2.964,1.261-2.7,1.108-3.524.471-6.237,1.039a36.828,36.828,0,0,0-8.315,1.04c-1.1.225-2.181-.928-3.136-.435a57.862,57.862,0,0,1-5.865.211c-3.188-.074-5.927-.225-8.995.906-.272.1-.536.216-.794.34l-.774.026a6.96,6.96,0,0,0-4.791-.857c-.576-.115-1.357-.189-1.8-.279a32.4,32.4,0,0,0-5.347-.372,57.921,57.921,0,0,1-8.925-.938c-4.506-.833-9.025-1.167-13.53-1.833a7.915,7.915,0,0,0-1.857-.905,13.123,13.123,0,0,0-4.847-.682,7.759,7.759,0,0,0-3.44-1.177,4.211,4.211,0,0,0-1.083-.5,26.682,26.682,0,0,0-3.549-1.325,59.307,59.307,0,0,1-12.084-5.117,8.9,8.9,0,0,1-2.331-1.8,5.381,5.381,0,0,0-1.016-1.1c-.768-.512-1.684-.271-2.393-.917-.566-.515-.812-1.307-1.614-1.539a2.152,2.152,0,0,0-2.419.966,5.365,5.365,0,0,0-.5,1.529c-.858,3.859-2.538,7.3-3.715,11.047a31.792,31.792,0,0,1-1.453,4.648,16.25,16.25,0,0,0-1.743,4.37c-.057.342-.091.7-.119,1.072a1.757,1.757,0,0,0-.408.785c-.281,1.293-.616,2.556-.995,3.8-.054.1-.1.205-.149.312-.2.472-.4.943-.592,1.415-.057.12-.1.239-.152.363-.937,2.242-1.881,4.473-2.929,6.675a1.888,1.888,0,0,0-.725,1.563c.008,3.5-1.155,7.065-1.984,10.441-.42,1.713-.9,3.407-1.358,5.109a15.819,15.819,0,0,0-.451,2.259,4.764,4.764,0,0,0-.107,1.27.178.178,0,0,1,0,.063,2.113,2.113,0,0,0-1.954,2.056,2.15,2.15,0,0,0,1.792,2.07,1.426,1.426,0,0,0,.652.286c1.515.219,3.03.458,4.55.639a16.818,16.818,0,0,0,3.4.077c2.427.411,4.86.792,7.29,1.181a1.964,1.964,0,0,0,1.055.248l.483-.016a1.935,1.935,0,0,0,1.049-.351,6.347,6.347,0,0,0,1.017.424,7.542,7.542,0,0,0,2.487.208,28.619,28.619,0,0,1,4.863-.043,24.444,24.444,0,0,0,4.813.493,6.331,6.331,0,0,0,2.2.35,17.944,17.944,0,0,0,2.61-.28c.082.017.163.037.247.048a75.413,75.413,0,0,0,13.078.461,2.187,2.187,0,0,0,.978.26,80.155,80.155,0,0,1,8.351.357,2.534,2.534,0,0,0,1.792-.364,109.4,109.4,0,0,0,11.878.32c.915,0,2.07,1.157,2.551.417,6.675-.364,13.356.122,20.034-.335a2.143,2.143,0,0,0,.914-.267c1.661.221,3.339.2,5.01.249,2.571.083,5.088.5,7.672.414a35.342,35.342,0,0,0,4.726-.474,30.128,30.128,0,0,1,4.451-.813,38.063,38.063,0,0,0,4.87-.044c1.659-.233,3.308-.5,4.975-.675a41.924,41.924,0,0,1,4.3-.435,3.009,3.009,0,0,0,.632.159l.09.012a1.88,1.88,0,0,0,1.574-.754c3.093.057,6.209-.254,8.8-1.923l1.065-.324c.441-.135.907-.258,1.347-.43a1.994,1.994,0,0,0,1.063-.271,4.091,4.091,0,0,1,1.331-.756l.546-.073a2.073,2.073,0,0,0,.917-.535l.074-.074a1.545,1.545,0,0,0,.43-.669,1.882,1.882,0,0,0,0-1.6Z" fill="#d84955"/>
        <g id="Group_177" data-name="Group 177" clip-path="url(#clip-path-2)">
          <path id="Path_409" data-name="Path 409" d="M1397.492,913.393c-.051,1.111-8.651,2.749-9.66,4.353,9.5,8.6,14.259,49.313,11.846,50.315l9.652-4" fill="#a23740"/>
          <path id="Path_410" data-name="Path 410" d="M1402.315,911.219c-.05,1.081-7.622,2.711-8.516,4.275a13.993,13.993,0,0,1,2.373,3.618c.25.5.5,1.031.745,1.579,6.1,13.48,8.916,42.825,7.085,43.672l8.508-3.935" fill="#6c252b"/>
          <path id="Path_411" data-name="Path 411" d="M1280.158,900.939c-.049,1.389,11.316,4.336,12.5,6.439-13.658,9.7-24.392,59.893-21.261,61.394l-12.525-6" fill="#efb6bb"/>
        </g>
      </g>
      <g id="Group_196" data-name="Group 196">
        <g id="Group_195" data-name="Group 195">
          <g id="Group_179" data-name="Group 179">
            <path id="Path_413" data-name="Path 413" d="M1344.008,945.236c0-27.605-8.834-23.924-8.834,0Z" fill="#ffc"/>
          </g>
          <g id="Group_180" data-name="Group 180">
            <path id="Path_414" data-name="Path 414" d="M1343.626,947.033c11.228-25.218,1.66-25.449-8.071-3.593Z" fill="#ffc"/>
          </g>
          <g id="Group_181" data-name="Group 181">
            <path id="Path_415" data-name="Path 415" d="M1342.546,948.519c20.515-18.471,11.868-22.574-5.911-6.565Z" fill="#ffc"/>
          </g>
          <g id="Group_182" data-name="Group 182">
            <path id="Path_416" data-name="Path 416" d="M1340.956,949.437c26.254-8.53,20.023-15.795-2.73-8.4Z" fill="#ffc"/>
          </g>
          <g id="Group_183" data-name="Group 183">
            <path id="Path_417" data-name="Path 417" d="M1339.129,949.629c27.454,2.886,24.717-6.285.923-8.786Z" fill="#ffc"/>
          </g>
          <g id="Group_184" data-name="Group 184">
            <path id="Path_418" data-name="Path 418" d="M1337.382,949.062c23.907,13.8,25.136,4.311,4.417-7.651Z" fill="#ffc"/>
          </g>
          <g id="Group_185" data-name="Group 185">
            <path id="Path_419" data-name="Path 419" d="M1336.017,947.833c16.226,22.333,21.21,14.162,7.147-5.193Z" fill="#ffc"/>
          </g>
          <g id="Group_186" data-name="Group 186">
            <path id="Path_420" data-name="Path 420" d="M1335.27,946.155c5.739,27,13.616,21.565,8.641-1.837Z" fill="#ffc"/>
          </g>
          <g id="Group_187" data-name="Group 187">
            <path id="Path_421" data-name="Path 421" d="M1335.27,944.318c-5.739,27,3.667,25.238,8.641,1.837Z" fill="#ffc"/>
          </g>
          <g id="Group_188" data-name="Group 188">
            <path id="Path_422" data-name="Path 422" d="M1336.017,942.64c-16.226,22.333-6.915,24.548,7.147,5.193Z" fill="#ffc"/>
          </g>
          <g id="Group_189" data-name="Group 189">
            <path id="Path_423" data-name="Path 423" d="M1337.382,941.411c-23.907,13.8-16.3,19.613,4.417,7.651Z" fill="#ffc"/>
          </g>
          <g id="Group_190" data-name="Group 190">
            <path id="Path_424" data-name="Path 424" d="M1339.129,940.843c-27.454,2.886-22.87,11.287.923,8.786Z" fill="#ffc"/>
          </g>
          <g id="Group_191" data-name="Group 191">
            <path id="Path_425" data-name="Path 425" d="M1340.956,941.035c-26.254-8.53-25.484,1.009-2.73,8.4Z" fill="#ffc"/>
          </g>
          <g id="Group_192" data-name="Group 192">
            <path id="Path_426" data-name="Path 426" d="M1342.546,941.954c-20.514-18.472-23.69-9.443-5.911,6.565Z" fill="#ffc"/>
          </g>
          <g id="Group_193" data-name="Group 193">
            <path id="Path_427" data-name="Path 427" d="M1343.626,943.44c-11.228-25.219-17.8-18.263-8.071,3.593Z" fill="#ffc"/>
          </g>
          <g id="Group_194" data-name="Group 194">
            <path id="Path_428" data-name="Path 428" d="M1344.008,945.236c0-27.605-8.834-23.924-8.834,0Z" fill="#ffc"/>
          </g>
        </g>
        <ellipse id="Ellipse_99" data-name="Ellipse 99" cx="6.91" cy="8.292" rx="6.91" ry="8.292" transform="translate(1332.491 936.944)" fill="#914f46"/>
      </g>
      <path id="Path_429" data-name="Path 429" d="M1403.154,900.941c.061-.651.177-6.57,0-7.276-2.079-8.316-2.436-9.7-4.158-17.671a75.626,75.626,0,0,0-3.118-10.4c0-1.093-.834-2.1-1.04-3.119-1.43-7.1-7.254-13.217-13.513-16.631-11.434-6.237-26.826-9.6-41.579-10.4-16.435-.888-30.986,1.414-45.971,8.728-7.291,3.56-10.687,10.387-11.239,18.236-.469,6.679.015,13.4.052,20.119a38.441,38.441,0,0,0-.013,4.891c.084.649-.106,1.5,0,2.079-.869.81.611,1.936.2,3.356-.839,2.909-.2,4.96-1.241,7.039,3.118,4.157,10.955,8.31,17.671,11.434,5.6,2.6,9.558,3.135,15.592,4.158,6.44,1.091,14.294,3.508,20.789,4.158,10.4,1.039,21.829,0,31.185,0,2.034,0,5.086.571,6.237-1.04,4.269.038,7.77-1.618,12-2.274,3.1,1.071,10.869-2.923,13.987-3.963,4.806-1.6,4.9-.04,5.2-3.118C1404.54,905.74,1403.154,903.02,1403.154,900.941Z" fill="#f2bea0"/>
      <path id="Path_430" data-name="Path 430" d="M1299.8,952.352c-1.528-4.134-3.715-.032-7.106,2.375-2.789,3.254-8.941-.027-4.762,6.048C1293.236,968.489,1305.224,960,1299.8,952.352Z" fill="#f2bea0"/>
      <path id="Path_431" data-name="Path 431" d="M1387.319,953.141c-.094-.012-3.162-.437-3.256-.45-.949-.217-.932-.46-1.864-.921-.937.109-1.538-.547-2.324.011-.847.513.664-.462.2.386-.623.772-.489,1.869-.646,2.87-.037.628.98,2.157.943,2.785.931.461,1.17-.143,1.863.921.411.476.992,1.377,1.4,1.853,1,.882,1.947.189,3.256.45.094.013,1.3-.484,1.393-.471a3.809,3.809,0,0,0,2.324-.011c.938-.109-.325-.374.461-.931.847-.514-.008-.084.46-.932.623-.771,1.7-.4,1.854-1.4l.208-1.566c-.1-1.267.924-2.95.231-4.015-.411-.476-.05,1.408-.461.932C1392.439,954.513,1388.629,953.4,1387.319,953.141Z" fill="#f2bea0"/>
      <g id="Group_198" data-name="Group 198">
        <path id="Path_432" data-name="Path 432" d="M1336.628,986.178c-5.806-.029-13.71-.967-19.5-.548-.841.061-5.445-.492-7.524-.492-6.119.968-1.272,3.328-1.04,3.119-1.611-.7-1.039,1.483-1.039,3.118,0,3.119,2.495,1.337,3.118,5.2.033.2,2.046,1.874,2.079,2.079.5,3.073,2.262,4.194,5.2,4.157,1.661-.02,1.5.822,3.119,1.04.061.031,2.016-1.07,2.079-1.04,4.4,2.146.1.248,5.2-1.039,2.228-.563,2.725,1.984,3.435-.227,2.3-.162,4.941-3.012,5.92-4.97C1339.746,992.415,1343.482,986.212,1336.628,986.178Z" fill="#f2bea0"/>
        <g id="Group_197" data-name="Group 197" clip-path="url(#clip-path-3)">
          <path id="Path_433" data-name="Path 433" d="M1306.483,984.1c-.753,3.793-.4,13.011,12.049,18.382,0,0-5.5-9.582-3.785-17.785s-4.193-2.194-4.193-2.194" fill="#ffe5dc"/>
          <path id="Path_434" data-name="Path 434" d="M1341.029,987.784c-.723,3.8-1.333,15.217-14.883,15.534,0,0,7.961-8.892,9.442-17.14s5.441,1.606,5.441,1.606" fill="#c19781"/>
          <path id="Path_435" data-name="Path 435" d="M1336.335,986.839c-.724,3.8,1.369,15.654-12.181,15.97,0,0,5.99-7.259,7.471-15.507s4.71-.463,4.71-.463" fill="#d3a590"/>
        </g>
      </g>
      <path id="Path_437" data-name="Path 437" d="M1387.562,993.454c-.827-2.2.5-3.773-2.079-4.158-4.99-.743-10.4,0-15.592-1.039-5.245.753-9.355,0-13.513,1.039-7.276-2.079-3.118,5.2-2.079,10.395.306,1.531,1.263,2.04,2.7,2.5a7.217,7.217,0,0,0,2.341,1.871c6.034,3.129,14.236,3.738,20.946,1.867C1386.023,1004.328,1389.975,999.88,1387.562,993.454Z" fill="#f2bea0"/>
      <path id="Path_438" data-name="Path 438" d="M1346.28,807.43c-.084-.258.945-1.932.743-2.121,0-1.039-.782.084-1.04,0-.248-.13-1.316.832-1.6.843l-.552.074a2.055,2.055,0,0,0-.6.288c-.426-.053-1.054.615-1.405.874s-.462-.08-.749.234c-.122.013-.276-.016-.369.074a2.167,2.167,0,0,1-2.2.533,2.389,2.389,0,0,0-.891-1.028,2.419,2.419,0,0,0-.309-.154l-.1-.224a2.093,2.093,0,0,0-.478-.539c-.027-.058-.044-.12-.073-.177a3.738,3.738,0,0,0-.422-.57,2.428,2.428,0,0,0-.542-.451,1.8,1.8,0,0,0-.552-.238l-.042-.007h-.005c-.21-.087-.315-.579-.552-.57-.384-.644-.846.055-1.164.724a2.288,2.288,0,0,0-.879.891,3.011,3.011,0,0,0-.237.588c-.023.121-.047.256-.063.392l-.971.7c-.277.134.439.687.2.864-.1.071-1.179-.261-1.269-.181a2.185,2.185,0,0,0-.674-.176,1.566,1.566,0,0,0-.7-.368l-.253-.034c-.131-.177-.257-.357-.4-.526-.322-.387-1.025-.418-1.47-.609s-2.162-1.607-2.513-1.225,1.015,2.565,1.04,3.119c.026.579,0,1.039,0,1.655,0,.011.013.017.02.025a11.308,11.308,0,0,1,.816,1.237c.1.168.193.337.3.5a5.316,5.316,0,0,0,1.419,3.017,2.658,2.658,0,0,0,3.2.565,2.373,2.373,0,0,0,1.026-1.166l.338.055.065.044c.164.1.324.207.479.326a1.8,1.8,0,0,0,2.131-.06c.034,0,.068.006.1.007.149.006.3-.007.442-.008a3.658,3.658,0,0,0,.694.167,6.605,6.605,0,0,0,2.32-.162,2.835,2.835,0,0,0,.724.293,4.664,4.664,0,0,0,1.093.1h.072a1.773,1.773,0,0,0,.365.18,2.652,2.652,0,0,0,1.658.129,2.482,2.482,0,0,0,1.224-.624,2.563,2.563,0,0,0,.618-1.261,11.211,11.211,0,0,0,1.282-1.993,2.217,2.217,0,0,0,.145-1.642c.036-.032.079-.053.113-.088l.326-.42a2.07,2.07,0,0,0,.283-1.05v-.023A1.562,1.562,0,0,0,1346.28,807.43Z" fill="#f9cc52"/>
      <path id="Path_439" data-name="Path 439" d="M1403.154,911.336s-2.079-46.777-12.473-58.211c-7.455-16.744-14.553-6.237-12.474-5.2,10.519,5.259,20.789,42.618,17.671,66.526C1399,915.494,1403.154,911.336,1403.154,911.336Z" fill="#c19781" opacity="0.53"/>
      <path id="Path_440" data-name="Path 440" d="M1397.013,912.581s-.428-46.821-10.413-58.614c-6.86-17-14.324-6.747-12.283-5.634,10.327,5.627,19.274,43.325,15.314,67.108C1392.711,916.589,1397.013,912.581,1397.013,912.581Z" fill="#d3a590" opacity="0.53"/>
      <path id="Path_441" data-name="Path 441" d="M1281.99,902.19s-3.573-46.986,8.768-58.882c6.37-9.933,14.129-7.145,12.12-5.976-1.8,1.046-3.478,3.165-5,6.076a41.985,41.985,0,0,0-1.87,4.159c-5.843,14.961-8.571,41.924-5.115,59.611C1287.845,908.412,1281.99,902.19,1281.99,902.19Z" fill="#ffe5dc"/>
      <path id="Path_442" data-name="Path 442" d="M1378.207,989.3s4.158,14.553,0,16.632,5.2-1.04,5.2-1.04-1.569-16.38-1.3-15.986S1378.207,989.3,1378.207,989.3Z" fill="#d3a590"/>
      <path id="Path_443" data-name="Path 443" d="M1353.3,988.693s.16,11.838,3.7,13.5,7.9,3.636,7.9,3.636-4.406-3.135-5.406-6.135c-1.039-3.118-1.889-10.652-1.889-10.652l-4.3-.346" fill="#ffe5dc"/>
      <path id="Path_444" data-name="Path 444" d="M1384.562,1003.078s4.448-3.37,3.2-5.457-3.2-8.583-3.2-8.583l-3.069-.345s2.951,15.156-.168,16.2c-3.448,1.15,3.237-1.81,3.237-1.81" fill="#c19781"/>
      <g id="Group_200" data-name="Group 200">
        <path id="Path_445" data-name="Path 445" d="M1419.3,947.148q-.016-3.983-.255-7.957a2.484,2.484,0,0,0-.049-.334,63.6,63.6,0,0,0-.126-13.209,91.845,91.845,0,0,0-.643-21.168,88.607,88.607,0,0,0-2.489-11.583c.926-2.821-.435-5.95-1.189-8.664-.869-3.124-1.748-6.246-2.606-9.373a68.261,68.261,0,0,1-1.767-9.272,51.172,51.172,0,0,0-2.132-9.084c-3.238-10.008-7.944-20.2-16.444-26.812-2.641-2.053-4.16-5.216-7.151-6.712-2.436-1.217-6.7-3.122-9.356-3.118-1.732-.415-2.375.043-4.157,0-2.9-.638-4.34-.57-7.277-1.039a2.193,2.193,0,0,0-1.039,0c-.04-.029-1,.028-1.04,0-.434-.309-1.675-.054-2.079,0-.233-.121.25-.953,0-1.04-.264-.845-2.379-.017-3.3-.005-6.67.093-12.9-.816-19.569-1.034-3.254-.107-7.141-.929-10.4-1.04-1.706-.058-3.213,1.4-4.915,1.249a34.27,34.27,0,0,0-5.068-.429,2.018,2.018,0,0,0-1.63.943c-4.75.088-9.482.021-14.154,1.164-.814.2-.064-.424-.22.192.161-2.2-.991-.012-1.039,0h0c-.355-.028-.742-.173-1.04,0-.939.221-2.178.818-3.118,1.039-.681.16-1.372,1.342-2.028,1.588-.632.237-1.6.083-2.13.491-.556.431-.442-.373-1.039,0-.868.541-2.3,1.467-3.119,2.079-.32.238-.728.789-1.039,1.039-.562.452.541-.475,0,0-.017.015-1.023,1.026-1.04,1.04-.954.84-3.268,1.17-4.158,2.079-1.14,1.165-2.065,2.913-3.118,4.158s-2.122,2.861-3.119,4.158-2.152,2.84-3.118,4.157c-.154.211.154,1.869,0,2.079-.007.01-1.835,1.485-1.039,1.04-1.531,1.747-.988,2.2-1.832,4.486a72.6,72.6,0,0,0-2.118,8.046l-2.2,9.067a1.948,1.948,0,0,0,.674,2.055c-.078.561-.169,1.119-.237,1.681a1.9,1.9,0,0,0,1.085,1.8,58.956,58.956,0,0,0,.173,6.813,2.346,2.346,0,0,0,.206.792q-.39,8.785-.16,17.585a2.3,2.3,0,0,0,.075.514c-.047.5-.088,1.007-.141,1.51a1.764,1.764,0,0,0,.6,1.452q-.361,6.183-1.09,12.341a1.9,1.9,0,0,0,1.1,1.806c-.049,2.048-.082,4.1-.061,6.142.015,1.367.121,2.727.157,4.093.032,1.227-1.253,2.1-.83,3.217,1.478,3.92-.536,5.42,0,8.076a1.741,1.741,0,0,0,1.788,1.489,2.1,2.1,0,0,0,2.558-1.452,76.215,76.215,0,0,1,1.929-8.145c.336-1.066.683-2.116,1.009-3.169a2.624,2.624,0,0,0,.623-.95,51.548,51.548,0,0,0,2.427-7.087c.551-2.464,1.727-4.6,2.421-7.02.361-1.259.732-2.517,1.1-3.776a1.446,1.446,0,0,0,.475-.561,12.847,12.847,0,0,1,1.054-1.734,5.592,5.592,0,0,0,.923-2.822,1.605,1.605,0,0,0-.024-.247,1.456,1.456,0,0,0,.2-.541c.075-.526.115-1.049.168-1.573a2.167,2.167,0,0,0,.931-1.711,27.005,27.005,0,0,0-.935-8.614,2.053,2.053,0,0,0,.449-1.437,59.4,59.4,0,0,0-.341-9.743,2.7,2.7,0,0,0-.094-.463c0-.07,0-.14,0-.21a2.022,2.022,0,0,0-.346-1.161q.01-2.478.021-4.956c0-.029-.009-.051-.01-.08a1.9,1.9,0,0,0,.259-1.663l-.048-.118c-.016-.04-.039-.075-.056-.114a44.93,44.93,0,0,0,.981-4.438c.085-.625.147-1.25.2-1.875a55.836,55.836,0,0,0,.9-8.787c.02-1.049,2.441-3.093,1.625-3.317l4.158-3.118c.114-1.028,4.985-1.848,4.157-2.079,1.74-2.006,2.023-1.531,4.158-3.119l3.119-1.039c2.636-.855-1.108,1.819,1.039,0,.483-.409,2.151-.422,2.079-1.039.078-.043,3.04.041,3.119,0,.229.079,15.172-.384,2.079-1.04-.689-.034-2.763.066-2.079,0,.156,0,7.423,1.9,3.118,0,3.761-.4-1.65-.392,2.079-1.039.48-.084-.481.069,0,0-.57,1.269-1.016,1.123.754,1.007,6.073-.4,12.09-1.354,18.1-2.313,2.366.326,4.737.539,7.127.749,1.483.13,3.784-.927,5.205-.483,1.378.43,1.656,1.076,3.119,1.04.993-.025,2.477.629,3.522.742l.908.284c1.22.608,2.31-.139,3.777-.653,1.136-.4,2.279,2.01,2.079,1.039.414-.076-.407.119,0,0,.035-.01,1.006.013,1.039,0,.642.21.391-.185,1.04,0,.683.614,2.308-.418,3.118,0,.914.473,1.471.586,2.079,0,1.376.331,1.748,1.729,3.119,2.079,3.859.988,7.534,3.336,11.434,4.158,1.218.839,1.037,1,2.079,2.079,2.2,2.273,6.572,3.248,8.513,5.742.259.333.505.675.761,1.01a80.02,80.02,0,0,1,3.85,7.667c.628,5.8,2.653,11.177,4.848,16.5a1.837,1.837,0,0,0-1.017,2.323c1.435,4.584,3.065,9.175,4.37,13.834a1.878,1.878,0,0,0-.2,1.071c.3,3.537.512,7.111.8,10.679a2.06,2.06,0,0,0-.63,2.089,31.057,31.057,0,0,1,1.059,4.9,1.594,1.594,0,0,0-.032,1.24c.1.236.17.475.244.714.07.506.164,1.007.249,1.509a9.341,9.341,0,0,0,.024,2.112,15.337,15.337,0,0,1,.209,2.242,2,2,0,0,0,.326,1.131l.09,1a2.609,2.609,0,0,0,.13.592c.039.376.062.755.1,1.13.157,1.36.556,2.666.723,4.021a37.172,37.172,0,0,1,.251,4.575,1.883,1.883,0,0,0,.845,1.644,14.259,14.259,0,0,1,.329,1.609,38.553,38.553,0,0,0,.84,4.207c.112.436.244.866.37,1.3a24.819,24.819,0,0,1,.087,4.134,2.093,2.093,0,0,0,.609,1.47,2.157,2.157,0,0,0,.589.4q.243,1.557.513,3.111a1.728,1.728,0,0,0,.773,1.112c.245,1.145.5,2.294.823,3.421.146.649.308,1.294.495,1.933a2.015,2.015,0,0,0,.2.45c.242,1.093.515,2.179.792,3.263a1.989,1.989,0,0,0,.9,1.187c.126.417.262.83.422,1.235a2.079,2.079,0,1,0,4.009-1.1,8.3,8.3,0,0,1-.11-.918,2.127,2.127,0,0,0,.2-1.554c-.076-.293-.17-.58-.255-.87,0-.152,0-.311,0-.456q-.021-1.842-.043-3.683a21.559,21.559,0,0,1,.643-2.823A15.089,15.089,0,0,0,1419.3,947.148Z" fill="#ffc"/>
        <g id="Group_199" data-name="Group 199" clip-path="url(#clip-path-4)">
          <path id="Path_446" data-name="Path 446" d="M1416.325,952.482l-6.114-23.722c3.026-3.08-14.869-95.788-29.175-99.67-12.847-3.486-20.7-13.629-20.7-13.233s27.2-.277,27.2-.277l17.416,34.292,16.571,72.465Z" fill="#fffda4"/>
          <path id="Path_447" data-name="Path 447" d="M1266.983,936.283l1.614-.147s4.623-94.445,15.018-102.761,18.6-16.378,18.655-15.985S1275.3,820.9,1275.3,820.9l-12.474,36.382,4.158,79Z" fill="#fffff5"/>
          <path id="Path_448" data-name="Path 448" d="M1422.9,953.954l-6.114-23.721c3.027-3.081-14.869-95.789-29.175-99.67-12.847-3.486-20.7-13.63-20.7-13.233s27.2-.277,27.2-.277l17.416,34.291,16.572,72.465Z" fill="#fffc99"/>
        </g>
      </g>
      <path id="Path_450" data-name="Path 450" d="M1375.088,920.691c-2.04,1.112-38.213,12.958-54.052,6.237s-15.592-12.474-15.592-12.474,31.187,7.46,36.381,7.276S1375.088,920.691,1375.088,920.691Z" fill="#a23740" opacity="0.45"/>
      <path id="Path_451" data-name="Path 451" d="M1375.162,920.533c-2.041,1.112-38.179,8.629-54.019,1.908s-13.945-8.374-13.945-8.374,31.6,7.75,36.8,7.566Z" fill="#6c252b" opacity="0.45"/>
      <path id="Path_452" data-name="Path 452" d="M1260.519,962.9c24.655,5.086,144,9.389,152.933-3.157" fill="none" stroke="#914f46" stroke-miterlimit="10" stroke-width="1.559"/>
      <path id="Path_453" data-name="Path 453" d="M1403.154,911.336c-1.039,7.276,7.8,46.256,12.994,54.572l1.039,2.079" fill="none" stroke="#914f46" stroke-miterlimit="10" stroke-width="1.559"/>
      <path id="Path_454" data-name="Path 454" d="M1327.273,815.184h16.654l3.7-10.726-8.316,4.158-5.2-5.2-3.118,5.2-7.276-4.158,3.119,9.355Z" fill="none" stroke="#914f46" stroke-miterlimit="10" stroke-width="1.559"/>
      <path id="Path_455" data-name="Path 455" d="M1266.805,940.916s11.954-31.684,15.251-42.574" fill="none" stroke="#914f46" stroke-miterlimit="10" stroke-width="1.559"/>
      <line id="Line_24" data-name="Line 24" x2="18.711" transform="translate(1352.74 988.777)" fill="none" stroke="#914f46" stroke-linecap="round" stroke-miterlimit="10" stroke-width="1.559"/>
      <line id="Line_25" data-name="Line 25" x2="15.072" transform="translate(1332.47 986.698)" fill="none" stroke="#914f46" stroke-linecap="round" stroke-miterlimit="10" stroke-width="1.559"/>
      <line id="Line_26" data-name="Line 26" x2="18.711" transform="translate(1308.042 986.698)" fill="none" stroke="#914f46" stroke-linecap="round" stroke-miterlimit="10" stroke-width="1.559"/>
      <path id="Path_456" data-name="Path 456" d="M1269.875,985.474c5.944-9.171,9.062-18.526,9.062-19.566" fill="none" stroke="#914f46" stroke-linecap="round" stroke-miterlimit="10" stroke-width="1.559"/>
      <path id="Path_457" data-name="Path 457" d="M1281.462,987.025c4.511-9.954,6.985-20.089,6.83-21.117" fill="none" stroke="#914f46" stroke-linecap="round" stroke-miterlimit="10" stroke-width="1.559"/>
      <path id="Path_458" data-name="Path 458" d="M1289.777,988.064c4.512-9.954,6.986-20.089,6.831-21.116" fill="none" stroke="#914f46" stroke-linecap="round" stroke-miterlimit="10" stroke-width="1.559"/>
      <path id="Path_459" data-name="Path 459" d="M1298.093,987.025c4.512-9.954,5.946-19.05,5.791-20.077" fill="none" stroke="#914f46" stroke-linecap="round" stroke-miterlimit="10" stroke-width="1.559"/>
      <path id="Path_460" data-name="Path 460" d="M1306.409,987.025c4.634-9.146,5.932-18.1,5.791-19.038" fill="none" stroke="#914f46" stroke-linecap="round" stroke-miterlimit="10" stroke-width="1.559"/>
      <path id="Path_461" data-name="Path 461" d="M1315.482,986.548c4.025-8.182,5.167-17.678,5.034-18.561" fill="none" stroke="#914f46" stroke-linecap="round" stroke-miterlimit="10" stroke-width="1.559"/>
      <path id="Path_462" data-name="Path 462" d="M1323.78,986.5c3.208-6.838,5.173-17.711,5.052-18.514" fill="none" stroke="#914f46" stroke-linecap="round" stroke-miterlimit="10" stroke-width="1.559"/>
      <path id="Path_463" data-name="Path 463" d="M1335.034,986.427c2.5-7.111,4.359-17.692,4.193-18.44" fill="none" stroke="#914f46" stroke-linecap="round" stroke-miterlimit="10" stroke-width="1.559"/>
      <path id="Path_464" data-name="Path 464" d="M1342.814,986.5c1.6-6.564,1.866-17.784,1.61-18.514" fill="none" stroke="#914f46" stroke-linecap="round" stroke-miterlimit="10" stroke-width="1.559"/>
      <path id="Path_465" data-name="Path 465" d="M1410.68,989.038c-4.352-9.272-6.824-22.4-7-24.862" fill="none" stroke="#914f46" stroke-linecap="round" stroke-miterlimit="10" stroke-width="1.559"/>
      <path id="Path_466" data-name="Path 466" d="M1398.99,989c-3.118-10.475-3.925-22.1-3.632-23.093" fill="none" stroke="#914f46" stroke-linecap="round" stroke-miterlimit="10" stroke-width="1.559"/>
      <path id="Path_467" data-name="Path 467" d="M1390.469,989.931c-3.118-10.474-3.72-21.986-3.427-22.983" fill="none" stroke="#914f46" stroke-linecap="round" stroke-miterlimit="10" stroke-width="1.559"/>
      <path id="Path_468" data-name="Path 468" d="M1377.687,966.948" fill="none" stroke="#914f46" stroke-linecap="round" stroke-miterlimit="10" stroke-width="1.039"/>
      <path id="Path_469" data-name="Path 469" d="M1381.493,988.693a121.848,121.848,0,0,1-3.836-21.276" fill="none" stroke="#914f46" stroke-linecap="round" stroke-miterlimit="10" stroke-width="1.559"/>
      <path id="Path_470" data-name="Path 470" d="M1370.059,988.693c-2.533-9.008-.959-19.784-.688-20.706" fill="none" stroke="#914f46" stroke-linecap="round" stroke-miterlimit="10" stroke-width="1.559"/>
      <path id="Path_471" data-name="Path 471" d="M1360.7,988.693c-2.534-9.008-2-19.784-1.727-20.706" fill="none" stroke="#914f46" stroke-linecap="round" stroke-miterlimit="10" stroke-width="1.559"/>
      <path id="Path_472" data-name="Path 472" d="M1352.388,989.733c-2.533-9.009-2-20.824-1.727-21.746" fill="none" stroke="#914f46" stroke-linecap="round" stroke-miterlimit="10" stroke-width="1.559"/>
      <path id="Path_473" data-name="Path 473" d="M1251.911,980.461a103.952,103.952,0,0,0,12.473-30.145c3-12.69,2.488-21.635,1.04-61.329-1.06-29.055-1.137-33.914,2.079-41.579,1.607-3.831,9.34-21,27.026-28.066,4.581-1.829,9.291-2.259,18.711-3.118,7.643-.7,22.094-1.534,43.658,1.039,14.156,1.689,21.234,2.534,24.947,4.158,21.7,9.494,28.274,38.956,33.263,61.329,4.01,17.979,8.172,47.6,2.079,85.237l10.4,20.79L1386,989.816c2.728,5.852,1.745,8.995,1.039,10.4-4.143,8.215-25.2,8.761-32.223,0-3.733-4.656,1.039-13.513-7.277-13.513h-4.428a2.387,2.387,0,0,0-2.328,1.808,52.851,52.851,0,0,1-1.559,6.507c-2.45,7.244-13.732,11.162-21.829,7.277-5.258-2.523-8.678-8.1-9.279-14.45a1.107,1.107,0,0,0-1.261-.977,111.436,111.436,0,0,1-37.276-1.2A109.829,109.829,0,0,1,1251.911,980.461Z" fill="none" stroke="#753f39" stroke-miterlimit="10" stroke-width="4.806"/>
      <line id="Line_27" data-name="Line 27" x2="15.072" transform="translate(1378.207 988.777)" fill="none" stroke="#914f46" stroke-linecap="round" stroke-miterlimit="10" stroke-width="1.559"/>
      <path id="Path_474" data-name="Path 474" d="M1402.526,911.855c-53.013,20.79-110.664,1.134-120.579-11.434v-2.079c2.079-8.316-1.039-37.421,3.119-46.776s28.065-15.592,42.618-16.632,39.5,2.079,57.171,13.514c14.479,9.369,18.384,52.372,17.671,61.329Z" fill="none" stroke="#914f46" stroke-miterlimit="10" stroke-width="4.806"/>
      <g id="Group_202" data-name="Group 202">
        <path id="Path_475" data-name="Path 475" d="M1278.5,856.342c-1.452,2.364,5.1,8.744,8.571,10.69a1.15,1.15,0,0,0,1.676-.849c1.581-9,16.561-19.374,20.543-20.216,4.193-.886,1.462-6.493-2.684-10.255S1285.594,844.793,1278.5,856.342Z" fill="#ffc"/>
        <g id="Group_201" data-name="Group 201" clip-path="url(#clip-path-5)">
          <path id="Path_476" data-name="Path 476" d="M1278.993,860.365c-.3-.07,4.324,2.3,6.672,0s7.428,1.007,6.949,2.4-7.045,6.9-7.045,6.9Z" fill="#fffff5"/>
          <path id="Path_477" data-name="Path 477" d="M1292.375,840.911s3.282-2.755,8.362.551a37.274,37.274,0,0,1,8.746,8.459l3.33-7.4-3.618-9.8-10.207-1.965Z" fill="#fffda4"/>
          <path id="Path_478" data-name="Path 478" d="M1298.053,836.606s8.633.454,12.275,7.93S1315,842.26,1315,842.26l-5.919-12.149Z" fill="#fffc8d"/>
        </g>
        <path id="Path_480" data-name="Path 480" d="M1278.5,856.342c-1.452,2.364,5.1,8.744,8.571,10.69a1.15,1.15,0,0,0,1.676-.849c1.581-9,16.561-19.374,20.543-20.216,4.193-.886,1.462-6.493-2.684-10.255S1285.594,844.793,1278.5,856.342Z" fill="none" stroke="#914f46" stroke-miterlimit="10" stroke-width="3"/>
      </g>
      <g id="Group_204" data-name="Group 204">
        <path id="Path_481" data-name="Path 481" d="M1401.23,852.182c1.975,1.948-2.857,9.709-5.765,12.43a1.149,1.149,0,0,1-1.83-.424c-3.69-8.364-20.715-14.851-24.782-14.716-4.284.142-2.973-5.956.153-10.6S1391.581,842.664,1401.23,852.182Z" fill="#ffc"/>
        <g id="Group_203" data-name="Group 203" clip-path="url(#clip-path-6)">
          <path id="Path_482" data-name="Path 482" d="M1393.539,846.068" fill="#ffc" stroke="#914f46" stroke-miterlimit="10" stroke-width="1.559"/>
          <path id="Path_483" data-name="Path 483" d="M1394.47,846.7s4.762,9.5,5.243,11.777,5.335-3.98,5.335-3.98l-2.711-6.078-7.867-1.719" fill="#fffc8d"/>
          <path id="Path_484" data-name="Path 484" d="M1368.664,837.481l4.218,12.658L1366,851.825l-2.9-9.462,5.571-4.882" fill="#fffff5"/>
        </g>
        <path id="Path_486" data-name="Path 486" d="M1401.23,852.182c1.975,1.948-2.857,9.709-5.765,12.43a1.149,1.149,0,0,1-1.83-.424c-3.69-8.364-20.715-14.851-24.782-14.716-4.284.142-2.973-5.956.153-10.6S1391.581,842.664,1401.23,852.182Z" fill="none" stroke="#914f46" stroke-miterlimit="10" stroke-width="3"/>
      </g>
      <path id="Path_487" data-name="Path 487" d="M1298.2,931.059c-1.585,4.95-.974,18.381,1.506,21.876,5.415,7.629-10.444,17.611-13.18,2.982s-.3-20.181-.3-20.181" fill="none" stroke="#914f46" stroke-linecap="round" stroke-miterlimit="10" stroke-width="1.559"/>
      <path id="Path_488" data-name="Path 488" d="M1378.81,929.694c2.272,4.675,3.574,18.057,1.615,21.869-4.278,8.32,12.838,15.95,13.47,1.08s-2.565-20.019-2.565-20.019" fill="none" stroke="#914f46" stroke-linecap="round" stroke-miterlimit="10" stroke-width="1.559"/>
      <path id="Path_489" data-name="Path 489" d="M1298.489,949.973c-2.532,3.072-11.009,9.089-11.966,5.944" fill="none" stroke="#914f46" stroke-miterlimit="10" stroke-width="1.559"/>
      <path id="Path_490" data-name="Path 490" d="M1380.291,951.32c3.533,1.835,13.689,4.05,13.338.781" fill="none" stroke="#914f46" stroke-miterlimit="10" stroke-width="1.559"/>
      <path id="Path_491" data-name="Path 491" d="M1420.231,988.249c-4.644-9.893-9.422-25.469-9.281-26.5" fill="none" stroke="#914f46" stroke-linecap="round" stroke-miterlimit="10" stroke-width="1.559"/>
      <g id="Group_205" data-name="Group 205">
        <path id="Path_492" data-name="Path 492" d="M1338.494,868.838a16.466,16.466,0,0,1-1.236,10.536,16.6,16.6,0,0,0-1.831-.724c-5.375-1.823-12.75-2.1-20.524-.377a43.993,43.993,0,0,0-14.645,5.986c-.64.429-1.247.862-1.829,1.31a16.048,16.048,0,0,1-3.577-7.076c-2.232-10.089,5.732-20.431,17.779-23.1S1336.262,858.749,1338.494,868.838Z" fill="#ffc"/>
        <path id="Path_493" data-name="Path 493" d="M1336.218,872.939a14.441,14.441,0,0,1-.791,5.711c-5.375-1.823-12.75-2.1-20.524-.377a43.993,43.993,0,0,0-14.645,5.986A14.368,14.368,0,0,1,1298.739,867c.242-.395.5-.771.767-1.15a18.545,18.545,0,0,1,3.277-3.429c.007-.012.007-.012.018-.014a21.02,21.02,0,0,1,2.2-1.552,22.608,22.608,0,0,1,10.291-3.192C1326.236,856.932,1335.6,863.77,1336.218,872.939Z" fill="#632037"/>
        <circle id="Ellipse_100" data-name="Ellipse 100" cx="6.237" cy="6.237" r="6.237" transform="translate(1298.599 862.063)" fill="#fff" opacity="0.18"/>
        <circle id="Ellipse_101" data-name="Ellipse 101" cx="6.237" cy="6.237" r="6.237" transform="translate(1299.389 860.824)" fill="#fff" opacity="0.18"/>
      </g>
      <path id="Path_494" data-name="Path 494" d="M1344.745,868.838a16.466,16.466,0,0,0,1.236,10.536,16.6,16.6,0,0,1,1.831-.724c5.375-1.823,12.75-2.1,20.524-.377a43.993,43.993,0,0,1,14.645,5.986c.64.429,1.247.862,1.829,1.31a16.048,16.048,0,0,0,3.577-7.076c2.232-10.089-5.732-20.431-17.779-23.1S1346.977,858.749,1344.745,868.838Z" fill="#ffc"/>
      <path id="Path_495" data-name="Path 495" d="M1347.021,872.939a14.439,14.439,0,0,0,.791,5.711c5.375-1.823,12.75-2.1,20.524-.377a43.993,43.993,0,0,1,14.645,5.986A14.368,14.368,0,0,0,1384.5,867c-.242-.395-.5-.771-.767-1.15a18.545,18.545,0,0,0-3.277-3.429c-.007-.012-.007-.012-.018-.014a21.02,21.02,0,0,0-2.2-1.552,22.612,22.612,0,0,0-10.291-3.192C1357,856.932,1347.634,863.77,1347.021,872.939Z" fill="#632037"/>
      <circle id="Ellipse_102" data-name="Ellipse 102" cx="6.237" cy="6.237" r="6.237" transform="translate(1350.207 860.785)" fill="#fff" opacity="0.18"/>
      <circle id="Ellipse_103" data-name="Ellipse 103" cx="6.237" cy="6.237" r="6.237" transform="translate(1349.168 860.785)" fill="#fff" opacity="0.18"/>
      <path id="Path_496" data-name="Path 496" d="M1340.292,895c5.076-.074,10.3,1.215,12.941,4.278,2.2,2.549,2.814,8.113-3.194,6.511s-.4-6.007-8.628-5.965l-1.385-.042c-8.812.8-2.4,5.206-8.411,6.808s-5.607-4.806-3.411-7.355c2.639-3.063,7.864-4.352,12.941-4.278" fill="#d64956" stroke="#d84955" stroke-linecap="round" stroke-miterlimit="10" stroke-width="1.559"/>
      <g id="Group_206" data-name="Group 206" opacity="0.24">
        <path id="Path_497" data-name="Path 497" d="M1328.781,882.8a2.143,2.143,0,0,0-2.714-.022c-.164,0-.328,0-.491,0-.546-.015-1.1-.041-1.581-.079q-1.935-.148-3.854-.444c-1.235-.192-2.47-.539-3.715-.634a8.94,8.94,0,0,0-1.66.06c-.192.022-.391.044-.587.047l-.006,0c0-.011-.049-.045-.164-.1a1.941,1.941,0,0,0-2.213.263,4.118,4.118,0,0,0-.548.057,8.272,8.272,0,0,0-4.11,2.462,2.1,2.1,0,0,0-.149,2.536,2.25,2.25,0,0,0,1.1.894,2.031,2.031,0,0,0,.477.232,2.435,2.435,0,0,0,.719.128l.012.023a2.425,2.425,0,0,0,1.269.954,3.1,3.1,0,0,0,1.878.036,2.626,2.626,0,0,0,.385.013c.041,0,.081-.012.122-.017a8.675,8.675,0,0,0,4.394.664,11,11,0,0,0,4.235-1.22l.9-.11a8.375,8.375,0,0,0,3.018-.788,2.441,2.441,0,0,0,1.274-.353l.4-.354a2.016,2.016,0,0,0,.188-.282,2.772,2.772,0,0,0,1.621-1.022A2.132,2.132,0,0,0,1328.781,882.8Z" fill="#d84955" opacity="0.75"/>
        <path id="Path_498" data-name="Path 498" d="M1329.65,884.017c.18,2.582-4.778,5.021-11.082,5.459s-11.552-1.293-11.731-3.875c-.127-1.83,2.317-3.583,5.992-4.608a1.059,1.059,0,0,1,.68.043,25.636,25.636,0,0,0,11.367,1.75,26.483,26.483,0,0,0,3.26-.432.967.967,0,0,1,.918.324A2.293,2.293,0,0,1,1329.65,884.017Z" fill="none" stroke="#d84955" stroke-miterlimit="10" stroke-width="1.039" opacity="0.8"/>
      </g>
      <g id="Group_207" data-name="Group 207" opacity="0.24">
        <path id="Path_499" data-name="Path 499" d="M1355.509,882.31a2.143,2.143,0,0,1,2.714-.022c.163,0,.327,0,.49,0,.546-.016,1.095-.042,1.582-.08q1.935-.148,3.854-.444c1.234-.191,2.469-.539,3.714-.633a8.788,8.788,0,0,1,1.661.06c.192.021.391.044.587.046l.006,0c0-.011.048-.045.164-.1a1.941,1.941,0,0,1,2.213.263,4.135,4.135,0,0,1,.548.057,8.277,8.277,0,0,1,4.109,2.462,2.1,2.1,0,0,1,.15,2.536,2.257,2.257,0,0,1-1.106.894,2.028,2.028,0,0,1-.477.232,2.435,2.435,0,0,1-.718.128l-.013.023a2.42,2.42,0,0,1-1.268.954,3.083,3.083,0,0,1-1.879.036,2.626,2.626,0,0,1-.385.014c-.04,0-.081-.013-.121-.018a8.678,8.678,0,0,1-4.4.664,11,11,0,0,1-4.235-1.219l-.9-.111a8.374,8.374,0,0,1-3.018-.787,1.578,1.578,0,0,1-.52-.054,1.554,1.554,0,0,1-.754-.3l-.4-.354a2.236,2.236,0,0,1-.188-.281,2.776,2.776,0,0,1-1.621-1.023A2.132,2.132,0,0,1,1355.509,882.31Z" fill="#d84955" opacity="0.75"/>
        <path id="Path_500" data-name="Path 500" d="M1354.639,883.525c-.179,2.582,4.778,5.021,11.083,5.459s11.552-1.292,11.731-3.874c.127-1.83-2.318-3.584-5.992-4.608a1.058,1.058,0,0,0-.68.042,25.625,25.625,0,0,1-11.367,1.75,26.645,26.645,0,0,1-3.26-.431.967.967,0,0,0-.919.324A2.3,2.3,0,0,0,1354.639,883.525Z" fill="none" stroke="#d84955" stroke-miterlimit="10" stroke-width="1.039" opacity="0.8"/>
      </g>
    </g>
    <path id="Path_501" data-name="Path 501" d="M1503.079,926.183q-2.032-17.649-4.067-35.3c-1.417-12.3-2.934-24.219-6.766-36.03-7.178-22.129-15.038-43.727-24.265-65.09a9.946,9.946,0,0,0-3.852-4.41c-2.349-6.294-4.278-13.432-7.841-19.1-1.653-2.628-3.828-4.367-5.594-6.365-3.009-3.4-5.452-6.362-10.161-7.355a14.249,14.249,0,0,0-6.152.052,89.006,89.006,0,0,0-34.211-24.48c-14.662-6-30.059-6.689-45.715-6.439-16.382.261-31.438,5.607-45.229,14.422-12.354,7.9-21.753,22.361-26.332,36.129-2.7,8.114-2.046,16.619-3.774,24.886-1.913,9.155-3.751,18.126-4.538,27.565-.219,2.625.519,6.8,1,6,3-5,12-11,17-13,1.569-.627.206-1.239,1-2,7.377-7.062-.923-2.933,2.153-11.763a7.8,7.8,0,0,0,.256-4.714c.011-.063.024-.125.035-.188,1.459-8.359.864-16.833,4.178-24.813a64.254,64.254,0,0,1,12.306-18.968c5.517-5.835,13.844-9.494,21.138-12.64,8.651-3.732,17.315-3.933,26.613-3.971,8.193-.033,16.317.192,24.3,2.2A72.943,72.943,0,0,1,1422.44,764.7a8.369,8.369,0,0,0,2.546,2.062,12.715,12.715,0,0,0,6.327,8.948,13.163,13.163,0,0,0,2.776,3.052c1.35,1.593.98.287,1.586,1.808,1.325,3.325,3.084,8.143,4.573,12.049a15.829,15.829,0,0,0,2.908,4.832,18.853,18.853,0,0,0,1.511,5.942c8.288,19.187,15.1,38.766,21.544,58.639,5.247,16.177,6.827,33.436,8.464,50.467a13.669,13.669,0,0,0-.553,1.276,37.508,37.508,0,0,1-3.716,6.022l.111-.143a14.51,14.51,0,0,0-2.437,5.185c-4.97,2.373-10.76,3.756-15.852,6.267-2.94,1.449-5.7,3.452-8.748,4.666a52.648,52.648,0,0,1-8.137,1.976,81.36,81.36,0,0,0-9.406,2.606q-1.4.484-2.8.953a27.461,27.461,0,0,0-8.068.663,10.584,10.584,0,0,0-5.3-2.7c-17.374-3.121-34.288,2.1-51.454,4.411-15.374,2.07-30.884,3.2-46.377,3.91-16.421.755-32.861.979-49.3,1.087-15.287.1-30.324.348-45.457-1.959-5.671-.864-11.176-1.305-16.8.276-2.271.639-6.4,2.947-7.685,3.058-3.612.312-8.774-2.032-12.581-2.556a54.625,54.625,0,0,0-14.723-.2,19.607,19.607,0,0,0-4.683,1.2c-.262-.072-.594-.15-1.014-.235-6.337-3.268-13.649-3.917-20.538-2.949-7.227,1.016-11.181,10.228-9.428,16.607,2.136,7.775,9.357,10.447,16.606,9.429-4.585.644,1.149,1.189,2.865,1.786,1.654.574,3.295,1.261,4.975,1.744a25.251,25.251,0,0,0,7.3,1.162c.616-.037,1.227-.1,1.836-.187a12.093,12.093,0,0,0,14.476-1.5c.2.036.392.063.589.1,5.4,1.109,10.512,2.8,16.124,2.358,5.077-.4,8.968-3.277,13.8-4,3.155-.473,7.446.94,10.786,1.411,20.663,2.912,42.08,1.58,62.89,1.246,20.6-.33,41.215-1.093,61.727-3.119,10.795-1.066,21.574-2.456,32.275-4.235,8.507-1.415,17.953-4.367,26.608-2.812a17.038,17.038,0,0,0,4.851.168,10.212,10.212,0,0,0,5.662,3.063,35.788,35.788,0,0,0,9.427.216c.379.12.7.222.81.268,4.589,1.921,9.821-.193,13.245-3.757,6.614-1.95,13.311-2.9,19.694-5.815,5.57-2.54,10.279-5.409,15.935-7.423a82.275,82.275,0,0,0,10.3-4.261c.168-.087.327-.182.491-.272a13.958,13.958,0,0,0,5,.884c8.284,0,12.615-6.14,13-12.563a13.155,13.155,0,0,0,.525-1.516,12.323,12.323,0,0,0,.385-2.258A10.087,10.087,0,0,0,1503.079,926.183Z" fill="#e4d6b2"/>
    <path id="Path_502" data-name="Path 502" d="M1296.379,817.536c1.654-26.249,5.695-49.964,13.7-59.365,23-27,80-36,117,12s46.57,144.866,46.57,144.866c-2,16-39.57,21.134-51.57,24.134s-261.736,19.676-275,4" fill="none" stroke="#753f39" stroke-linecap="round" stroke-linejoin="round" stroke-width="7"/>
    <g id="Group_209" data-name="Group 209">
      <path id="Path_503" data-name="Path 503" d="M1578.845,1072.7a102.255,102.255,0,0,0-7.78-25.335c-.139-.439-.278-.878-.423-1.315a102.4,102.4,0,0,0-2.595-9.937c-5.929-31.984-12.723-63.835-23.529-94.551a46.707,46.707,0,0,0-.184-9.147c1.317-10.1,1.946-20.271.732-30.411-.788-6.582-2.149-13.028-2.8-19.62a33.084,33.084,0,0,0-2-8.213,15.937,15.937,0,0,0,.608-8.057c-1.709-9.748-9.166-18.479-14.408-26.605-5.048-7.824-9.943-15.775-15.2-23.457a76.151,76.151,0,0,0-14.621-16.461,15.831,15.831,0,0,0-8.152-5.774c-1.127-1.153-1.3-1.336-.509-.531q-.741-1.212-1.393-2.472c-2.115-3.879-4.268-7.731-7.7-10.629-5.571-4.7-32.834-29.977-38.3-24.514-1,1,13.606,38.885,19.206,43.606q1.67,1.731.71.263a26.3,26.3,0,0,1,1.448,2.389c.817,1.442,1.509,2.95,2.36,4.374a31.462,31.462,0,0,0,3.064,4.268,15.374,15.374,0,0,0,1.457,4.375l.348.679c1.386,16.948,9.2,32.451,13.535,48.725q4.889,18.347,9.32,36.831c.465,5.581.832,11.154.893,16.706.047,4.36.279,8.848.186,13.28-.61.244-1.216.5-1.819.779a56.233,56.233,0,0,0-9.208,5.8c-1.369.991-2.737,1.993-4.188,2.864-.689.425-1.4.811-2.124,1.173.518-.283.133-.206-1.179.24a41.691,41.691,0,0,0-14.289,3.734,11.072,11.072,0,0,0-3.263,2.595c-22.813,3.775-45.69,7.17-68.635,10.046-19.381,2.43-39.268,3.509-58.641,6.694a11.459,11.459,0,0,0-5.559-1.159,84.169,84.169,0,0,0-12.665,1.643,19.081,19.081,0,0,0-9.743-2.872c-8.58-.147-17.516,1.982-26.315,3.387a8.823,8.823,0,0,0-2.335-.708,125.092,125.092,0,0,0-25.492-.937,10.894,10.894,0,0,0-4.807.3q-2.162.156-4.342.345a167.665,167.665,0,0,1-33.449-.326c-10.674-1.2-20.822-.852-31.51-.452-5.085.191-9.049.11-13.747-1.317a34.094,34.094,0,0,0-6.28-1.345c-3.273-3.219-8.117-1.452-12.807-3.452-15.957-6.8-15.578,4.9-9.429,16.606,1.1,2.095,1.357,4.535,2.384,6.672q3.749,10.484,7.5,20.968c-.187.591-.358,1.187-.493,1.794a44.394,44.394,0,0,0-.87,6.695,11.722,11.722,0,0,0-1.731,2.405q-.781,1.464-1.574,2.917a29.971,29.971,0,0,0-2.429,3.293,11.68,11.68,0,0,0-1.468,3.38,16.015,16.015,0,0,0-4.093,4.9,39.435,39.435,0,0,0-7.185,8.728,40.6,40.6,0,0,0-3.987,9.324,11.915,11.915,0,0,0-4.926,7.189,5.824,5.824,0,0,0-.168,1.108,3.44,3.44,0,0,0-.791.91c-3.123,4.35-2.4,9.906.407,14.11a58.515,58.515,0,0,0-2.646,16.025,12.656,12.656,0,0,0,2.121,7.183c.879,10.857,13.582,16.34,22.839,8.679a38.583,38.583,0,0,0,7.491-8.448,11.7,11.7,0,0,0,4.971-3.2c.2-.213.383-.431.576-.645.408.07.818.12,1.231.156a14.358,14.358,0,0,0,9.42,3.831,12.949,12.949,0,0,0,3.384-.447,13.854,13.854,0,0,0,13.535,3.913,14.377,14.377,0,0,0,6.852-4.512,13.572,13.572,0,0,0,4.619-1.045,13.18,13.18,0,0,0,6.093.331,14.553,14.553,0,0,0,14.353.326,12.454,12.454,0,0,0,5.574-6.478,14.3,14.3,0,0,0,6.585-.07c1.294,2.146,2.618,4.276,4.008,6.372,3.7,5.58,10.51,8.315,16.858,5.524a14.907,14.907,0,0,0,7.451-7.568,19.106,19.106,0,0,0,3.176,1.094,32.044,32.044,0,0,0,6.363,3.873,24.023,24.023,0,0,0,2.029,1.464c8.88,5.7,21.157,4.845,27.56-3.77.265-.2.538-.382.792-.6.267-.146.54-.277.8-.438a14.3,14.3,0,0,0,3.434-2.978,25.155,25.155,0,0,0,3.09,1.457,11.076,11.076,0,0,0,8.637-.424c3.341,3.2,8.882,4.093,13.126,3.2a10.969,10.969,0,0,1,5.56.128,16.5,16.5,0,0,1,5.312,2.468c5.639,4.613,13.575,5.517,19.092,0a14.1,14.1,0,0,0,3.834-8.554c.018-.04.031-.083.048-.123a13.251,13.251,0,0,0,3.026-1.292,12.549,12.549,0,0,0,5.365-5.923,19.536,19.536,0,0,0,3.456,2.533,15.869,15.869,0,0,0,7.947,2.127,26.96,26.96,0,0,0,5.442-.437c.024.028.039.049.064.079,4.337,5.04,12.827,4.958,17.726,1.056.3-.239.584-.49.859-.748a12.314,12.314,0,0,0,9.643-.256,14.073,14.073,0,0,0,3.4-2.14,15.033,15.033,0,0,0,4.026.416,13.588,13.588,0,0,0,9.994,1.964c.377.644.754,1.287,1.123,1.936a13.707,13.707,0,0,0,18.47,4.843,14.669,14.669,0,0,0,1.283-.846,13.148,13.148,0,0,0,7.356-1.752c.061-.036.113-.077.173-.114a14.1,14.1,0,0,0,8.225-1.657,12.661,12.661,0,0,0,5.072-5.323,13.993,13.993,0,0,0,4.14.722q1.857,3.018,3.873,5.935a14.1,14.1,0,0,0,8.906,5.977c7.21,4.458,18.334,1.277,20.281-7.763.219-1.015.4-2.032.557-3.049a12.761,12.761,0,0,0,10.812,1.821,13,13,0,0,0,4.518-2.318,13.909,13.909,0,0,0,7.2-.745,12.578,12.578,0,0,0,8.39.5c.067-.018.129-.046.2-.065a12.7,12.7,0,0,0,8.388,3.309,14.259,14.259,0,0,0,14.883,5.425c.316-.087.614-.2.915-.3a13.609,13.609,0,0,0,12.643,3.13c5.647-1.552,8.582-5.779,9.389-10.749A16.587,16.587,0,0,0,1578.845,1072.7Z" fill="#fad675"/>
      <g id="Group_208" data-name="Group 208" clip-path="url(#clip-path-7)">
        <path id="Path_504" data-name="Path 504" d="M1536.582,1112.671c-14-50-20-329-88-400s205,272,205,272l-69,136Z" fill="#bb993e"/>
        <path id="Path_505" data-name="Path 505" d="M1549.582,1111.671c-14-50-20-329-88-400s205,272,205,272l-69,136Z" fill="#7d6629"/>
        <path id="Path_506" data-name="Path 506" d="M1131.582,1111.671c7-44,27-82,34-98s-33-105-33-105l-54,37,23,80-27,79Z" fill="#fdebba"/>
      </g>
    </g>
    <path id="Path_508" data-name="Path 508" d="M1272.406,836.1c0-.008,1.222-5.951,1.219-5.934,1.575-8.327-.484-12.295,0-19.21,2.718-38.92,29.541-93.789,93.527-89.414,117,8,123.5,207.5,123.5,207.5-9.414,11.148-35.828,19.044-70.408,24.431" fill="none" stroke="#753f39" stroke-linecap="round" stroke-linejoin="round" stroke-width="7"/>
    <path id="Path_509" data-name="Path 509" d="M1260.519,963.409c-69.77.094-129.2-4.279-133.867-9.372-8.868-9.674,98.272-27.471,140.14-34.008" fill="none" stroke="#753f39" stroke-linejoin="round" stroke-width="7"/>
    <path id="Path_510" data-name="Path 510" d="M1420.244,953.468c-45.764,7.13-105.83,9.868-159.725,9.941" fill="none" stroke="#753f39" stroke-linejoin="round" stroke-width="7"/>
    <path id="Path_511" data-name="Path 511" d="M1415.652,739.037c34,19,141.757,76.911,131,207,14.782,42.333,28.211,105.885,37.25,143.634" fill="none" stroke="#753f39" stroke-linejoin="round" stroke-width="7"/>
    <path id="Path_512" data-name="Path 512" d="M1102.122,1093.967c3.624-17.6,10.53-23.93,10.53-23.93s2,16-2-6,34-51,29-63-14-47-14-47" fill="none" stroke="#753f39" stroke-linejoin="round" stroke-width="7"/>
  </g>
</svg>
