<svg xmlns="http://www.w3.org/2000/svg" xmlns:xlink="http://www.w3.org/1999/xlink" width="73.255" height="33.533" viewBox="0 0 73.255 33.533">
  <defs>
    <clipPath id="clip-path">
      <path id="Path_2485" data-name="Path 2485" d="M107.472,207.525c-.087.126-.172.254-.258.382-1.062,1.425-2.865,2.147-4.29,3.148a17.255,17.255,0,0,0-4.492,4.6c-.265.4-.5.816-.738,1.232.011-.02,0-.006-.018.026-.267-.3-.835-.69-1.01-.864q-.706-.7-1.373-1.443a15.3,15.3,0,0,0-2.263-2.516,2.8,2.8,0,0,0-3.4.2c-1.658,1.268-2.117,3.446-3.578,4.859a4.225,4.225,0,0,1-4.8.466A7.2,7.2,0,0,1,79.1,215.9a8.227,8.227,0,0,0-2.313-2.242c-2.3-1.163-4.361.348-6.172,1.649-.352.253-.817.667-1.276.624a3.384,3.384,0,0,1-1.3-.648c-.123-.08-.243-.166-.361-.253A1.71,1.71,0,0,0,67,213.851L64.418,211.9a13.087,13.087,0,0,0-3.446-2.607,2.1,2.1,0,0,0-.277-.109,3.036,3.036,0,0,0-2.275-1.751c-1.109-.156-2.275.657-1.908,1.909a10.255,10.255,0,0,0,3,4.832c.217.19.442.366.672.534a9.6,9.6,0,0,0,1.17,5.418,10.733,10.733,0,0,0,1.6,2.114,10.242,10.242,0,0,1,.689.776c.195.462.4.921.618,1.375a1.066,1.066,0,0,0,.056.1,1.625,1.625,0,0,0-.309.866l-.034.868a1.583,1.583,0,0,0,1.552,1.552c3.105.257,6.137-.558,9.229-.625,3.015-.065,6,.505,9.032.437,2.076-.047,4.152-.193,6.223-.37l6.008.361c2.9.174,7.229,1.247,8.425-2.325.635-1.9,1.092-3.875,1.634-5.8q.88-3.127,1.76-6.253a1.457,1.457,0,0,0,.046-.531q.879-1.517,1.858-2.978a6.829,6.829,0,0,0,.409-.6C111.188,207.353,108.593,205.9,107.472,207.525Z" transform="translate(-56.443 -206.818)" fill="#ddd2cc"/>
    </clipPath>
    <clipPath id="clip-path-2">
      <path id="Path_2490" data-name="Path 2490" d="M106.258,204.716a1.766,1.766,0,0,0-1.065-1.151,2.03,2.03,0,0,0-1.6-.722,2.751,2.751,0,0,0-2.222,1.433,2.105,2.105,0,0,0-.225.828,1.688,1.688,0,0,0-.034,1.265,1.8,1.8,0,0,0,1.717,1.387,2.585,2.585,0,0,0,1.208-.285,2.135,2.135,0,0,0,2.218-2.754Z" transform="translate(-101.008 -202.842)" fill="#ddd2cc"/>
    </clipPath>
    <clipPath id="clip-path-3">
      <path id="Path_2495" data-name="Path 2495" d="M141.85,200.847a1.765,1.765,0,0,0-1.065-1.152,2.034,2.034,0,0,0-1.6-.722,2.752,2.752,0,0,0-2.223,1.433,2.111,2.111,0,0,0-.224.828,1.683,1.683,0,0,0-.034,1.266,1.8,1.8,0,0,0,1.716,1.386,2.581,2.581,0,0,0,1.209-.285,2.135,2.135,0,0,0,2.217-2.753Z" transform="translate(-136.6 -198.973)" fill="#ddd2cc"/>
    </clipPath>
    <clipPath id="clip-path-4">
      <path id="Path_2500" data-name="Path 2500" d="M85.483,206.218a2.32,2.32,0,0,0-.664-1.347c-.024-.025-.05-.05-.076-.074a1.611,1.611,0,0,0-.21-.2,1.459,1.459,0,0,0-.847-.314,1.791,1.791,0,0,0-.254-.021c-.044,0-.088,0-.131,0h-.03c-.069,0-.138.008-.208.017a2.266,2.266,0,0,0-1.872,1.686,1.775,1.775,0,0,0-.129,1.3,1.912,1.912,0,0,0,1.279,1.259,2.035,2.035,0,0,0,1.532.187,1.8,1.8,0,0,0,1.074-.772A2.157,2.157,0,0,0,85.483,206.218Z" transform="translate(-80.994 -204.264)" fill="#ddd2cc"/>
    </clipPath>
    <clipPath id="clip-path-5">
      <path id="Path_2505" data-name="Path 2505" d="M52.212,196.934a2.32,2.32,0,0,0-.664-1.348c-.024-.025-.05-.05-.076-.074a1.612,1.612,0,0,0-.21-.2,1.464,1.464,0,0,0-.847-.314,1.791,1.791,0,0,0-.254-.021c-.044,0-.088,0-.131,0H50c-.069,0-.138.008-.208.017a2.266,2.266,0,0,0-1.872,1.686,1.775,1.775,0,0,0-.129,1.3,1.912,1.912,0,0,0,1.278,1.259,2.037,2.037,0,0,0,1.533.187,1.8,1.8,0,0,0,1.074-.772A2.156,2.156,0,0,0,52.212,196.934Z" transform="translate(-47.723 -194.979)" fill="#ddd2cc"/>
    </clipPath>
  </defs>
  <g id="Group_1368" data-name="Group 1368" transform="translate(-45.004 -192.451)">
    <g id="Group_855" data-name="Group 855" transform="translate(53.554 203.073)">
      <path id="Path_2481" data-name="Path 2481" d="M107.472,207.525c-.087.126-.172.254-.258.382-1.062,1.425-2.865,2.147-4.29,3.148a17.255,17.255,0,0,0-4.492,4.6c-.265.4-.5.816-.738,1.232.011-.02,0-.006-.018.026-.267-.3-.835-.69-1.01-.864q-.706-.7-1.373-1.443a15.3,15.3,0,0,0-2.263-2.516,2.8,2.8,0,0,0-3.4.2c-1.658,1.268-2.117,3.446-3.578,4.859a4.225,4.225,0,0,1-4.8.466A7.2,7.2,0,0,1,79.1,215.9a8.227,8.227,0,0,0-2.313-2.242c-2.3-1.163-4.361.348-6.172,1.649-.352.253-.817.667-1.276.624a3.384,3.384,0,0,1-1.3-.648c-.123-.08-.243-.166-.361-.253A1.71,1.71,0,0,0,67,213.851L64.418,211.9a13.087,13.087,0,0,0-3.446-2.607,2.1,2.1,0,0,0-.277-.109,3.036,3.036,0,0,0-2.275-1.751c-1.109-.156-2.275.657-1.908,1.909a10.255,10.255,0,0,0,3,4.832c.217.19.442.366.672.534a9.6,9.6,0,0,0,1.17,5.418,10.733,10.733,0,0,0,1.6,2.114,10.242,10.242,0,0,1,.689.776c.195.462.4.921.618,1.375a1.066,1.066,0,0,0,.056.1,1.625,1.625,0,0,0-.309.866l-.034.868a1.583,1.583,0,0,0,1.552,1.552c3.105.257,6.137-.558,9.229-.625,3.015-.065,6,.505,9.032.437,2.076-.047,4.152-.193,6.223-.37l6.008.361c2.9.174,7.229,1.247,8.425-2.325.635-1.9,1.092-3.875,1.634-5.8q.88-3.127,1.76-6.253a1.457,1.457,0,0,0,.046-.531q.879-1.517,1.858-2.978a6.829,6.829,0,0,0,.409-.6C111.188,207.353,108.593,205.9,107.472,207.525Z" transform="translate(-56.443 -206.818)" fill="#ddd2cc"/>
      <g id="Group_854" data-name="Group 854" clip-path="url(#clip-path)">
        <path id="Path_2482" data-name="Path 2482" d="M74.6,230.055c-5.842-8.945-13.144-19.9-13.327-24.1-6.39-1.643-10.224,6.207-10.224,6.207l7.485,16.613Z" transform="translate(-54.868 -206.5)" fill="#ebe4e0"/>
        <path id="Path_2483" data-name="Path 2483" d="M100.573,235.723c9.676-14.422,15.518-21.907,14.787-29.94s9.493-.73,9.493-.73l-1.643,18.8-5.66,7.85Z" transform="translate(-69.337 -205.414)" fill="#cac5c2"/>
        <path id="Path_2484" data-name="Path 2484" d="M113.469,230.872c3.1-4.381,12.231-26.471,11.867-29.392s7.119,9.31,7.119,9.31L129.9,223.934s-8.945,9.493-9.675,9.128S113.469,230.872,113.469,230.872Z" transform="translate(-73.104 -205.127)" fill="#a9a5a3"/>
      </g>
    </g>
    <g id="Group_857" data-name="Group 857" transform="translate(85.098 200.258)">
      <path id="Path_2486" data-name="Path 2486" d="M106.258,204.716a1.766,1.766,0,0,0-1.065-1.151,2.03,2.03,0,0,0-1.6-.722,2.751,2.751,0,0,0-2.222,1.433,2.105,2.105,0,0,0-.225.828,1.688,1.688,0,0,0-.034,1.265,1.8,1.8,0,0,0,1.717,1.387,2.585,2.585,0,0,0,1.208-.285,2.135,2.135,0,0,0,2.218-2.754Z" transform="translate(-101.008 -202.842)" fill="#ddd2cc"/>
      <g id="Group_856" data-name="Group 856" clip-path="url(#clip-path-2)">
        <path id="Path_2487" data-name="Path 2487" d="M101.121,207.473c1.1-2.556,3.834-4.381,4.016-5.112s-3.491.9-3.491.9l-1.073.928.365,2.009.183,1.278" transform="translate(-100.881 -202.646)" fill="#ebe4e0"/>
        <path id="Path_2488" data-name="Path 2488" d="M102.518,208.617c1.727-1.535,3.712-3.151,4.271-4.443s1.29,3.638,1.29,3.638l-1.825.913-3.735-.108" transform="translate(-101.449 -203.168)" fill="#a69e99"/>
        <path id="Path_2489" data-name="Path 2489" d="M103.668,208.465c1.825-.73,3.834-1.825,4.016-2.739s-.325,2.394-.325,2.394l-1.8,1.05-1.891-.705" transform="translate(-101.785 -203.638)" fill="#6f6966"/>
      </g>
    </g>
    <g id="Group_859" data-name="Group 859" transform="translate(110.291 197.52)">
      <path id="Path_2491" data-name="Path 2491" d="M141.85,200.847a1.765,1.765,0,0,0-1.065-1.152,2.034,2.034,0,0,0-1.6-.722,2.752,2.752,0,0,0-2.223,1.433,2.111,2.111,0,0,0-.224.828,1.683,1.683,0,0,0-.034,1.266,1.8,1.8,0,0,0,1.716,1.386,2.581,2.581,0,0,0,1.209-.285,2.135,2.135,0,0,0,2.217-2.753Z" transform="translate(-136.6 -198.973)" fill="#ddd2cc"/>
      <g id="Group_858" data-name="Group 858" clip-path="url(#clip-path-3)">
        <path id="Path_2492" data-name="Path 2492" d="M136.713,203.6c1.1-2.556,3.834-4.381,4.017-5.111s-3.492.9-3.492.9l-1.072.929.365,2.008.183,1.278" transform="translate(-136.473 -198.778)" fill="#ebe4e0"/>
        <path id="Path_2493" data-name="Path 2493" d="M138.11,204.748c1.727-1.535,3.712-3.151,4.271-4.442s1.29,3.638,1.29,3.638l-1.826.913-3.735-.108" transform="translate(-137.041 -199.299)" fill="#a69e99"/>
        <path id="Path_2494" data-name="Path 2494" d="M139.261,204.6c1.825-.73,3.834-1.825,4.016-2.739s-.326,2.395-.326,2.395l-1.8,1.049-1.89-.7" transform="translate(-137.378 -199.769)" fill="#6f6966"/>
      </g>
    </g>
    <g id="Group_861" data-name="Group 861" transform="translate(70.931 201.265)">
      <path id="Path_2496" data-name="Path 2496" d="M85.483,206.218a2.32,2.32,0,0,0-.664-1.347c-.024-.025-.05-.05-.076-.074a1.611,1.611,0,0,0-.21-.2,1.459,1.459,0,0,0-.847-.314,1.791,1.791,0,0,0-.254-.021c-.044,0-.088,0-.131,0h-.03c-.069,0-.138.008-.208.017a2.266,2.266,0,0,0-1.872,1.686,1.775,1.775,0,0,0-.129,1.3,1.912,1.912,0,0,0,1.279,1.259,2.035,2.035,0,0,0,1.532.187,1.8,1.8,0,0,0,1.074-.772A2.157,2.157,0,0,0,85.483,206.218Z" transform="translate(-80.994 -204.264)" fill="#ddd2cc"/>
      <g id="Group_860" data-name="Group 860" clip-path="url(#clip-path-4)">
        <path id="Path_2497" data-name="Path 2497" d="M80.262,208.428c.912-1.644,2.556-5.295,3.834-5.477s-4.929,2.191-4.929,2.191l.546,2.429.55.857" transform="translate(-80.46 -203.877)" fill="#ebe4e0"/>
        <path id="Path_2498" data-name="Path 2498" d="M80.714,208.757c1.46-.365,4.747-3.652,5.111-4.564s1.826,3.468,1.826,3.468l-2.96,1.776-3.977-.68" transform="translate(-80.912 -204.207)" fill="#cac5c2"/>
        <path id="Path_2499" data-name="Path 2499" d="M83.293,209.23c1.643-1.461,4.016-3.1,4.2-4.017s-.73,2.556-.73,2.556-2.008,2.921-2.008,2.739S83.293,209.23,83.293,209.23Z" transform="translate(-81.666 -204.496)" fill="#a9a5a3"/>
      </g>
    </g>
    <g id="Group_863" data-name="Group 863" transform="translate(47.381 194.693)">
      <path id="Path_2501" data-name="Path 2501" d="M52.212,196.934a2.32,2.32,0,0,0-.664-1.348c-.024-.025-.05-.05-.076-.074a1.612,1.612,0,0,0-.21-.2,1.464,1.464,0,0,0-.847-.314,1.791,1.791,0,0,0-.254-.021c-.044,0-.088,0-.131,0H50c-.069,0-.138.008-.208.017a2.266,2.266,0,0,0-1.872,1.686,1.775,1.775,0,0,0-.129,1.3,1.912,1.912,0,0,0,1.278,1.259,2.037,2.037,0,0,0,1.533.187,1.8,1.8,0,0,0,1.074-.772A2.156,2.156,0,0,0,52.212,196.934Z" transform="translate(-47.723 -194.979)" fill="#ddd2cc"/>
      <g id="Group_862" data-name="Group 862" clip-path="url(#clip-path-5)">
        <path id="Path_2502" data-name="Path 2502" d="M46.991,199.143c.912-1.644,2.555-5.295,3.834-5.477s-4.929,2.191-4.929,2.191l.546,2.429.55.857" transform="translate(-47.189 -194.592)" fill="#ebe4e0"/>
        <path id="Path_2503" data-name="Path 2503" d="M47.443,199.472c1.46-.365,4.746-3.652,5.111-4.564s1.825,3.468,1.825,3.468l-2.959,1.776-3.977-.68" transform="translate(-47.641 -194.922)" fill="#cac5c2"/>
        <path id="Path_2504" data-name="Path 2504" d="M50.022,199.945c1.643-1.461,4.016-3.1,4.2-4.017s-.73,2.556-.73,2.556-2.008,2.921-2.008,2.739S50.022,199.945,50.022,199.945Z" transform="translate(-48.395 -195.211)" fill="#a9a5a3"/>
      </g>
    </g>
    <path id="Path_2506" data-name="Path 2506" d="M104.194,227.924c.231-1.072.338-1.394.537-2.467.852-4.609,4.21-12.983,4.826-14.479.751-1.823,2.467-4.5-.108-4.611s-12.011,10.725-12.011,10.725-3.432-4.934-6.22-5.577-6.435,7.615-8.151,6.971-5.9-6.22-7.507-6.436-5.791,5.362-6.864,4.29-9.867-10.51-12.012-10.4,7.507,17.052,7.293,19.519l-.214,2.467Z" transform="translate(-2.869 -3.488)" fill="none" stroke="#753f39" stroke-linejoin="round" stroke-width="3.095"/>
    <path id="Path_2507" data-name="Path 2507" d="M48.869,194.08a2.662,2.662,0,0,0-1.612,1.385,4.25,4.25,0,0,0-.693,1.87,2.356,2.356,0,0,0,.606,1.855,2.883,2.883,0,0,0,1.716.726,3.716,3.716,0,0,0,2.809-.658,3.321,3.321,0,0,0,.934-1.3,2.916,2.916,0,0,0,.223-1.689,2.641,2.641,0,0,0-1.154-1.625A3.37,3.37,0,0,0,49.883,194,6.853,6.853,0,0,0,48.869,194.08Z" fill="none" stroke="#753f39" stroke-linejoin="round" stroke-width="3.095"/>
    <path id="Path_2508" data-name="Path 2508" d="M139.022,198.322a2.664,2.664,0,0,0-1.612,1.384,4.254,4.254,0,0,0-.694,1.87,2.36,2.36,0,0,0,.606,1.855,2.885,2.885,0,0,0,1.717.726,3.716,3.716,0,0,0,2.809-.658,3.331,3.331,0,0,0,.934-1.3,2.926,2.926,0,0,0,.223-1.688,2.64,2.64,0,0,0-1.154-1.625,3.362,3.362,0,0,0-1.814-.642A6.847,6.847,0,0,0,139.022,198.322Z" transform="translate(-26.34 -1.24)" fill="none" stroke="#753f39" stroke-linejoin="round" stroke-width="3.095"/>
    <path id="Path_2509" data-name="Path 2509" d="M82.052,203.322a2.662,2.662,0,0,0-1.612,1.385,4.248,4.248,0,0,0-.694,1.871,2.359,2.359,0,0,0,.606,1.855,2.884,2.884,0,0,0,1.716.726,3.716,3.716,0,0,0,2.809-.658,3.324,3.324,0,0,0,.934-1.3,2.914,2.914,0,0,0,.223-1.688,2.639,2.639,0,0,0-1.154-1.625,3.362,3.362,0,0,0-1.814-.642A6.849,6.849,0,0,0,82.052,203.322Z" transform="translate(-9.695 -2.701)" fill="none" stroke="#753f39" stroke-linejoin="round" stroke-width="3.095"/>
    <path id="Path_2510" data-name="Path 2510" d="M102.809,202.565a2.664,2.664,0,0,0-1.612,1.385,4.25,4.25,0,0,0-.693,1.87,2.356,2.356,0,0,0,.606,1.854,2.884,2.884,0,0,0,1.716.726,3.716,3.716,0,0,0,2.809-.658,3.319,3.319,0,0,0,.934-1.3,2.913,2.913,0,0,0,.223-1.688,2.641,2.641,0,0,0-1.154-1.625,3.37,3.37,0,0,0-1.814-.642A6.858,6.858,0,0,0,102.809,202.565Z" transform="translate(-15.76 -2.479)" fill="none" stroke="#753f39" stroke-linejoin="round" stroke-width="3.095"/>
  </g>
</svg>
