<svg xmlns="http://www.w3.org/2000/svg" xmlns:xlink="http://www.w3.org/1999/xlink" width="175.52" height="141.985" viewBox="0 0 175.52 141.985">
  <defs>
    <clipPath id="clip-path">
      <path id="Path_4058" data-name="Path 4058" d="M560.083,667.664c-5.658,4.851-12.43,5.717-18.5,10.007-1.724-.506-3.176,1.687-5,2-4.827.829-7.794,3.748-12,6-.072-.015-1.042-.319-5,1-6,2-8.775,4-16.216,5.12-3.013.452-6.029.886-9.046,1.32-5.517-2.72-12.51-2.9-19.3-3.937a97.37,97.37,0,0,1-17.821-4.567c-6.612-2.355-12.747-5-19.934-4.712a11.358,11.358,0,0,0-1.264.131c-1-.617-2-1.229-3-1.825-9.868-5.874-19.939,7.552-12.119,15.705,10.158,10.591,18.732,22.223,28.036,33.514,9.335,11.327,21.228,17.855,34.518,23.538a13.385,13.385,0,0,0,5.873,1.122,12.6,12.6,0,0,0,1.562.694,70.609,70.609,0,0,0,45.2,1.034c12.873-4.175,24.692-13.21,26.6-26.908a85.341,85.341,0,0,0,5.978-11.191,10.049,10.049,0,0,0,3.451-3.4,9.173,9.173,0,0,0,1.065-7.092c.649-1.528,1.3-3.043,1.97-4.528,1.826-4.061,1.6-8.737-1.348-11.9a42.087,42.087,0,0,0,3.37-14.057C577.759,665.4,566.142,662.47,560.083,667.664Z" fill="#ddd2cc"/>
    </clipPath>
  </defs>
  <g id="suiker" transform="translate(-409.16 -621.117)">
    <g id="Group_1392" data-name="Group 1392">
      <path id="Path_4054" data-name="Path 4054" d="M560.083,667.664c-5.658,4.851-12.43,5.717-18.5,10.007-1.724-.506-3.176,1.687-5,2-4.827.829-7.794,3.748-12,6-.072-.015-1.042-.319-5,1-6,2-8.775,4-16.216,5.12-3.013.452-6.029.886-9.046,1.32-5.517-2.72-12.51-2.9-19.3-3.937a97.37,97.37,0,0,1-17.821-4.567c-6.612-2.355-12.747-5-19.934-4.712a11.358,11.358,0,0,0-1.264.131c-1-.617-2-1.229-3-1.825-9.868-5.874-19.939,7.552-12.119,15.705,10.158,10.591,18.732,22.223,28.036,33.514,9.335,11.327,21.228,17.855,34.518,23.538a13.385,13.385,0,0,0,5.873,1.122,12.6,12.6,0,0,0,1.562.694,70.609,70.609,0,0,0,45.2,1.034c12.873-4.175,24.692-13.21,26.6-26.908a85.341,85.341,0,0,0,5.978-11.191,10.049,10.049,0,0,0,3.451-3.4,9.173,9.173,0,0,0,1.065-7.092c.649-1.528,1.3-3.043,1.97-4.528,1.826-4.061,1.6-8.737-1.348-11.9a42.087,42.087,0,0,0,3.37-14.057C577.759,665.4,566.142,662.47,560.083,667.664Z" fill="#ddd2cc"/>
      <g id="Group_1391" data-name="Group 1391" clip-path="url(#clip-path)">
        <path id="Path_4055" data-name="Path 4055" d="M471.582,771.671c-23-44-24-43-19-80s-39-16-39-16l-4,28,17,29,19,15,29,26Z" fill="#ebe4e0"/>
        <path id="Path_4056" data-name="Path 4056" d="M522.582,776.671c5-18,6-94-12-114s88-14,89-13,1,90-5,99-38,28-38,28Z" fill="#cac5c2"/>
        <path id="Path_4057" data-name="Path 4057" d="M551.582,764.671c5-24,2-95-7-107s44,3,44,3,9,42,10,43-31,48-31,48Z" fill="#a9a5a3"/>
      </g>
    </g>
    <path id="Path_4059" data-name="Path 4059" d="M559.16,647.835c-3.788-4.33-9.357-6.343-13.7-10-5.3-4.463-10.574-7.885-17.262-9.906-6.613-2-13.658-2.861-20.495-3.7a168.687,168.687,0,0,0-41.926.113c-7.547.963-12.982,3.134-16.257,10.434-.085.19-.305.568-.525.96-.444-.218-.9-.419-1.365-.594a16.921,16.921,0,0,0-20.368,7.467c-4.79,1.273-7.661,5.59-7.142,11.3a14.156,14.156,0,0,0-7.949,6.567,13.069,13.069,0,0,0-.752,1.6l-.026.069c-2.487,6.332.138,14.023,6.738,16.653a13.674,13.674,0,0,0,11.6-.785,10.835,10.835,0,0,0,2.192,1.245,13.9,13.9,0,0,0,2.3.961c4.313,3.025,9.554,2.822,14.55,1.633,7.38-1.756,9.614-11.547,4.413-16.714-.467-.464-.948-.9-1.433-1.338a16.026,16.026,0,0,0,5.9-8.164c.121-.389.21-.783.3-1.177a19.893,19.893,0,0,0,5.418-4.153c1.307-1.433,2.409-4.307,3.543-6.244,6.254-1.5,13.752-1.08,19.831-1.1a149.8,149.8,0,0,1,23.983,1.715c6.7,1.066,13.826,1.989,19.332,6.233,2.859,2.2,5.477,4.71,8.51,6.693,1.275.834,2.672,1.467,3.949,2.294.354.229.621.412.84.565a9.716,9.716,0,0,0,4.608,10.306c4.306,2.518,11.42,1.344,13.682-3.588C564.7,660.521,564.113,653.5,559.16,647.835Z" fill="#a69e99"/>
    <path id="Path_4060" data-name="Path 4060" d="M415.955,673.553s72.127,23.618,106.127,11.618,45.949-22.937,45.949-22.937" fill="none" stroke="#914f46" stroke-linecap="round" stroke-miterlimit="10" stroke-width="6"/>
    <path id="Path_4061" data-name="Path 4061" d="M468.112,747.6c39.068,12.3,83.717,14.35,94.88-8.2s27.906-56.375,0-87.125-145.111-38.95-147.344,11.275S468.112,747.6,468.112,747.6Z" fill="none" stroke="#753f39" stroke-miterlimit="10" stroke-width="12.836"/>
    <path id="Path_4062" data-name="Path 4062" d="M453.582,679.671c0-39.051,26-39,36-38s53.395,1.763,60.2,31.882C521.582,684.671,497.582,701.671,453.582,679.671Z" fill="#935a27" stroke="#914f46" stroke-linecap="round" stroke-miterlimit="10" stroke-width="6"/>
  </g>
</svg>
