<svg xmlns="http://www.w3.org/2000/svg" width="1683.023" height="2498.355" viewBox="0 0 1683.023 2498.355">
  <path id="Subtraction_2" data-name="Subtraction 2" d="M337.057,5332.355c-30.451-.516-57.388-1.345-82.349-2.536-29.807-1.421-56.878-3.349-82.757-5.892-28.734-2.823-56.117-6.463-81.388-10.819-13.565-2.338-26.9-4.945-39.624-7.749-13.242-2.917-26.234-6.138-38.615-9.571-12.838-3.56-25.415-7.459-37.383-11.589-12.375-4.271-24.463-8.916-35.928-13.8-11.831-5.044-23.355-10.5-34.252-16.215-11.216-5.882-22.1-12.215-32.353-18.823-10.53-6.786-20.7-14.062-30.232-21.627a352.361,352.361,0,0,1-27.888-24.629,336.529,336.529,0,0,1-47.856-59.046,352.668,352.668,0,0,1-18.12-31.975,379.811,379.811,0,0,1-15.384-35.184c-4.674-12.337-8.871-25.306-12.474-38.547-3.669-13.483-6.828-27.635-9.39-42.065-2.606-14.681-4.668-30.068-6.13-45.736-1.486-15.931-2.393-32.606-2.7-49.562-.308-17.233,0-35.248.912-53.542.927-18.583,2.507-37.988,4.7-57.677,2.219-19.976,5.13-40.824,8.651-61.965,3.572-21.44,7.873-43.783,12.783-66.409,4.978-22.937,10.727-46.827,17.089-71.005,6.447-24.5,13.7-49.992,21.57-75.757,7.973-26.117,16.8-53.256,26.225-80.663,9.553-27.77,20-56.611,31.054-85.722,11.194-29.483,23.326-60.078,36.059-90.936,12.892-31.248,26.767-63.649,41.237-96.3,28.634-52.881,58.495-105.709,87.372-156.8l.007-.012.019-.033c19.6-34.682,39.874-70.544,59.1-105.271,21.51-38.859,39.628-72.562,55.389-103.033,18.86-36.461,34.91-69.333,49.068-100.494,7.653-16.842,14.837-33.4,21.353-49.21,6.82-16.55,13.146-32.859,18.8-48.475,5.887-16.258,11.244-32.308,15.923-47.706,4.85-15.959,9.13-31.74,12.722-46.9,3.709-15.657,6.8-31.156,9.2-46.067,2.463-15.345,4.262-30.551,5.346-45.2,1.113-15.032,1.507-29.934,1.171-44.294a402.721,402.721,0,0,0-3.327-43.356,368.669,368.669,0,0,0-8.15-42.386,354.026,354.026,0,0,0-13.3-41.382,249.551,249.551,0,0,0-13.535-29.045,230.379,230.379,0,0,0-16.365-25.671,225.542,225.542,0,0,0-18.972-22.521,233.911,233.911,0,0,0-21.357-19.593,255.217,255.217,0,0,0-23.52-16.887,290.262,290.262,0,0,0-25.459-14.406c-8.584-4.312-17.727-8.4-27.177-12.147-9.087-3.6-18.733-7.007-28.672-10.112-9.506-2.97-19.581-5.762-29.944-8.3-9.853-2.412-20.281-4.669-30.993-6.709-19.714-3.755-40.729-6.876-64.244-9.542-43.531-4.935-88.137-7.419-131.273-9.821h-.014c-69.075-3.846-134.318-7.479-186.677-20.578l.106-167.949c17.629,3.154,40.677,5.927,68.505,8.241,26.537,2.206,58.119,4.053,93.869,5.489,66.188,2.658,148.991,4.006,246.11,4.006,116.764,0,256.362-1.937,414.914-5.756,126.835-3.055,266.031-7.316,413.72-12.664,251.971-9.124,442.82-18.329,444.719-18.42l0,.188c.1,5.677.634,35.98.909,75.057.278,39.468.345,96.274-.913,142.767a180.909,180.909,0,0,1-28.238,10.583,254.212,254.212,0,0,1-31.165,6.705c-19.842,3.052-42.508,4.537-69.295,4.537-31.474,0-63.961-1.97-98.356-4.057h-.008l-1.4-.085c-33.574-2.037-68.292-4.143-102.395-4.143-32.47,0-60.124,1.966-84.543,6.011a302.946,302.946,0,0,0-39.062,9.03,226.527,226.527,0,0,0-36.04,14.392c-5.763,2.925-11.375,6.129-16.679,9.523a181.694,181.694,0,0,0-15.676,11.242,177.736,177.736,0,0,0-14.588,13.088A181.117,181.117,0,0,0,726.08,3143.9a192.8,192.8,0,0,0-12.167,17.159,213.826,213.826,0,0,0-10.832,19.384c-3.394,6.877-6.561,14.19-9.413,21.735-2.9,7.682-5.566,15.828-7.912,24.212-10.495,37.5-17.97,68.228-23.527,96.71-6.222,31.893-9.971,60.94-11.463,88.8-3.206,59.872,3.95,117.127,22.518,180.186,4.761,16.167,10.408,33.118,16.784,50.382,6.367,17.237,13.709,35.459,21.824,54.161,16.151,37.222,35.753,77.439,59.925,122.949,23.226,43.73,50.557,92.12,83.554,147.934,30.535,51.649,66.352,110.363,109.5,179.5,15.813,26.989,31.033,53.919,45.238,80.042,14.024,25.792,27.446,51.507,39.892,76.433,12.288,24.608,23.971,49.136,34.724,72.9,10.609,23.447,20.613,46.815,29.734,69.457,8.995,22.327,17.379,44.563,24.921,66.089,7.435,21.222,14.26,42.352,20.285,62.8,5.937,20.151,11.261,40.2,15.825,59.6,4.5,19.1,8.381,38.1,11.545,56.473,3.116,18.094,5.619,36.07,7.44,53.429,1.793,17.092,2.975,34.071,3.513,50.466.53,16.126.45,32.136-.237,47.584-.676,15.2-1.958,30.263-3.81,44.784-1.821,14.28-4.245,28.432-7.2,42.063-2.91,13.4-6.417,26.665-10.423,39.423-3.937,12.54-8.467,24.943-13.464,36.865-4.906,11.707-10.4,23.276-16.327,34.387a405.1,405.1,0,0,1-22.86,37.724,413.089,413.089,0,0,1-26.351,34.481c-9.179,10.788-19.12,21.342-29.545,31.371-10.174,9.788-21.089,19.343-32.442,28.4-11.072,8.832-22.862,17.432-35.042,25.561-11.87,7.921-24.435,15.612-37.345,22.858-12.569,7.055-25.809,13.882-39.352,20.291-13.167,6.231-26.983,12.24-41.063,17.859-13.673,5.457-27.964,10.692-42.476,15.563-14.082,4.726-28.749,9.234-43.593,13.4-28.291,7.942-58.352,14.961-89.349,20.862-28.877,5.5-59.243,10.154-90.256,13.841-28.674,3.41-58.547,6.068-88.788,7.9,5.079-24.126,10.508-44.2,16.137-59.672a137.2,137.2,0,0,1,10.407-22.93c3.888-6.512,7.877-10.924,11.857-13.111H679.446a22.98,22.98,0,0,0,23-23v-96a22.982,22.982,0,0,0-23-23h-488a22.982,22.982,0,0,0-23,23v96a22.982,22.982,0,0,0,23,23H297.239c3.951,3.913,7.955,9.608,11.9,16.927a201.818,201.818,0,0,1,10.7,24.06C325.731,5290.763,331.522,5309.995,337.057,5332.355Z" transform="translate(405 -2834)" fill="#d84955"/>
</svg>
