<svg xmlns="http://www.w3.org/2000/svg" width="311.354" height="273.633" viewBox="0 0 311.354 273.633">
  <g id="Group_1010" data-name="Group 1010" transform="translate(-987.544 -707.039)" opacity="0.679">
    <path id="Path_513" data-name="Path 513" d="M1250.883,799.813c-10.66-2.276-30.964-6.441-20.656-23.663a1.255,1.255,0,0,1,.49-.461c19.031-9.841,21.3,16.3,21.565,22.944A1.157,1.157,0,0,1,1250.883,799.813Z" fill="#009ea7" stroke="#004f54" stroke-linecap="round" stroke-linejoin="round" stroke-width="6"/>
    <path id="Path_514" data-name="Path 514" d="M1200.271,736.206c-10.555,2.725-30.581,8.066-29.05-11.947a1.253,1.253,0,0,1,.233-.631c12.632-17.3,26.335,5.077,29.541,10.9A1.156,1.156,0,0,1,1200.271,736.206Z" fill="#009ea7" stroke="#004f54" stroke-linecap="round" stroke-linejoin="round" stroke-width="6"/>
    <path id="Path_515" data-name="Path 515" d="M1132.432,716.827c-7.017,8.342-20.23,24.311-30.593,7.122a1.267,1.267,0,0,1-.177-.649c.25-21.423,24.4-11.143,30.384-8.262A1.156,1.156,0,0,1,1132.432,716.827Z" fill="#009ea7" stroke="#004f54" stroke-linecap="round" stroke-linejoin="round" stroke-width="6"/>
    <path id="Path_516" data-name="Path 516" d="M1066.653,736.41c.313,10.9,1.076,31.608-18.1,25.673a1.263,1.263,0,0,1-.565-.367c-14.068-16.158,10.8-24.552,17.184-26.386A1.157,1.157,0,0,1,1066.653,736.41Z" fill="#009ea7" stroke="#004f54" stroke-linecap="round" stroke-linejoin="round" stroke-width="6"/>
    <path id="Path_517" data-name="Path 517" d="M1023.866,783.2c6.52,8.736,19.051,25.245-.05,31.411a1.272,1.272,0,0,1-.673.024c-20.8-5.134-5.279-26.3-1.107-31.468A1.157,1.157,0,0,1,1023.866,783.2Z" fill="#009ea7" stroke="#004f54" stroke-linecap="round" stroke-linejoin="round" stroke-width="6"/>
    <path id="Path_518" data-name="Path 518" d="M1017.866,835.2c6.52,8.736,19.051,25.245-.05,31.411a1.272,1.272,0,0,1-.673.024c-20.8-5.134-5.279-26.3-1.107-31.468A1.157,1.157,0,0,1,1017.866,835.2Z" fill="#009ea7" stroke="#004f54" stroke-linecap="round" stroke-linejoin="round" stroke-width="6"/>
    <path id="Path_519" data-name="Path 519" d="M1006.866,893.2c6.52,8.736,19.051,25.245-.05,31.411a1.272,1.272,0,0,1-.673.024c-20.8-5.134-5.279-26.3-1.107-31.468A1.157,1.157,0,0,1,1006.866,893.2Z" fill="#009ea7" stroke="#004f54" stroke-linecap="round" stroke-linejoin="round" stroke-width="6"/>
    <path id="Path_520" data-name="Path 520" d="M1001.866,946.2c6.52,8.736,19.051,25.245-.05,31.411a1.272,1.272,0,0,1-.673.024c-20.8-5.134-5.279-26.3-1.107-31.468A1.157,1.157,0,0,1,1001.866,946.2Z" fill="#009ea7" stroke="#004f54" stroke-linecap="round" stroke-linejoin="round" stroke-width="6"/>
    <path id="Path_521" data-name="Path 521" d="M1293.879,861.175c-10.176-3.908-29.583-11.183-16.72-26.59a1.249,1.249,0,0,1,.556-.379c20.331-6.759,18.5,19.421,17.73,26.021A1.156,1.156,0,0,1,1293.879,861.175Z" fill="#009ea7" stroke="#004f54" stroke-linecap="round" stroke-linejoin="round" stroke-width="6"/>
  </g>
</svg>
